<svg width="51" height="50" viewBox="0 0 51 50" fill="none" xmlns="http://www.w3.org/2000/svg">
<ellipse cx="25.3247" cy="25" rx="25.3247" ry="25" fill="#757575" fill-opacity="0.1"/>
<path d="M31.8629 24.8761V17.2951C32.1886 17.2835 32.5018 17.1682 32.7556 16.9663C33.0094 16.7644 33.1902 16.4868 33.2709 16.1751C33.361 15.8571 33.34 15.5185 33.2114 15.2137C33.0828 14.909 32.854 14.6558 32.5618 14.4951L25.0151 10.1951C24.7846 10.0672 24.5247 10 24.2604 10C23.996 10 23.7361 10.0672 23.5057 10.1951L15.959 14.4951C15.6668 14.6558 15.438 14.909 15.3094 15.2137C15.1807 15.5185 15.1598 15.8571 15.2499 16.1751C15.3334 16.4966 15.5232 16.7814 15.7893 16.9843C16.0554 17.1872 16.3825 17.2966 16.7187 17.2951H16.8504V24.8651H16.7288C16.3258 24.8651 15.9394 25.0231 15.6544 25.3044C15.3694 25.5857 15.2093 25.9673 15.2093 26.3651C15.2093 26.7629 15.3694 27.1444 15.6544 27.4258C15.9394 27.7071 16.3258 27.8651 16.7288 27.8651H31.7919C32.1726 27.8429 32.5309 27.6802 32.7957 27.4093C33.0605 27.1384 33.2125 26.7792 33.2214 26.4028C33.2304 26.0265 33.0956 25.6606 32.8439 25.3777C32.5923 25.0949 32.2421 24.9159 31.8629 24.8761ZM16.7187 16.2951C16.607 16.2937 16.4989 16.2563 16.4109 16.1885C16.3228 16.1208 16.2596 16.0265 16.2309 15.9199C16.2022 15.8134 16.2095 15.7005 16.2519 15.5986C16.2943 15.4966 16.3693 15.4111 16.4655 15.3551L24.0122 11.0661C24.0869 11.021 24.1728 10.9972 24.2604 10.9972C24.348 10.9972 24.4338 11.021 24.5086 11.0661L32.0604 15.3551C32.1606 15.4084 32.2398 15.4935 32.285 15.5967C32.3302 15.6999 32.3389 15.8151 32.3096 15.9238C32.2803 16.0324 32.2148 16.1282 32.1237 16.1955C32.0325 16.2629 31.921 16.298 31.8071 16.2951H16.7187ZM30.8499 17.2951V24.8651H27.198V17.2951H30.8499ZM26.18 17.2951V24.8651H22.5231V17.2951H26.18ZM21.5101 17.2951V24.8651H17.8634V17.2951H21.5101ZM31.7919 26.8651H16.7288C16.5945 26.8651 16.4657 26.8124 16.3707 26.7186C16.2757 26.6249 16.2223 26.4977 16.2223 26.3651C16.2223 26.2325 16.2757 26.1053 16.3707 26.0115C16.4657 25.9178 16.5945 25.8651 16.7288 25.8651H31.7919C31.9263 25.8651 32.0551 25.9178 32.1501 26.0115C32.2451 26.1053 32.2984 26.2325 32.2984 26.3651C32.2984 26.4977 32.2451 26.6249 32.1501 26.7186C32.0551 26.8124 31.9263 26.8651 31.7919 26.8651Z" fill="#E30A13"/>
<path d="M13.9589 31.92H16.7189C16.9856 31.92 17.2489 31.9533 17.5089 32.02C17.7689 32.08 17.9989 32.1833 18.1989 32.33C18.4056 32.47 18.5723 32.6533 18.6989 32.88C18.8256 33.1067 18.8889 33.38 18.8889 33.7C18.8889 34.1 18.7756 34.43 18.5489 34.69C18.3223 34.95 18.0256 35.1367 17.6589 35.25V35.27C17.8789 35.2967 18.0823 35.36 18.2689 35.46C18.4623 35.5533 18.6256 35.6767 18.7589 35.83C18.8923 35.9767 18.9956 36.15 19.0689 36.35C19.1489 36.5433 19.1889 36.7533 19.1889 36.98C19.1889 37.3667 19.1123 37.69 18.9589 37.95C18.8056 38.2033 18.6023 38.41 18.3489 38.57C18.1023 38.7233 17.8156 38.8333 17.4889 38.9C17.1689 38.9667 16.8423 39 16.5089 39H13.9589V31.92ZM15.2189 34.8H16.3689C16.7889 34.8 17.1023 34.72 17.3089 34.56C17.5223 34.3933 17.6289 34.1767 17.6289 33.91C17.6289 33.6033 17.5189 33.3767 17.2989 33.23C17.0856 33.0767 16.7389 33 16.2589 33H15.2189V34.8ZM15.2189 37.92H16.3789C16.5389 37.92 16.7089 37.91 16.8889 37.89C17.0756 37.87 17.2456 37.8233 17.3989 37.75C17.5523 37.6767 17.6789 37.5733 17.7789 37.44C17.8789 37.3 17.9289 37.1133 17.9289 36.88C17.9289 36.5067 17.8056 36.2467 17.5589 36.1C17.3189 35.9533 16.9423 35.88 16.4289 35.88H15.2189V37.92ZM23.3333 38.34H23.3033C23.13 38.6133 22.91 38.8133 22.6433 38.94C22.3767 39.06 22.0833 39.12 21.7633 39.12C21.5433 39.12 21.3267 39.09 21.1133 39.03C20.9067 38.97 20.72 38.88 20.5533 38.76C20.3933 38.64 20.2633 38.49 20.1633 38.31C20.0633 38.13 20.0133 37.92 20.0133 37.68C20.0133 37.42 20.06 37.2 20.1533 37.02C20.2467 36.8333 20.37 36.68 20.5233 36.56C20.6833 36.4333 20.8667 36.3333 21.0733 36.26C21.28 36.1867 21.4933 36.1333 21.7133 36.1C21.94 36.06 22.1667 36.0367 22.3933 36.03C22.62 36.0167 22.8333 36.01 23.0333 36.01H23.3333V35.88C23.3333 35.58 23.23 35.3567 23.0233 35.21C22.8167 35.0567 22.5533 34.98 22.2333 34.98C21.98 34.98 21.7433 35.0267 21.5233 35.12C21.3033 35.2067 21.1133 35.3267 20.9533 35.48L20.3233 34.85C20.59 34.5767 20.9 34.38 21.2533 34.26C21.6133 34.14 21.9833 34.08 22.3633 34.08C22.7033 34.08 22.99 34.12 23.2233 34.2C23.4567 34.2733 23.65 34.37 23.8033 34.49C23.9567 34.61 24.0733 34.75 24.1533 34.91C24.24 35.0633 24.3 35.22 24.3333 35.38C24.3733 35.54 24.3967 35.6967 24.4033 35.85C24.41 35.9967 24.4133 36.1267 24.4133 36.24V39H23.3333V38.34ZM23.2633 36.85H23.0133C22.8467 36.85 22.66 36.8567 22.4533 36.87C22.2467 36.8833 22.05 36.9167 21.8633 36.97C21.6833 37.0167 21.53 37.09 21.4033 37.19C21.2767 37.2833 21.2133 37.4167 21.2133 37.59C21.2133 37.7033 21.2367 37.8 21.2833 37.88C21.3367 37.9533 21.4033 38.0167 21.4833 38.07C21.5633 38.1233 21.6533 38.1633 21.7533 38.19C21.8533 38.21 21.9533 38.22 22.0533 38.22C22.4667 38.22 22.77 38.1233 22.9633 37.93C23.1633 37.73 23.2633 37.46 23.2633 37.12V36.85ZM25.7044 34.2H26.8444V34.97H26.8644C26.9777 34.73 27.1511 34.5233 27.3844 34.35C27.6177 34.17 27.9344 34.08 28.3344 34.08C28.6544 34.08 28.9244 34.1333 29.1444 34.24C29.3711 34.3467 29.5544 34.4867 29.6944 34.66C29.8344 34.8333 29.9344 35.0333 29.9944 35.26C30.0544 35.4867 30.0844 35.7233 30.0844 35.97V39H28.8844V36.57C28.8844 36.4367 28.8777 36.29 28.8644 36.13C28.8511 35.9633 28.8144 35.81 28.7544 35.67C28.7011 35.5233 28.6144 35.4033 28.4944 35.31C28.3744 35.21 28.2111 35.16 28.0044 35.16C27.8044 35.16 27.6344 35.1933 27.4944 35.26C27.3611 35.3267 27.2477 35.4167 27.1544 35.53C27.0677 35.6433 27.0044 35.7733 26.9644 35.92C26.9244 36.0667 26.9044 36.22 26.9044 36.38V39H25.7044V34.2ZM31.4466 31.44H32.6466V36.19L34.4966 34.2H36.0366L33.9766 36.38L36.1666 39H34.5766L32.6666 36.55H32.6466V39H31.4466V31.44Z" fill="#E30A13"/>
</svg>
