<?xml version="1.0" encoding="UTF-8"?>
<svg version="1.1" xmlns="http://www.w3.org/2000/svg" width="354" height="336">
<path d="M0 0 C116.82 0 233.64 0 354 0 C354 110.88 354 221.76 354 336 C237.18 336 120.36 336 0 336 C0 225.12 0 114.24 0 0 Z " fill="#FEFDFD" transform="translate(0,0)"/>
<path d="M0 0 C2.95849393 1.52884696 5.06432204 3.28566405 7 6 C7.83141384 9.02555926 8.0486849 11.87025669 8 15 C8.7734375 15.27972656 9.546875 15.55945313 10.34375 15.84765625 C22.3481127 20.46814734 28.949875 26.62191346 35 38 C38.72673865 46.47730661 39.1305508 55.08809921 39 64.21484375 C38.99884206 65.97070323 39.000222 67.72656588 39.00390625 69.48242188 C39.00832367 72.21312391 38.99994584 74.94038736 38.94873047 77.6706543 C38.42079386 88.35959651 38.42079386 88.35959651 42.03515625 98.04736328 C44.40851242 100.39723072 44.40851242 100.39723072 46.96875 102.15063477 C49 104 49 104 50.09375 106.91381836 C50 110 50 110 48.08216858 112.65344238 C43.85382171 115.87262372 40.77008413 115.69969334 35.59155273 115.63110352 C34.65115143 115.63825882 33.71075012 115.64541412 32.74185181 115.65278625 C29.63860249 115.66967211 26.53679786 115.65027233 23.43359375 115.62890625 C21.27555726 115.62973489 19.11752082 115.63219406 16.95948792 115.63621521 C12.43935116 115.63907305 7.91970996 115.6243716 3.3996582 115.59692383 C-2.39679095 115.56282108 -8.19235511 115.5688664 -13.98884678 115.5875864 C-18.44381601 115.59814935 -22.89857893 115.58922525 -27.35352898 115.57420158 C-29.49098028 115.56901553 -31.62845308 115.56950668 -33.76590157 115.57574654 C-36.75138908 115.5811909 -39.73560464 115.56084881 -42.72094727 115.53344727 C-43.60573257 115.53997314 -44.49051788 115.54649902 -45.40211487 115.55322266 C-51.36577668 115.46004966 -51.36577668 115.46004966 -54.54502869 113.15390015 C-56.55623827 110.17655992 -56.65408962 108.51773283 -56 105 C-53.84765625 102.96264648 -53.84765625 102.96264648 -51.0625 100.93359375 C-46.62051336 96.74769485 -45.35372307 93.96436975 -44.93945312 87.88858032 C-44.82788054 83.27369107 -44.88350643 78.6766754 -45 74.0625 C-45.03774023 70.34508754 -45.05052375 66.62772985 -45.0625 62.91015625 C-45.06922226 62.02739517 -45.07594452 61.14463409 -45.08287048 60.23512268 C-45.12119264 45.59440678 -41.4915704 34.94529542 -31.3359375 24.19921875 C-27.19177094 20.29760375 -23.21241906 17.49164868 -17.625 16.25 C-16.325625 15.63125 -16.325625 15.63125 -15 15 C-14.22714546 12.76680984 -13.86030682 10.59439322 -13.4921875 8.26171875 C-12.80306058 5.09501645 -11.26154069 3.26154069 -9 1 C-5.79745853 -0.60127074 -3.54685436 -0.40701607 0 0 Z " fill="#E30B14" transform="translate(180,108)"/>
<path d="M0 0 C9.24 0 18.48 0 28 0 C26.9728108 6.16313519 26.24566181 7.75433819 22 12 C18.0275068 14.36202298 13.51042404 15.07391049 9 14 C5.7764837 12.11496798 3.16069451 10.0551466 1 7 C0.67 4.69 0.34 2.38 0 0 Z " fill="#E31019" transform="translate(163,230)"/>
</svg>
