<?xml version="1.0" encoding="UTF-8"?>
<svg version="1.1" xmlns="http://www.w3.org/2000/svg" width="172" height="165">
<path d="M0 0 C56.76 0 113.52 0 172 0 C172 54.45 172 108.9 172 165 C115.24 165 58.48 165 0 165 C0 110.55 0 56.1 0 0 Z " fill="#FEFDFD" transform="translate(0,0)"/>
<path d="M0 0 C1.09504852 -0.01354271 1.09504852 -0.01354271 2.21221924 -0.02735901 C3.75537025 -0.04184033 5.29858236 -0.05074299 6.84179688 -0.05444336 C9.18206744 -0.06629957 11.51966371 -0.11546326 13.859375 -0.16601562 C27.82514599 -0.32401215 27.82514599 -0.32401215 33.01367188 3.85693359 C38.39845141 9.52118099 38.8974897 13.88459696 38.8046875 21.51757812 C38.77117187 22.60361328 38.73765625 23.68964844 38.703125 24.80859375 C38.68507812 25.92169922 38.66703125 27.03480469 38.6484375 28.18164062 C38.60155819 30.91236021 38.53595319 33.64126761 38.453125 36.37109375 C39.04738281 36.33967285 39.64164063 36.30825195 40.25390625 36.27587891 C42.98658063 36.14997614 45.71864376 36.07276145 48.453125 35.99609375 C49.38769531 35.94582031 50.32226562 35.89554688 51.28515625 35.84375 C57.4314931 35.71480587 61.18718712 36.58876204 65.86108398 40.69628906 C71.34587314 46.46620987 70.94115148 52.70386859 70.890625 60.24609375 C70.91060547 61.29667969 70.93058594 62.34726563 70.95117188 63.4296875 C70.94711007 69.92045292 70.26951069 74.99219315 66.453125 80.37109375 C61.27069784 85.29439955 57.10883694 86.68402304 50.0546875 86.70703125 C48.98581802 86.71701645 48.98581802 86.71701645 47.89535522 86.72720337 C46.39087496 86.73730663 44.88635009 86.74202111 43.38183594 86.74169922 C41.09233893 86.74606664 38.80478048 86.78238974 36.515625 86.8203125 C35.04948571 86.82618259 33.58333733 86.8301507 32.1171875 86.83203125 C31.43886871 86.84640228 30.76054993 86.86077332 30.06167603 86.87557983 C24.34997833 86.82128596 20.87175183 84.71927513 16.84375 80.80859375 C13.14213405 76.14354352 11.18796744 73.17464423 11.2578125 67.16796875 C11.26425781 66.18828125 11.27070312 65.20859375 11.27734375 64.19921875 C11.29410156 63.1834375 11.31085937 62.16765625 11.328125 61.12109375 C11.33714844 60.08984375 11.34617187 59.05859375 11.35546875 57.99609375 C11.37900489 55.45419088 11.41188477 52.91276095 11.453125 50.37109375 C10.84839355 50.39727783 10.24366211 50.42346191 9.62060547 50.45043945 C6.85671403 50.55495191 4.093239 50.61958648 1.328125 50.68359375 C0.37679687 50.72548828 -0.57453125 50.76738281 -1.5546875 50.81054688 C-9.51664947 50.94877538 -9.51664947 50.94877538 -12.9765625 48.2890625 C-19.71567407 40.63842976 -20.15815479 35.34858087 -19.984375 25.30859375 C-19.99146484 24.15037109 -19.99855469 22.99214844 -20.00585938 21.79882812 C-19.92688044 11.22172656 -19.92688044 11.22172656 -16.546875 6.37109375 C-11.22461413 1.45823756 -7.16665182 0.05506366 0 0 Z " fill="#E4151E" transform="translate(50.546875,38.62890625)"/>
<path d="M0 0 C0.72957413 -0.00857025 1.45914825 -0.0171405 2.21083069 -0.02597046 C3.74622466 -0.03740083 5.28172688 -0.038499 6.81713867 -0.02978516 C9.15147639 -0.02346102 11.48074095 -0.07043038 13.81445312 -0.12109375 C26.26225676 -0.22631045 26.26225676 -0.22631045 30.7265625 3.453125 C35.43944619 8.48051465 34.47799243 14.95455118 34.53515625 21.4140625 C34.56416016 22.49494141 34.59316406 23.57582031 34.62304688 24.68945312 C34.67173243 30.790128 34.62316328 34.9461709 30.22265625 39.6015625 C26.09770129 42.70122616 22.48316201 43.06887534 17.47265625 43.0703125 C16.36905762 43.08173279 16.36905762 43.08173279 15.24316406 43.09338379 C13.69339377 43.10415065 12.14355112 43.10705179 10.59375 43.10253906 C8.22923564 43.10156521 5.8679538 43.14324786 3.50390625 43.1875 C1.99349631 43.19270665 0.48307516 43.1953952 -1.02734375 43.1953125 C-2.08066895 43.2199054 -2.08066895 43.2199054 -3.15527344 43.24499512 C-7.02445884 43.1907871 -8.62842437 42.7244849 -11.64990234 40.23046875 C-16.74149503 33.93872328 -17.25073293 28.93990031 -17.15234375 21.1015625 C-17.16394531 20.17730469 -17.17554688 19.25304687 -17.1875 18.30078125 C-17.16491393 13.03822598 -16.93304527 9.02220767 -13.77734375 4.6015625 C-9.26039049 0.95227021 -5.68076318 -0.01499024 0 0 Z " fill="#FEFAFA" transform="translate(50.77734375,42.3984375)"/>
<path d="M0 0 C2.48291016 0.10205078 2.48291016 0.10205078 5 1 C6.31787109 2.90185547 6.31787109 2.90185547 7.2734375 5.3671875 C7.62277344 6.25277344 7.97210938 7.13835938 8.33203125 8.05078125 C8.67621094 8.98277344 9.02039063 9.91476563 9.375 10.875 C9.74238281 11.79925781 10.10976562 12.72351563 10.48828125 13.67578125 C13.14174107 20.57477679 13.14174107 20.57477679 12 24 C10.0625 23.375 10.0625 23.375 8 22 C7.25 18.875 7.25 18.875 7 16 C3.37 16 -0.26 16 -4 16 C-4.33 17.65 -4.66 19.3 -5 21 C-5.33 21.99 -5.66 22.98 -6 24 C-6.99 24 -7.98 24 -9 24 C-8.43646577 18.63598902 -7.12448259 14.15702638 -5.0625 9.1875 C-4.79759766 8.52041016 -4.53269531 7.85332031 -4.25976562 7.16601562 C-3.1018022 4.31851748 -2.19493035 2.19493035 0 0 Z " fill="#E6252D" transform="translate(58,52)"/>
<path d="M0 0 C0.99 0.33 1.98 0.66 3 1 C3 3.64 3 6.28 3 9 C5.97 9 8.94 9 12 9 C12 8.01 12 7.02 12 6 C14.86724686 6.57344937 15.8614515 6.8614515 18 9 C17.75558954 11.52557477 17.17639341 12.7852602 15.5625 14.75 C14 16 14 16 12 16 C12 14.68 12 13.36 12 12 C11.31292969 12.03480469 10.62585937 12.06960937 9.91796875 12.10546875 C9.01691406 12.13253906 8.11585937 12.15960938 7.1875 12.1875 C6.29417969 12.22230469 5.40085937 12.25710937 4.48046875 12.29296875 C2 12 2 12 0.19140625 10.74609375 C-1.94571108 7.61399064 -1.23849491 4.69667117 -1 1 C-0.67 0.67 -0.34 0.34 0 0 Z " fill="#E52029" transform="translate(40,97)"/>
<path d="M0 0 C0 1.32 0 2.64 0 4 C0.69867188 3.97679687 1.39734375 3.95359375 2.1171875 3.9296875 C3.02726562 3.91164062 3.93734375 3.89359375 4.875 3.875 C6.23238281 3.84019531 6.23238281 3.84019531 7.6171875 3.8046875 C10 4 10 4 12 6 C12.1953125 8.1640625 12.1953125 8.1640625 12.125 10.625 C12.10695313 11.44226562 12.08890625 12.25953125 12.0703125 13.1015625 C12.04710938 13.72804688 12.02390625 14.35453125 12 15 C11.01 15.33 10.02 15.66 9 16 C8.67 13.36 8.34 10.72 8 8 C5.36 7.67 2.72 7.34 0 7 C0 7.99 0 8.98 0 10 C-2.96175123 9.38722388 -4.38058783 8.74627478 -7 7 C-6.22006468 2.47637516 -4.81844319 0 0 0 Z " fill="#E51F28" transform="translate(101,49)"/>
<path d="M0 0 C0.99 0.33 1.98 0.66 3 1 C3 2.98 3 4.96 3 7 C-2.8365211 10.11281125 -8.40540119 11.03009047 -15 10 C-17.31640625 8.64453125 -17.31640625 8.64453125 -19 7 C-19.25 4.3125 -19.25 4.3125 -19 2 C-18.34 1.67 -17.68 1.34 -17 1 C-16.67 2.65 -16.34 4.3 -16 6 C-13.05173237 6.98275588 -11.07347496 7.13414725 -8 7.125 C-6.700625 7.12886719 -6.700625 7.12886719 -5.375 7.1328125 C-2.84988305 7.09594205 -2.84988305 7.09594205 0 6 C0 4.02 0 2.04 0 0 Z " fill="#F9CBCD" transform="translate(94,98)"/>
<path d="M0 0 C0.99 0.33 1.98 0.66 3 1 C2.34 1 1.68 1 1 1 C1 1.66 1 2.32 1 3 C1.99 3.33 2.98 3.66 4 4 C3.67 4.66 3.34 5.32 3 6 C2.92818179 8.71760108 2.90700494 11.40859388 2.9375 14.125 C2.94201172 14.87910156 2.94652344 15.63320312 2.95117188 16.41015625 C2.96296501 18.27347127 2.98090058 20.13674555 3 22 C2.34 22 1.68 22 1 22 C0.16788724 16.96145894 -0.1078534 12.1874338 -0.0625 7.0625 C-0.05798828 6.37865234 -0.05347656 5.69480469 -0.04882812 4.99023438 C-0.0371956 3.32678396 -0.01926694 1.6633795 0 0 Z " fill="#F5A9AC" transform="translate(103,85)"/>
<path d="M0 0 C2.50037734 2.17424117 3.43628586 3.73045798 4 7 C2.02 7 0.04 7 -2 7 C-1.125 1.125 -1.125 1.125 0 0 Z " fill="#FADBDD" transform="translate(59,57)"/>
</svg>
