<?xml version="1.0" encoding="UTF-8"?>
<svg version="1.1" xmlns="http://www.w3.org/2000/svg" width="225" height="225">
<path d="M0 0 C74.25 0 148.5 0 225 0 C225 74.25 225 148.5 225 225 C150.75 225 76.5 225 0 225 C0 150.75 0 76.5 0 0 Z " fill="#DA6C1B" transform="translate(0,0)"/>
<path d="M0 0 C33 0 66 0 100 0 C96.40452932 1.79773534 94.6405618 2.29646376 90.8125 2.75 C71.18931719 5.85342307 54.12369306 15.5245049 39 28 C38.27425781 28.56074219 37.54851563 29.12148438 36.80078125 29.69921875 C22.53817527 41.18452215 13.65443228 58.36391929 7 75 C73.33 75 139.66 75 208 75 C208 75.66 208 76.32 208 77 C210.63904371 78.41377341 213.07120629 79.37240135 216 80 C216.33 82.64 216.66 85.28 217 88 C217.66 88 218.32 88 219 88 C218.835 89.09699219 218.67 90.19398437 218.5 91.32421875 C217.85312798 96.49350061 217.92720825 101.61152982 218 106.8125 C218.0255054 108.67311891 218.04653953 110.53380599 218.0625 112.39453125 C218.07410156 113.20768799 218.08570313 114.02084473 218.09765625 114.85864258 C218 117 218 117 217 120 C216.9314505 121.89470816 216.91519628 123.7916834 216.9375 125.6875 C216.94652344 126.68136719 216.95554688 127.67523438 216.96484375 128.69921875 C216.98224609 129.83810547 216.98224609 129.83810547 217 131 C216.01 131.33 215.02 131.66 214 132 C214.309375 132.598125 214.61875 133.19625 214.9375 133.8125 C216 136 216 136 217 139 C216.34 139.33 215.68 139.66 215 140 C214.67 140.99 214.34 141.98 214 143 C213.34 143 212.68 143 212 143 C211.34 144.65 210.68 146.3 210 148 C209.34 148 208.68 148 208 148 C208 148.66 208 149.32 208 150 C141.67 150 75.34 150 7 150 C13.03651114 163.79773975 18.78922014 174.55630381 28 186 C28.639375 186.86625 29.27875 187.7325 29.9375 188.625 C47.98878867 209.41133241 73.77302068 219.15371034 100 224 C100 224.33 100 224.66 100 225 C67 225 34 225 0 225 C0 150.75 0 76.5 0 0 Z " fill="#FDFDFD" transform="translate(0,0)"/>
<path d="M0 0 C69.63 0 139.26 0 211 0 C208.97986861 6.73377129 207.29636029 12.04557157 203.875 17.9375 C203.28187012 18.96870972 203.28187012 18.96870972 202.67675781 20.02075195 C199.02717571 26.21071525 194.8719622 31.70935354 190 37 C189.52046875 37.52190918 189.0409375 38.04381836 188.546875 38.58154297 C172.88595057 55.43384454 154.19088641 66.1683232 132 72 C130.84628906 72.3196875 129.69257813 72.639375 128.50390625 72.96875 C100.12027202 79.80360507 69.96875669 73.05436225 45.29296875 58.14453125 C40.18065321 54.8151585 35.59445505 51.0004093 31 47 C30.36707031 46.49984375 29.73414062 45.9996875 29.08203125 45.484375 C15.99500714 35.06267159 3.29460954 16.47304772 0 0 Z " fill="#025C2C" transform="translate(7,150)"/>
<path d="M0 0 C0.66 0.33 1.32 0.66 2 1 C0.68 4.3 -0.64 7.6 -2 11 C64.33 11 130.66 11 199 11 C199 11.66 199 12.32 199 13 C201.63904371 14.41377341 204.07120629 15.37240135 207 16 C207.33 18.64 207.66 21.28 208 24 C208.66 24 209.32 24 210 24 C209.835 25.09699219 209.67 26.19398437 209.5 27.32421875 C208.85312798 32.49350061 208.92720825 37.61152982 209 42.8125 C209.0255054 44.67311891 209.04653953 46.53380599 209.0625 48.39453125 C209.07410156 49.20768799 209.08570313 50.02084473 209.09765625 50.85864258 C209 53 209 53 208 56 C207.9314505 57.89470816 207.91519628 59.7916834 207.9375 61.6875 C207.94652344 62.68136719 207.95554688 63.67523438 207.96484375 64.69921875 C207.97644531 65.45847656 207.98804688 66.21773438 208 67 C207.01 67.33 206.02 67.66 205 68 C205.309375 68.598125 205.61875 69.19625 205.9375 69.8125 C207 72 207 72 208 75 C207.01 75.495 207.01 75.495 206 76 C205.67 76.99 205.34 77.98 205 79 C204.34 79 203.68 79 203 79 C202.34 80.65 201.68 82.3 201 84 C200.34 84 199.68 84 199 84 C199 84.66 199 85.32 199 86 C182.20603352 86.072853 165.41387711 85.91118276 148.62127686 85.71246719 C144.35399661 85.66205128 140.0867513 85.61559019 135.81933594 85.578125 C131.63349931 85.54130498 127.44786792 85.49502629 123.26220703 85.44193649 C121.68021162 85.42346448 120.09817346 85.40833022 118.51611328 85.39665604 C116.32042051 85.37980896 114.12520512 85.35080162 111.9296875 85.31884766 C110.06159424 85.29886215 110.06159424 85.29886215 108.15576172 85.2784729 C105.13295835 85.0117326 103.56373618 84.51321723 101 83 C98.92271029 82.3954977 96.83859165 81.8142167 94.75 81.25 C88.79109272 79.4416418 84.50725041 77.28034078 80 73 C79.44699219 72.47535156 78.89398438 71.95070313 78.32421875 71.41015625 C71.44132919 64.15152582 69.32307438 55.88469108 69.38891602 46.04541016 C69.84259597 36.61733886 74.27891097 28.72200466 81.19140625 22.39453125 C83.96504945 20.2558906 86.92087225 18.66272899 90 17 C90.33 16.34 90.66 15.68 91 15 C92.32 15 93.64 15 95 15 C95 14.34 95 13.68 95 13 C65.96 12.67 36.92 12.34 7 12 C7 12.66 7 13.32 7 14 C3.7 14 0.4 14 -3 14 C-3.08082094 12.04233719 -3.13910778 10.08373272 -3.1875 8.125 C-3.22230469 7.03445312 -3.25710937 5.94390625 -3.29296875 4.8203125 C-3.19628906 3.88960938 -3.09960938 2.95890625 -3 2 C-2.01 1.34 -1.02 0.68 0 0 Z " fill="#EDEDED" transform="translate(9,64)"/>
<path d="M0 0 C8.13138157 5.71174299 14.13094259 13.05001789 16 23 C16.91011422 34.8464048 15.53278992 43.10959848 7.875 52.3125 C2.36933989 58.10985071 -4.84352352 62.58612491 -12.96875 63.23828125 C-23.92465536 63.46854917 -31.83367111 61.99277407 -40.375 54.875 C-47.65719062 47.88224462 -51.23038568 39.59642835 -51.4375 29.5625 C-51.51779004 19.84080565 -48.30596011 12.31921595 -41.75 5.0625 C-30.35422378 -5.3180623 -13.53276857 -7.43801058 0 0 Z " fill="#E3E3E9" transform="translate(130,83)"/>
<path d="M0 0 C0.33 0 0.66 0 1 0 C1 33.33 1 66.66 1 101 C-32.33 101 -65.66 101 -100 101 C-100 100.67 -100 100.34 -100 100 C-99.1028125 99.84144531 -98.205625 99.68289062 -97.28125 99.51953125 C-66.16992093 93.70222695 -39.00832244 79.76366417 -20.125 53.625 C-9.28267702 37.01891424 -3.15552119 19.52318397 0 0 Z " fill="#FCFDFC" transform="translate(224,124)"/>
<path d="M0 0 C34.65 0 69.3 0 105 0 C105 33 105 66 105 100 C104.67 100 104.34 100 104 100 C103.86464844 99.06542969 103.72929687 98.13085938 103.58984375 97.16796875 C100.06041783 74.87443339 90.91391608 54.92783905 76 38 C75.22140625 37.0203125 74.4428125 36.040625 73.640625 35.03125 C70.92878879 31.77185146 67.85183492 29.20380334 64.5 26.625 C63.57598389 25.91283325 63.57598389 25.91283325 62.63330078 25.1862793 C43.87292157 10.93944074 23.48542331 3.06012485 0 1 C0 0.67 0 0.34 0 0 Z " fill="#FDFEFD" transform="translate(120,0)"/>
<path d="M0 0 C-0.33 0.66 -0.66 1.32 -1 2 C0.98 2 2.96 2 5 2 C5 2.66 5 3.32 5 4 C5.5775 4.12375 6.155 4.2475 6.75 4.375 C9 5 9 5 11 6.0625 C13.23550185 7.28295592 13.23550185 7.28295592 17 7 C17 7.66 17 8.32 17 9 C17.99 9.33 18.98 9.66 20 10 C15.94075917 10.98405838 12.16776041 11.07718075 8 11 C4.79604584 11 2.90600261 11.74335022 0 13 C0 12.34 0 11.68 0 11 C-0.99 10.67 -1.98 10.34 -3 10 C-2.34 9.34 -1.68 8.68 -1 8 C-2.65 7.34 -4.3 6.68 -6 6 C-6 4.68 -6 3.36 -6 2 C-7.43931117 2.45261358 -8.87638999 2.91232979 -10.3125 3.375 C-11.51326172 3.75785156 -11.51326172 3.75785156 -12.73828125 4.1484375 C-15.22724528 4.98831811 -15.22724528 4.98831811 -18 7 C-18 5.35 -18 3.7 -18 2 C-50.495991 2.69140406 -80.05366912 10.75227202 -103.625 34.25 C-104.1094458 34.73283447 -104.5938916 35.21566895 -105.09301758 35.71313477 C-107.42128534 38.11535492 -109.42138097 40.54556537 -111.2109375 43.359375 C-111.80132812 44.23078125 -112.39171875 45.1021875 -113 46 C-113.66 46 -114.32 46 -115 46 C-116.46652017 48.88019276 -117.82047874 51.79308515 -119.125 54.75 C-119.47820312 55.54921875 -119.83140625 56.3484375 -120.1953125 57.171875 C-120.46085937 57.77515625 -120.72640625 58.3784375 -121 59 C-121.66 59 -122.32 59 -123 59 C-123 59.66 -123 60.32 -123 61 C-123.66 61 -124.32 61 -125 61 C-125 62.32 -125 63.64 -125 65 C-124.01 65 -123.02 65 -122 65 C-122 65.66 -122 66.32 -122 67 C-121.34 67.33 -120.68 67.66 -120 68 C-124.62 68 -129.24 68 -134 68 C-134 62.375 -134 62.375 -132 59 C-131.34 59 -130.68 59 -130 59 C-129.7525 57.63875 -129.7525 57.63875 -129.5 56.25 C-126.63946872 46.34816097 -118.39128024 36.93124205 -111 30 C-110.34 30 -109.68 30 -109 30 C-108.7421875 29.40832031 -108.484375 28.81664062 -108.21875 28.20703125 C-102.50697581 17.86359402 -87.08987267 9.87824167 -76.33203125 6.05078125 C-73.68859541 5.10784209 -73.68859541 5.10784209 -72 2 C-69.52802465 1.00590013 -67.17084732 0.18350473 -64.625 -0.5625 C-63.89893555 -0.77865967 -63.17287109 -0.99481934 -62.42480469 -1.2175293 C-44.51157307 -6.41094415 -17.12901709 -9.28779758 0 0 Z M-6 0 C-5 2 -5 2 -5 2 Z " fill="#D85C05" transform="translate(144,5)"/>
<path d="M0 0 C5.74154842 0.54537135 10.38456938 2.13140877 15.625 4.5 C16.41479248 4.85602295 17.20458496 5.2120459 18.01831055 5.57885742 C25.30684256 8.97071154 31.6427583 13.0527929 38 18 C38.80945068 18.61633301 38.80945068 18.61633301 39.63525391 19.24511719 C61.94906624 36.3713443 77.63036809 63.40285131 81.6796875 91.26953125 C83.25346755 109.59831114 82.18255381 127.56631222 76 145 C72.37 145 68.74 145 65 145 C65 144.34 65 143.68 65 143 C65.66 143 66.32 143 67 143 C67.66 141.35 68.32 139.7 69 138 C69.66 138 70.32 138 71 138 C71.33 136.68 71.66 135.36 72 134 C72.66 134 73.32 134 74 134 C73.34 133.34 72.68 132.68 72 132 C71.67 132 71.34 132 71 132 C71 130.35 71 128.7 71 127 C71.66 126.67 72.32 126.34 73 126 C72.98839844 125.27554688 72.97679687 124.55109375 72.96484375 123.8046875 C72.95582031 122.83789062 72.94679688 121.87109375 72.9375 120.875 C72.92589844 119.92367187 72.91429687 118.97234375 72.90234375 117.9921875 C73 115 73 115 73.5078125 112.22265625 C74.27752973 107.18284103 74.00488354 102.16187117 73.87304688 97.07617188 C73.80362842 91.95962322 74.33638606 87.84731435 76 83 C75.34 83 74.68 83 74 83 C73.67 83.66 73.34 84.32 73 85 C72.67 81.7 72.34 78.4 72 75 C70.515 75.495 70.515 75.495 69 76 C67.62437146 74.71034824 66.29233607 73.37310707 65 72 C65 71.34 65 70.68 65 70 C61.7 69.67 58.4 69.34 55 69 C55.99 67.515 55.99 67.515 57 66 C56.01 65.505 56.01 65.505 55 65 C55 64.34 55 63.68 55 63 C55.78375 62.7525 56.5675 62.505 57.375 62.25 C60.41468063 60.80253303 60.82967431 60.06085181 62 57 C62.37125 56.29875 62.7425 55.5975 63.125 54.875 C64.14096182 53.04279198 64.14096182 53.04279198 64 51 C61.69 51 59.38 51 57 51 C57.06510417 48.98177083 57.13020833 46.96354167 57.1953125 44.9453125 C57.18331689 42.76136355 57.18331689 42.76136355 55 41 C54.505 41.99 54.505 41.99 54 43 C52.35 43 50.7 43 49 43 C49.33 40.69 49.66 38.38 50 36 C48.35 35.34 46.7 34.68 45 34 C45 33.34 45 32.68 45 32 C43.68 31.67 42.36 31.34 41 31 C41 29.68 41 28.36 41 27 C37.94736336 26.01879536 36.05263664 26.01879536 33 27 C32.505 23.04 32.505 23.04 32 19 C29.69 18.67 27.38 18.34 25 18 C25 16.02 25 14.04 25 12 C23.68 11.67 22.36 11.34 21 11 C21 10.34 21 9.68 21 9 C20.01 9 19.02 9 18 9 C18 8.34 18 7.68 18 7 C17.071875 7.226875 16.14375 7.45375 15.1875 7.6875 C12 8 12 8 10.3125 6.625 C9.879375 6.08875 9.44625 5.5525 9 5 C8.01 4.67 7.02 4.34 6 4 C6 3.34 6 2.68 6 2 C4.02 2 2.04 2 0 2 C0 1.34 0 0.68 0 0 Z " fill="#894318" transform="translate(143,5)"/>
<path d="M0 0 C8.13138157 5.71174299 14.13094259 13.05001789 16 23 C16.91011422 34.8464048 15.53278992 43.10959848 7.875 52.3125 C2.36933989 58.10985071 -4.84352352 62.58612491 -12.96875 63.23828125 C-23.92465536 63.46854917 -31.83367111 61.99277407 -40.375 54.875 C-47.65719062 47.88224462 -51.23038568 39.59642835 -51.4375 29.5625 C-51.51779004 19.84080565 -48.30596011 12.31921595 -41.75 5.0625 C-30.35422378 -5.3180623 -13.53276857 -7.43801058 0 0 Z M-34 5 C-34 5.66 -34 6.32 -34 7 C-34.61875 7.12375 -35.2375 7.2475 -35.875 7.375 C-38.19120832 7.87197356 -38.19120832 7.87197356 -40 10 C-40 10.99 -40 11.98 -40 13 C-40.66 13 -41.32 13 -42 13 C-45.66280394 19.26221319 -47.0613572 24.7107651 -47 32 C-46.67 32.66 -46.34 33.32 -46 34 C-45.87625 34.9075 -45.7525 35.815 -45.625 36.75 C-44.95111241 40.25421547 -43.70651182 42.88376102 -42 46 C-41.34 46 -40.68 46 -40 46 C-39.87625 46.61875 -39.7525 47.2375 -39.625 47.875 C-39.12802644 50.19120832 -39.12802644 50.19120832 -37 52 C-36.01 52 -35.02 52 -34 52 C-34 52.66 -34 53.32 -34 54 C-27.73778681 57.66280394 -22.2892349 59.0613572 -15 59 C-14.34 58.67 -13.68 58.34 -13 58 C-12.278125 57.87625 -11.55625 57.7525 -10.8125 57.625 C-7.28135055 56.84030012 -4.29635396 55.486591 -1 54 C-1 53.34 -1 52.68 -1 52 C-0.38125 51.938125 0.2375 51.87625 0.875 51.8125 C3.27761141 51.171081 3.27761141 51.171081 4.25 48.4375 C4.4975 47.633125 4.745 46.82875 5 46 C5.66 46 6.32 46 7 46 C10.22352708 39.79283623 12.0667041 34.05729357 12 27 C11.505 26.01 11.505 26.01 11 25 C10.87625 24.0925 10.7525 23.185 10.625 22.25 C9.95111241 18.74578453 8.70651182 16.11623898 7 13 C6.34 13 5.68 13 5 13 C5 12.01 5 11.02 5 10 C2.38148757 7.57286241 2.38148757 7.57286241 -1 7 C-1 6.34 -1 5.68 -1 5 C-7.11097743 1.53988034 -7.11097743 1.53988034 -14 1 C-14.495 0.505 -14.495 0.505 -15 0 C-21.82276206 -0.6202511 -28.11099548 1.76104752 -34 5 Z " fill="#0A083E" transform="translate(130,83)"/>
<path d="M0 0 C0.33 0 0.66 0 1 0 C1.33 2.64 1.66 5.28 2 8 C2.99 5.69 3.98 3.38 5 1 C6.2380014 4.57644848 5.74926071 7.33694766 5 11 C6.32 9.02 7.64 7.04 9 5 C10.24546405 7.49092811 9.7767578 8.41080733 9 11 C10.32 10.34 11.64 9.68 13 9 C13 11 13 11 11 13.125 C10.34 13.74375 9.68 14.3625 9 15 C9.94875 14.484375 10.8975 13.96875 11.875 13.4375 C12.90625 12.963125 13.9375 12.48875 15 12 C15.66 12.33 16.32 12.66 17 13 C17 13.66 17 14.32 17 15 C19.31 15 21.62 15 24 15 C20.71536341 17.18975773 17.79303725 17.99806563 14 19 C15.58272601 20.58272601 17.38034003 20.34735747 19.5625 20.5625 C20.38878906 20.64628906 21.21507812 20.73007813 22.06640625 20.81640625 C23.02353516 20.90728516 23.02353516 20.90728516 24 21 C24 21.33 24 21.66 24 22 C17.565 22.495 17.565 22.495 11 23 C11.99 23.66 12.98 24.32 14 25 C13.01 25.33 12.02 25.66 11 26 C12.98 27.32 14.96 28.64 17 30 C16.01 30.495 16.01 30.495 15 31 C12.5249829 29.88568235 10.32116581 28.41849022 8 27 C8.83359371 27.83359371 9.694926 28.63933192 10.5625 29.4375 C12 31 12 31 12 33 C12.66 33 13.32 33 14 33 C13.505 33.99 13.505 33.99 13 35 C11.68 34.67 10.36 34.34 9 34 C8.67 34.66 8.34 35.32 8 36 C7.01 35.01 6.02 34.02 5 33 C5 34.65 5 36.3 5 38 C4.01 36.68 3.02 35.36 2 34 C1.67 37.96 1.34 41.92 1 46 C0.67 46 0.34 46 0 46 C-0.33 42.37 -0.66 38.74 -1 35 C-1.99 35.99 -2.98 36.98 -4 38 C-4 36.02 -4 34.04 -4 32 C-4.99 33.98 -5.98 35.96 -7 38 C-7.66 38 -8.32 38 -9 38 C-8.34 35.69 -7.68 33.38 -7 31 C-8.98 31.99 -8.98 31.99 -11 33 C-10.34 31.68 -9.68 30.36 -9 29 C-11.31 29.66 -13.62 30.32 -16 31 C-14.33333333 29.33333333 -12.66666667 27.66666667 -11 26 C-12.2375 26.350625 -13.475 26.70125 -14.75 27.0625 C-18.25405292 28.05531499 -19.20460255 27.94884936 -23 27 C-18.71 25.68 -14.42 24.36 -10 23 C-13.63 22.67 -17.26 22.34 -21 22 C-21 21.67 -21 21.34 -21 21 C-18.03 20.67 -15.06 20.34 -12 20 C-14.31 19.01 -16.62 18.02 -19 17 C-15.52176885 15.84058962 -13.54104422 16.29179116 -10 17 C-11.32 15.68 -12.64 14.36 -14 13 C-12.35 13.33 -10.7 13.66 -9 14 C-9.66 12.68 -10.32 11.36 -11 10 C-9.68 10.33 -8.36 10.66 -7 11 C-7.33 9.68 -7.66 8.36 -8 7 C-6.68 8.32 -5.36 9.64 -4 11 C-4.33 8.03 -4.66 5.06 -5 2 C-3 4 -3 4 -2 8 C-1.34 5.36 -0.68 2.72 0 0 Z " fill="#535165" transform="translate(112,91)"/>
<path d="M0 0 C0.01356479 1.43617163 0.02322726 2.87238047 0.03125 4.30859375 C0.03705078 5.10837646 0.04285156 5.90815918 0.04882812 6.73217773 C-0.00534532 9.24826355 -0.37139221 11.56414481 -1 14 C-1.99 13.505 -1.99 13.505 -3 13 C-3 10.69 -3 8.38 -3 6 C-5.26601865 4.70957237 -5.26601865 4.70957237 -8 4 C-9.33435687 4.99863382 -10.66753147 5.99884797 -12 7 C-14.62109375 7.765625 -14.62109375 7.765625 -17.4375 8.25 C-18.82775391 8.50523438 -18.82775391 8.50523438 -20.24609375 8.765625 C-23.0832161 9.00708222 -25.22997741 8.55946269 -28 8 C-29.19625 8.350625 -30.3925 8.70125 -31.625 9.0625 C-32.73875 9.371875 -33.8525 9.68125 -35 10 C-35.99 9.34 -36.98 8.68 -38 8 C-38.99 8.66 -39.98 9.32 -41 10 C-42.65549531 10.38499891 -44.3222433 10.72793135 -46 11 C-45.505 11.495 -45.505 11.495 -45 12 C-43.98344693 17.25219085 -43.98344693 17.25219085 -44 20 C-45.4375 22 -45.4375 22 -47 23 C-48.051875 22.505 -49.10375 22.01 -50.1875 21.5 C-53.25452609 20.17220212 -55.62134936 19.69284994 -59 20 C-59.33 20.66 -59.66 21.32 -60 22 C-59.34 22.33 -58.68 22.66 -58 23 C-58.66 23 -59.32 23 -60 23 C-60 23.66 -60 24.32 -60 25 C-60.721875 24.979375 -61.44375 24.95875 -62.1875 24.9375 C-64.96505274 24.91748816 -64.96505274 24.91748816 -67.5 25.5 C-70.0645278 26.01290556 -72.39220424 26.07450845 -75 26 C-75.66 28.31 -76.32 30.62 -77 33 C-77.78375 33.0825 -78.5675 33.165 -79.375 33.25 C-82.10873509 33.72459068 -82.10873509 33.72459068 -83.25 35.875 C-83.85080075 37.57726879 -84.42915146 39.28745438 -85 41 C-87 41.66666667 -89 42.33333333 -91 43 C-93.33531458 44.99935694 -93.33531458 44.99935694 -95 47 C-93.72786298 42.36242114 -92.10038443 39.55410877 -88.8125 36.0625 C-88.00296875 35.20140625 -87.1934375 34.3403125 -86.359375 33.453125 C-85.58078125 32.64359375 -84.8021875 31.8340625 -84 31 C-83.11054687 30.03320312 -83.11054687 30.03320312 -82.203125 29.046875 C-75.85609309 22.33715555 -68.10476712 17.34183953 -60 13 C-58.948125 12.41798828 -58.948125 12.41798828 -57.875 11.82421875 C-39.52421135 2.07536228 -20.46992235 -0.60074772 0 0 Z " fill="#F3BB92" transform="translate(125,7)"/>
<path d="M0 0 C-0.33 0.66 -0.66 1.32 -1 2 C0.98 2 2.96 2 5 2 C5 2.66 5 3.32 5 4 C5.5775 4.12375 6.155 4.2475 6.75 4.375 C9 5 9 5 11 6.0625 C13.23550185 7.28295592 13.23550185 7.28295592 17 7 C17 7.66 17 8.32 17 9 C17.99 9.33 18.98 9.66 20 10 C15.94075917 10.98405838 12.16776041 11.07718075 8 11 C4.79604584 11 2.90600261 11.74335022 0 13 C0 12.34 0 11.68 0 11 C-0.99 10.67 -1.98 10.34 -3 10 C-2.34 9.34 -1.68 8.68 -1 8 C-2.65 7.34 -4.3 6.68 -6 6 C-6 4.68 -6 3.36 -6 2 C-7.43931117 2.45261358 -8.87638999 2.91232979 -10.3125 3.375 C-11.51326172 3.75785156 -11.51326172 3.75785156 -12.73828125 4.1484375 C-15.22724528 4.98831811 -15.22724528 4.98831811 -18 7 C-18 5.35 -18 3.7 -18 2 C-34.69646976 2.35524404 -51.48580322 3.68428971 -67.00390625 10.36328125 C-69 11 -69 11 -72 10 C-72 9.01 -72 8.02 -72 7 C-70.69675781 6.70996094 -70.69675781 6.70996094 -69.3671875 6.4140625 C-68.21476562 6.15367188 -67.06234375 5.89328125 -65.875 5.625 C-64.73804687 5.36976562 -63.60109375 5.11453125 -62.4296875 4.8515625 C-59.21601712 4.05363523 -56.12433966 3.09209441 -53 2 C-56.96673264 0.51247526 -60.9618471 1.05267984 -65 2 C-66.69207001 2.9563874 -68.36816893 3.94410931 -70 5 C-70.66 4.67 -71.32 4.34 -72 4 C-72 3.34 -72 2.68 -72 2 C-50.99043631 -4.98541331 -20.80680062 -11.28198725 0 0 Z M-6 0 C-5 2 -5 2 -5 2 Z " fill="#C75606" transform="translate(144,5)"/>
<path d="M0 0 C3.63 0 7.26 0 11 0 C19.17471664 24.60351609 19.73262559 50.37556929 11 75 C7.37 75 3.74 75 0 75 C0 74.34 0 73.68 0 73 C0.66 73 1.32 73 2 73 C2.66 71.35 3.32 69.7 4 68 C4.66 68 5.32 68 6 68 C6.33 66.68 6.66 65.36 7 64 C7.66 64 8.32 64 9 64 C8.34 63.34 7.68 62.68 7 62 C6.67 62 6.34 62 6 62 C6 60.35 6 58.7 6 57 C6.99 56.505 6.99 56.505 8 56 C7.98839844 55.27554688 7.97679687 54.55109375 7.96484375 53.8046875 C7.95582031 52.83789062 7.94679687 51.87109375 7.9375 50.875 C7.92589844 49.92367187 7.91429687 48.97234375 7.90234375 47.9921875 C8 45 8 45 8.5078125 42.22265625 C9.27752973 37.18284103 9.00488354 32.16187117 8.87304688 27.07617188 C8.80362842 21.95962322 9.33638606 17.84731435 11 13 C10.34 13 9.68 13 9 13 C8.67 13.66 8.34 14.32 8 15 C7.67 11.7 7.34 8.4 7 5 C6.01 5.33 5.02 5.66 4 6 C2.62437146 4.71034824 1.29233607 3.37310707 0 2 C0 1.34 0 0.68 0 0 Z " fill="#7B7B7B" transform="translate(208,75)"/>
<path d="M0 0 C2.02915769 0.93942486 4.03875312 1.92598385 6 3 C6 3.66 6 4.32 6 5 C6.61875 5.309375 7.2375 5.61875 7.875 5.9375 C9.25 6.625 10.625 7.3125 12 8 C12 8.99 12 9.98 12 11 C12.66 11 13.32 11 14 11 C18.45343565 19.01220788 18.45343565 19.01220788 18 24 C18.33 24.33 18.66 24.66 19 25 C19.33821699 28.12850712 19.31403 29.5508076 17.484375 32.16796875 C16.99453125 32.77253906 16.5046875 33.37710938 16 34 C13.415141 33.3808361 10.83223828 32.75492318 8.25 32.125 C7.52039063 31.95097656 6.79078125 31.77695313 6.0390625 31.59765625 C2.46714972 30.72091402 -0.79373841 29.87313177 -4 28 C-0.04 27.505 -0.04 27.505 4 27 C3.01 26.34 2.02 25.68 1 25 C4.96 23.515 4.96 23.515 9 22 C7.68 21.67 6.36 21.34 5 21 C4.67 20.34 4.34 19.68 4 19 C1.69 19.99 -0.62 20.98 -3 22 C-2.1875 20.0625 -2.1875 20.0625 -1 18 C-0.01 17.67 0.98 17.34 2 17 C-1.18490007 16.7226499 -1.18490007 16.7226499 -4 19 C-3.67 17.35 -3.34 15.7 -3 14 C-4.32 15.65 -5.64 17.3 -7 19 C-6.505 14.545 -6.505 14.545 -6 10 C-6.66 11.98 -7.32 13.96 -8 16 C-10 14 -10 14 -10.1953125 10.9609375 C-10.17210938 9.77757813 -10.14890625 8.59421875 -10.125 7.375 C-10.10695313 6.18648438 -10.08890625 4.99796875 -10.0703125 3.7734375 C-10.04710938 2.85820313 -10.02390625 1.94296875 -10 1 C-6.18529621 -1.12018945 -4.28039248 -1.11290205 0 0 Z " fill="#E2E3ED" transform="translate(123,85)"/>
<path d="M0 0 C6.6 0 13.2 0 20 0 C18.68 1.32 17.36 2.64 16 4 C17.32 3.34 18.64 2.68 20 2 C19.95875 3.093125 19.9175 4.18625 19.875 5.3125 C19.85901948 9.80302746 20.64868958 14.00169792 21.5625 18.38671875 C21.99624868 20.97759253 22.07556855 23.37871599 22 26 C22.763125 26.144375 23.52625 26.28875 24.3125 26.4375 C27 27 27 27 30 28 C30 27.34 30 26.68 30 26 C30.99 26 31.98 26 33 26 C32.49396008 28.16874252 32.00016187 29.99967627 31 32 C30.34 32 29.68 32 29 32 C29.33 32.99 29.66 33.98 30 35 C27.23723823 34.47731534 24.6739124 33.89130413 22 33 C22 32.34 22 31.68 22 31 C21.4121875 30.91363281 20.824375 30.82726562 20.21875 30.73828125 C17.38805461 29.79637733 16.37491215 28.48426739 14.5 26.1875 C12.72693346 24.03967167 11.03161087 22.02910402 8.98046875 20.140625 C6.53307468 17.49531543 5.28839533 14.84437523 3.8125 11.5625 C3.30332031 10.45003906 2.79414063 9.33757812 2.26953125 8.19140625 C1 5 1 5 0 0 Z " fill="#5E997A" transform="translate(7,150)"/>
<path d="M0 0 C1.65 0.66 3.3 1.32 5 2 C-10.93472292 21.1216675 -30.12636218 32.52001259 -54 39 C-54.86367187 39.24621094 -55.72734375 39.49242187 -56.6171875 39.74609375 C-62.39862799 41.23774654 -68.05675485 41.19995965 -74 41 C-72 39 -72 39 -68.375 38.875 C-66.704375 38.936875 -66.704375 38.936875 -65 39 C-64.67 37.68 -64.34 36.36 -64 35 C-63.1028125 35.2784375 -63.1028125 35.2784375 -62.1875 35.5625 C-59.83591238 36.22093687 -59.83591238 36.22093687 -57 35 C-56.67 34.34 -56.34 33.68 -56 33 C-54.68 33 -53.36 33 -52 33 C-52 33.66 -52 34.32 -52 35 C-51.34 35 -50.68 35 -50 35 C-49.67 34.34 -49.34 33.68 -49 33 C-46.35139573 32.40644386 -43.70802678 32.25790731 -41 32 C-41 29.69 -41 27.38 -41 25 C-35.72 25 -30.44 25 -25 25 C-25 22.36 -25 19.72 -25 17 C-22.36 17.33 -19.72 17.66 -17 18 C-17.04125 17.071875 -17.0825 16.14375 -17.125 15.1875 C-17 12 -17 12 -15 9 C-11.875 8.8125 -11.875 8.8125 -9 9 C-9 6.69 -9 4.38 -9 2 C-6.23735711 1.40267181 -3.83967231 1 -1 1 C-0.67 0.67 -0.34 0.34 0 0 Z M-12 10 C-14.30671915 12.71549154 -14.30671915 12.71549154 -13.625 15.1875 C-13.41875 15.785625 -13.2125 16.38375 -13 17 C-12.34 16.67 -11.68 16.34 -11 16 C-11 15.34 -11 14.68 -11 14 C-10.34 14 -9.68 14 -9 14 C-9.66 12.68 -10.32 11.36 -11 10 C-11.33 10 -11.66 10 -12 10 Z " fill="#113D24" transform="translate(193,183)"/>
<path d="M0 0 C8.05374464 4.7143871 13.47072329 10.98627269 16.33984375 19.94140625 C18.35275715 29.26750797 18.05250365 38.73719242 13 47 C8.20217462 53.50392831 3.52440779 57.99023688 -4 61 C-4 60.34 -4 59.68 -4 59 C-5.485 59.495 -5.485 59.495 -7 60 C-6.67 58.35 -6.34 56.7 -6 55 C-3.03 54.505 -3.03 54.505 0 54 C0 53.34 0 52.68 0 52 C0.61875 51.7525 1.2375 51.505 1.875 51.25 C4.35068687 49.79371361 4.95125002 48.62187494 6 46 C6.66 46 7.32 46 8 46 C10.39180111 39.77229146 11.94924758 33.71200756 12 27 C11.67 26.34 11.34 25.68 11 25 C10.855625 24.0925 10.71125 23.185 10.5625 22.25 C10.0020159 19.01164742 9.1036298 16.09016343 8 13 C7.34 13 6.68 13 6 13 C6 12.01 6 11.02 6 10 C5.38125 9.690625 4.7625 9.38125 4.125 9.0625 C2.75 8.375 1.375 7.6875 0 7 C0 6.34 0 5.68 0 5 C-0.99 4.67 -1.98 4.34 -3 4 C-2.34 3.34 -1.68 2.68 -1 2 C-0.67 2 -0.34 2 0 2 C0 1.34 0 0.68 0 0 Z " fill="#0D0A3D" transform="translate(129,83)"/>
<path d="M0 0 C0.66 0.33 1.32 0.66 2 1 C0.68 4.3 -0.64 7.6 -2 11 C61.69 11 125.38 11 191 11 C191 11.33 191 11.66 191 12 C184.92120232 12.1458508 178.84233299 12.28804768 172.7633667 12.42669678 C170.63562595 12.47542428 168.50789944 12.52477772 166.38018799 12.57476807 C153.21957089 12.88181628 140.07116295 13.17708367 126.90844727 12.78710938 C121.91510403 12.70298016 119.99320037 12.95756163 116 16 C112.87067672 16.36574497 109.76903018 16.23523277 106.625 16.125 C101.27366894 15.98504211 96.27477642 15.88319066 91 17 C91 16.34 91 15.68 91 15 C92.32 15 93.64 15 95 15 C95 14.34 95 13.68 95 13 C65.96 12.67 36.92 12.34 7 12 C7 12.66 7 13.32 7 14 C3.7 14 0.4 14 -3 14 C-3.08082094 12.04233719 -3.13910778 10.08373272 -3.1875 8.125 C-3.22230469 7.03445312 -3.25710937 5.94390625 -3.29296875 4.8203125 C-3.19628906 3.88960938 -3.09960938 2.95890625 -3 2 C-2.01 1.34 -1.02 0.68 0 0 Z " fill="#FEF2DB" transform="translate(9,64)"/>
<path d="M0 0 C5.73722838 -0.18213423 10.60720133 0.16384798 16.15234375 1.66015625 C18.08647685 2.20744297 18.08647685 2.20744297 20 1 C19.71640113 2.4391134 19.42278601 3.87625518 19.125 5.3125 C18.96257812 6.11300781 18.80015625 6.91351563 18.6328125 7.73828125 C18 10 18 10 16 13 C15.34 13 14.68 13 14 13 C13.7525 13.804375 13.505 14.60875 13.25 15.4375 C12 18 12 18 9.875 18.8125 C9.25625 18.874375 8.6375 18.93625 8 19 C8 19.66 8 20.32 8 21 C7.01 21.33 6.02 21.66 5 22 C4.566875 21.05125 4.13375 20.1025 3.6875 19.125 C2.20697799 15.79958063 2.20697799 15.79958063 -1 14 C-0.67 12.35 -0.34 10.7 0 9 C1.65 8.67 3.3 8.34 5 8 C4.34 8 3.68 8 3 8 C1.29319053 6.37446717 -0.37660195 4.70884005 -2 3 C-1.67 2.34 -1.34 1.68 -1 1 C0.32 1.66 1.64 2.32 3 3 C2.01 2.01 1.02 1.02 0 0 Z " fill="#D6D7D9" transform="translate(121,116)"/>
<path d="M0 0 C0.66 0.33 1.32 0.66 2 1 C2 1.33 2 1.66 2 2 C3.60115576 2.2493357 5.20620159 2.47378648 6.8125 2.6875 C7.70582031 2.81511719 8.59914062 2.94273438 9.51953125 3.07421875 C12.06360779 3.26046094 12.06360779 3.26046094 13.69921875 1.51953125 C14.12847656 1.01808594 14.55773437 0.51664063 15 0 C15.66 0 16.32 0 17 0 C17.66 1.98 18.32 3.96 19 6 C18.01 6.99 17.02 7.98 16 9 C14.948125 8.505 13.89625 8.01 12.8125 7.5 C9.74547391 6.17220212 7.37865064 5.69284994 4 6 C3.67 6.66 3.34 7.32 3 8 C3.66 8.33 4.32 8.66 5 9 C4.34 9 3.68 9 3 9 C3 9.66 3 10.32 3 11 C1.9171875 10.9690625 1.9171875 10.9690625 0.8125 10.9375 C-1.96505274 10.91748816 -1.96505274 10.91748816 -4.5 11.5 C-7.0645278 12.01290556 -9.39220424 12.07450845 -12 12 C-12.66 14.31 -13.32 16.62 -14 19 C-15.175625 19.12375 -15.175625 19.12375 -16.375 19.25 C-19.10873509 19.72459068 -19.10873509 19.72459068 -20.25 21.875 C-20.85080075 23.57726879 -21.42915146 25.28745438 -22 27 C-24 27.66666667 -26 28.33333333 -28 29 C-30.33531458 30.99935694 -30.33531458 30.99935694 -32 33 C-30.72786298 28.36242114 -29.10038443 25.55410877 -25.8125 22.0625 C-25.00296875 21.20140625 -24.1934375 20.3403125 -23.359375 19.453125 C-22.58078125 18.64359375 -21.8021875 17.8340625 -21 17 C-20.11054687 16.03320312 -20.11054687 16.03320312 -19.203125 15.046875 C-15.30999709 10.93128264 -11.02496161 7.74123397 -6.33203125 4.578125 C-4.16801032 3.11369542 -2.07671159 1.58498448 0 0 Z " fill="#EEAE82" transform="translate(62,21)"/>
<path d="M0 0 C1.16144531 0.00902344 2.32289063 0.01804688 3.51953125 0.02734375 C4.39996094 0.03894531 5.28039062 0.05054688 6.1875 0.0625 C3.7097473 11.91014508 -3.13159049 24.59331999 -11.8125 33.0625 C-12.4725 33.0625 -13.1325 33.0625 -13.8125 33.0625 C-13.8125 32.4025 -13.8125 31.7425 -13.8125 31.0625 C-15.7925 31.0625 -17.7725 31.0625 -19.8125 31.0625 C-19.4825 29.4125 -19.1525 27.7625 -18.8125 26.0625 C-16.5025 26.0625 -14.1925 26.0625 -11.8125 26.0625 C-11.8125 23.7525 -11.8125 21.4425 -11.8125 19.0625 C-8.3475 18.5675 -8.3475 18.5675 -4.8125 18.0625 C-4.4825 12.7825 -4.1525 7.5025 -3.8125 2.0625 C-6.4525 2.0625 -9.0925 2.0625 -11.8125 2.0625 C-11.8125 1.7325 -11.8125 1.4025 -11.8125 1.0625 C-7.81454108 0.10630267 -4.10446078 -0.0414592 0 0 Z " fill="#0A3820" transform="translate(211.8125,149.9375)"/>
<path d="M0 0 C3.63 0 7.26 0 11 0 C11.70989223 1.97124579 12.391768 3.95258803 13.0625 5.9375 C13.44535156 7.03964844 13.82820312 8.14179687 14.22265625 9.27734375 C15.02864341 13.13717172 14.84173742 15.80218728 14.29077148 19.6418457 C13.79891627 23.63078734 13.93528694 27.61278999 14 31.625 C14.08854522 37.16793074 14.17382094 42.54763647 13 48 C10.4375 50.4375 10.4375 50.4375 8 52 C7.934013 48.70065007 7.88579635 45.59649446 8.5078125 42.34765625 C9.25603641 37.25854602 9.00607975 32.20801589 8.87304688 27.07617188 C8.80362842 21.95962322 9.33638606 17.84731435 11 13 C10.34 13 9.68 13 9 13 C8.67 13.66 8.34 14.32 8 15 C7.67 11.7 7.34 8.4 7 5 C6.01 5.33 5.02 5.66 4 6 C2.62437146 4.71034824 1.29233607 3.37310707 0 2 C0 1.34 0 0.68 0 0 Z " fill="#929292" transform="translate(208,75)"/>
<path d="M0 0 C-1.32 1.32 -2.64 2.64 -4 4 C-2.68 3.34 -1.36 2.68 0 2 C-0.04125 3.093125 -0.0825 4.18625 -0.125 5.3125 C-0.14098052 9.80302746 0.64868958 14.00169792 1.5625 18.38671875 C1.99624868 20.97759253 2.07556855 23.37871599 2 26 C2.763125 26.144375 3.52625 26.28875 4.3125 26.4375 C7 27 7 27 10 28 C10 27.34 10 26.68 10 26 C10.99 26 11.98 26 13 26 C12.49396008 28.16874252 12.00016187 29.99967627 11 32 C10.34 32 9.68 32 9 32 C9.33 32.99 9.66 33.98 10 35 C7.23723823 34.47731534 4.6739124 33.89130413 2 33 C2 32.34 2 31.68 2 31 C1.401875 30.9175 0.80375 30.835 0.1875 30.75 C-2.5966296 29.79544128 -3.43311142 28.42867729 -5 26 C-4.34 25.34 -3.68 24.68 -3 24 C-3.25523123 21.67844403 -3.25523123 21.67844403 -4 19 C-4.22558594 17.91203125 -4.45117188 16.8240625 -4.68359375 15.703125 C-4.93238281 14.56359375 -5.18117188 13.4240625 -5.4375 12.25 C-5.68371094 11.10015625 -5.92992187 9.9503125 -6.18359375 8.765625 C-6.58771484 7.39664063 -6.58771484 7.39664063 -7 6 C-7.66 5.67 -8.32 5.34 -9 5 C-8.625 3.0625 -8.625 3.0625 -8 1 C-5.29120665 -0.35439668 -2.99066732 -0.06501451 0 0 Z " fill="#3E8560" transform="translate(27,150)"/>
<path d="M0 0 C0.66 0.66 1.32 1.32 2 2 C3.87412696 2.29424079 3.87412696 2.29424079 6.04402161 2.23377991 C7.31669215 2.23573238 7.31669215 2.23573238 8.6150732 2.2377243 C9.55009953 2.22896523 10.48512587 2.22020615 11.44848633 2.21118164 C12.92751985 2.20924427 12.92751985 2.20924427 14.43643284 2.20726776 C17.73506117 2.20078262 21.03346018 2.18028018 24.33203125 2.16015625 C26.65442647 2.15353162 28.97682481 2.14792994 31.29922485 2.14329529 C36.23978865 2.13195831 41.18028841 2.11508328 46.12081909 2.09375 C58.84871918 2.03963451 71.5766936 2.02175134 84.3046875 2.00390625 C85.55652517 2.00186314 86.80836285 1.99982002 88.09813499 1.997715 C108.88257014 1.96605599 129.65692409 2.10047844 150.4375 2.5 C151.69994537 2.52409943 152.96239075 2.54819885 154.26309204 2.57302856 C160.84241818 2.70145442 167.42130355 2.84265696 174 3 C174 3.33 174 3.66 174 4 C114.27 4 54.54 4 -7 4 C-6.67 5.65 -6.34 7.3 -6 9 C-6.66 8.67 -7.32 8.34 -8 8 C-8 5.69 -8 3.38 -8 1 C-7.01 1.495 -7.01 1.495 -6 2 C-4.00039988 2.039992 -1.99952758 2.04346799 0 2 C0 1.34 0 0.68 0 0 Z " fill="#EFFEF4" transform="translate(14,146)"/>
<path d="M0 0 C0.33 0.66 0.66 1.32 1 2 C1.66 2.33 2.32 2.66 3 3 C5 4 5 4 6 6 C9.47448058 8.08468835 12.93806724 8.65534726 16.87890625 9.33984375 C19.34786443 10.1082672 20.3265332 11.06459926 22 13 C24.58926331 15.58926331 26.02705279 15.37398043 29.625 15.625 C30.62789062 15.69976562 31.63078125 15.77453125 32.6640625 15.8515625 C33.43492188 15.90054688 34.20578125 15.94953125 35 16 C34.67 16.66 34.34 17.32 34 18 C37.96 18.33 41.92 18.66 46 19 C46.33 18.34 46.66 17.68 47 17 C47 18.98 47 20.96 47 23 C48.98 22.34 50.96 21.68 53 21 C53 21.66 53 22.32 53 23 C54.65 23 56.3 23 58 23 C58 23.33 58 23.66 58 24 C36.86932922 25.49157676 16.53706262 17.13942175 -1 6 C-1.66 5.34 -2.32 4.68 -3 4 C-3 3.01 -3 2.02 -3 1 C-2.01 0.67 -1.02 0.34 0 0 Z " fill="#134E2A" transform="translate(50,200)"/>
<path d="M0 0 C0.87462891 0.00451172 1.74925781 0.00902344 2.65039062 0.01367188 C4.78779047 0.02535166 6.92515463 0.04328311 9.0625 0.0625 C9.07606479 1.49867163 9.08572726 2.93488047 9.09375 4.37109375 C9.09955078 5.17087646 9.10535156 5.97065918 9.11132812 6.79467773 C9.05715468 9.31076355 8.69110779 11.62664481 8.0625 14.0625 C7.4025 13.7325 6.7425 13.4025 6.0625 13.0625 C6.0625 10.7525 6.0625 8.4425 6.0625 6.0625 C3.79648135 4.77207237 3.79648135 4.77207237 1.0625 4.0625 C-0.27185687 5.06113382 -1.60503147 6.06134797 -2.9375 7.0625 C-5.55859375 7.828125 -5.55859375 7.828125 -8.375 8.3125 C-9.76525391 8.56773438 -9.76525391 8.56773438 -11.18359375 8.828125 C-14.02152074 9.0696507 -16.16711404 8.62566042 -18.9375 8.0625 C-21.27960921 8.69764826 -23.61434969 9.3611716 -25.9375 10.0625 C-26.5975 9.7325 -27.2575 9.4025 -27.9375 9.0625 C-27.9375 8.4025 -27.9375 7.7425 -27.9375 7.0625 C-26.638125 6.876875 -26.638125 6.876875 -25.3125 6.6875 C-22.04236147 6.08191879 -19.06493101 5.17943965 -15.9375 4.0625 C-16.2675 3.0725 -16.5975 2.0825 -16.9375 1.0625 C-11.24910882 0.0822752 -5.76455667 -0.05698801 0 0 Z " fill="#ECB794" transform="translate(115.9375,6.9375)"/>
<path d="M0 0 C0.33 0 0.66 0 1 0 C1.33 2.64 1.66 5.28 2 8 C2.99 5.69 3.98 3.38 5 1 C6.2380014 4.57644848 5.74926071 7.33694766 5 11 C6.32 9.02 7.64 7.04 9 5 C10.24546405 7.49092811 9.7767578 8.41080733 9 11 C10.32 10.34 11.64 9.68 13 9 C13 11 13 11 11 13.125 C10.34 13.74375 9.68 14.3625 9 15 C10.423125 14.2265625 10.423125 14.2265625 11.875 13.4375 C12.90625 12.963125 13.9375 12.48875 15 12 C15.66 12.33 16.32 12.66 17 13 C17 13.66 17 14.32 17 15 C19.31 15 21.62 15 24 15 C20.71536341 17.18975773 17.79303725 17.99806563 14 19 C14.33 19.66 14.66 20.32 15 21 C13.39667209 21.08121924 11.79215974 21.13929134 10.1875 21.1875 C8.84751953 21.23970703 8.84751953 21.23970703 7.48046875 21.29296875 C4.49059446 20.93983399 3.94327487 20.19882882 2 18 C-0.09989652 16.82425289 -0.09989652 16.82425289 -2 16 C-1.50130596 10.63108121 -0.97772468 5.30764827 0 0 Z " fill="#928FA9" transform="translate(112,91)"/>
<path d="M0 0 C-0.98305295 2.57517132 -1.54238319 3.76239127 -4.03125 5.0546875 C-4.8459375 5.32539063 -5.660625 5.59609375 -6.5 5.875 C-26.73756382 13.39512773 -44.44715887 31.47558823 -55 50 C-55.72101248 51.98105665 -56.40465527 53.97762291 -57 56 C-57.66 56 -58.32 56 -59 56 C-59.66 58.97 -60.32 61.94 -61 65 C-58.03 64.505 -58.03 64.505 -55 64 C-55 64.66 -55 65.32 -55 66 C-57.97 66 -60.94 66 -64 66 C-60.34316092 52.34780077 -52.30238639 40.45351781 -43 30 C-42.48711426 29.38503662 -41.97422852 28.77007324 -41.44580078 28.13647461 C-37.39355544 23.3343863 -33.13639289 19.34476114 -28.125 15.5625 C-27.40046631 15.01118408 -26.67593262 14.45986816 -25.92944336 13.8918457 C-7.17494724 0 -7.17494724 0 0 0 Z " fill="#BB662D" transform="translate(71,8)"/>
<path d="M0 0 C2.4375 0.9375 2.4375 0.9375 5.4375 5.9375 C2.7975 10.5575 0.1575 15.1775 -2.5625 19.9375 C-3.5625 15.9375 -3.5625 15.9375 -3.5625 13.9375 C-4.2225 14.9275 -4.8825 15.9175 -5.5625 16.9375 C-7.00457941 14.05334117 -6.65644887 11.52028472 -6.625 8.3125 C-6.61597656 7.12398438 -6.60695313 5.93546875 -6.59765625 4.7109375 C-6.58605469 3.79570313 -6.57445313 2.88046875 -6.5625 1.9375 C-4.10348693 0.59574552 -2.85334377 -0.06959375 0 0 Z " fill="#EDECF1" transform="translate(119.5625,84.0625)"/>
<path d="M0 0 C3.465 1.485 3.465 1.485 7 3 C7 3.66 7 4.32 7 5 C8.32 5.66 9.64 6.32 11 7 C9.86695008 10.39914975 8.87481525 11.05254451 6 13 C6.33 13.99 6.66 14.98 7 16 C8.65 15.67 10.3 15.34 12 15 C9.78631774 18.32052338 9.19601945 18.53912062 5.5625 19.625 C4.78003906 19.86476563 3.99757813 20.10453125 3.19140625 20.3515625 C2.46824219 20.56554687 1.74507813 20.77953125 1 21 C0.01 21.33 -0.98 21.66 -2 22 C-1.1875 20.0625 -1.1875 20.0625 0 18 C0.99 17.67 1.98 17.34 3 17 C-0.18490007 16.7226499 -0.18490007 16.7226499 -3 19 C-2.54464901 17.43662827 -2.08557224 15.87434151 -1.625 14.3125 C-1.35558594 13.39855469 -1.08617188 12.48460938 -0.80859375 11.54296875 C0 9 0 9 1.3125 6.125 C2.25858102 3.95607667 2.25858102 3.95607667 1.125 1.6875 C0.568125 0.8521875 0.568125 0.8521875 0 0 Z " fill="#DDDEE1" transform="translate(122,85)"/>
<path d="M0 0 C1.18571594 -0.00021904 1.18571594 -0.00021904 2.39538574 -0.0004425 C5.00881695 0.0002543 7.62217694 0.00803584 10.2355957 0.01586914 C12.04734763 0.01773415 13.85910005 0.01915766 15.67085266 0.02015686 C20.44004711 0.02397554 25.20921113 0.03380031 29.97839355 0.04486084 C34.84472237 0.0550889 39.71105611 0.05965747 44.57739258 0.06469727 C54.12623408 0.07542313 63.67505299 0.09249179 73.22387695 0.11352539 C73.22387695 0.44352539 73.22387695 0.77352539 73.22387695 1.11352539 C65.01826825 2.17448399 56.90603568 2.22834586 48.6418457 2.17602539 C47.25564242 2.17160917 45.86943711 2.16779545 44.48323059 2.16455078 C40.12591609 2.15322678 35.76865701 2.13395615 31.41137695 2.11352539 C26.33970337 2.08984941 21.26806033 2.06951181 16.19634438 2.05758667 C14.17725554 2.05113848 12.15826327 2.03863895 10.13920593 2.02587891 C8.91055313 2.02257568 7.68190033 2.01927246 6.41601562 2.01586914 C5.3380925 2.01063232 4.26016937 2.00539551 3.14958191 2 C0.39326663 2.10695261 -2.09499491 2.48683103 -4.77612305 3.11352539 C-4.76452148 3.74258789 -4.75291992 4.37165039 -4.7409668 5.01977539 C-4.68325432 10.49421627 -4.97383832 15.69810345 -5.77612305 21.11352539 C-6.10612305 21.11352539 -6.43612305 21.11352539 -6.77612305 21.11352539 C-7.11420991 19.05179926 -7.44639666 16.9891051 -7.77612305 14.92602539 C-7.96174805 13.7774707 -8.14737305 12.62891602 -8.33862305 11.44555664 C-8.71101782 8.60937146 -8.86208325 5.96632975 -8.77612305 3.11352539 C-9.76612305 3.44352539 -10.75612305 3.77352539 -11.77612305 4.11352539 C-11.44612305 3.12352539 -11.11612305 2.13352539 -10.77612305 1.11352539 C-7.13055296 -0.10166464 -3.79421083 -0.01827055 0 0 Z " fill="#1E6641" transform="translate(34.776123046875,149.886474609375)"/>
<path d="M0 0 C0.33 0.66 0.66 1.32 1 2 C0.06553465 4.03144641 -0.93224776 6.03533587 -2 8 C-1.34 8 -0.68 8 0 8 C0 7.34 0 6.68 0 6 C0.66 6 1.32 6 2 6 C1.67 9.3 1.34 12.6 1 16 C-6.75 17.125 -6.75 17.125 -9 16 C-9.40729228 13.67843403 -9.74438677 11.3431213 -10 9 C-9.34 9 -8.68 9 -8 9 C-8 8.34 -8 7.68 -8 7 C-6.25 5.2734375 -6.25 5.2734375 -4 3.375 C-3.2575 2.74335937 -2.515 2.11171875 -1.75 1.4609375 C-1.1725 0.97882813 -0.595 0.49671875 0 0 Z " fill="#F6F5F6" transform="translate(105,121)"/>
<path d="M0 0 C0.99 0.33 1.98 0.66 3 1 C-0.27839872 6.70058334 -3.46082995 12.20865384 -8 17 C-8.66 17 -9.32 17 -10 17 C-10 16.34 -10 15.68 -10 15 C-11.98 15 -13.96 15 -16 15 C-15.67 13.35 -15.34 11.7 -15 10 C-12.69 10 -10.38 10 -8 10 C-8 7.69 -8 5.38 -8 3 C-6.865625 2.87625 -5.73125 2.7525 -4.5625 2.625 C-3.386875 2.41875 -2.21125 2.2125 -1 2 C-0.67 1.34 -0.34 0.68 0 0 Z " fill="#1F3C2A" transform="translate(208,166)"/>
<path d="M0 0 C31.02 0 62.04 0 94 0 C94 0.33 94 0.66 94 1 C65.95 1.33 37.9 1.66 9 2 C8.34 3.32 7.68 4.64 7 6 C6.01 5.67 5.02 5.34 4 5 C4 4.01 4 3.02 4 2 C2.68 1.34 1.36 0.68 0 0 Z " fill="#205E3E" transform="translate(111,150)"/>
<path d="M0 0 C2.5625 0.1875 2.5625 0.1875 4.5625 2.1875 C6.59310659 2.55644582 6.59310659 2.55644582 8.9140625 2.6015625 C9.76484375 2.64023438 10.615625 2.67890625 11.4921875 2.71875 C12.38164063 2.7496875 13.27109375 2.780625 14.1875 2.8125 C15.53328125 2.87050781 15.53328125 2.87050781 16.90625 2.9296875 C19.1247927 3.02409357 21.34332403 3.10966748 23.5625 3.1875 C23.5625 3.5175 23.5625 3.8475 23.5625 4.1875 C17.1275 4.6825 17.1275 4.6825 10.5625 5.1875 C11.5525 5.8475 12.5425 6.5075 13.5625 7.1875 C12.5725 7.5175 11.5825 7.8475 10.5625 8.1875 C12.5425 9.5075 14.5225 10.8275 16.5625 12.1875 C15.5725 12.6825 15.5725 12.6825 14.5625 13.1875 C12.0874829 12.07318235 9.88366581 10.60599022 7.5625 9.1875 C7.8925 9.5175 8.2225 9.8475 8.5625 10.1875 C9.5625 11.1875 10.5625 12.1875 11.5625 13.1875 C11.2325 13.8475 10.9025 14.5075 10.5625 15.1875 C5.7625 11.86442308 5.7625 11.86442308 4.75 8.4375 C4.688125 7.695 4.62625 6.9525 4.5625 6.1875 C2.8609375 6.4659375 2.8609375 6.4659375 1.125 6.75 C-0.6384375 6.9665625 -0.6384375 6.9665625 -2.4375 7.1875 C-3.4375 6.1875 -3.4375 6.1875 -3.5625 3.6875 C-3.39599509 0.35740177 -3.31519894 0.2550153 0 0 Z " fill="#3A3A50" transform="translate(112.4375,108.8125)"/>
<path d="M0 0 C0.33 0.66 0.66 1.32 1 2 C0.3503125 2.5878125 0.3503125 2.5878125 -0.3125 3.1875 C-2.14560261 5.02238902 -2.14560261 5.02238902 -3.5625 7.6875 C-4.036875 8.450625 -4.51125 9.21375 -5 10 C-5.66 10 -6.32 10 -7 10 C-7.33 12.31 -7.66 14.62 -8 17 C-10.86724686 16.42655063 -11.8614515 16.1385485 -14 14 C-14 13.01 -14 12.02 -14 11 C-14.66 11 -15.32 11 -16 11 C-16.33 10.01 -16.66 9.02 -17 8 C-11.54060049 4.67688725 -5.97340271 2.25955676 0 0 Z " fill="#D6D7DD" transform="translate(104,118)"/>
<path d="M0 0 C0.99 0.66 1.98 1.32 3 2 C2.01 2.66 1.02 3.32 0 4 C-0.73343428 7.06556598 -0.73343428 7.06556598 -1 10 C2.96 10 6.92 10 11 10 C11 10.33 11 10.66 11 11 C-8.8 11 -28.6 11 -49 11 C-49 10.67 -49 10.34 -49 10 C-35.8 10 -22.6 10 -9 10 C-9 9.01 -9 8.02 -9 7 C-7.37064759 5.62131719 -5.70250393 4.28725907 -4 3 C-3.67 2.34 -3.34 1.68 -3 1 C-2.01 0.67 -1.02 0.34 0 0 Z " fill="#D06112" transform="translate(97,63)"/>
<path d="M0 0 C3.8206949 3.8206949 3.05982517 9.80064047 3.09765625 14.93359375 C3.09106661 17.10158416 3.07922591 19.2695641 3.0625 21.4375 C3.05798828 22.55060547 3.05347656 23.66371094 3.04882812 24.81054688 C3.03711193 27.54042101 3.02070699 30.27018174 3 33 C2.67 33 2.34 33 2 33 C1.67 30.69 1.34 28.38 1 26 C0.938125 27.051875 0.87625 28.10375 0.8125 29.1875 C-0.13408616 33.6291735 -1.59156258 35.11593757 -5 38 C-5 35 -5 35 -3.54296875 33.5390625 C-3.03378906 33.03117187 -2.52460938 32.52328125 -2 32 C-0.75136386 25.41628216 -0.9257508 18.7943612 -1.03637695 12.11669922 C-1.0874582 7.95477073 -0.82269569 4.08134192 0 0 Z " fill="#888888" transform="translate(222,91)"/>
<path d="M0 0 C1.12591553 0.00523682 2.25183105 0.01047363 3.41186523 0.01586914 C4.62680664 0.0190918 5.84174805 0.02231445 7.09350586 0.02563477 C8.37290039 0.03401367 9.65229492 0.04239258 10.97045898 0.05102539 C12.2537207 0.05553711 13.53698242 0.06004883 14.85913086 0.06469727 C18.04211921 0.07652994 21.22501661 0.09301471 24.40795898 0.11352539 C21.24688167 1.778173 18.77825328 2.44200956 15.22045898 2.86352539 C6.90234571 4.12664629 -0.74658671 7.18535256 -8.59204102 10.11352539 C-9.58204102 10.44352539 -10.57204102 10.77352539 -11.59204102 11.11352539 C-11.26204102 10.12352539 -10.93204102 9.13352539 -10.59204102 8.11352539 C-7.69645661 6.66573319 -5.85015164 6.11352539 -2.59204102 6.11352539 C-2.87047852 4.90696289 -2.87047852 4.90696289 -3.15454102 3.67602539 C-3.29891602 2.83040039 -3.44329102 1.98477539 -3.59204102 1.11352539 C-2.59204102 0.11352539 -2.59204102 0.11352539 0 0 Z " fill="#FCF3E9" transform="translate(75.592041015625,-0.113525390625)"/>
<path d="M0 0 C5.74222224 0.54543536 10.38344143 2.13286272 15.625 4.5 C16.4075415 4.85022217 17.19008301 5.20044434 17.99633789 5.5612793 C26.31282144 9.41161327 34.70208482 14.23240979 41 21 C37.25 22.125 37.25 22.125 35 21 C34.375 18.9375 34.375 18.9375 34 17 C33.2575 16.896875 32.515 16.79375 31.75 16.6875 C28.77625741 15.94406435 27.35839661 14.90193275 25 13 C23.68163705 12.30419733 22.35208914 11.62775567 21 11 C21 10.34 21 9.68 21 9 C20.01 9 19.02 9 18 9 C18 8.34 18 7.68 18 7 C17.071875 7.226875 16.14375 7.45375 15.1875 7.6875 C12 8 12 8 10.3125 6.625 C9.879375 6.08875 9.44625 5.5525 9 5 C8.01 4.67 7.02 4.34 6 4 C6 3.34 6 2.68 6 2 C4.02 2 2.04 2 0 2 C0 1.34 0 0.68 0 0 Z " fill="#A15320" transform="translate(143,5)"/>
<path d="M0 0 C2.475 0.99 2.475 0.99 5 2 C5 2.66 5 3.32 5 4 C5.99 3.67 6.98 3.34 8 3 C8.66 3.33 9.32 3.66 10 4 C10.59355614 6.64860427 10.74209269 9.29197322 11 12 C9.68 10.68 8.36 9.36 7 8 C7.33 9.32 7.66 10.64 8 12 C6.68 11.34 5.36 10.68 4 10 C4.66 11.32 5.32 12.64 6 14 C4.39253944 13.57476184 2.78910164 13.13429874 1.1875 12.6875 C0.29417969 12.44386719 -0.59914063 12.20023438 -1.51953125 11.94921875 C-4.05247738 10.9799181 -5.2716496 10.04990396 -7 8 C-5.02 8.66 -3.04 9.32 -1 10 C-1.020625 8.72125 -1.04125 7.4425 -1.0625 6.125 C-1.125 2.25 -1.125 2.25 0 0 Z " fill="#F3F2F9" transform="translate(98,92)"/>
<path d="M0 0 C0.99 0.99 1.98 1.98 3 3 C1.7934375 3.309375 1.7934375 3.309375 0.5625 3.625 C-0.283125 4.07875 -1.12875 4.5325 -2 5 C-2.89830839 8.05272465 -2.89830839 8.05272465 -3 11 C-4.175625 11.12375 -4.175625 11.12375 -5.375 11.25 C-8.10873509 11.72459068 -8.10873509 11.72459068 -9.25 13.875 C-9.85080075 15.57726879 -10.42915146 17.28745438 -11 19 C-13 19.66666667 -15 20.33333333 -17 21 C-19.33531458 22.99935694 -19.33531458 22.99935694 -21 25 C-19.72786298 20.36242114 -18.10038443 17.55410877 -14.8125 14.0625 C-14.01199219 13.20785156 -13.21148437 12.35320313 -12.38671875 11.47265625 C-11.59910156 10.65667969 -10.81148437 9.84070312 -10 9 C-9.32582031 8.29746094 -8.65164062 7.59492187 -7.95703125 6.87109375 C-5.38343767 4.24262611 -3.07652409 2.05101606 0 0 Z " fill="#F0A066" transform="translate(51,29)"/>
<path d="M0 0 C1.64767247 0.28109113 3.29313145 0.57518526 4.9375 0.875 C5.85402344 1.03742188 6.77054687 1.19984375 7.71484375 1.3671875 C8.46894531 1.57601562 9.22304687 1.78484375 10 2 C10.33 2.66 10.66 3.32 11 4 C12.97888961 4.72693904 14.97954558 5.39816251 17 6 C16.67 6.66 16.34 7.32 16 8 C13.45058627 8.31241371 10.99638487 8.51303421 8.4375 8.625 C7.37112305 8.68300781 7.37112305 8.68300781 6.28320312 8.7421875 C4.52257575 8.83671783 2.76132272 8.91945817 1 9 C0.67 9.99 0.34 10.98 0 12 C-0.33 11.67 -0.66 11.34 -1 11 C-0.91015699 9.14227838 -0.75388139 7.28752015 -0.5625 5.4375 C-0.46066406 4.42558594 -0.35882813 3.41367188 -0.25390625 2.37109375 C-0.17011719 1.58863281 -0.08632812 0.80617188 0 0 Z " fill="#E0E0E7" transform="translate(84,104)"/>
<path d="M0 0 C0 0.99 0 1.98 0 3 C0.66 3 1.32 3 2 3 C3 9.75 3 9.75 3 12 C-3.28571429 14.42857143 -3.28571429 14.42857143 -7 13 C-6 10 -6 10 -5 9 C-5.99 8.34 -6.98 7.68 -8 7 C-6.47663111 3.31852519 -4.31953005 0 0 0 Z " fill="#F0F0F4" transform="translate(135,93)"/>
<path d="M0 0 C1.19882813 0.15275391 1.19882813 0.15275391 2.421875 0.30859375 C3.02515625 0.39238281 3.6284375 0.47617188 4.25 0.5625 C-1.22820281 6.04070281 -8.41686994 6.17794164 -15.75 6.5625 C-15.42 7.8825 -15.09 9.2025 -14.75 10.5625 C-17.39 9.9025 -20.03 9.2425 -22.75 8.5625 C-22.75 7.9025 -22.75 7.2425 -22.75 6.5625 C-21.96625 6.27375 -21.1825 5.985 -20.375 5.6875 C-17.65328368 4.71337746 -17.65328368 4.71337746 -15.75 2.5625 C-14.76 2.8925 -13.77 3.2225 -12.75 3.5625 C-11.39082143 2.59792166 -10.05915279 1.59395371 -8.75 0.5625 C-5.66163846 -0.49768381 -3.2158353 -0.42562526 0 0 Z " fill="#D05802" transform="translate(87.75,5.4375)"/>
<path d="M0 0 C2.97 0 5.94 0 9 0 C8.34 0.66 7.68 1.32 7 2 C7.09571266 3.95904293 7.09571266 3.95904293 7.6796875 6.1328125 C7.96005859 7.34130859 7.96005859 7.34130859 8.24609375 8.57421875 C8.45363281 9.41597656 8.66117188 10.25773438 8.875 11.125 C9.07480469 11.97449219 9.27460938 12.82398438 9.48046875 13.69921875 C9.97661898 15.80195068 10.48698884 17.90131799 11 20 C10.01 20 9.02 20 8 20 C6.84727636 17.60727078 5.70271155 15.21118379 4.5625 12.8125 C4.23701172 12.13896484 3.91152344 11.46542969 3.57617188 10.77148438 C1.88320189 7.19355813 0.54637879 3.96317006 0 0 Z " fill="#83AB99" transform="translate(7,150)"/>
<path d="M0 0 C0.66 0.33 1.32 0.66 2 1 C1.67 2.98 1.34 4.96 1 7 C1.66 6.67 2.32 6.34 3 6 C3 8.31 3 10.62 3 13 C1.56328432 13.64757625 0.12559584 14.29299453 -1.3125 14.9375 C-2.11300781 15.29714844 -2.91351563 15.65679687 -3.73828125 16.02734375 C-6 17 -6 17 -9 18 C-8.67 16.35 -8.34 14.7 -8 13 C-7.34 13 -6.68 13 -6 13 C-5.9071875 11.7315625 -5.9071875 11.7315625 -5.8125 10.4375 C-4.7594782 5.98240777 -2.80339085 3.59409083 0 0 Z " fill="#E37E35" transform="translate(29,51)"/>
<path d="M0 0 C0.556875 0.28875 1.11375 0.5775 1.6875 0.875 C4.00021036 2.05892519 4.00021036 2.05892519 6.5625 2.875 C9 4 9 4 10.5625 6.125 C11.2740625 7.053125 11.2740625 7.053125 12 8 C13.32 8 14.64 8 16 8 C19 11.21428571 19 11.21428571 19 14 C19.66 14.33 20.32 14.66 21 15 C19.741875 14.835 18.48375 14.67 17.1875 14.5 C14.73543415 14.17841759 12.48349306 14 10 14 C9.34 14 8.68 14 8 14 C7.67 11.36 7.34 8.72 7 6 C4.69 5.67 2.38 5.34 0 5 C0 3.35 0 1.7 0 0 Z " fill="#AF4B04" transform="translate(168,18)"/>
<path d="M0 0 C0.33 0.99 0.66 1.98 1 3 C0.67 3.33 0.34 3.66 0 4 C-0.07179964 5.51928038 -0.08392007 7.04167482 -0.0625 8.5625 C-0.041875 10.026875 -0.02125 11.49125 0 13 C-3.3 13 -6.6 13 -10 13 C-9.34 12.01 -8.68 11.02 -8 10 C-8.66 9.67 -9.32 9.34 -10 9 C-10 8.34 -10 7.68 -10 7 C-9.21625 6.7525 -8.4325 6.505 -7.625 6.25 C-4.59062001 4.80505715 -4.32970275 3.94434181 -3 1 C-2.01 0.67 -1.02 0.34 0 0 Z " fill="#AF4905" transform="translate(208,61)"/>
<path d="M0 0 C0 0.33 0 0.66 0 1 C-0.54825439 1.10022461 -1.09650879 1.20044922 -1.66137695 1.30371094 C-15.61634287 3.80776789 -15.61634287 3.80776789 -29.00390625 8.36328125 C-31 9 -31 9 -34 8 C-34 7.01 -34 6.02 -34 5 C-33.14277344 4.81824219 -32.28554687 4.63648438 -31.40234375 4.44921875 C-24.27853459 2.9504537 -24.27853459 2.9504537 -17.5625 0.25 C-11.78014411 -1.7788968 -6.00719037 -0.69153509 0 0 Z " fill="#C85E12" transform="translate(106,7)"/>
<path d="M0 0 C1.32 0.66 2.64 1.32 4 2 C2.43525633 6.22480792 -0.45364158 8.35761529 -4 11 C-6.875 12.3125 -6.875 12.3125 -9 13 C-9 12.34 -9 11.68 -9 11 C-9.99 11.33 -10.98 11.66 -12 12 C-11.67 10.35 -11.34 8.7 -11 7 C-9.02 6.67 -7.04 6.34 -5 6 C-5 5.34 -5 4.68 -5 4 C-4.360625 3.71125 -3.72125 3.4225 -3.0625 3.125 C-0.84793921 2.17176549 -0.84793921 2.17176549 0 0 Z " fill="#1A1352" transform="translate(134,131)"/>
<path d="M0 0 C1.2380014 3.57644848 0.74926071 6.33694766 0 10 C1.32 8.02 2.64 6.04 4 4 C5.24546405 6.49092811 4.7767578 7.41080733 4 10 C5.32 9.34 6.64 8.68 8 8 C8 10 8 10 6 12.125 C5.34 12.74375 4.68 13.3625 4 14 C5.98 13.34 7.96 12.68 10 12 C8.71034824 13.37562854 7.37310707 14.70766393 6 16 C5.34 16 4.68 16 4 16 C4 16.66 4 17.32 4 18 C3.01 18.33 2.02 18.66 1 19 C-1.0625 17 -1.0625 17 -3 14 C-2.83942118 8.94176718 -1.78180434 4.75147823 0 0 Z " fill="#4B4860" transform="translate(117,92)"/>
<path d="M0 0 C1.32 0.66 2.64 1.32 4 2 C4 1.34 4 0.68 4 0 C4.99 0 5.98 0 7 0 C7.33 0.99 7.66 1.98 8 3 C7.09378906 3.61746094 6.18757813 4.23492188 5.25390625 4.87109375 C-1.55643229 9.58227201 -7.73729562 14.30528072 -13.42578125 20.3828125 C-14.20501953 21.18332031 -14.20501953 21.18332031 -15 22 C-15.33 22 -15.66 22 -16 22 C-16 20.35 -16 18.7 -16 17 C-15.34 17 -14.68 17 -14 17 C-13.67 16.34 -13.34 15.68 -13 15 C-12.67 15.33 -12.34 15.66 -12 16 C-11.855625 15.236875 -11.71125 14.47375 -11.5625 13.6875 C-9.39076892 9.95212255 -6.9217248 9.62907285 -2.8984375 8.48046875 C-2.27195312 8.32191406 -1.64546875 8.16335937 -1 8 C-1 7.34 -1 6.68 -1 6 C-0.34 6 0.32 6 1 6 C0.4740625 5.071875 0.4740625 5.071875 -0.0625 4.125 C-0.371875 3.42375 -0.68125 2.7225 -1 2 C-0.67 1.34 -0.34 0.68 0 0 Z " fill="#CA5F15" transform="translate(53,20)"/>
<path d="M0 0 C0.99 0.33 1.98 0.66 3 1 C2.67 1.33 2.34 1.66 2 2 C5.96 2.33 9.92 2.66 14 3 C14.33 2.34 14.66 1.68 15 1 C15 2.98 15 4.96 15 7 C16.98 6.34 18.96 5.68 21 5 C21 5.66 21 6.32 21 7 C22.65 7 24.3 7 26 7 C26 7.33 26 7.66 26 8 C16.69343746 8.46792773 7.97363107 7.50160048 -1 5 C-1.66 4.34 -2.32 3.68 -3 3 C-2.01 2.01 -1.02 1.02 0 0 Z " fill="#0C4424" transform="translate(82,216)"/>
<path d="M0 0 C0 0.66 0 1.32 0 2 C-3.75106497 4.50070998 -5.54359076 4.11557373 -10 3.9375 C-18.91442122 3.74239598 -26.4450149 5.12581607 -34 10 C-34.66 9.67 -35.32 9.34 -36 9 C-36 8.34 -36 7.68 -36 7 C-24.13119206 3.05377198 -12.65776476 -0.48683711 0 0 Z " fill="#B85E23" transform="translate(108,0)"/>
<path d="M0 0 C0.99 0 1.98 0 3 0 C3.33 2.97 3.66 5.94 4 9 C4.66 9 5.32 9 6 9 C6.33 11.64 6.66 14.28 7 17 C7.66 17 8.32 17 9 17 C9.66 19.31 10.32 21.62 11 24 C7 24 7 24 4.75 22 C4.1725 21.34 3.595 20.68 3 20 C3.33 19.01 3.66 18.02 4 17 C3.43035042 14.2462166 2.79790897 11.58339936 2.0625 8.875 C0 1.0470297 0 1.0470297 0 0 Z " fill="#6FA68A" transform="translate(13,151)"/>
<path d="M0 0 C1.32 0.33 2.64 0.66 4 1 C3.67 1.99 3.34 2.98 3 4 C2.01 4 1.02 4 0 4 C0 4.66 0 5.32 0 6 C-0.99 6.66 -1.98 7.32 -3 8 C-3.99 9.485 -3.99 9.485 -5 11 C-5.99 11 -6.98 11 -8 11 C-8.33 12.32 -8.66 13.64 -9 15 C-10.32 15 -11.64 15 -13 15 C-12.1875 12.5625 -12.1875 12.5625 -11 10 C-10.01 9.67 -9.02 9.34 -8 9 C-7.67 8.34 -7.34 7.68 -7 7 C-6 5 -6 5 -3 4 C-3 3.34 -3 2.68 -3 2 C-2.01 2 -1.02 2 0 2 C0 1.34 0 0.68 0 0 Z " fill="#0E6B39" transform="translate(152,169)"/>
<path d="M0 0 C4.77662875 4.31437435 4.77662875 4.31437435 5 8 C4.0625 10.75 4.0625 10.75 3 13 C-1.96916636 12.48594831 -6.29026351 11.76615118 -11 10 C-7.52176885 8.84058962 -5.54104422 9.29179116 -2 10 C-3.32 8.68 -4.64 7.36 -6 6 C-4.35 6.33 -2.7 6.66 -1 7 C-1.66 5.68 -2.32 4.36 -3 3 C-1.68 3.33 -0.36 3.66 1 4 C0.67 2.68 0.34 1.36 0 0 Z " fill="#4D4B61" transform="translate(104,98)"/>
<path d="M0 0 C5.73722838 -0.18213423 10.60720133 0.16384798 16.15234375 1.66015625 C18.08647685 2.20744297 18.08647685 2.20744297 20 1 C20 1.99 20 2.98 20 4 C18.35 4.33 16.7 4.66 15 5 C15 5.66 15 6.32 15 7 C12 8 12 8 9.08203125 6.6015625 C8.00308594 5.94929688 6.92414063 5.29703125 5.8125 4.625 C4.72582031 3.97789063 3.63914062 3.33078125 2.51953125 2.6640625 C1.68808594 2.11492187 0.85664062 1.56578125 0 1 C0 0.67 0 0.34 0 0 Z " fill="#EAEAEF" transform="translate(121,116)"/>
<path d="M0 0 C2.1446143 2.1446143 2.44564603 3.01739998 3.125 5.875 C3.29257813 6.55304688 3.46015625 7.23109375 3.6328125 7.9296875 C4 10 4 10 4 14 C4.99 14.66 5.98 15.32 7 16 C5.68 16.33 4.36 16.66 3 17 C3 17.763125 3 18.52625 3 19.3125 C3 21.20833333 3 23.10416667 3 25 C1.5 23.625 1.5 23.625 0 22 C0 21.34 0 20.68 0 20 C-5.28 20 -10.56 20 -16 20 C-16 19.67 -16 19.34 -16 19 C-15.37351562 18.93941406 -14.74703125 18.87882812 -14.1015625 18.81640625 C-12.87566406 18.69072266 -12.87566406 18.69072266 -11.625 18.5625 C-10.81289062 18.48128906 -10.00078125 18.40007812 -9.1640625 18.31640625 C-6.95727195 18.10909886 -6.95727195 18.10909886 -5 17 C-3.33380554 16.9603287 -1.66608987 16.95615553 0 17 C0.77313045 11.0885256 1.14819277 5.8685408 0 0 Z " fill="#6A6780" transform="translate(107,93)"/>
<path d="M0 0 C0.66 0.33 1.32 0.66 2 1 C2 1.33 2 1.66 2 2 C4.97 2.495 4.97 2.495 8 3 C8 3.33 8 3.66 8 4 C6.02 4 4.04 4 2 4 C2 4.99 2 5.98 2 7 C1.34 7 0.68 7 0 7 C0 7.66 0 8.32 0 9 C-1.98 9 -3.96 9 -6 9 C-6 9.66 -6 10.32 -6 11 C-7.32 10.34 -8.64 9.68 -10 9 C-7.12505529 5.01930733 -4.17882671 2.56428003 0 0 Z " fill="#F1B688" transform="translate(62,21)"/>
<path d="M0 0 C0.66 0.33 1.32 0.66 2 1 C2.061875 1.763125 2.12375 2.52625 2.1875 3.3125 C3.14883183 6.4922899 3.76875184 6.7417179 6.5625 8.3125 C7.696875 8.869375 8.83125 9.42625 10 10 C9.67 10.66 9.34 11.32 9 12 C7.68 11.67 6.36 11.34 5 11 C4.67 11.66 4.34 12.32 4 13 C3.01 12.01 2.02 11.02 1 10 C1 11.65 1 13.3 1 15 C-2.10366328 12.57526306 -2.9393296 11.48536323 -3.4375 7.5 C-2.99243527 3.93948214 -2.44140066 2.54312569 0 0 Z " fill="#84849E" transform="translate(116,114)"/>
<path d="M0 0 C6.6 0 13.2 0 20 0 C20.33 1.65 20.66 3.3 21 5 C17.72463268 6.09178911 16.95586381 5.93042848 13.76953125 5.00390625 C12.96708984 4.77509766 12.16464844 4.54628906 11.33789062 4.31054688 C10.50451172 4.06369141 9.67113281 3.81683594 8.8125 3.5625 C7.5450293 3.19801758 7.5450293 3.19801758 6.25195312 2.82617188 C4.1657589 2.22506507 2.08257699 1.61352166 0 1 C0 0.67 0 0.34 0 0 Z " fill="#F9F9FA" transform="translate(119,113)"/>
<path d="M0 0 C0.87462891 0.00451172 1.74925781 0.00902344 2.65039062 0.01367188 C4.78779047 0.02535166 6.92515463 0.04328311 9.0625 0.0625 C9.07606479 1.49867163 9.08572726 2.93488047 9.09375 4.37109375 C9.09955078 5.17087646 9.10535156 5.97065918 9.11132812 6.79467773 C9.05715468 9.31076355 8.69110779 11.62664481 8.0625 14.0625 C7.4025 13.7325 6.7425 13.4025 6.0625 13.0625 C6.083125 12.010625 6.10375 10.95875 6.125 9.875 C6.07353198 6.73545096 5.79732813 4.09366604 5.0625 1.0625 C4.18851563 1.17078125 4.18851563 1.17078125 3.296875 1.28125 C-3.46915166 2.04721528 -10.13271851 2.16772858 -16.9375 2.0625 C-16.9375 1.7325 -16.9375 1.4025 -16.9375 1.0625 C-11.24910882 0.0822752 -5.76455667 -0.05698801 0 0 Z " fill="#F1A972" transform="translate(115.9375,6.9375)"/>
<path d="M0 0 C0.99 0 1.98 0 3 0 C2.67 1.65 2.34 3.3 2 5 C1.34 5 0.68 5 0 5 C0 5.66 0 6.32 0 7 C-8.57142857 7.14285714 -8.57142857 7.14285714 -12 6 C-12 5.01 -12 4.02 -12 3 C-5.375 0.875 -5.375 0.875 -2 2 C-1.67 2.33 -1.34 2.66 -1 3 C-0.67 2.01 -0.34 1.02 0 0 Z " fill="#BDBEBD" transform="translate(208,143)"/>
<path d="M0 0 C3.91114026 0.67400718 6.87119182 2.54256033 10.25 4.5625 C11.32765625 5.20316406 12.4053125 5.84382813 13.515625 6.50390625 C14.33546875 6.99761719 15.1553125 7.49132812 16 8 C11.90913548 9.67641098 8.28488982 8.2409319 4.25 7.0625 C3.55261719 6.86720703 2.85523437 6.67191406 2.13671875 6.47070312 C0.42201027 5.9891754 -1.28934877 5.49574843 -3 5 C-3 4.34 -3 3.68 -3 3 C-2.34 3 -1.68 3 -1 3 C-0.67 2.01 -0.34 1.02 0 0 Z " fill="#EDECF3" transform="translate(88,100)"/>
<path d="M0 0 C0.66 0 1.32 0 2 0 C1.59060025 6.76215448 0.43046191 12.67162748 -2 19 C-3.51171875 17.6875 -3.51171875 17.6875 -5 16 C-4.75921963 12.14751405 -4.15973378 10.23960066 -2 7 C-1.29187186 4.67891331 -0.61975848 2.34622853 0 0 Z " fill="#717071" transform="translate(221,130)"/>
<path d="M0 0 C2.475 0.99 2.475 0.99 5 2 C2.14285714 10.57142857 2.14285714 10.57142857 -2 14 C-3.5 12.625 -3.5 12.625 -5 11 C-5 10.34 -5 9.68 -5 9 C-4.34 9 -3.68 9 -3 9 C-2.01 6.03 -1.02 3.06 0 0 Z " fill="#0C083B" transform="translate(140,120)"/>
<path d="M0 0 C0 3.66979244 -0.94870315 4.99631532 -3 8 C-4.33333333 9.33333333 -5.66666667 10.66666667 -7 12 C-7 12.66 -7 13.32 -7 14 C-8.65 14.66 -10.3 15.32 -12 16 C-12.99 15.01 -13.98 14.02 -15 13 C-14.25234375 12.39671875 -13.5046875 11.7934375 -12.734375 11.171875 C-11.74953125 10.37265625 -10.7646875 9.5734375 -9.75 8.75 C-8.77546875 7.96109375 -7.8009375 7.1721875 -6.796875 6.359375 C-4.39752456 4.33534195 -2.17588563 2.25877651 0 0 Z " fill="#ECF1EC" transform="translate(191,192)"/>
<path d="M0 0 C2.76276177 0.52268466 5.3260876 1.10869587 8 2 C8 1.34 8 0.68 8 0 C8.99 0 9.98 0 11 0 C10.49396008 2.16874252 10.00016187 3.99967627 9 6 C8.34 6 7.68 6 7 6 C7.33 6.99 7.66 7.98 8 9 C4.62537285 8.45276317 2.91765 7.9451 0 6 C0.66 6 1.32 6 2 6 C2 4.68 2 3.36 2 2 C1.34 1.34 0.68 0.68 0 0 Z " fill="#318256" transform="translate(29,176)"/>
<path d="M0 0 C1.65 0 3.3 0 5 0 C5 1.32 5 2.64 5 4 C2 6.25 2 6.25 -1 8 C-1 6.35 -1 4.7 -1 3 C-7.6 3 -14.2 3 -21 3 C-21 2.67 -21 2.34 -21 2 C-10.605 1.505 -10.605 1.505 0 1 C0 0.67 0 0.34 0 0 Z " fill="#BF5609" transform="translate(127,4)"/>
<path d="M0 0 C7.92 0 15.84 0 24 0 C24 0.99 24 1.98 24 3 C16.08 2.67 8.16 2.34 0 2 C0 1.34 0 0.68 0 0 Z " fill="#F6F5F7" transform="translate(168,76)"/>
<path d="M0 0 C9.47266484 0.42199445 18.71179652 0.93372579 28 3 C28 3.66 28 4.32 28 5 C25.69 5 23.38 5 21 5 C21 4.34 21 3.68 21 3 C19.60587891 3.01740234 19.60587891 3.01740234 18.18359375 3.03515625 C5.90509666 3.12478032 5.90509666 3.12478032 0 2 C0 1.34 0 0.68 0 0 Z " fill="#B5571B" transform="translate(112,0)"/>
<path d="M0 0 C1.35917715 4.24742859 1.6386088 8.82873007 0.375 13.125 C-0.16693205 15.83466026 0.84757018 17.55956038 2 20 C-2.21878192 20.19622241 -5.17010894 19.80230168 -9 18 C-6.35261084 16.5393715 -5.10551666 16 -2 16 C-1.67 12.7 -1.34 9.4 -1 6 C-1.66 5.67 -2.32 5.34 -3 5 C-2.01 3.35 -1.02 1.7 0 0 Z " fill="#D3D3DF" transform="translate(108,121)"/>
<path d="M0 0 C0.99 0 1.98 0 3 0 C3 0.99 3 1.98 3 3 C3.639375 3.639375 4.27875 4.27875 4.9375 4.9375 C7.06074946 7.06074946 7.58493854 8.09456975 8 11 C6.02 11.66 4.04 12.32 2 13 C-0.28571429 4.57142857 -0.28571429 4.57142857 0 0 Z " fill="#F9F8FB" transform="translate(118,127)"/>
<path d="M0 0 C1.32 0 2.64 0 4 0 C3.5020163 3.73487777 3.12508244 5.81237635 1 9 C0.34 9 -0.32 9 -1 9 C-1.66 10.65 -2.32 12.3 -3 14 C-3.66 13.67 -4.32 13.34 -5 13 C-4.67 10.36 -4.34 7.72 -4 5 C-3.01 5 -2.02 5 -1 5 C-0.67 3.35 -0.34 1.7 0 0 Z " fill="#E5E5EF" transform="translate(136,120)"/>
<path d="M0 0 C0.33 0 0.66 0 1 0 C0.67 6.27 0.34 12.54 0 19 C-8 21 -8 21 -12 21 C-11.505 19.515 -11.505 19.515 -11 18 C-9.68 18 -8.36 18 -7 18 C-6.67 17.34 -6.34 16.68 -6 16 C-4.35 16 -2.7 16 -1 16 C-1.18433594 15.46890625 -1.36867188 14.9378125 -1.55859375 14.390625 C-2.13027909 11.29441769 -1.63322354 8.83862151 -1.0625 5.75 C-0.86785156 4.67234375 -0.67320313 3.5946875 -0.47265625 2.484375 C-0.31667969 1.66453125 -0.16070312 0.8446875 0 0 Z " fill="#E67D2E" transform="translate(124,16)"/>
<path d="M0 0 C-0.99 1.485 -0.99 1.485 -2 3 C-2.2047131 5.24593098 -2.2047131 5.24593098 -2.0625 7.6875 C-1.96207231 12.2469173 -2.33215725 16.49206143 -3 21 C-3.33 21 -3.66 21 -4 21 C-4.33808686 18.93827387 -4.67027361 16.8755797 -5 14.8125 C-5.185625 13.66394531 -5.37125 12.51539063 -5.5625 11.33203125 C-5.93489477 8.49584607 -6.08596021 5.85280436 -6 3 C-6.99 3.33 -7.98 3.66 -9 4 C-8.67 3.01 -8.34 2.02 -8 1 C-5.07175348 0.02391783 -3.04386724 -0.08226668 0 0 Z " fill="#2D7C54" transform="translate(32,150)"/>
<path d="M0 0 C2 2 2 2 2.1953125 5.4765625 C2.18201493 6.85950968 2.15816232 8.24238654 2.125 9.625 C2.11597656 10.33140625 2.10695313 11.0378125 2.09765625 11.765625 C2.07407603 13.51056098 2.03820461 15.25532295 2 17 C-1 16 -1 16 -2.375 13.5625 C-3.25726499 8.53358958 -1.73284 4.71407012 0 0 Z " fill="#F9F9FB" transform="translate(110,124)"/>
<path d="M0 0 C-2.45518735 1.50537035 -4.9138452 3.00444426 -7.375 4.5 C-8.07367188 4.92925781 -8.77234375 5.35851562 -9.4921875 5.80078125 C-14.7734375 9 -14.7734375 9 -17 9 C-16.67 7.68 -16.34 6.36 -16 5 C-15.01 5 -14.02 5 -13 5 C-13.33 4.01 -13.66 3.02 -14 2 C-12.23225581 1.46877637 -10.46065917 0.95035927 -8.6875 0.4375 C-7.70136719 0.14746094 -6.71523437 -0.14257812 -5.69921875 -0.44140625 C-3 -1 -3 -1 0 0 Z " fill="#F1F0F7" transform="translate(104,117)"/>
<path d="M0 0 C0.763125 0.515625 1.52625 1.03125 2.3125 1.5625 C3.199375 2.036875 4.08625 2.51125 5 3 C5.99 2.67 6.98 2.34 8 2 C11 5.75 11 5.75 11 8 C10.01 8 9.02 8 8 8 C8 8.66 8 9.32 8 10 C7.01 10.33 6.02 10.66 5 11 C4.566875 10.05125 4.13375 9.1025 3.6875 8.125 C2.20697799 4.79958063 2.20697799 4.79958063 -1 3 C-0.67 2.01 -0.34 1.02 0 0 Z " fill="#D7D6D9" transform="translate(121,127)"/>
<path d="M0 0 C10.23 0 20.46 0 31 0 C31 0.33 31 0.66 31 1 C23.74 1.33 16.48 1.66 9 2 C8.34 3.32 7.68 4.64 7 6 C6.01 5.67 5.02 5.34 4 5 C4 4.01 4 3.02 4 2 C2.68 1.34 1.36 0.68 0 0 Z " fill="#1F663D" transform="translate(111,150)"/>
<path d="M0 0 C0.66 0 1.32 0 2 0 C1.98839844 0.68964844 1.97679688 1.37929687 1.96484375 2.08984375 C1.90657876 8.15772652 2.21096052 13.98357396 3 20 C1.02 20.99 1.02 20.99 -1 22 C-1.12886183 14.59760355 -0.79725902 7.36040917 0 0 Z " fill="#D3610B" transform="translate(125,13)"/>
<path d="M0 0 C-6.375 4.25 -6.375 4.25 -10.01171875 4.1953125 C-11.14770508 4.18564453 -11.14770508 4.18564453 -12.30664062 4.17578125 C-13.09232422 4.15902344 -13.87800781 4.14226562 -14.6875 4.125 C-15.48478516 4.11597656 -16.28207031 4.10695312 -17.10351562 4.09765625 C-19.069139 4.07411585 -21.03460775 4.03824547 -23 4 C-23 3.67 -23 3.34 -23 3 C-21.44539063 2.69255859 -21.44539063 2.69255859 -19.859375 2.37890625 C-18.48957311 2.10682231 -17.11978201 1.83468404 -15.75 1.5625 C-15.06808594 1.42779297 -14.38617188 1.29308594 -13.68359375 1.15429688 C-10.98948772 0.61809131 -8.31118899 0.08298373 -5.65625 -0.625 C-3.52656696 -1.10719239 -2.05298534 -0.65988814 0 0 Z " fill="#E1EEE5" transform="translate(147,221)"/>
<path d="M0 0 C6.44675319 0.51164708 12.68268273 1.64157896 19 3 C19 3.33 19 3.66 19 4 C12.73 4 6.46 4 0 4 C-0.33 3.01 -0.66 2.02 -1 1 C-0.67 0.67 -0.34 0.34 0 0 Z " fill="#E9F4EA" transform="translate(81,221)"/>
<path d="M0 0 C0.99 0.66 1.98 1.32 3 2 C2.01 2.66 1.02 3.32 0 4 C-1.0409066 5.64142963 -2.04504326 7.30712215 -3 9 C-4 10 -4 10 -6.5625 10.0625 C-7.366875 10.041875 -8.17125 10.02125 -9 10 C-9 9.01 -9 8.02 -9 7 C-7.37064759 5.62131719 -5.70250393 4.28725907 -4 3 C-3.67 2.34 -3.34 1.68 -3 1 C-2.01 0.67 -1.02 0.34 0 0 Z " fill="#E2630C" transform="translate(97,63)"/>
<path d="M0 0 C2 2 2 2 2.9375 3.9375 C3.8774817 6.05276746 3.8774817 6.05276746 5.5625 7.4375 C7 9 7 9 8 14 C3.38 14 -1.24 14 -6 14 C-6 13.67 -6 13.34 -6 13 C-2.7 12.67 0.6 12.34 4 12 C4 10.68 4 9.36 4 8 C3.34 8 2.68 8 2 8 C0.23537317 4.91190305 0 3.76687864 0 0 Z " fill="#7F451A" transform="translate(210,61)"/>
<path d="M0 0 C0.66 0.33 1.32 0.66 2 1 C1.40832031 1.83402344 0.81664062 2.66804688 0.20703125 3.52734375 C-4.23699881 9.83957676 -8.4622037 16.11996399 -12 23 C-13 20 -13 20 -11.890625 17.4765625 C-11.34921875 16.53554688 -10.8078125 15.59453125 -10.25 14.625 C-9.45335937 13.22121094 -9.45335937 13.22121094 -8.640625 11.7890625 C-8.09921875 10.86867188 -7.5578125 9.94828125 -7 9 C-6.47921875 8.05898438 -5.9584375 7.11796875 -5.421875 6.1484375 C-4.95265625 5.43945312 -4.4834375 4.73046875 -4 4 C-3.34 4 -2.68 4 -2 4 C-2 3.01 -2 2.02 -2 1 C-1.34 0.67 -0.68 0.34 0 0 Z " fill="#FCE8D3" transform="translate(24,40)"/>
<path d="M0 0 C2.64 1.98 5.28 3.96 8 6 C7.67 8.31 7.34 10.62 7 13 C6.01 13 5.02 13 4 13 C4 12.34 4 11.68 4 11 C2.68 10.67 1.36 10.34 0 10 C0 9.01 0 8.02 0 7 C0.99 6.67 1.98 6.34 3 6 C2.2575 5.071875 2.2575 5.071875 1.5 4.125 C0 2 0 2 0 0 Z " fill="#9D4C14" transform="translate(184,26)"/>
<path d="M0 0 C2.475 0.495 2.475 0.495 5 1 C5.05447047 2.41623216 5.09300508 3.83308191 5.125 5.25 C5.14820312 6.03890625 5.17140625 6.8278125 5.1953125 7.640625 C4.9828378 10.20731941 4.28654105 11.7916067 3 14 C-0.44419134 4.58997722 -0.44419134 4.58997722 0 0 Z " fill="#F8F8FA" transform="translate(107,87)"/>
<path d="M0 0 C1.41377341 2.63904371 2.37240135 5.07120629 3 8 C3.66 8 4.32 8 5 8 C5 9.32 5 10.64 5 12 C3.02 12.33 1.04 12.66 -1 13 C-1.33 9.7 -1.66 6.4 -2 3 C-1.34 3 -0.68 3 0 3 C0 2.01 0 1.02 0 0 Z " fill="#924106" transform="translate(209,61)"/>
<path d="M0 0 C0.99 0.99 1.98 1.98 3 3 C1.7934375 3.309375 1.7934375 3.309375 0.5625 3.625 C-0.283125 4.07875 -1.12875 4.5325 -2 5 C-2.89830839 8.05272465 -2.89830839 8.05272465 -3 11 C-4.98 11 -6.96 11 -9 11 C-9 8 -9 8 -7.03125 5.95703125 C-6.1959375 5.24933594 -5.360625 4.54164062 -4.5 3.8125 C-3.6646875 3.09707031 -2.829375 2.38164062 -1.96875 1.64453125 C-1.3190625 1.10183594 -0.669375 0.55914063 0 0 Z " fill="#F5A970" transform="translate(51,29)"/>
<path d="M0 0 C2.31 0 4.62 0 7 0 C7 1.32 7 2.64 7 4 C6.4225 3.773125 5.845 3.54625 5.25 3.3125 C4.13625 3.1578125 4.13625 3.1578125 3 3 C2.4121875 3.4640625 1.824375 3.928125 1.21875 4.40625 C-1.45687197 6.32817564 -3.51232075 6.68643059 -6.75 7.1875 C-7.73484375 7.34605469 -8.7196875 7.50460938 -9.734375 7.66796875 C-10.48203125 7.77753906 -11.2296875 7.88710937 -12 8 C-12.33 7.34 -12.66 6.68 -13 6 C-10.24921116 5.08307039 -8.64051087 4.89113917 -5.8125 4.9375 C-3.9253125 4.9684375 -3.9253125 4.9684375 -2 5 C-1.34 3.35 -0.68 1.7 0 0 Z " fill="#EAB083" transform="translate(114,8)"/>
<path d="M0 0 C0 1.98 0 3.96 0 6 C-6.28571429 8.42857143 -6.28571429 8.42857143 -10 7 C-8.60449526 2.81348579 -4.64858615 0 0 0 Z " fill="#FBFBFD" transform="translate(138,99)"/>
<path d="M0 0 C1.8871875 0.0309375 1.8871875 0.0309375 3.8125 0.0625 C3.8125 0.7225 3.8125 1.3825 3.8125 2.0625 C4.4725 2.3925 5.1325 2.7225 5.8125 3.0625 C5.1525 3.0625 4.4925 3.0625 3.8125 3.0625 C3.8125 3.7225 3.8125 4.3825 3.8125 5.0625 C-3.9375 4.1875 -3.9375 4.1875 -6.1875 3.0625 C-6.5175 3.7225 -6.8475 4.3825 -7.1875 5.0625 C-7.1875 3.7425 -7.1875 2.4225 -7.1875 1.0625 C-4.43671116 0.14557039 -2.82801087 -0.04636083 0 0 Z " fill="#CFC6BF" transform="translate(204.1875,74.9375)"/>
<path d="M0 0 C2.5 0.125 2.5 0.125 3.5 1.125 C3.625 3.625 3.625 3.625 3.5 6.125 C2.5 7.125 2.5 7.125 0 7.25 C-2.5 7.125 -2.5 7.125 -3.5 6.125 C-3.625 3.625 -3.625 3.625 -3.5 1.125 C-2.5 0.125 -2.5 0.125 0 0 Z " fill="#080531" transform="translate(112.5,108.875)"/>
<path d="M0 0 C0.33 0.66 0.66 1.32 1 2 C3.34907875 2.68931344 3.34907875 2.68931344 6.0625 3.125 C6.98160156 3.29257813 7.90070313 3.46015625 8.84765625 3.6328125 C9.91306641 3.81457031 9.91306641 3.81457031 11 4 C11 4.66 11 5.32 11 6 C11.99 6.33 12.98 6.66 14 7 C13.67 7.99 13.34 8.98 13 10 C4.09 6.04 4.09 6.04 -5 2 C-3.68 1.67 -2.36 1.34 -1 1 C-0.67 0.67 -0.34 0.34 0 0 Z " fill="#FCEFDC" transform="translate(155,5)"/>
<path d="M0 0 C2.31 0 4.62 0 7 0 C7 0.66 7 1.32 7 2 C6.01 2.66 5.02 3.32 4 4 C3.34786708 6.02463255 3.34786708 6.02463255 3 8 C2 9 2 9 -1.0625 9.0625 C-2.031875 9.041875 -3.00125 9.02125 -4 9 C-4 8.67 -4 8.34 -4 8 C-2.35 8 -0.7 8 1 8 C1 7.34 1 6.68 1 6 C0.34 6 -0.32 6 -1 6 C-0.67 4.02 -0.34 2.04 0 0 Z " fill="#DF6109" transform="translate(145,64)"/>
<path d="M0 0 C2.64 0.33 5.28 0.66 8 1 C8.33 1.99 8.66 2.98 9 4 C8.34 4 7.68 4 7 4 C7 5.65 7 7.3 7 9 C5.8225266 8.26708288 4.65823146 7.51296199 3.5 6.75 C2.52546875 6.12351563 2.52546875 6.12351563 1.53125 5.484375 C1.0259375 4.99453125 0.520625 4.5046875 0 4 C0 2.68 0 1.36 0 0 Z " fill="#0B5129" transform="translate(39,194)"/>
<path d="M0 0 C-0.66 1.32 -1.32 2.64 -2 4 C-3.7492214 4.08142927 -5.49954542 4.13938541 -7.25 4.1875 C-8.22453125 4.22230469 -9.1990625 4.25710937 -10.203125 4.29296875 C-13.37468742 3.96075202 -14.67040307 3.11327721 -17 1 C-11.30494264 0.3583034 -5.73266804 -0.12462322 0 0 Z " fill="#F1F2F9" transform="translate(127,145)"/>
<path d="M0 0 C3.04796339 0.29257486 5.99987528 0.5625 9.0625 0.5625 C9.0625 1.5525 9.0625 2.5425 9.0625 3.5625 C7.54269531 3.54509766 7.54269531 3.54509766 5.9921875 3.52734375 C4.64062686 3.51795791 3.2890642 3.50885857 1.9375 3.5 C1.27234375 3.49162109 0.6071875 3.48324219 -0.078125 3.47460938 C-4.14431354 3.45467708 -7.9495092 3.77359839 -11.9375 4.5625 C-11.9375 3.9025 -11.9375 3.2425 -11.9375 2.5625 C-10.6175 2.5625 -9.2975 2.5625 -7.9375 2.5625 C-7.9375 1.9025 -7.9375 1.2425 -7.9375 0.5625 C-5.14029397 -0.83610302 -3.09498295 -0.30387105 0 0 Z " fill="#EBEAF4" transform="translate(111.9375,76.4375)"/>
<path d="M0 0 C2.87525669 -0.05425013 5.74947646 -0.09379277 8.625 -0.125 C9.43324219 -0.14175781 10.24148437 -0.15851562 11.07421875 -0.17578125 C15.80093815 -0.21420986 19.55387702 0.17262906 24 2 C24 2.66 24 3.32 24 4 C21.15820312 3.64477539 21.15820312 3.64477539 18.31640625 3.28955078 C17.16978516 3.14622314 17.16978516 3.14622314 16 3 C13.16666667 2.64583333 10.33333333 2.29166667 7.5 1.9375 C6.77296875 1.84662109 6.0459375 1.75574219 5.296875 1.66210938 C3.53125 1.44140625 1.765625 1.22070312 0 1 C0 0.67 0 0.34 0 0 Z " fill="#F9E3CC" transform="translate(120,0)"/>
<path d="M0 0 C0.66 0.33 1.32 0.66 2 1 C2 1.66 2 2.32 2 3 C4.31 3 6.62 3 9 3 C6.05276949 4.96482034 3.88022174 5.7561217 0.5 6.6875 C-0.4590625 6.95949219 -1.418125 7.23148437 -2.40625 7.51171875 C-5 8 -5 8 -8 7 C-7.34 7 -6.68 7 -6 7 C-6 6.34 -6 5.68 -6 5 C-4.34467377 3.98133771 -2.67739862 2.98189187 -1 2 C-0.67 1.34 -0.34 0.68 0 0 Z " fill="#84838E" transform="translate(127,103)"/>
<path d="M0 0 C2.31551097 0.42127361 4.62740355 0.86248121 6.9375 1.3125 C8.22527344 1.55613281 9.51304688 1.79976562 10.83984375 2.05078125 C11.88269531 2.36402344 12.92554687 2.67726562 14 3 C14.33 3.99 14.66 4.98 15 6 C10.94087374 7.35304209 9.22850409 6.15216503 5.3125 4.5625 C4.13300781 4.08941406 2.95351562 3.61632812 1.73828125 3.12890625 C0.83464844 2.75636719 -0.06898437 2.38382813 -1 2 C-0.67 1.34 -0.34 0.68 0 0 Z " fill="#184B2F" transform="translate(66,213)"/>
<path d="M0 0 C0.99 0.33 1.98 0.66 3 1 C3.66 0.67 4.32 0.34 5 0 C5.66 0.66 6.32 1.32 7 2 C5.38050958 3.50594681 3.75424026 5.00460668 2.125 6.5 C0.76761719 7.75296875 0.76761719 7.75296875 -0.6171875 9.03125 C-3 11 -3 11 -5 11 C-4.34 9.68 -3.68 8.36 -3 7 C-2.34 7 -1.68 7 -1 7 C-1 6.34 -1 5.68 -1 5 C-0.34 5 0.32 5 1 5 C0.34 3.68 -0.32 2.36 -1 1 C-0.67 0.67 -0.34 0.34 0 0 Z " fill="#0E2D1B" transform="translate(183,192)"/>
<path d="M0 0 C0.99 0 1.98 0 3 0 C3.66 0.99 4.32 1.98 5 3 C2.89611431 3.05402274 0.79183286 3.09280256 -1.3125 3.125 C-3.07013672 3.15980469 -3.07013672 3.15980469 -4.86328125 3.1953125 C-8 3 -8 3 -11 1 C-6.82532941 -0.65045116 -4.33629525 -1.17197169 0 0 Z " fill="#F4F3F7" transform="translate(135,109)"/>
<path d="M0 0 C6.6 0 13.2 0 20 0 C18.68 1.32 17.36 2.64 16 4 C14.68 4 13.36 4 12 4 C12 3.01 12 2.02 12 1 C10.14375 1.309375 10.14375 1.309375 8.25 1.625 C4.38574398 2.26904267 3.86272925 1.93136463 0 0 Z " fill="#FCFBF8" transform="translate(109,76)"/>
<path d="M0 0 C3.76119476 0.62393651 6.18960042 2.34773715 9.25 4.5625 C10.14203125 5.20316406 11.0340625 5.84382813 11.953125 6.50390625 C12.96632812 7.24447266 12.96632812 7.24447266 14 8 C13.34 8.66 12.68 9.32 12 10 C9.875 9.625 9.875 9.625 8 9 C7.67 7.68 7.34 6.36 7 5 C6.21625 4.9175 5.4325 4.835 4.625 4.75 C2 4 2 4 0.6875 1.9375 C0.460625 1.298125 0.23375 0.65875 0 0 Z " fill="#984C1A" transform="translate(170,17)"/>
<path d="M0 0 C0.99 0 1.98 0 3 0 C6.00617269 3.00617269 5.59585316 5.82381598 6 10 C4.1875 9.8125 4.1875 9.8125 2 9 C0.1875 6.6875 0.1875 6.6875 -1 4 C-0.6875 1.6875 -0.6875 1.6875 0 0 Z " fill="#FBFAFC" transform="translate(101,87)"/>
<path d="M0 0 C3.63 0 7.26 0 11 0 C8.60644419 4.66743383 8.60644419 4.66743383 6.0625 6.0625 C4 6 4 6 1.75 4.1875 C0 2 0 2 0 0 Z " fill="#B2A398" transform="translate(208,75)"/>
<path d="M0 0 C0.33 0.99 0.66 1.98 1 3 C0.67 3.66 0.34 4.32 0 5 C-1.32 5 -2.64 5 -4 5 C-4.33 6.65 -4.66 8.3 -5 10 C-6.65 9.67 -8.3 9.34 -10 9 C-10 8.34 -10 7.68 -10 7 C-9.21625 6.7525 -8.4325 6.505 -7.625 6.25 C-4.59062001 4.80505715 -4.32970275 3.94434181 -3 1 C-2.01 0.67 -1.02 0.34 0 0 Z " fill="#B05310" transform="translate(208,61)"/>
<path d="M0 0 C2.9375 0.75 2.9375 0.75 6 2 C7 3.9375 7 3.9375 7 6 C6.01 7.485 6.01 7.485 5 9 C2.375 9.1875 2.375 9.1875 0 9 C0.185625 7.88625 0.37125 6.7725 0.5625 5.625 C1.31680657 2.17431139 1.31680657 2.17431139 0 0 Z " fill="#AC4804" transform="translate(192,39)"/>
<path d="M0 0 C0 1.32 0 2.64 0 4 C-0.99 4 -1.98 4 -3 4 C-3 4.66 -3 5.32 -3 6 C-1.68 6 -0.36 6 1 6 C1 6.66 1 7.32 1 8 C-1.64 8 -4.28 8 -7 8 C-6.40138258 5.64828869 -5.73075648 3.3140622 -5 1 C-3 0 -3 0 0 0 Z " fill="#DD6109" transform="translate(136,24)"/>
<path d="M0 0 C1.37478516 0.01740234 1.37478516 0.01740234 2.77734375 0.03515625 C3.69644531 0.04417969 4.61554688 0.05320312 5.5625 0.0625 C6.27277344 0.07410156 6.98304688 0.08570313 7.71484375 0.09765625 C7.71484375 0.75765625 7.71484375 1.41765625 7.71484375 2.09765625 C8.70484375 2.42765625 9.69484375 2.75765625 10.71484375 3.09765625 C6.65638319 4.08152548 2.88637434 4.41248875 -1.28515625 4.09765625 C-1.94515625 3.10765625 -2.60515625 2.11765625 -3.28515625 1.09765625 C-2.28515625 0.09765625 -2.28515625 0.09765625 0 0 Z " fill="#BC4E04" transform="translate(153.28515625,11.90234375)"/>
<path d="M0 0 C0.99 0 1.98 0 3 0 C5 3 5 3 4.625 5.1875 C4.41875 5.785625 4.2125 6.38375 4 7 C2.35 7 0.7 7 -1 7 C-1.625 5.1875 -1.625 5.1875 -2 3 C-1.34 2.01 -0.68 1.02 0 0 Z " fill="#16703F" transform="translate(134,185)"/>
<path d="M0 0 C1.8125 0.234375 1.8125 0.234375 4 0.75 C4.721875 0.90984375 5.44375 1.0696875 6.1875 1.234375 C6.785625 1.48703125 7.38375 1.7396875 8 2 C8.33 2.99 8.66 3.98 9 5 C8.67 5.66 8.34 6.32 8 7 C3.64464931 5.83857315 1.35380297 4.92300495 -1 1 C-0.67 0.67 -0.34 0.34 0 0 Z " fill="#478E67" transform="translate(23,175)"/>
<path d="M0 0 C0.94875 0.350625 1.8975 0.70125 2.875 1.0625 C2.875 1.7225 2.875 2.3825 2.875 3.0625 C1.885 3.0625 0.895 3.0625 -0.125 3.0625 C-0.125 3.7225 -0.125 4.3825 -0.125 5.0625 C-4.58 4.0725 -4.58 4.0725 -9.125 3.0625 C-3.6875 -1.10625 -3.6875 -1.10625 0 0 Z " fill="#D85902" transform="translate(64.125,14.9375)"/>
<path d="M0 0 C1.37562854 1.28965176 2.70766393 2.62689293 4 4 C4 4.66 4 5.32 4 6 C4.66 6 5.32 6 6 6 C6.73080266 7.97746603 7.39421747 9.98072489 8 12 C7.67 12.66 7.34 13.32 7 14 C6.34 14 5.68 14 5 14 C4.16235732 12.04350603 3.33000941 10.08474444 2.5 8.125 C2.0359375 7.03445312 1.571875 5.94390625 1.09375 4.8203125 C0 2 0 2 0 0 Z " fill="#9FBCAE" transform="translate(7,150)"/>
<path d="M0 0 C2.20319677 4.40639354 3.10924981 6.97450871 3 12 C1.68 11.67 0.36 11.34 -1 11 C-2.0257259 6.58937864 -2.03684712 4.07369424 0 0 Z " fill="#080536" transform="translate(83,117)"/>
<path d="M0 0 C3.00765886 2.84936103 5.27845212 5.23511958 7 9 C5.39253944 8.57476184 3.78910164 8.13429874 2.1875 7.6875 C1.29417969 7.44386719 0.40085937 7.20023437 -0.51953125 6.94921875 C-3.05247738 5.9799181 -4.2716496 5.04990396 -6 3 C-4.02 3.66 -2.04 4.32 0 5 C0 3.35 0 1.7 0 0 Z " fill="#B3B2BC" transform="translate(97,97)"/>
<path d="M0 0 C-2.24756784 1.15082685 -4.49781748 2.29576858 -6.75 3.4375 C-7.70132813 3.92573242 -7.70132813 3.92573242 -8.671875 4.42382812 C-11.73359908 5.97063665 -14.60615621 7.3915078 -18 8 C-18 6.68 -18 5.36 -18 4 C-16.68 4 -15.36 4 -14 4 C-11.9934562 2.67653494 -9.99371825 1.34270821 -8 0 C-4.58593331 -1.0321597 -3.42913537 -1.14304512 0 0 Z " fill="#E5701C" transform="translate(114,38)"/>
<path d="M0 0 C1.65 0 3.3 0 5 0 C4.01 2.97 3.02 5.94 2 9 C1.01 8.67 0.02 8.34 -1 8 C-0.67 5.36 -0.34 2.72 0 0 Z " fill="#102C1D" transform="translate(213,150)"/>
<path d="M0 0 C1.31223496 3.93670488 0.24296256 6.12488144 -1 10 C-0.34 10.33 0.32 10.66 1 11 C-1.64 11 -4.28 11 -7 11 C-7 10.34 -7 9.68 -7 9 C-6.34 9 -5.68 9 -5 9 C-4.34 7.35 -3.68 5.7 -3 4 C-2.34 4 -1.68 4 -1 4 C-0.67 2.68 -0.34 1.36 0 0 Z " fill="#8C9391" transform="translate(215,139)"/>
<path d="M0 0 C3.92300495 2.35380297 4.83857315 4.64464931 6 9 C3 9 3 9 0 7 C0 6.34 0 5.68 0 5 C-0.99 4.67 -1.98 4.34 -3 4 C-2.34 3.34 -1.68 2.68 -1 2 C-0.67 2 -0.34 2 0 2 C0 1.34 0 0.68 0 0 Z " fill="#1A154B" transform="translate(129,83)"/>
<path d="M0 0 C5 5 5 5 7.125 7.1875 C9.07041718 9.17656226 9.07041718 9.17656226 12 11 C11.34 12.32 10.68 13.64 10 15 C8.70069021 13.44384991 7.41085862 11.8797832 6.125 10.3125 C5.40570312 9.44238281 4.68640625 8.57226562 3.9453125 7.67578125 C2.11067624 5.1522354 1.00532771 2.93661514 0 0 Z " fill="#255438" transform="translate(17,171)"/>
<path d="M0 0 C1.98 0.66 3.96 1.32 6 2 C6 2.99 6 3.98 6 5 C6.639375 5.2475 7.27875 5.495 7.9375 5.75 C10 7 10 7 10.75 9.125 C10.87375 10.053125 10.87375 10.053125 11 11 C10.01 11.495 10.01 11.495 9 12 C7.87370125 10.56351736 6.7490101 9.12577415 5.625 7.6875 C4.99851563 6.88699219 4.37203125 6.08648437 3.7265625 5.26171875 C2.42243282 3.55336788 1.19218183 1.78827274 0 0 Z " fill="#F7ECDB" transform="translate(194,35)"/>
<path d="M0 0 C0.33 1.65 0.66 3.3 1 5 C-0.65 5.66 -2.3 6.32 -4 7 C-4 6.34 -4 5.68 -4 5 C-4.99 5.33 -5.98 5.66 -7 6 C-6.67 4.35 -6.34 2.7 -6 1 C-3.92446352 0.4465236 -2.15634036 0 0 0 Z " fill="#201D51" transform="translate(129,137)"/>
<path d="M0 0 C0.66 0 1.32 0 2 0 C2.67126129 2.4363189 3.33716354 4.87388883 4 7.3125 C4.19078125 8.00279297 4.3815625 8.69308594 4.578125 9.40429688 C5.37716184 12.35787949 6 14.92559219 6 18 C5.34 18 4.68 18 4 18 C3.80664062 17.07316406 3.61328125 16.14632812 3.4140625 15.19140625 C3.15367188 13.99386719 2.89328125 12.79632813 2.625 11.5625 C2.36976562 10.36753906 2.11453125 9.17257813 1.8515625 7.94140625 C1.57054687 6.97074219 1.28953125 6.00007812 1 5 C0.34 4.67 -0.32 4.34 -1 4 C-0.67 2.68 -0.34 1.36 0 0 Z " fill="#4B8E6B" transform="translate(19,151)"/>
<path d="M0 0 C0.7425 0.185625 1.485 0.37125 2.25 0.5625 C4.94990963 0.99203108 6.44631077 0.85122974 9 0 C6.78631774 3.32052338 6.19601945 3.53912062 2.5625 4.625 C1.78003906 4.86476563 0.99757813 5.10453125 0.19140625 5.3515625 C-0.53175781 5.56554687 -1.25492187 5.77953125 -2 6 C-2.99 6.33 -3.98 6.66 -5 7 C-4.1875 5.0625 -4.1875 5.0625 -3 3 C-2.01 2.67 -1.02 2.34 0 2 C0 1.34 0 0.68 0 0 Z " fill="#CECDD6" transform="translate(125,100)"/>
<path d="M0 0 C1.65 0 3.3 0 5 0 C5.33 0.66 5.66 1.32 6 2 C5.01 2.495 5.01 2.495 4 3 C3.34444881 5.52733235 3.34444881 5.52733235 3 8 C2.34 7.01 1.68 6.02 1 5 C-1.58380177 4.74969023 -1.58380177 4.74969023 -4 5 C-4 4.01 -4 3.02 -4 2 C-2.68 2 -1.36 2 0 2 C0 1.34 0 0.68 0 0 Z " fill="#D4D7DE" transform="translate(110,83)"/>
<path d="M0 0 C1.98 0 3.96 0 6 0 C6 0.66 6 1.32 6 2 C5.34 2 4.68 2 4 2 C4 2.66 4 3.32 4 4 C5.65 4 7.3 4 9 4 C8.01 5.485 8.01 5.485 7 7 C6.34 7 5.68 7 5 7 C5 6.34 5 5.68 5 5 C3.02 5 1.04 5 -1 5 C-0.67 3.35 -0.34 1.7 0 0 Z " fill="#09351C" transform="translate(193,176)"/>
<path d="M0 0 C0.66 0.33 1.32 0.66 2 1 C1.84518205 3.70931419 1.51827919 5.46584039 -0.40234375 7.4453125 C-1.89771708 8.67679642 -3.4462924 9.8429837 -5 11 C-4.54663921 6.12637153 -3.2910841 3.60957611 0 0 Z " fill="#E7853D" transform="translate(29,51)"/>
<path d="M0 0 C3.465 1.485 3.465 1.485 7 3 C6.01 3.495 6.01 3.495 5 4 C5 5.32 5 6.64 5 8 C1.125 6.125 1.125 6.125 0 5 C-0.04063832 3.33382885 -0.042721 1.66611905 0 0 Z " fill="#085129" transform="translate(28,182)"/>
<path d="M0 0 C1.32 0 2.64 0 4 0 C4 1.32 4 2.64 4 4 C3.01 4.33 2.02 4.66 1 5 C0.67 5.99 0.34 6.98 0 8 C-0.99 8.33 -1.98 8.66 -3 9 C-3 6 -3 6 -2 3 C-1.34 3 -0.68 3 0 3 C0 2.01 0 1.02 0 0 Z " fill="#0E6F3C" transform="translate(90,176)"/>
<path d="M0 0 C0 0.33 0 0.66 0 1 C-4.95 2.485 -4.95 2.485 -10 4 C-10.66 2.35 -11.32 0.7 -12 -1 C-7.47907032 -2.45606519 -4.48351204 -1.27032841 0 0 Z " fill="#0F0B47" transform="translate(126,81)"/>
<path d="M0 0 C2.475 0.99 2.475 0.99 5 2 C3.35 3.98 1.7 5.96 0 8 C-1.125 6.25 -1.125 6.25 -2 4 C-1.125 1.75 -1.125 1.75 0 0 Z " fill="#0E2C1B" transform="translate(193,183)"/>
<path d="M0 0 C1.20628008 2.33214148 2.1654738 4.49642139 3 7 C-1 7 -1 7 -3.25 5 C-3.8275 4.34 -4.405 3.68 -5 3 C-4.67 2.34 -4.34 1.68 -4 1 C-1.9375 0.375 -1.9375 0.375 0 0 Z " fill="#6F9B82" transform="translate(21,168)"/>
<path d="M0 0 C0.66 0 1.32 0 2 0 C2 0.66 2 1.32 2 2 C2.66 2 3.32 2 4 2 C4 2.99 4 3.98 4 5 C5.32 5.33 6.64 5.66 8 6 C4.04 6 0.08 6 -4 6 C-3.67 5.34 -3.34 4.68 -3 4 C-0.9375 3.375 -0.9375 3.375 1 3 C0.67 2.01 0.34 1.02 0 0 Z " fill="#D9E0DA" transform="translate(192,144)"/>
<path d="M0 0 C2.64 0.99 5.28 1.98 8 3 C5.31158141 5.25245881 3.35358125 6.88213958 0 8 C0 7.01 0 6.02 0 5 C0.99 5 1.98 5 3 5 C3 4.34 3 3.68 3 3 C1.68 2.67 0.36 2.34 -1 2 C-0.67 1.34 -0.34 0.68 0 0 Z " fill="#CA6113" transform="translate(64,13)"/>
<path d="M0 0 C1.43861294 0.08746284 2.87597508 0.19565348 4.3125 0.3125 C5.11300781 0.37050781 5.91351563 0.42851562 6.73828125 0.48828125 C9.36272334 1.08206694 10.30820672 1.95780294 12 4 C9.10765685 4.82638376 7.11257569 5 4 5 C4 3.68 4 2.36 4 1 C2.68 0.67 1.36 0.34 0 0 Z " fill="#034D24" transform="translate(60,209)"/>
<path d="M0 0 C1.98 0.495 1.98 0.495 4 1 C3.67 1.99 3.34 2.98 3 4 C1.68 3.67 0.36 3.34 -1 3 C-0.67 2.01 -0.34 1.02 0 0 Z M-3 4 C-2.34 4 -1.68 4 -1 4 C-0.67 5.65 -0.34 7.3 0 9 C-1.32 9.33 -2.64 9.66 -4 10 C-4.33 9.34 -4.66 8.68 -5 8 C-4.34 8 -3.68 8 -3 8 C-3 6.68 -3 5.36 -3 4 Z " fill="#18663A" transform="translate(36,182)"/>
<path d="M0 0 C0.66 0 1.32 0 2 0 C3.625 2 3.625 2 5 4 C4.01 5.98 3.02 7.96 2 10 C-0.18043828 7.81956172 -0.56240225 6.97566473 -1 4 C-0.5625 1.75 -0.5625 1.75 0 0 Z " fill="#193825" transform="translate(210,156)"/>
<path d="M0 0 C0.66 1.32 1.32 2.64 2 4 C-0.97 4 -3.94 4 -7 4 C-6.67 5.65 -6.34 7.3 -6 9 C-6.66 8.67 -7.32 8.34 -8 8 C-8 5.69 -8 3.38 -8 1 C-7.01 1.495 -7.01 1.495 -6 2 C-4.00039988 2.039992 -1.99952758 2.04346799 0 2 C0 1.34 0 0.68 0 0 Z " fill="#ECF7F2" transform="translate(14,146)"/>
<path d="M0 0 C-0.33 2.31 -0.66 4.62 -1 7 C-1.66 6.67 -2.32 6.34 -3 6 C-3.99 6.33 -4.98 6.66 -6 7 C-6 5.35 -6 3.7 -6 2 C-2.25 0 -2.25 0 0 0 Z " fill="#F8FAFC" transform="translate(119,84)"/>
<path d="M0 0 C4.875 4.625 4.875 4.625 6 8 C3.36 7.67 0.72 7.34 -2 7 C-1.34 4.69 -0.68 2.38 0 0 Z " fill="#8C4418" transform="translate(192,33)"/>
<path d="M0 0 C0.66 0.33 1.32 0.66 2 1 C2 2.65 2 4.3 2 6 C1.01 6.33 0.02 6.66 -1 7 C-2.32 5.35 -3.64 3.7 -5 2 C-2.625 0.9375 -2.625 0.9375 0 0 Z " fill="#F9F2E6" transform="translate(190,24)"/>
<path d="M0 0 C2.0625 0.4375 2.0625 0.4375 4 1 C3.01 3.31 2.02 5.62 1 8 C0.01 8 -0.98 8 -2 8 C-1.125 1.125 -1.125 1.125 0 0 Z " fill="#063F21" transform="translate(178,192)"/>
<path d="M0 0 C3.3 1.65 6.6 3.3 10 5 C9.67 5.66 9.34 6.32 9 7 C7.68 6.67 6.36 6.34 5 6 C4.67 6.66 4.34 7.32 4 8 C0 2.25 0 2.25 0 0 Z " fill="#787A88" transform="translate(116,119)"/>
<path d="M0 0 C1.01382963 3.6208201 1.49897691 7.27811418 2 11 C1.01 11.33 0.02 11.66 -1 12 C-1 11.01 -1 10.02 -1 9 C-1.99 8.67 -2.98 8.34 -4 8 C-3.01 7.67 -2.02 7.34 -1 7 C-1.33 5.68 -1.66 4.36 -2 3 C-1.34 3 -0.68 3 0 3 C0 2.01 0 1.02 0 0 Z " fill="#C8CBD7" transform="translate(140,104)"/>
<path d="M0 0 C2.79872437 2.52788007 4.45773019 4.20411134 5 8 C4.01 8.33 3.02 8.66 2 9 C0.35 7.35 -1.3 5.7 -3 4 C-2.01 4 -1.02 4 0 4 C0 3.34 0 2.68 0 2 C0 1.34 0 0.68 0 0 Z " fill="#403F53" transform="translate(104,98)"/>
<path d="M0 0 C0.66 0.66 1.32 1.32 2 2 C1.505 2.45375 1.01 2.9075 0.5 3.375 C-1.22609337 4.87635519 -1.22609337 4.87635519 -1 7 C-1.99 7.33 -2.98 7.66 -4 8 C-4.33 8.66 -4.66 9.32 -5 10 C-5.66 10 -6.32 10 -7 10 C-5.6062718 5.56541027 -3.39417765 3.12621626 0 0 Z " fill="#060436" transform="translate(91,86)"/>
<path d="M0 0 C1.32 0.66 2.64 1.32 4 2 C4 1.34 4 0.68 4 0 C4.99 0 5.98 0 7 0 C7.33 0.99 7.66 1.98 8 3 C3.25 6 3.25 6 1 6 C-0.0625 4.125 -0.0625 4.125 -1 2 C-0.67 1.34 -0.34 0.68 0 0 Z " fill="#D6610F" transform="translate(53,20)"/>
<path d="M0 0 C1.65 0 3.3 0 5 0 C5 1.32 5 2.64 5 4 C-2.42857143 4.28571429 -2.42857143 4.28571429 -6 2 C-4.02 2 -2.04 2 0 2 C0 1.34 0 0.68 0 0 Z " fill="#C65000" transform="translate(144,8)"/>
<path d="M0 0 C2.31 0.33 4.62 0.66 7 1 C5.375 3 5.375 3 3 5 C-0.25 5.25 -0.25 5.25 -3 5 C-2.67 4.01 -2.34 3.02 -2 2 C-1.34 2 -0.68 2 0 2 C0 1.34 0 0.68 0 0 Z " fill="#0F321C" transform="translate(159,209)"/>
<path d="M0 0 C0.99 0 1.98 0 3 0 C2.49396008 2.16874252 2.00016187 3.99967627 1 6 C0.34 6 -0.32 6 -1 6 C-0.67 6.99 -0.34 7.98 0 9 C-1.32 8.67 -2.64 8.34 -4 8 C-3.34 8 -2.68 8 -2 8 C-2 6.02 -2 4.04 -2 2 C-1.34 2 -0.68 2 0 2 C0 1.34 0 0.68 0 0 Z " fill="#25794A" transform="translate(37,176)"/>
<path d="M0 0 C1.39195915 4.17587745 -0.17676781 6.13474776 -2 10 C-2.99 8.68 -3.98 7.36 -5 6 C-3.35 4.02 -1.7 2.04 0 0 Z " fill="#D7D7DE" transform="translate(103,124)"/>
<path d="M0 0 C0 0.66 0 1.32 0 2 C-0.99 2 -1.98 2 -3 2 C-3.66 3.32 -4.32 4.64 -5 6 C-5.66 3.69 -6.32 1.38 -7 -1 C-3.51418144 -2.2020064 -3.32007656 -2.21338437 0 0 Z " fill="#D7D8E2" transform="translate(91,120)"/>
<path d="M0 0 C0.99 0.33 1.98 0.66 3 1 C3 1.99 3 2.98 3 4 C2.4225 4.2475 1.845 4.495 1.25 4.75 C-1.3002997 6.16683317 -3.01785701 7.87627537 -5 10 C-3.84414715 6.08788267 -2.64465038 3.1254959 0 0 Z " fill="#EF9651" transform="translate(35,44)"/>
<path d="M0 0 C1.37562854 1.28965176 2.70766393 2.62689293 4 4 C4 4.66 4 5.32 4 6 C4.66 6.33 5.32 6.66 6 7 C3.36 6.67 0.72 6.34 -2 6 C-1.34 4.02 -0.68 2.04 0 0 Z " fill="#A14604" transform="translate(183,26)"/>
<path d="M0 0 C1.32 0.33 2.64 0.66 4 1 C4 2.65 4 4.3 4 6 C2.125 6.625 2.125 6.625 0 7 C-0.66 6.34 -1.32 5.68 -2 5 C-1.67 4.01 -1.34 3.02 -1 2 C-1 2.66 -1 3.32 -1 4 C-0.01 3.01 0.98 2.02 2 1 C1.34 0.67 0.68 0.34 0 0 Z " fill="#274B34" transform="translate(188,186)"/>
<path d="M0 0 C0.99 0 1.98 0 3 0 C2.67 1.65 2.34 3.3 2 5 C1.34 5 0.68 5 0 5 C0 5.66 0 6.32 0 7 C-1.32 6.67 -2.64 6.34 -4 6 C-3.67 5.01 -3.34 4.02 -3 3 C-2.34 3 -1.68 3 -1 3 C-0.67 2.01 -0.34 1.02 0 0 Z " fill="#ABA9AA" transform="translate(208,143)"/>
<path d="M0 0 C2.375 0.25 2.375 0.25 5 1 C6.3125 3.0625 6.3125 3.0625 7 5 C6.01 5.495 6.01 5.495 5 6 C2.9375 5.3125 2.9375 5.3125 1 4 C0.25 1.875 0.25 1.875 0 0 Z " fill="#F2F5F9" transform="translate(121,125)"/>
<path d="M0 0 C1.65 0.33 3.3 0.66 5 1 C4.01 1.495 4.01 1.495 3 2 C2.835 2.825 2.67 3.65 2.5 4.5 C2.335 5.325 2.17 6.15 2 7 C1.01 7.495 1.01 7.495 0 8 C-0.79953138 4.71303767 -1.09658936 3.28976808 0 0 Z " fill="#120E4D" transform="translate(80,115)"/>
<path d="M0 0 C0.99 0.495 0.99 0.495 2 1 C2 1.66 2 2.32 2 3 C2.66 3 3.32 3 4 3 C4 4.65 4 6.3 4 8 C3.01 8 2.02 8 1 8 C0.67 8.99 0.34 9.98 0 11 C0 7.37 0 3.74 0 0 Z " fill="#050234" transform="translate(79,107)"/>
<path d="M0 0 C0.33 0.66 0.66 1.32 1 2 C1.99 1.67 2.98 1.34 4 1 C4.66 1.33 5.32 1.66 6 2 C6.59355614 4.64860427 6.74209269 7.29197322 7 10 C6.1028125 8.7934375 6.1028125 8.7934375 5.1875 7.5625 C3.19052724 4.77672016 3.19052724 4.77672016 0 4 C0 2.68 0 1.36 0 0 Z " fill="#C6C5D0" transform="translate(102,94)"/>
<path d="M0 0 C3.63 0 7.26 0 11 0 C8 4 8 4 5.95703125 4.609375 C2.97851562 4.8046875 2.97851562 4.8046875 0 5 C1.32 4.01 2.64 3.02 4 2 C2.68 1.34 1.36 0.68 0 0 Z " fill="#05022D" transform="translate(107,79)"/>
<path d="M0 0 C0.268125 0.598125 0.53625 1.19625 0.8125 1.8125 C1.98493467 3.97224808 3.19369282 5.35790256 5 7 C1.61121488 7 0.60242783 6.35638802 -2.1875 4.5625 C-2.90292969 4.11003906 -3.61835938 3.65757813 -4.35546875 3.19140625 C-4.89816406 2.79824219 -5.44085938 2.40507812 -6 2 C-6 1.67 -6 1.34 -6 1 C-4.02 0.67 -2.04 0.34 0 0 Z " fill="#F9EAD6" transform="translate(175,14)"/>
<path d="M0 0 C1.65 0 3.3 0 5 0 C5.33 0.66 5.66 1.32 6 2 C5.67 2.66 5.34 3.32 5 4 C4.34 4 3.68 4 3 4 C3 4.66 3 5.32 3 6 C2.01 5.67 1.02 5.34 0 5 C0 3.35 0 1.7 0 0 Z " fill="#09371C" transform="translate(168,200)"/>
<path d="M0 0 C0.99 0.33 1.98 0.66 3 1 C3 2.98 3 4.96 3 7 C1.35 7 -0.3 7 -2 7 C-2.33 5.68 -2.66 4.36 -3 3 C-2.01 3.33 -1.02 3.66 0 4 C0 2.68 0 1.36 0 0 Z " fill="#1B7545" transform="translate(81,185)"/>
<path d="M0 0 C-2.11070205 3.16605307 -3.73539027 4.19587357 -7 6 C-7 4.02 -7 2.04 -7 0 C-3.86650268 -1.04449911 -3.01031744 -0.93423645 0 0 Z " fill="#0C331B" transform="translate(207,169)"/>
<path d="M0 0 C0.33 0 0.66 0 1 0 C2 5 3 10 4 15 C3.34 15 2.68 15 2 15 C-0.10428384 9.87080814 -0.21755666 5.4389165 0 0 Z " fill="#589374" transform="translate(21,159)"/>
<path d="M0 0 C-0.99 1.485 -0.99 1.485 -2 3 C-2.38499891 4.65549531 -2.72793135 6.3222433 -3 8 C-5 5 -5 5 -6 3 C-6.99 3.33 -7.98 3.66 -9 4 C-8.67 3.01 -8.34 2.02 -8 1 C-5.07175348 0.02391783 -3.04386724 -0.08226668 0 0 Z " fill="#29744F" transform="translate(32,150)"/>
<path d="M0 0 C1.18391699 3.69974059 1.27585754 7.13799438 1 11 C-0.5 13.4375 -0.5 13.4375 -2 15 C-1.67 12.03 -1.34 9.06 -1 6 C-1.66 5.67 -2.32 5.34 -3 5 C-2.01 3.35 -1.02 1.7 0 0 Z " fill="#B8B8BE" transform="translate(108,121)"/>
<path d="M0 0 C1.32 0.33 2.64 0.66 4 1 C3.67 2.32 3.34 3.64 3 5 C1.02 5 -0.96 5 -3 5 C-3 4.34 -3 3.68 -3 3 C-2.34 3 -1.68 3 -1 3 C-0.67 2.01 -0.34 1.02 0 0 Z " fill="#FBFCFA" transform="translate(88,100)"/>
<path d="M0 0 C6.93 0.495 6.93 0.495 14 1 C14 1.33 14 1.66 14 2 C9.71 2.66 5.42 3.32 1 4 C0.67 2.68 0.34 1.36 0 0 Z " fill="#CC6518" transform="translate(92,6)"/>
<path d="M0 0 C1.65 0.33 3.3 0.66 5 1 C-0.14285714 5.42857143 -0.14285714 5.42857143 -4 6 C-3.67 4.68 -3.34 3.36 -3 2 C-2.01 2 -1.02 2 0 2 C0 1.34 0 0.68 0 0 Z " fill="#F9F9F9" transform="translate(91,120)"/>
<path d="M0 0 C3.00617269 3.00617269 2.59585316 5.82381598 3 10 C2.34 10 1.68 10 1 10 C-0.625 6.6875 -0.625 6.6875 -2 3 C-1.34 2.01 -0.68 1.02 0 0 Z " fill="#828689" transform="translate(218,76)"/>
<path d="M0 0 C1.32 0 2.64 0 4 0 C4 2.64 4 5.28 4 8 C2.68 7.67 1.36 7.34 0 7 C0.99 7 1.98 7 3 7 C2.505 6.5875 2.01 6.175 1.5 5.75 C0 4 0 4 0 0 Z " fill="#A14505" transform="translate(204,66)"/>
<path d="M0 0 C1.65 0.33 3.3 0.66 5 1 C2.09091772 2.93938819 -0.40862379 3.96774957 -3.6875 5.125 C-5.17830078 5.65480469 -5.17830078 5.65480469 -6.69921875 6.1953125 C-7.45847656 6.46085938 -8.21773438 6.72640625 -9 7 C-8.67 6.01 -8.34 5.02 -8 4 C-5.10441559 2.5522078 -3.25811062 2 0 2 C0 1.34 0 0.68 0 0 Z " fill="#FEECD8" transform="translate(73,4)"/>
<path d="M0 0 C2.31 1.98 4.62 3.96 7 6 C6.34 6.66 5.68 7.32 5 8 C0.125 4.25 0.125 4.25 -1 2 C-0.67 1.34 -0.34 0.68 0 0 Z " fill="#D9EEE1" transform="translate(33,192)"/>
<path d="M0 0 C2.64 0 5.28 0 8 0 C5.25 4.875 5.25 4.875 3 6 C2.01 4.02 1.02 2.04 0 0 Z " fill="#8DB09F" transform="translate(8,150)"/>
<path d="M0 0 C0.99 0 1.98 0 3 0 C3.66 1.32 4.32 2.64 5 4 C4.34 4.66 3.68 5.32 3 6 C0.875 5.625 0.875 5.625 -1 5 C-0.67 3.35 -0.34 1.7 0 0 Z " fill="#130E42" transform="translate(129,135)"/>
<path d="M0 0 C2.475 0.99 2.475 0.99 5 2 C4.01 4.64 3.02 7.28 2 10 C1.34 9.34 0.68 8.68 0 8 C0.31229724 6.66158328 0.64830932 5.32860925 1 4 C0.62092718 1.81296615 0.62092718 1.81296615 0 0 Z " fill="#1B1751" transform="translate(140,120)"/>
<path d="M0 0 C1.4370809 -0.05422947 2.87475462 -0.09289723 4.3125 -0.125 C5.11300781 -0.14820312 5.91351563 -0.17140625 6.73828125 -0.1953125 C9 0 9 0 12 2 C10.02 2 8.04 2 6 2 C5.67 2.66 5.34 3.32 5 4 C3.35 2.68 1.7 1.36 0 0 Z " fill="#A0A1AC" transform="translate(121,116)"/>
<path d="M0 0 C-0.99 1.485 -0.99 1.485 -2 3 C-2.99 2.67 -3.98 2.34 -5 2 C-7.6569191 2.87914688 -7.6569191 2.87914688 -10 4 C-10 1 -10 1 -9 0 C-2.4 -1.2 -2.4 -1.2 0 0 Z " fill="#F3C19D" transform="translate(74,20)"/>
<path d="M0 0 C0.33 0 0.66 0 1 0 C1.18451025 9.41002278 1.18451025 9.41002278 0 14 C-0.66 13.67 -1.32 13.34 -2 13 C-1.48041715 8.62065881 -0.94324258 4.31196609 0 0 Z " fill="#F09D5E" transform="translate(124,7)"/>
<path d="M0 0 C0 0.33 0 0.66 0 1 C-1.57925975 1.39180108 -3.16368794 1.76280736 -4.75 2.125 C-5.63171875 2.33382813 -6.5134375 2.54265625 -7.421875 2.7578125 C-10.32875493 3.03088304 -11.56661348 2.53508028 -14 1 C-8.83955235 -0.512545 -5.34001821 -1.33500455 0 0 Z " fill="#EEC1A1" transform="translate(104,11)"/>
<path d="M0 0 C2.64 0 5.28 0 8 0 C8 0.66 8 1.32 8 2 C4.91111478 4.05925681 4.29064073 4.2390374 0.8125 4.125 C-1.0746875 4.063125 -1.0746875 4.063125 -3 4 C-3 3.67 -3 3.34 -3 3 C-0.69 3 1.62 3 4 3 C4 2.34 4 1.68 4 1 C2.68 0.67 1.36 0.34 0 0 Z " fill="#D46D28" transform="translate(100,0)"/>
<path d="M0 0 C0.99 0.33 1.98 0.66 3 1 C1.68 3.31 0.36 5.62 -1 8 C-1.99 7.67 -2.98 7.34 -4 7 C-3.34 5.68 -2.68 4.36 -2 3 C-1.34 3 -0.68 3 0 3 C0 2.01 0 1.02 0 0 Z " fill="#284130" transform="translate(208,166)"/>
<path d="M0 0 C0 1.98 0 3.96 0 6 C-1.32 6.33 -2.64 6.66 -4 7 C-4.1875 4.625 -4.1875 4.625 -4 2 C-1 0 -1 0 0 0 Z " fill="#919191" transform="translate(218,130)"/>
<path d="M0 0 C2.475 0.99 2.475 0.99 5 2 C5 5 5 5 3 7.1875 C2.34 7.785625 1.68 8.38375 1 9 C1.20625 8.2575 1.4125 7.515 1.625 6.75 C2.04408751 3.67669159 1.61949011 2.57213134 0 0 Z " fill="#C7C6D4" transform="translate(122,85)"/>
<path d="M0 0 C0.99 0.99 1.98 1.98 3 3 C2.75546876 6.34192692 2.39456443 7.60543557 0 10 C0 6.7 0 3.4 0 0 Z " fill="#999999" transform="translate(216,80)"/>
<path d="M0 0 C2.64 0 5.28 0 8 0 C7.01 1.485 7.01 1.485 6 3 C4.35 2.67 2.7 2.34 1 2 C0.67 2.66 0.34 3.32 0 4 C0 2.68 0 1.36 0 0 Z " fill="#D5D6D7" transform="translate(197,76)"/>
<path d="M0 0 C1.32 0.33 2.64 0.66 4 1 C4.33 3.31 4.66 5.62 5 8 C4.01 8.495 4.01 8.495 3 9 C2.01 6.03 1.02 3.06 0 0 Z " fill="#FAF0E0" transform="translate(215,66)"/>
<path d="M0 0 C1.32 0.33 2.64 0.66 4 1 C2.68 1.33 1.36 1.66 0 2 C0 1.34 0 0.68 0 0 Z M-0.8125 2.375 C-0.214375 2.58125 0.38375 2.7875 1 3 C-2 5 -2 5 -4.1875 4.625 C-4.785625 4.41875 -5.38375 4.2125 -6 4 C-3 2 -3 2 -0.8125 2.375 Z " fill="#ECF4EB" transform="translate(143,220)"/>
<path d="M0 0 C-1.39332574 3.36720387 -2.9789286 4.9859524 -6 7 C-6.66 6.34 -7.32 5.68 -8 5 C-2.25 0 -2.25 0 0 0 Z " fill="#E1EEE5" transform="translate(184,200)"/>
<path d="M0 0 C0.33 1.32 0.66 2.64 1 4 C0.34 4 -0.32 4 -1 4 C-1 4.66 -1 5.32 -1 6 C-0.34 6.33 0.32 6.66 1 7 C0.01 7.33 -0.98 7.66 -2 8 C-2.33 8.66 -2.66 9.32 -3 10 C-3.66 9.67 -4.32 9.34 -5 9 C-4.01 7.02 -3.02 5.04 -2 3 C-1.34 3 -0.68 3 0 3 C0 2.01 0 1.02 0 0 Z " fill="#C9C8DC" transform="translate(90,93)"/>
<path d="M0 0 C2.31 0.33 4.62 0.66 7 1 C4.77810176 3.22189824 2.91517292 3.92598892 0 5 C-0.33 4.01 -0.66 3.02 -1 2 C-0.67 1.34 -0.34 0.68 0 0 Z " fill="#0B0745" transform="translate(106,79)"/>
<path d="M0 0 C0.93423645 3.01031744 1.04449911 3.86650268 0 7 C0.66 7 1.32 7 2 7 C2 7.66 2 8.32 2 9 C0.68 9 -0.64 9 -2 9 C-2.20140476 5.37471432 -1.85776765 3.13498292 0 0 Z " fill="#D15F0D" transform="translate(12,64)"/>
<path d="M0 0 C-6.75 4 -6.75 4 -9 4 C-8.67 2.68 -8.34 1.36 -8 0 C-4.71303767 -0.79953138 -3.28976808 -1.09658936 0 0 Z " fill="#FDE8D1" transform="translate(63,12)"/>
<path d="M0 0 C0.99 0.33 1.98 0.66 3 1 C2.34 2.32 1.68 3.64 1 5 C0.01 4.67 -0.98 4.34 -2 4 C-2 3.01 -2 2.02 -2 1 C-1.34 0.67 -0.68 0.34 0 0 Z " fill="#0A6D37" transform="translate(117,151)"/>
<path d="M0 0 C0.33 0 0.66 0 1 0 C1 2.31 1 4.62 1 7 C-0.32 6.67 -1.64 6.34 -3 6 C-3 4.35 -3 2.7 -3 1 C-2.67 1.66 -2.34 2.32 -2 3 C-1.34 3 -0.68 3 0 3 C0 2.01 0 1.02 0 0 Z " fill="#060336" transform="translate(145,108)"/>
<path d="M0 0 C0.66 0.33 1.32 0.66 2 1 C2 2.32 2 3.64 2 5 C-0.5 6.75 -0.5 6.75 -3 8 C-1.125 2.25 -1.125 2.25 0 0 Z " fill="#F2F0F7" transform="translate(122,96)"/>
<path d="M0 0 C3.875 1.875 3.875 1.875 5 3 C5.04063832 4.66617115 5.042721 6.33388095 5 8 C4.01 7.67 3.02 7.34 2 7 C1.7834375 5.824375 1.7834375 5.824375 1.5625 4.625 C1.12201075 2.03578982 1.12201075 2.03578982 0 0 Z " fill="#05023D" transform="translate(132,86)"/>
<path d="M0 0 C1.32 0.66 2.64 1.32 4 2 C4 2.99 4 3.98 4 5 C2.68 5.33 1.36 5.66 0 6 C-0.38218767 4.34385343 -0.71395102 2.67542976 -1 1 C-0.67 0.67 -0.34 0.34 0 0 Z " fill="#FBFCF3" transform="translate(132,79)"/>
<path d="M0 0 C0.99 0.33 1.98 0.66 3 1 C3.33 1.99 3.66 2.98 4 4 C4.66 4.33 5.32 4.66 6 5 C6 6.32 6 7.64 6 9 C5.34 9 4.68 9 4 9 C2.68 6.03 1.36 3.06 0 0 Z " fill="#FAEEDF" transform="translate(210,56)"/>
<path d="M0 0 C0.99 0.33 1.98 0.66 3 1 C1.35 2.98 -0.3 4.96 -2 7 C-3 5 -3 5 -2.6875 2.9375 C-2 1 -2 1 0 0 Z " fill="#FDEDDE" transform="translate(29,33)"/>
<path d="M0 0 C2.64 0 5.28 0 8 0 C6.875 1.5 6.875 1.5 5 3 C1.8125 3.1875 1.8125 3.1875 -1 3 C-0.67 2.01 -0.34 1.02 0 0 Z " fill="#F3C1A1" transform="translate(79,14)"/>
<path d="M0 0 C0.33 0.66 0.66 1.32 1 2 C1.99 2.33 2.98 2.66 4 3 C4 3.66 4 4.32 4 5 C1.03 4.01 -1.94 3.02 -5 2 C-3.68 1.67 -2.36 1.34 -1 1 C-0.67 0.67 -0.34 0.34 0 0 Z " fill="#F4E0CF" transform="translate(155,5)"/>
<path d="M0 0 C0.99 0 1.98 0 3 0 C3 0.99 3 1.98 3 3 C2.34 3 1.68 3 1 3 C1 3.99 1 4.98 1 6 C0.34 6 -0.32 6 -1 6 C-1.042721 4.33388095 -1.04063832 2.66617115 -1 1 C-0.67 0.67 -0.34 0.34 0 0 Z " fill="#0E6C3A" transform="translate(73,194)"/>
<path d="M0 0 C1.65 0 3.3 0 5 0 C5 0.66 5 1.32 5 2 C5.66 2.33 6.32 2.66 7 3 C4 4 4 4 1.8125 3.0625 C1.214375 2.711875 0.61625 2.36125 0 2 C0 1.34 0 0.68 0 0 Z " fill="#1E442F" transform="translate(193,181)"/>
<path d="M0 0 C0.66 0 1.32 0 2 0 C1.67 1.65 1.34 3.3 1 5 C0.01 5 -0.98 5 -2 5 C-1.125 1.125 -1.125 1.125 0 0 Z " fill="#0E703D" transform="translate(98,169)"/>
<path d="M0 0 C0.33 0.66 0.66 1.32 1 2 C0.01 3.485 0.01 3.485 -1 5 C-2.32 5 -3.64 5 -5 5 C-5 4.01 -5 3.02 -5 2 C-3.35 1.34 -1.7 0.68 0 0 Z " fill="#CCC9C9" transform="translate(201,144)"/>
<path d="M0 0 C0.66 0.33 1.32 0.66 2 1 C2 1.66 2 2.32 2 3 C2.66 3.33 3.32 3.66 4 4 C3 5 3 5 0.4375 5.0625 C-0.7690625 5.0315625 -0.7690625 5.0315625 -2 5 C-2.33 4.34 -2.66 3.68 -3 3 C-2.01 3 -1.02 3 0 3 C0 2.01 0 1.02 0 0 Z " fill="#1C1748" transform="translate(86,126)"/>
<path d="M0 0 C2.97 0 5.94 0 9 0 C9 0.99 9 1.98 9 3 C4.545 2.01 4.545 2.01 0 1 C0 0.67 0 0.34 0 0 Z " fill="#D9D9EA" transform="translate(119,113)"/>
<path d="M0 0 C0.928125 0.2784375 0.928125 0.2784375 1.875 0.5625 C4.04160178 1.23686176 4.04160178 1.23686176 6 0 C6.33 0.99 6.66 1.98 7 3 C4.36 3 1.72 3 -1 3 C-0.67 2.01 -0.34 1.02 0 0 Z " fill="#FCFDFB" transform="translate(133,109)"/>
<path d="M0 0 C0 0.99 0 1.98 0 3 C-3.96 2.67 -7.92 2.34 -12 2 C-12 1.67 -12 1.34 -12 1 C-10.56274129 0.83126522 -9.12518162 0.66509263 -7.6875 0.5 C-6.88699219 0.4071875 -6.08648437 0.314375 -5.26171875 0.21875 C-3 0 -3 0 0 0 Z " fill="#D7D5E4" transform="translate(121,77)"/>
<path d="M0 0 C0.99 0 1.98 0 3 0 C3.33 1.32 3.66 2.64 4 4 C2.02 4.99 2.02 4.99 0 6 C0 4.02 0 2.04 0 0 Z " fill="#A23E06" transform="translate(195,41)"/>
<path d="M0 0 C-0.6875 1.9375 -0.6875 1.9375 -2 4 C-4.625 4.75 -4.625 4.75 -7 5 C-6 2 -6 2 -4.0625 0.8125 C-2 0 -2 0 0 0 Z " fill="#C26524" transform="translate(71,8)"/>
</svg>
