<svg width="35" height="32" viewBox="0 0 35 32" fill="none" xmlns="http://www.w3.org/2000/svg">
<path d="M11.2444 6.59991C11.0384 6.09044 10.606 5.77393 10.1158 5.77393C9.62567 5.77393 9.1932 6.09044 8.98723 6.59995L6.26423 13.3361C6.23319 13.4129 6.21758 13.495 6.21828 13.5779C6.21899 13.6607 6.23601 13.7426 6.26837 13.8188C6.30072 13.8951 6.34778 13.9642 6.40685 14.0223C6.46593 14.0804 6.53586 14.1262 6.61266 14.1573C6.68946 14.1883 6.77162 14.2039 6.85445 14.2032C6.93728 14.2025 7.01917 14.1855 7.09542 14.1531C7.17168 14.1208 7.24081 14.0737 7.29888 14.0146C7.35695 13.9556 7.40282 13.8856 7.43386 13.8088L8.45473 11.2834H11.7769L12.7977 13.8088C12.8286 13.8859 12.8744 13.9561 12.9324 14.0154C12.9905 14.0747 13.0597 14.122 13.136 14.1545C13.2124 14.187 13.2944 14.2042 13.3774 14.2049C13.4604 14.2057 13.5427 14.1901 13.6196 14.159C13.6966 14.1279 13.7666 14.0819 13.8258 14.0237C13.8849 13.9655 13.932 13.8961 13.9643 13.8197C13.9966 13.7432 14.0135 13.6612 14.014 13.5782C14.0145 13.4952 13.9987 13.4129 13.9674 13.3361L11.2444 6.59991ZM8.96471 10.0219L10.1158 7.17429L11.2669 10.0219H8.96471Z" fill="#E30A13"/>
<path d="M8.22469 23.6257C8.11153 23.5164 7.95997 23.4559 7.80265 23.4573C7.64533 23.4587 7.49484 23.5218 7.3836 23.633C7.27235 23.7443 7.20925 23.8947 7.20788 24.0521C7.20652 24.2094 7.26699 24.3609 7.37629 24.4741L7.55209 24.6499H4.80049C4.64136 24.6499 4.48875 24.5867 4.37622 24.4742C4.2637 24.3616 4.20049 24.209 4.20049 24.0499V22.2499C4.20049 22.0908 4.13727 21.9382 4.02475 21.8256C3.91223 21.7131 3.75962 21.6499 3.60049 21.6499C3.44136 21.6499 3.28875 21.7131 3.17622 21.8256C3.0637 21.9382 3.00049 22.0908 3.00049 22.2499V24.0499C3.00049 24.5273 3.19013 24.9851 3.5277 25.3227C3.86526 25.6603 4.3231 25.8499 4.80049 25.8499H7.55209L7.37629 26.0257C7.31898 26.081 7.27327 26.1473 7.24183 26.2205C7.21038 26.2937 7.19383 26.3724 7.19314 26.4521C7.19245 26.5317 7.20763 26.6107 7.2378 26.6845C7.26796 26.7582 7.31252 26.8252 7.36885 26.8815C7.42519 26.9379 7.49218 26.9824 7.56592 27.0126C7.63965 27.0428 7.71866 27.0579 7.79833 27.0573C7.878 27.0566 7.95673 27.04 8.02993 27.0086C8.10313 26.9771 8.16934 26.9314 8.22469 26.8741L9.42469 25.6741C9.53717 25.5616 9.60036 25.409 9.60036 25.2499C9.60036 25.0908 9.53717 24.9382 9.42469 24.8257L8.22469 23.6257Z" fill="#E30A13"/>
<path d="M26.9999 6.05747H24.2483L24.4241 5.88167C24.4814 5.82632 24.5271 5.76012 24.5585 5.68691C24.59 5.61371 24.6065 5.53498 24.6072 5.45531C24.6079 5.37564 24.5927 5.29664 24.5626 5.2229C24.5324 5.14916 24.4879 5.08217 24.4315 5.02583C24.3752 4.9695 24.3082 4.92495 24.2345 4.89478C24.1607 4.86461 24.0817 4.84943 24.002 4.85012C23.9224 4.85081 23.8436 4.86736 23.7704 4.89881C23.6972 4.93026 23.631 4.97596 23.5757 5.03327L22.3757 6.23327C22.2632 6.34579 22.2 6.49837 22.2 6.65747C22.2 6.81657 22.2632 6.96915 22.3757 7.08167L23.5757 8.28167C23.6888 8.39096 23.8404 8.45144 23.9977 8.45007C24.155 8.44871 24.3055 8.38561 24.4168 8.27436C24.528 8.16312 24.5911 8.01263 24.5925 7.85531C24.5939 7.69799 24.5334 7.54643 24.4241 7.43327L24.2483 7.25747H26.9999C27.159 7.25747 27.3116 7.32068 27.4241 7.43321C27.5367 7.54573 27.5999 7.69834 27.5999 7.85747V9.65747C27.5999 9.8166 27.6631 9.96921 27.7756 10.0817C27.8881 10.1943 28.0408 10.2575 28.1999 10.2575C28.359 10.2575 28.5116 10.1943 28.6241 10.0817C28.7367 9.96921 28.7999 9.8166 28.7999 9.65747V7.85747C28.7999 7.38008 28.6102 6.92224 28.2727 6.58468C27.9351 6.24711 27.4773 6.05747 26.9999 6.05747Z" fill="#E30A13"/>
<path d="M25.5607 13.7734H20.1631C20.2093 13.4756 20.2325 13.1747 20.2325 12.8733V7.10336C20.2307 5.55149 19.6134 4.06368 18.5161 2.96635C17.4188 1.86901 15.931 1.25176 14.3791 1.25H5.85335C4.30148 1.25176 2.81368 1.86901 1.71634 2.96635C0.619009 4.06369 0.00175509 5.55149 0 7.10336V12.8733C0.00175717 14.4252 0.619012 15.913 1.71635 17.0103C2.81368 18.1077 4.30148 18.7249 5.85335 18.7267H11.2523C11.2054 19.0244 11.1818 19.3253 11.1816 19.6267V25.3967C11.1834 26.9485 11.8006 28.4363 12.8979 29.5337C13.9953 30.631 15.4831 31.2482 17.0349 31.25H25.5608C27.1126 31.2482 28.6004 30.631 29.6977 29.5337C30.7951 28.4363 31.4123 26.9485 31.4141 25.3967V19.6267C31.4123 18.0748 30.7951 16.587 29.6977 15.4897C28.6004 14.3924 27.1126 13.7751 25.5607 13.7734ZM1.26153 12.8733V7.10336C1.26291 5.88596 1.74713 4.71881 2.60797 3.85798C3.4688 2.99715 4.63595 2.51294 5.85335 2.51157H14.3791C15.5965 2.51294 16.7636 2.99716 17.6245 3.85799C18.4853 4.71882 18.9695 5.88596 18.9709 7.10336V12.8733C18.9695 14.0907 18.4853 15.2579 17.6245 16.1187C16.7636 16.9795 15.5965 17.4637 14.3791 17.4651H5.85335C4.63595 17.4637 3.4688 16.9795 2.60797 16.1187C1.74713 15.2579 1.26291 14.0907 1.26153 12.8733Z" fill="#E30A13"/>
<path d="M18.0802 24.168L18.2882 23.512C18.9122 23.512 19.4482 23.496 19.8962 23.464C20.3495 23.432 20.7202 23.3813 21.0082 23.312C21.3015 23.2373 21.5175 23.1387 21.6562 23.016C21.8002 22.888 21.8722 22.7333 21.8722 22.552C21.8722 22.3493 21.8348 22.1147 21.7602 21.848C21.6855 21.5813 21.5895 21.296 21.4722 20.992L22.0882 20.776C22.1575 20.9467 22.2215 21.1307 22.2802 21.328C22.3442 21.52 22.3975 21.712 22.4402 21.904C22.4828 22.0907 22.5042 22.264 22.5042 22.424C22.5042 22.7387 22.4322 23.008 22.2882 23.232C22.1442 23.4507 21.9042 23.6293 21.5682 23.768C21.2322 23.9067 20.7788 24.008 20.2082 24.072C19.6428 24.136 18.9335 24.168 18.0802 24.168ZM18.0802 24.168C17.6055 24.168 17.1868 24.136 16.8242 24.072C16.4668 24.0133 16.1682 23.92 15.9282 23.792C15.6882 23.664 15.5068 23.4987 15.3842 23.296C15.2615 23.088 15.2002 22.8373 15.2002 22.544C15.2002 22.4107 15.2108 22.2747 15.2322 22.136C15.2535 21.992 15.2802 21.848 15.3122 21.704C15.3495 21.56 15.3868 21.4213 15.4242 21.288L16.0242 21.44C16.0028 21.52 15.9788 21.616 15.9522 21.728C15.9255 21.8347 15.9015 21.944 15.8802 22.056C15.8642 22.168 15.8562 22.2693 15.8562 22.36C15.8562 22.6373 15.9255 22.8613 16.0642 23.032C16.2082 23.1973 16.4562 23.32 16.8082 23.4C17.1602 23.4747 17.6535 23.512 18.2882 23.512L18.4482 23.912L18.0802 24.168ZM18.8482 25.688C18.7362 25.688 18.6402 25.648 18.5602 25.568C18.4855 25.4933 18.4482 25.4027 18.4482 25.296C18.4482 25.1893 18.4855 25.096 18.5602 25.016C18.6402 24.936 18.7362 24.896 18.8482 24.896C18.9548 24.896 19.0455 24.936 19.1202 25.016C19.2002 25.096 19.2402 25.1893 19.2402 25.296C19.2402 25.4027 19.2002 25.4933 19.1202 25.568C19.0455 25.648 18.9548 25.688 18.8482 25.688ZM23.1455 23.544C23.1455 23.416 23.1908 23.3093 23.2815 23.224C23.3775 23.1333 23.4841 23.088 23.6015 23.088C23.7081 23.088 23.8068 23.1333 23.8975 23.224C23.9935 23.3093 24.0415 23.416 24.0415 23.544C24.0415 23.6827 23.9935 23.7947 23.8975 23.88C23.8068 23.96 23.7081 24 23.6015 24C23.4841 24 23.3775 23.96 23.2815 23.88C23.1908 23.7947 23.1455 23.6827 23.1455 23.544ZM24.969 24L24.833 18.848H25.481L25.617 24H24.969ZM24.441 18.368L24.345 17.936C24.4837 17.904 24.5957 17.8773 24.681 17.856C24.7664 17.8347 24.8624 17.8107 24.969 17.784L24.929 17.952C24.7904 17.9093 24.657 17.8187 24.529 17.68C24.4064 17.5413 24.345 17.384 24.345 17.208C24.345 17.048 24.3824 16.9147 24.457 16.808C24.537 16.696 24.6384 16.6133 24.761 16.56C24.889 16.5067 25.025 16.48 25.169 16.48C25.2277 16.48 25.289 16.4853 25.353 16.496C25.4224 16.5067 25.4864 16.5227 25.545 16.544L25.481 16.944C25.4277 16.9333 25.377 16.9227 25.329 16.912C25.281 16.9013 25.2277 16.896 25.169 16.896C25.0464 16.896 24.9504 16.9227 24.881 16.976C24.8117 17.024 24.777 17.0933 24.777 17.184C24.777 17.296 24.8117 17.392 24.881 17.472C24.9557 17.552 25.0384 17.616 25.129 17.664C25.225 17.7067 25.3024 17.728 25.361 17.728L25.033 17.76C25.177 17.7227 25.3104 17.6853 25.433 17.648C25.561 17.6053 25.6757 17.5653 25.777 17.528L25.905 17.936C25.777 17.984 25.625 18.0347 25.449 18.088C25.2784 18.1413 25.105 18.192 24.929 18.24C24.753 18.288 24.5904 18.3307 24.441 18.368Z" fill="white"/>
</svg>
