<?xml version="1.0" encoding="UTF-8"?>
<svg version="1.1" xmlns="http://www.w3.org/2000/svg" width="225" height="225">
<path d="M0 0 C74.25 0 148.5 0 225 0 C225 74.25 225 148.5 225 225 C150.75 225 76.5 225 0 225 C0 150.75 0 76.5 0 0 Z " fill="#D11414" transform="translate(0,0)"/>
<path d="M0 0 C74.25 0 148.5 0 225 0 C225 74.25 225 148.5 225 225 C150.75 225 76.5 225 0 225 C0 150.75 0 76.5 0 0 Z M86 19 C84.90558594 19.32871094 83.81117187 19.65742188 82.68359375 19.99609375 C68.70059155 24.51127547 56.36814305 31.5287939 46 42 C44.700625 43.2375 44.700625 43.2375 43.375 44.5 C42.59125 45.325 41.8075 46.15 41 47 C40.41992188 47.57363281 39.83984375 48.14726563 39.2421875 48.73828125 C20.21214508 68.55191365 15.37926445 94.87024766 15.90673828 121.33984375 C16.59407651 140.94517715 25.87103004 159.91939931 38 175 C38.51691406 175.680625 39.03382812 176.36125 39.56640625 177.0625 C51.85113343 192.3337398 71.02123831 202.95706291 90 207 C90.80687256 207.17442627 91.61374512 207.34885254 92.44506836 207.52856445 C99.27624855 208.90335092 105.85254667 209.35017608 112.8125 209.3125 C113.86058838 209.30903564 114.90867676 209.30557129 115.98852539 209.30200195 C124.0269354 209.18958967 131.26673309 208.30169558 139 206 C139.75152344 205.80664062 140.50304687 205.61328125 141.27734375 205.4140625 C153.48813417 201.91227158 165.22633233 194.9468139 175 187 C175.82757813 186.34773437 176.65515625 185.69546875 177.5078125 185.0234375 C192.06246441 172.84133073 201.99833764 155.19457522 207 137 C207.26550659 136.05942749 207.26550659 136.05942749 207.53637695 135.09985352 C209.23494758 128.38538045 209.34587334 121.83755806 209.3125 114.9375 C209.30758545 113.7417334 209.3026709 112.5459668 209.29760742 111.31396484 C208.93861198 84.11499743 198.35189619 60.08131913 179 41 C161.08978606 24.23077365 136.38630523 15.56451807 112.125 15.6875 C110.97676758 15.69241455 109.82853516 15.6973291 108.64550781 15.70239258 C100.6436712 15.813308 93.61686691 16.41925085 86 19 Z " fill="#FEFDFD" transform="translate(0,0)"/>
<path d="M0 0 C1.09317535 -0.00524185 2.18635071 -0.0104837 3.31265259 -0.0158844 C5.6136999 -0.02227717 7.91478001 -0.02100343 10.21582031 -0.01245117 C13.70958499 -0.00394757 17.20170911 -0.03273333 20.6953125 -0.06445312 C22.94270785 -0.06606572 25.19010606 -0.06548649 27.4375 -0.0625 C28.98333267 -0.07935097 28.98333267 -0.07935097 30.56039429 -0.09654236 C41.89890662 0.01077035 51.13091599 3.57036665 59.3515625 11.43359375 C71.73742821 24.62883286 70.3515625 36.53048246 70.3515625 55.43359375 C33.0615625 55.43359375 -4.2284375 55.43359375 -42.6484375 55.43359375 C-42.6484375 22.60105243 -42.6484375 22.60105243 -30.97265625 10.55859375 C-21.86470026 2.2313197 -12.10552532 -0.03434885 0 0 Z " fill="#FEFDFC" transform="translate(98.6484375,107.56640625)"/>
<path d="M0 0 C8.27330865 8.85051623 11.18020525 16.8766081 10.96484375 28.71484375 C10.60820824 36.52001601 7.93406352 43.61010652 2.51953125 49.3125 C-6.08948069 56.65494088 -14.88620664 59.4017414 -26.1015625 59.18359375 C-34.46301272 58.37999939 -41.3509041 53.5935017 -47.3125 47.875 C-49.29255745 45.34091188 -50.90252248 42.76290575 -52.3125 39.875 C-52.67601563 39.14925781 -53.03953125 38.42351562 -53.4140625 37.67578125 C-55.98921404 29.64802624 -55.77791365 18.6305118 -52.0625 11.0625 C-51.18729991 9.64029985 -50.27595385 8.23895937 -49.3125 6.875 C-48.735 5.9675 -48.1575 5.06 -47.5625 4.125 C-33.62747145 -9.81002855 -16.34623775 -10.48626573 0 0 Z " fill="#FEFCFC" transform="translate(134.3125,42.125)"/>
</svg>
