<?xml version="1.0" encoding="UTF-8"?>
<svg version="1.1" xmlns="http://www.w3.org/2000/svg" width="171" height="170">
<path d="M0 0 C56.43 0 112.86 0 171 0 C171 56.1 171 112.2 171 170 C114.57 170 58.14 170 0 170 C0 113.9 0 57.8 0 0 Z " fill="#FEFDFD" transform="translate(0,0)"/>
<path d="M0 0 C8.74848512 7.12316075 14.96088241 16.78485327 17 28 C18.1182616 40.54486196 15.23808366 51.73157198 8 62 C7.38125 62.9075 6.7625 63.815 6.125 64.75 C0.70210394 70.49188994 -6.4603328 75.52777633 -14 78 C-18.50803859 77.49196141 -18.50803859 77.49196141 -20 76 C-20.04080783 74.00041636 -20.04254356 71.99954746 -20 70 C-19.0821875 69.59910156 -18.164375 69.19820313 -17.21875 68.78515625 C-7.14038654 64.19646555 0.05860704 59.25503343 4.4375 48.625 C4.98048856 47.09099645 5.50475871 45.55007727 6 44 C6.33 43.01 6.66 42.02 7 41 C8.12392779 29.84100261 5.86837384 20.5057422 -1.125 11.625 C-7.43055398 5.00140273 -15.42876637 1.38444033 -24.453125 0.76171875 C-36.57369404 0.52479405 -43.63586062 3.34539015 -53 11 C-52.3503125 11.4434375 -51.700625 11.886875 -51.03125 12.34375 C-49 14 -49 14 -48.5 16.5 C-49 19 -49 19 -50.5546875 20.63671875 C-53.88377634 22.49271237 -56.9188985 22.40124764 -60.625 22.3125 C-61.305625 22.31572266 -61.98625 22.31894531 -62.6875 22.32226562 C-67.73257212 22.26742788 -67.73257212 22.26742788 -70 20 C-70.25878906 18.15234375 -70.25878906 18.15234375 -70.265625 15.9375 C-70.26820312 15.14085938 -70.27078125 14.34421875 -70.2734375 13.5234375 C-70.26570313 12.69070312 -70.25796875 11.85796875 -70.25 11 C-70.25773437 10.16726562 -70.26546875 9.33453125 -70.2734375 8.4765625 C-70.27085938 7.67992188 -70.26828125 6.88328125 -70.265625 6.0625 C-70.26336914 5.33160156 -70.26111328 4.60070312 -70.25878906 3.84765625 C-70 2 -70 2 -68 0 C-65.5 -0.25 -65.5 -0.25 -63 0 C-61 2 -61 2 -61 5 C-60.3709375 4.46890625 -59.741875 3.9378125 -59.09375 3.390625 C-41.28859642 -11.3039897 -19.37635856 -14.09189714 0 0 Z " fill="#E31019" transform="translate(109,52)"/>
<path d="M0 0 C2.5 0.25 2.5 0.25 4.5 2.25 C4.81884766 4.49658203 4.81884766 4.49658203 4.9140625 7.2578125 C4.95273438 8.24394531 4.99140625 9.23007813 5.03125 10.24609375 C5.0621875 11.27863281 5.093125 12.31117187 5.125 13.375 C5.16367188 14.41527344 5.20234375 15.45554687 5.2421875 16.52734375 C5.33664766 19.10138311 5.42221214 21.67541155 5.5 24.25 C6.33144531 24.57613281 7.16289063 24.90226562 8.01953125 25.23828125 C9.10621094 25.67527344 10.19289063 26.11226562 11.3125 26.5625 C12.39144531 26.99175781 13.47039062 27.42101562 14.58203125 27.86328125 C17.19899601 29.10695259 18.80001765 29.93294221 20.5 32.25 C20.07894737 36.67105263 20.07894737 36.67105263 18.5 38.25 C10.29722059 38.25 3.50403393 34.12740277 -3.5 30.25 C-6.20071153 27.54928847 -4.68565282 19.45329036 -4.6875 15.8125 C-4.70586914 13.91274414 -4.70586914 13.91274414 -4.72460938 11.97460938 C-4.72654297 10.76740234 -4.72847656 9.56019531 -4.73046875 8.31640625 C-4.73457764 7.20209229 -4.73868652 6.08777832 -4.74291992 4.93969727 C-4.41779385 1.33978371 -3.62755127 0.36275513 0 0 Z " fill="#E3111A" transform="translate(78.5,65.75)"/>
<path d="M0 0 C0.9590625 1.0828125 0.9590625 1.0828125 1.9375 2.1875 C7.28822863 7.56889184 14.3761379 11.1032466 21.95439148 11.15821838 C22.97662811 11.1680072 23.99886475 11.17779602 25.05207825 11.18788147 C26.73305855 11.19651466 26.73305855 11.19651466 28.44799805 11.20532227 C29.62861816 11.21522186 30.80923828 11.22512146 32.02563477 11.23532104 C35.26294445 11.26151234 38.50024892 11.28337297 41.737602 11.30332303 C45.12089678 11.32519153 48.50414676 11.35257599 51.8874054 11.37937927 C58.29402946 11.42929448 64.70067841 11.47423765 71.10735112 11.51740164 C78.40114458 11.56678403 85.69489308 11.62169844 92.98864305 11.67708123 C107.99238681 11.79088328 122.9961729 11.89772619 138 12 C137.67 12.66 137.34 13.32 137 14 C91.79 14 46.58 14 0 14 C0 9.38 0 4.76 0 0 Z " fill="#F0F0F0" transform="translate(0,156)"/>
<path d="M0 0 C2.1875 -0.5 2.1875 -0.5 5 0 C7.89471623 3.21548208 9.75902074 6.61436928 10.5 10.875 C10 13 10 13 7 15 C4.28664789 14.81559743 3.29680938 14.33343367 1.48046875 12.29296875 C1.05378906 11.59816406 0.62710938 10.90335938 0.1875 10.1875 C-0.25207031 9.50042969 -0.69164062 8.81335938 -1.14453125 8.10546875 C-2.17471111 5.57000324 -1.94710106 4.52383913 -1 2 C-0.67 1.34 -0.34 0.68 0 0 Z " fill="#E41820" transform="translate(42,98)"/>
<path d="M0 0 C4.8044072 0.02061977 4.8044072 0.02061977 7.8125 2.3125 C8.26625 2.9725 8.72 3.6325 9.1875 4.3125 C8.5275 5.9625 7.8675 7.6125 7.1875 9.3125 C5.41742286 9.39364106 3.64627902 9.45175505 1.875 9.5 C0.88886719 9.53480469 -0.09726563 9.56960937 -1.11328125 9.60546875 C-3.8125 9.3125 -3.8125 9.3125 -5.68359375 7.96484375 C-6.8125 6.3125 -6.8125 6.3125 -6.5625 3.6875 C-5.30446273 -0.29628468 -3.98014447 0.11072144 0 0 Z " fill="#E4161F" transform="translate(75.8125,121.6875)"/>
<path d="M0 0 C2.5 -0.3125 2.5 -0.3125 5 0 C7 2 7 2 7.265625 4.53125 C7.26046875 5.5109375 7.2553125 6.490625 7.25 7.5 C7.25515625 8.4796875 7.2603125 9.459375 7.265625 10.46875 C7 13 7 13 5 15 C2.5 15.25 2.5 15.25 0 15 C-2 13 -2 13 -2.265625 10.72265625 C-2.26046875 9.84480469 -2.2553125 8.96695313 -2.25 8.0625 C-2.25515625 7.18722656 -2.2603125 6.31195313 -2.265625 5.41015625 C-2 3 -2 3 0 0 Z " fill="#E4141D" transform="translate(39,79)"/>
<path d="M0 0 C4.20400687 0.39660442 6.15954961 1.52617175 9.3125 4.3125 C10.3125 7.4375 10.3125 7.4375 10.3125 10.3125 C8.3125 12.3125 8.3125 12.3125 6.0625 12.6875 C2.19587587 12.16023307 0.22484794 10.89389931 -2.6875 8.3125 C-3.625 4.625 -3.625 4.625 -3.6875 1.3125 C-2.6875 0.3125 -2.6875 0.3125 0 0 Z " fill="#E4141C" transform="translate(55.6875,113.6875)"/>
</svg>
