<svg width="64" height="14" viewBox="0 0 64 14" fill="none" xmlns="http://www.w3.org/2000/svg">
<path d="M3.81734 1.796H6.17034C6.61234 1.796 7.05001 1.822 7.48334 1.874C7.92534 1.926 8.31967 2.03867 8.66634 2.212C9.01301 2.38533 9.29467 2.641 9.51134 2.979C9.72801 3.30833 9.83634 3.759 9.83634 4.331C9.83634 5.007 9.63267 5.553 9.22534 5.969C8.81801 6.385 8.25467 6.64933 7.53534 6.762L10.1483 11H8.80934L6.31334 6.866H4.90934V11H3.81734V1.796ZM4.90934 5.852H5.88434C6.18767 5.852 6.49967 5.84333 6.82034 5.826C7.14967 5.80867 7.44867 5.75233 7.71734 5.657C7.99467 5.56167 8.22001 5.41433 8.39334 5.215C8.57534 5.007 8.66634 4.71233 8.66634 4.331C8.66634 4.00167 8.60134 3.73733 8.47134 3.538C8.34134 3.33867 8.16801 3.187 7.95134 3.083C7.74334 2.97033 7.50501 2.89667 7.23634 2.862C6.97634 2.82733 6.71201 2.81 6.44334 2.81H4.90934V5.852ZM17.0166 9.895C16.6526 10.363 16.2539 10.6923 15.8206 10.883C15.3873 11.065 14.8846 11.156 14.3126 11.156C13.8359 11.156 13.4069 11.0737 13.0256 10.909C12.6443 10.7357 12.3193 10.506 12.0506 10.22C11.7906 9.934 11.5869 9.596 11.4396 9.206C11.3009 8.816 11.2316 8.4 11.2316 7.958C11.2316 7.49 11.3096 7.061 11.4656 6.671C11.6216 6.27233 11.8383 5.93433 12.1156 5.657C12.3929 5.371 12.7223 5.15 13.1036 4.994C13.4849 4.838 13.9009 4.76 14.3516 4.76C14.7763 4.76 15.1663 4.83367 15.5216 4.981C15.8769 5.11967 16.1803 5.32767 16.4316 5.605C16.6916 5.87367 16.8909 6.20733 17.0296 6.606C17.1683 6.996 17.2376 7.44233 17.2376 7.945V8.27H12.3236C12.3409 8.53 12.4016 8.78133 12.5056 9.024C12.6183 9.258 12.7613 9.466 12.9346 9.648C13.1079 9.82133 13.3116 9.96 13.5456 10.064C13.7796 10.168 14.0353 10.22 14.3126 10.22C14.7546 10.22 15.1273 10.142 15.4306 9.986C15.7339 9.83 16.0069 9.60033 16.2496 9.297L17.0166 9.895ZM16.1456 7.412C16.1283 6.892 15.9593 6.476 15.6386 6.164C15.3179 5.852 14.8759 5.696 14.3126 5.696C13.7493 5.696 13.2943 5.852 12.9476 6.164C12.6009 6.476 12.3929 6.892 12.3236 7.412H16.1456ZM18.7542 4.916H19.7682V5.8H19.7942C20.0716 5.47067 20.3922 5.215 20.7562 5.033C21.1289 4.851 21.5362 4.76 21.9782 4.76C22.4549 4.76 22.8882 4.84233 23.2782 5.007C23.6769 5.163 24.0149 5.384 24.2922 5.67C24.5696 5.956 24.7862 6.294 24.9422 6.684C25.0982 7.074 25.1762 7.49867 25.1762 7.958C25.1762 8.41733 25.0982 8.842 24.9422 9.232C24.7862 9.622 24.5696 9.96 24.2922 10.246C24.0236 10.532 23.7029 10.7573 23.3302 10.922C22.9576 11.078 22.5589 11.156 22.1342 11.156C21.5882 11.156 21.1072 11.039 20.6912 10.805C20.2839 10.5623 19.9849 10.2677 19.7942 9.921H19.7682V13.964H18.7542V4.916ZM19.7682 7.958C19.7682 8.27867 19.8159 8.57767 19.9112 8.855C20.0152 9.12367 20.1626 9.362 20.3532 9.57C20.5439 9.76933 20.7692 9.92967 21.0292 10.051C21.2979 10.1637 21.5969 10.22 21.9262 10.22C22.2556 10.22 22.5502 10.1637 22.8102 10.051C23.0789 9.92967 23.3086 9.76933 23.4992 9.57C23.6899 9.362 23.8329 9.12367 23.9282 8.855C24.0322 8.57767 24.0842 8.27867 24.0842 7.958C24.0842 7.63733 24.0322 7.34267 23.9282 7.074C23.8329 6.79667 23.6899 6.55833 23.4992 6.359C23.3086 6.151 23.0789 5.99067 22.8102 5.878C22.5502 5.75667 22.2556 5.696 21.9262 5.696C21.5969 5.696 21.2979 5.75667 21.0292 5.878C20.7692 5.99067 20.5439 6.151 20.3532 6.359C20.1626 6.55833 20.0152 6.79667 19.9112 7.074C19.8159 7.34267 19.7682 7.63733 19.7682 7.958ZM32.1875 9.895C31.8235 10.363 31.4248 10.6923 30.9915 10.883C30.5582 11.065 30.0555 11.156 29.4835 11.156C29.0068 11.156 28.5778 11.0737 28.1965 10.909C27.8152 10.7357 27.4902 10.506 27.2215 10.22C26.9615 9.934 26.7578 9.596 26.6105 9.206C26.4718 8.816 26.4025 8.4 26.4025 7.958C26.4025 7.49 26.4805 7.061 26.6365 6.671C26.7925 6.27233 27.0092 5.93433 27.2865 5.657C27.5638 5.371 27.8932 5.15 28.2745 4.994C28.6558 4.838 29.0718 4.76 29.5225 4.76C29.9472 4.76 30.3372 4.83367 30.6925 4.981C31.0478 5.11967 31.3512 5.32767 31.6025 5.605C31.8625 5.87367 32.0618 6.20733 32.2005 6.606C32.3392 6.996 32.4085 7.44233 32.4085 7.945V8.27H27.4945C27.5118 8.53 27.5725 8.78133 27.6765 9.024C27.7892 9.258 27.9322 9.466 28.1055 9.648C28.2788 9.82133 28.4825 9.96 28.7165 10.064C28.9505 10.168 29.2062 10.22 29.4835 10.22C29.9255 10.22 30.2982 10.142 30.6015 9.986C30.9048 9.83 31.1778 9.60033 31.4205 9.297L32.1875 9.895ZM31.3165 7.412C31.2992 6.892 31.1302 6.476 30.8095 6.164C30.4888 5.852 30.0468 5.696 29.4835 5.696C28.9202 5.696 28.4652 5.852 28.1185 6.164C27.7718 6.476 27.5638 6.892 27.4945 7.412H31.3165ZM33.8991 5.696C34.2111 5.37533 34.5795 5.14133 35.0041 4.994C35.4375 4.838 35.8751 4.76 36.3171 4.76C37.2185 4.76 37.8685 4.97233 38.2671 5.397C38.6658 5.82167 38.8651 6.46733 38.8651 7.334V9.947C38.8651 10.1203 38.8738 10.3023 38.8911 10.493C38.9085 10.675 38.9301 10.844 38.9561 11H37.9811C37.9465 10.8613 37.9248 10.7097 37.9161 10.545C37.9161 10.3717 37.9161 10.22 37.9161 10.09H37.8901C37.6908 10.402 37.4221 10.6577 37.0841 10.857C36.7548 11.0563 36.3561 11.156 35.8881 11.156C35.5761 11.156 35.2815 11.117 35.0041 11.039C34.7355 10.961 34.4971 10.8483 34.2891 10.701C34.0898 10.545 33.9295 10.3543 33.8081 10.129C33.6868 9.90367 33.6261 9.64367 33.6261 9.349C33.6261 8.84633 33.7561 8.452 34.0161 8.166C34.2761 7.88 34.5968 7.66767 34.9781 7.529C35.3681 7.39033 35.7841 7.30367 36.2261 7.269C36.6768 7.23433 37.0885 7.217 37.4611 7.217H37.8511V7.035C37.8511 6.593 37.7168 6.25933 37.4481 6.034C37.1881 5.80867 36.8198 5.696 36.3431 5.696C36.0138 5.696 35.6888 5.75233 35.3681 5.865C35.0561 5.969 34.7788 6.13367 34.5361 6.359L33.8991 5.696ZM36.8371 8.075C36.1871 8.075 35.6715 8.166 35.2901 8.348C34.9088 8.53 34.7181 8.829 34.7181 9.245C34.7181 9.62633 34.8438 9.89933 35.0951 10.064C35.3551 10.22 35.6758 10.298 36.0571 10.298C36.3518 10.298 36.6075 10.2503 36.8241 10.155C37.0495 10.051 37.2358 9.91667 37.3831 9.752C37.5305 9.58733 37.6431 9.39667 37.7211 9.18C37.7991 8.95467 37.8425 8.71633 37.8511 8.465V8.075H36.8371ZM44.0463 5.774H42.2523V8.816C42.2523 9.01533 42.2567 9.20167 42.2653 9.375C42.274 9.53967 42.3087 9.687 42.3693 9.817C42.43 9.93833 42.521 10.038 42.6423 10.116C42.7637 10.1853 42.937 10.22 43.1623 10.22C43.3097 10.22 43.4613 10.2027 43.6173 10.168C43.7733 10.1333 43.9207 10.0813 44.0593 10.012L44.0983 10.935C43.925 11.013 43.73 11.0693 43.5133 11.104C43.3053 11.1387 43.106 11.156 42.9153 11.156C42.5513 11.156 42.261 11.1083 42.0443 11.013C41.8277 10.9177 41.6587 10.7833 41.5373 10.61C41.416 10.4367 41.3337 10.2243 41.2903 9.973C41.2557 9.713 41.2383 9.427 41.2383 9.115V5.774H39.9123V4.916H41.2383V3.187H42.2523V4.916H44.0463V5.774Z" fill="#E30A13"/>
<path d="M62.2428 1.75501C59.9028 -0.585002 56.0955 -0.585002 53.7555 1.75501C53.6542 1.85753 53.5976 1.99594 53.5981 2.14003C53.5985 2.28412 53.656 2.42218 53.7579 2.52406C53.8598 2.62595 53.9978 2.68339 54.1419 2.68384C54.286 2.68429 54.4244 2.62772 54.5269 2.52647C56.4412 0.611906 59.5565 0.611906 61.4713 2.52647C63.3856 4.44093 63.3856 7.55613 61.4713 9.47059C59.7828 11.1587 57.145 11.3522 55.2276 10.0443L55.7145 9.882C55.8518 9.83622 55.9653 9.73777 56.03 9.60833C56.0947 9.47889 56.1053 9.32905 56.0595 9.19177C56.0137 9.05449 55.9153 8.94103 55.7858 8.87633C55.6564 8.81164 55.5066 8.80101 55.3693 8.84679L53.955 9.3183C53.8307 9.35982 53.7254 9.44474 53.6584 9.55752C53.5915 9.6703 53.5674 9.8034 53.5906 9.93248L53.8817 11.5508C53.9044 11.6767 53.9705 11.7906 54.0686 11.8727C54.1666 11.9548 54.2904 11.9998 54.4182 12C54.4508 11.9999 54.4834 11.997 54.5154 11.9912C54.6578 11.9656 54.7842 11.8845 54.8668 11.7657C54.9494 11.6469 54.9814 11.5001 54.9558 11.3577L54.9166 11.1396C56.0636 11.8264 57.4068 12.111 58.7338 11.9484C60.0607 11.7859 61.2956 11.1854 62.2428 10.242C64.5825 7.9022 64.5825 4.09489 62.2428 1.75501Z" fill="#E30A13"/>
<path d="M53.3282 3.12649C53.2638 3.09507 53.1938 3.07666 53.1223 3.0723C53.0508 3.06794 52.9791 3.07773 52.9113 3.1011C52.8436 3.12447 52.7811 3.16096 52.7275 3.20849C52.6739 3.25603 52.6301 3.31367 52.5988 3.37812C52.5546 3.46866 52.513 3.56003 52.4741 3.65222C52.4457 3.71823 52.4306 3.78921 52.4297 3.86107C52.4288 3.93294 52.4422 4.00427 52.4689 4.07097C52.4957 4.13767 52.5353 4.19843 52.5857 4.24975C52.636 4.30107 52.6959 4.34194 52.7621 4.37002C52.8282 4.3981 52.8993 4.41283 52.9712 4.41336C53.043 4.41389 53.1143 4.40022 53.1809 4.37313C53.2474 4.34603 53.308 4.30605 53.359 4.25548C53.4101 4.20491 53.4507 4.14475 53.4784 4.07846C53.5104 4.0036 53.544 3.92928 53.5797 3.85576C53.611 3.79136 53.6294 3.72142 53.6338 3.64992C53.6381 3.57842 53.6283 3.50676 53.605 3.43904C53.5816 3.37132 53.5452 3.30886 53.4977 3.25523C53.4502 3.20161 53.3926 3.15786 53.3282 3.12649Z" fill="#E30A13"/>
<path d="M52.5458 6.40958C52.688 6.40955 52.8246 6.35397 52.9264 6.25468C53.0282 6.15539 53.0872 6.02025 53.0908 5.87808C53.0935 5.77512 53.0992 5.67211 53.1081 5.56907C53.1143 5.4977 53.1064 5.42582 53.0847 5.35752C53.0631 5.28922 53.0283 5.22585 52.9822 5.17102C52.9361 5.11619 52.8797 5.07098 52.8161 5.03796C52.7525 5.00494 52.6831 4.98477 52.6117 4.97859C52.5403 4.97242 52.4685 4.98036 52.4002 5.00196C52.3319 5.02357 52.2685 5.05841 52.2137 5.10451C52.1588 5.15061 52.1136 5.20705 52.0806 5.27062C52.0476 5.33419 52.0274 5.40364 52.0212 5.47501C52.0103 5.59984 52.0033 5.72487 52.0002 5.8501C51.9965 5.99472 52.0503 6.13489 52.1499 6.2398C52.2496 6.34471 52.3868 6.40576 52.5314 6.40953C52.5362 6.40958 52.541 6.40958 52.5458 6.40958Z" fill="#E30A13"/>
<path d="M53.2928 7.40002C53.2723 7.33138 53.2384 7.26746 53.1932 7.2119C53.148 7.15634 53.0923 7.11023 53.0292 7.0762C52.9662 7.04218 52.8971 7.0209 52.8258 7.01359C52.7545 7.00628 52.6825 7.01308 52.6139 7.0336C52.5452 7.05411 52.4813 7.08795 52.4258 7.13317C52.3702 7.1784 52.3241 7.23412 52.2901 7.29716C52.256 7.36021 52.2348 7.42933 52.2275 7.5006C52.2201 7.57186 52.2269 7.64387 52.2475 7.71251C52.276 7.80813 52.3068 7.90352 52.3402 7.99794C52.3639 8.06552 52.4008 8.12777 52.4486 8.18111C52.4964 8.23446 52.5543 8.27786 52.6189 8.30885C52.6835 8.33983 52.7536 8.35779 52.8251 8.36169C52.8967 8.36559 52.9683 8.35537 53.0359 8.3316C53.1034 8.30783 53.1657 8.27098 53.219 8.22315C53.2724 8.17532 53.3158 8.11746 53.3468 8.05286C53.3778 7.98826 53.3957 7.91819 53.3996 7.84665C53.4035 7.77511 53.3933 7.7035 53.3695 7.63591C53.3421 7.55777 53.3165 7.47914 53.2928 7.40002Z" fill="#E30A13"/>
</svg>
