<svg width="55" height="55" viewBox="0 0 55 55" fill="none" xmlns="http://www.w3.org/2000/svg">
<g filter="url(#filter0_d_4191_8207)">
<rect x="10" y="6" width="35" height="35" rx="6" fill="white"/>
<path d="M32.3879 15.7578C32.4659 15.7731 32.5377 15.8108 32.5969 15.8652L32.5979 15.8643L38.593 21.1553L38.677 21.2295V21.2617C38.6877 21.2792 38.6972 21.2975 38.7053 21.3164L38.7268 21.3789L38.7385 21.4434C38.7451 21.5086 38.7363 21.5748 38.7131 21.6367C38.6822 21.7193 38.6267 21.7909 38.554 21.8408C38.4819 21.8902 38.3962 21.9154 38.3088 21.915V21.916H19.7805C19.6666 21.916 19.5574 21.8706 19.4768 21.79C19.3963 21.7095 19.3509 21.6002 19.3508 21.4863V20.2676C19.3509 20.1537 19.3963 20.0444 19.4768 19.9639C19.5574 19.8833 19.6666 19.8379 19.7805 19.8379H33.9709L31.2278 17.3994C31.1422 17.3233 31.0902 17.2159 31.0833 17.1016L31.0823 17.0996C31.0766 16.9898 31.1134 16.8814 31.1838 16.7969L31.1887 16.792L31.9895 15.8857L32.0032 15.8721C32.084 15.7938 32.1924 15.75 32.3049 15.75L32.3879 15.7578Z" fill="#E30A13" stroke="#E30A13" stroke-width="0.5"/>
<path d="M37.1396 27.7227C37.1396 27.8366 37.0942 27.9458 37.0137 28.0264C36.9331 28.1069 36.8239 28.1523 36.71 28.1523H22.5049L25.249 30.5908C25.3132 30.648 25.3584 30.7227 25.3799 30.8047L25.3936 30.8887V30.8906C25.3992 31.0005 25.3625 31.1089 25.292 31.1934L25.2881 31.1982L24.4863 32.1045C24.4123 32.188 24.3085 32.2399 24.1973 32.249L24.1885 32.25H24.1797C24.0758 32.251 23.9745 32.214 23.8955 32.1465L23.8926 32.1445L17.8975 26.8535L17.8984 26.8525C17.8329 26.7955 17.7854 26.7209 17.7637 26.6367C17.7417 26.5514 17.7465 26.4614 17.7773 26.3789L17.8047 26.3184C17.8368 26.2613 17.8821 26.2122 17.9365 26.1748L17.9941 26.1416C18.0524 26.1137 18.1165 26.1003 18.1816 26.1006V26.0996H36.71C36.793 26.0996 36.8735 26.1237 36.9424 26.168L37.0078 26.2197L37.0615 26.2822C37.1086 26.3492 37.1362 26.4288 37.1396 26.5117V27.7227Z" fill="#E30A13" stroke="#E30A13" stroke-width="0.5"/>
</g>
<defs>
<filter id="filter0_d_4191_8207" x="0" y="0" width="55" height="55" filterUnits="userSpaceOnUse" color-interpolation-filters="sRGB">
<feFlood flood-opacity="0" result="BackgroundImageFix"/>
<feColorMatrix in="SourceAlpha" type="matrix" values="0 0 0 0 0 0 0 0 0 0 0 0 0 0 0 0 0 0 127 0" result="hardAlpha"/>
<feOffset dy="4"/>
<feGaussianBlur stdDeviation="5"/>
<feComposite in2="hardAlpha" operator="out"/>
<feColorMatrix type="matrix" values="0 0 0 0 0 0 0 0 0 0 0 0 0 0 0 0 0 0 0.1 0"/>
<feBlend mode="normal" in2="BackgroundImageFix" result="effect1_dropShadow_4191_8207"/>
<feBlend mode="normal" in="SourceGraphic" in2="effect1_dropShadow_4191_8207" result="shape"/>
</filter>
</defs>
</svg>
