<?xml version="1.0" encoding="UTF-8"?>
<svg version="1.1" xmlns="http://www.w3.org/2000/svg" width="156" height="159">
<path d="M0 0 C51.48 0 102.96 0 156 0 C156 52.47 156 104.94 156 159 C104.52 159 53.04 159 0 159 C0 106.53 0 54.06 0 0 Z " fill="#E30A13" transform="translate(0,0)"/>
<path d="M0 0 C0.91476569 4.3585086 0.94977047 7.81573015 0.22729492 12.20141602 C0.03346725 13.40609024 -0.16036041 14.61076447 -0.36006165 15.85194397 C-0.57768661 17.13959152 -0.79531158 18.42723907 -1.01953125 19.75390625 C-1.24105059 21.10087628 -1.46187997 22.44795994 -1.68205261 23.79515076 C-2.14438813 26.6111364 -2.61325844 29.42592815 -3.0871582 32.23999023 C-3.6928462 35.83829194 -4.28489857 39.4386701 -4.87241077 43.03997898 C-5.32691617 45.81945584 -5.78725724 48.59794069 -6.24948692 51.3761425 C-6.5765688 53.34600837 -6.89986613 55.31650142 -7.22309875 57.28700256 C-7.4263829 58.48852463 -7.62966705 59.69004669 -7.83911133 60.92797852 C-8.01533524 61.98243668 -8.19155914 63.03689484 -8.37312317 64.12330627 C-8.98783068 66.94415584 -9.75135087 69.39793633 -11 72 C-13.31799871 73.11538029 -14.49287724 73.13639506 -16.96704102 72.47094727 C-17.63920654 72.17244873 -18.31137207 71.8739502 -19.00390625 71.56640625 C-20.11475586 71.0878418 -20.11475586 71.0878418 -21.24804688 70.59960938 C-22.01181641 70.25736328 -22.77558594 69.91511719 -23.5625 69.5625 C-25.08257505 68.89244173 -26.60464094 68.22687692 -28.12890625 67.56640625 C-28.79994385 67.26677979 -29.47098145 66.96715332 -30.16235352 66.65844727 C-32.14535509 65.83134463 -32.14535509 65.83134463 -35 66 C-36.98976923 68.50397926 -38.7608884 71.05977397 -40.5078125 73.734375 C-41.6484375 75.375 -41.6484375 75.375 -44 78 C-46.7890625 78.375 -46.7890625 78.375 -49 78 C-51.57617124 72.84765753 -51.38100079 65.51142572 -50 60 C-47.46520767 55.21370117 -43.43404936 51.5112414 -39.64160156 47.71337891 C-37.04853618 45.0069344 -34.82248718 42.04732549 -32.5625 39.0625 C-26.68298909 31.44195831 -20.36042445 24.21994127 -14 17 C-17.3273395 19.6160178 -20.50759312 22.32553281 -23.625 25.1875 C-27.12745996 28.36354727 -30.69202283 31.41052271 -34.375 34.375 C-39.54571836 38.55417436 -44.41732369 42.9841042 -49.2734375 47.51953125 C-50.17320313 48.33808594 -51.07296875 49.15664062 -52 50 C-52.81726563 50.78761719 -53.63453125 51.57523438 -54.4765625 52.38671875 C-57 54 -57 54 -59.88671875 53.890625 C-63.24015537 52.93129809 -66.53089235 51.93512916 -69.8125 50.75 C-70.95332031 50.35296875 -72.09414062 49.9559375 -73.26953125 49.546875 C-74.62111328 48.78117187 -74.62111328 48.78117187 -76 48 C-76.6706543 45.40332031 -76.6706543 45.40332031 -77 43 C-68.37307751 37.6206727 -59.65869679 32.4504505 -50.8125 27.4375 C-48.36655751 26.04667895 -45.92157354 24.65417643 -43.4765625 23.26171875 C-42.86038559 22.91106354 -42.24420868 22.56040833 -41.60935974 22.1991272 C-33.86659529 17.79033992 -26.15340985 13.330475 -18.4387207 8.87280273 C-16.47755536 7.7396536 -14.51547278 6.60808964 -12.55224609 5.47851562 C-10.97012044 4.56199057 -9.39368272 3.63547404 -7.82666016 2.69335938 C-3.31139175 0 -3.31139175 0 0 0 Z " fill="#FEF8F8" transform="translate(118,42)"/>
<path d="M0 0 C51.48 0 102.96 0 156 0 C156 52.47 156 104.94 156 159 C104.52 159 53.04 159 0 159 C0 106.53 0 54.06 0 0 Z M7.5 12.5 C6.8709375 13.2321875 6.241875 13.964375 5.59375 14.71875 C2.85557043 18.63810507 1.7532376 22.13690186 1.71911621 26.89982605 C1.70769592 27.85987549 1.69627563 28.81992493 1.68450928 29.80906677 C1.68227356 30.85071487 1.68003784 31.89236298 1.67773438 32.96557617 C1.66780457 34.07190399 1.65787476 35.17823181 1.64764404 36.31808472 C1.61844652 39.97640478 1.6048038 43.63455133 1.59375 47.29296875 C1.5822423 49.84019474 1.57072689 52.38742069 1.5592041 54.93464661 C1.5408798 59.59446091 1.52827467 64.25422337 1.5222106 68.91406459 C1.51326166 75.75137434 1.47821617 82.58788193 1.42020941 89.42494792 C1.37158057 95.36495843 1.35631297 101.3047716 1.3528595 107.2449894 C1.34682073 109.76270219 1.33081185 112.28041219 1.30448914 114.79799461 C1.27021493 118.3284239 1.27416383 121.85692108 1.28710938 125.38745117 C1.26867981 126.41897812 1.25025024 127.45050507 1.23126221 128.51329041 C1.31651529 135.96946657 3.35081034 141.14479784 8 147 C13.22597724 151.81624179 18.53573365 155.23260323 25.82389832 155.27415466 C26.76711945 155.28412979 27.71034058 155.29410492 28.68214417 155.30438232 C29.70509079 155.305047 30.72803741 155.30571167 31.78198242 155.30639648 C32.8688031 155.31472 33.95562378 155.32304352 35.07537842 155.33161926 C38.66877833 155.35571596 42.2619966 155.36449193 45.85546875 155.37109375 C48.35785476 155.38006164 50.86024021 155.38918351 53.36262512 155.39845276 C58.61065413 155.41494533 63.85863892 155.42267602 69.10668945 155.42553711 C74.48512376 155.42876561 79.86315018 155.44986408 85.24145508 155.48706055 C91.74416664 155.53135497 98.24649466 155.55100348 104.74935341 155.55226326 C107.22239249 155.5564592 109.69543224 155.56886815 112.16838646 155.58978081 C115.63638425 155.61676888 119.10299419 155.61184586 122.57104492 155.59936523 C123.58387039 155.61419952 124.59669586 155.62903381 125.64021301 155.64431763 C133.41862769 155.56498613 140.07564382 153.59135033 145.91824627 148.24452877 C152.51235481 141.21519043 153.44353518 134.2463159 153.38818359 124.95922852 C153.39344055 123.8689032 153.39869751 122.77857788 153.40411377 121.6552124 C153.41728139 118.06296318 153.40858617 114.47115973 153.3984375 110.87890625 C153.4004593 108.37458715 153.40337163 105.87026863 153.40713501 103.36595154 C153.41155411 98.12144453 153.40542893 92.87705264 153.39111328 87.63256836 C153.37479713 81.58572146 153.38007166 75.53917823 153.3965925 69.49233872 C153.4118951 63.65586247 153.41021373 57.81950079 153.4014473 51.98301506 C153.39944997 49.50835057 153.40188808 47.0336783 153.40888596 44.5590229 C153.4165297 41.09586379 153.40485407 37.63328227 153.38818359 34.17016602 C153.39729263 32.64485512 153.39729263 32.64485512 153.40658569 31.08872986 C153.34452365 24.10682374 152.46929044 18.41901753 148.2734375 12.609375 C147.64695313 11.99578125 147.02046875 11.3821875 146.375 10.75 C145.45847656 9.81414063 145.45847656 9.81414063 144.5234375 8.859375 C137.38198362 3.59725109 130.66713962 2.40906681 121.94750977 2.46655273 C120.87961212 2.45793716 119.81171448 2.44932159 118.7114563 2.44044495 C115.20452173 2.41786457 111.69839143 2.42450975 108.19140625 2.43359375 C105.73957585 2.42835466 103.28774747 2.42207713 100.83592224 2.41481018 C95.70586642 2.40442051 90.57608823 2.40894712 85.44604492 2.42358398 C78.88797616 2.44076821 72.33078385 2.41727206 65.77281284 2.38209438 C60.71199288 2.36008245 55.6513814 2.3615712 50.59052849 2.3698597 C48.17332943 2.37067714 45.75611475 2.36385355 43.33896065 2.34908867 C39.95272842 2.33157377 36.5680557 2.34624507 33.18188477 2.36889648 C31.70012505 2.35135818 31.70012505 2.35135818 30.18843079 2.33346558 C21.23686882 2.45465029 13.33870317 5.47376398 7.5 12.5 Z " fill="#F4E8E8" transform="translate(0,0)"/>
</svg>
