<?xml version="1.0" encoding="UTF-8"?>
<svg version="1.1" xmlns="http://www.w3.org/2000/svg" width="225" height="225">
<path d="M0 0 C0.98484375 0.70898438 1.9696875 1.41796875 2.984375 2.1484375 C6.41607024 4.65481364 9.72098824 7.29797363 13 10 C13.55268555 10.44633789 14.10537109 10.89267578 14.67480469 11.35253906 C28.88737199 23.10861325 36.88610021 41.25722976 41 59 C41.22042969 59.85464844 41.44085938 60.70929688 41.66796875 61.58984375 C47.48683872 87.5599681 38.59533448 114.89069792 25 137 C12.71140367 154.01277903 -5.35873824 164.65333378 -25 171 C-25.79051758 171.27215332 -26.58103516 171.54430664 -27.39550781 171.82470703 C-35.4242639 174.34508506 -43.29300672 174.47425846 -51.625 174.375 C-52.33343048 174.36968262 -53.04186096 174.36436523 -53.77175903 174.35888672 C-75.26474311 174.1695827 -93.52660103 170.19138025 -111 157 C-111.75539062 156.44570312 -112.51078125 155.89140625 -113.2890625 155.3203125 C-127.3070932 144.77162719 -127.3070932 144.77162719 -129 138 C-129 137.01 -129 136.02 -129 135 C-129.60070312 134.74476563 -130.20140625 134.48953125 -130.8203125 134.2265625 C-139.26767602 129.47302819 -142.1935602 116.69585851 -145 108 C-145.34417969 106.95714844 -145.68835938 105.91429687 -146.04296875 104.83984375 C-150.66349634 87.68098308 -150.05223531 66.70038682 -144 50 C-143.38125 48.24623047 -143.38125 48.24623047 -142.75 46.45703125 C-140.13598611 39.76604682 -136.79564115 33.74174682 -132.875 27.75 C-132.45524902 27.10538818 -132.03549805 26.46077637 -131.60302734 25.79663086 C-129.32557924 22.45694352 -127.56924767 20.74632719 -124 19 C-123.28220092 17.35470772 -122.61810426 15.6852802 -122 14 C-109.98254776 -1.51859975 -88.59330601 -11.11019578 -69.859375 -14.58203125 C-45.8291847 -17.18449113 -19.88036084 -14.94318514 0 0 Z " fill="#FBF6F7" transform="translate(166,32)"/>
<path d="M0 0 C0.77923828 0.00451172 1.55847656 0.00902344 2.36132812 0.01367188 C4.26175268 0.02533092 6.16213706 0.04326123 8.0625 0.0625 C8.89179223 24.48223682 9.19791602 48.86873344 9.13116455 73.30157471 C9.12064157 77.58776316 9.11630724 81.87395841 9.11132812 86.16015625 C9.10083533 94.46095485 9.08394188 102.76172246 9.0625 111.0625 C-0.87474009 111.26491157 -10.81221143 111.45182672 -20.75 111.625 C-21.48018341 111.63773327 -22.21036682 111.65046654 -22.962677 111.66358566 C-45.31241783 112.04863446 -67.60257233 112.15691146 -89.9375 111.0625 C-95.24919213 100.43911575 -91.60899078 79.69096467 -88.1875 68.51171875 C-87.56875 66.80435547 -87.56875 66.80435547 -86.9375 65.0625 C-86.31875 63.30873047 -86.31875 63.30873047 -85.6875 61.51953125 C-83.07348611 54.82854682 -79.73314115 48.80424682 -75.8125 42.8125 C-75.39274902 42.16788818 -74.97299805 41.52327637 -74.54052734 40.85913086 C-72.26307924 37.51944352 -70.50674767 35.80882719 -66.9375 34.0625 C-66.21970092 32.41720772 -65.55560426 30.7477802 -64.9375 29.0625 C-53.00235243 13.65018345 -31.48266423 3.7392467 -12.79272461 0.52099609 C-8.49152311 0.00946064 -4.32408315 -0.04816888 0 0 Z " fill="#06205A" transform="translate(108.9375,16.9375)"/>
<path d="M0 0 C1.37488287 -0.02749766 2.74993391 -0.0466164 4.125 -0.0625 C5.27355469 -0.07990234 5.27355469 -0.07990234 6.4453125 -0.09765625 C9 0 9 0 15 1 C15 62.71 15 124.42 15 188 C3.44157888 193.77921056 -24.22548071 189.68796078 -36 186 C-45.24545423 182.49039999 -54.09616061 177.96693013 -62 172 C-62.75539062 171.44570312 -63.51078125 170.89140625 -64.2890625 170.3203125 C-78.3070932 159.77162719 -78.3070932 159.77162719 -80 153 C-80 152.01 -80 151.02 -80 150 C-80.60070312 149.74476563 -81.20140625 149.48953125 -81.8203125 149.2265625 C-90.54607914 144.31636407 -93.99811677 129.95098342 -96.61523438 120.86376953 C-97.51923944 117.43727313 -98 114.566238 -98 111 C-65.33 111 -32.66 111 1 111 C0.6737185 87.93892433 0.6737185 87.93892433 0.34179688 64.87792969 C0.03866645 43.25065016 -0.06418337 21.62930162 0 0 Z " fill="#C10F3A" transform="translate(117,17)"/>
<path d="M0 0 C1.54238266 0.11583111 3.08390272 0.24316572 4.625 0.375 C5.91277344 0.47941406 5.91277344 0.47941406 7.2265625 0.5859375 C10.31322502 1.04676317 13.06911399 1.94281824 16 3 C16.77595786 25.11439316 17.14412393 47.19595876 17.10139394 69.32325411 C17.09496799 73.24018945 17.09454192 77.15712636 17.09336853 81.07406616 C17.09031008 88.42883771 17.08217408 95.78359367 17.07201904 103.13835847 C17.06068314 111.53801758 17.0553043 119.9376776 17.05032361 128.3373425 C17.03998408 145.55823722 17.02249593 162.77911694 17 180 C15.68 180.33 14.36 180.66 13 181 C13 181.66 13 182.32 13 183 C8.73383684 184.13764351 5.43513689 185 1 185 C0.86676911 169.14767173 0.73633521 153.29532276 0.60884857 137.44294739 C0.54953644 130.07507276 0.48944205 122.70720636 0.42724609 115.33935547 C0.10321013 76.89174785 -0.07753848 38.449238 0 0 Z " fill="#C1103A" transform="translate(131,19)"/>
<path d="M0 0 C1.37488287 -0.02749766 2.74993391 -0.0466164 4.125 -0.0625 C5.27355469 -0.07990234 5.27355469 -0.07990234 6.4453125 -0.09765625 C9 0 9 0 15 1 C15 62.71 15 124.42 15 188 C12.23547967 189.38226016 9.9538637 189.09525387 6.875 189.0625 C5.77929688 189.05347656 4.68359375 189.04445312 3.5546875 189.03515625 C2.71164063 189.02355469 1.86859375 189.01195312 1 189 C0.86813028 169.67303309 0.7376885 150.34605702 0.60884857 131.01906967 C0.54896532 122.04086614 0.48865197 113.06266592 0.42724609 104.08447266 C0.3735913 96.23939708 0.32082482 88.39431606 0.26903296 80.54922795 C0.24169927 76.41323359 0.21398377 72.27724276 0.18519592 68.14125824 C0.02746702 45.42716867 -0.02901305 22.7146339 0 0 Z " fill="#FAF6F8" transform="translate(117,17)"/>
<path d="M0 0 C4.67325471 -0.02519797 9.34646772 -0.04308849 14.01977539 -0.05493164 C15.60116263 -0.05988196 17.18254549 -0.06664392 18.76391602 -0.07543945 C21.0704864 -0.08792328 23.37699511 -0.09332086 25.68359375 -0.09765625 C26.36143417 -0.10281754 27.0392746 -0.10797882 27.73765564 -0.11329651 C35.87077071 -0.11417478 43.83277941 0.51957526 52 1 C52 23.44 52 45.88 52 69 C39.8230115 66.5646023 27.88917253 56.40720573 20 47 C18.39851447 43.93628856 18 42.45015208 18 39 C17.39929688 38.74476563 16.79859375 38.48953125 16.1796875 38.2265625 C7.45392086 33.31636407 4.00188323 18.95098342 1.38476562 9.86376953 C0.48076056 6.43727313 0 3.566238 0 0 Z " fill="#C50E39" transform="translate(19,128)"/>
<path d="M0 0 C6.53327752 1.63331938 11.45208195 5.14358832 16 10 C17.68454381 14.57674065 17.60701388 18.83153157 17.48925781 23.67041016 C17.49898798 25.02986596 17.51388338 26.389293 17.5335083 27.74864197 C17.57091788 31.41736741 17.53366761 35.08178196 17.48017979 38.75016832 C17.43467568 42.59991532 17.45136992 46.449469 17.45916748 50.29940796 C17.46269115 56.76086316 17.41855098 63.22063312 17.34472656 69.68164062 C17.25998991 77.14014306 17.24603353 84.59618216 17.2709744 92.05506861 C17.29378974 99.24804393 17.27112531 106.44015622 17.22628021 113.63300705 C17.20775535 116.6864158 17.20417414 119.73929419 17.2126236 122.79274368 C17.22018592 126.39054395 17.18752702 129.9858539 17.12438202 133.58308601 C17.0994526 135.52453555 17.11339759 137.46636362 17.12866211 139.40791321 C16.92716764 147.69958258 16.92716764 147.69958258 14.42745209 151.20560837 C12.3652099 153.08602155 10.3725513 154.52654277 8 156 C5.36 157.65 2.72 159.3 0 161 C0 107.87 0 54.74 0 0 Z " fill="#C1123E" transform="translate(162,31)"/>
<path d="M0 0 C3.84574185 0.52341759 6.94971732 1.23174547 10.375 3.0625 C11.06335938 3.42472656 11.75171875 3.78695313 12.4609375 4.16015625 C13.22277344 4.57587891 13.22277344 4.57587891 14 5 C14.04669371 26.31385107 14.08197594 47.62769372 14.10362434 68.94158554 C14.11394265 78.83770201 14.12801358 88.73378672 14.15087891 98.62988281 C14.1707958 107.25400254 14.1837124 115.87809928 14.18817699 124.50224137 C14.19078725 129.06983934 14.19693403 133.63737152 14.21146011 138.20494843 C14.22501716 142.50256768 14.22922645 146.80009393 14.22621536 151.09773254 C14.22676637 152.67636368 14.23075499 154.25499787 14.23841095 155.83361053 C14.2483429 157.98682443 14.24597541 160.13968588 14.24050903 162.29290771 C14.24235262 163.49861294 14.24419621 164.70431816 14.24609566 165.94655991 C14.00685265 168.91497558 13.67626237 170.56718263 12 173 C9.28515625 174.51953125 9.28515625 174.51953125 6.0625 175.8125 C4.47115234 176.47185547 4.47115234 176.47185547 2.84765625 177.14453125 C0 178 0 178 -3 177 C-1.68 176.67 -0.36 176.34 1 176 C0.99484627 175.29343545 0.98969254 174.5868709 0.98438263 173.8588953 C0.85783175 156.49765575 0.73263025 139.13640696 0.60884857 121.77514744 C0.54895255 113.378658 0.48863443 104.98217203 0.42724609 96.58569336 C0.37360974 89.24934616 0.32084319 81.91299325 0.26903296 74.57663292 C0.24168737 70.70845356 0.21396654 66.84027789 0.18519592 62.97210884 C0.0294254 41.98100981 -0.02936236 20.99169223 0 0 Z " fill="#FBFAFA" transform="translate(147,23)"/>
<path d="M0 0 C1.0209375 0.99 1.0209375 0.99 2.0625 2 C5.64457375 4.43885872 7.75519536 4.33292585 12 4 C11.690625 5.85625 11.690625 5.85625 11.375 7.75 C10.93892876 11.11909835 10.96596361 13.12841921 13 16 C14.65 16 16.3 16 18 16 C18.33 15.01 18.66 14.02 19 13 C21.475 13.495 21.475 13.495 24 14 C24 13.01 24 12.02 24 11 C26.475 11.495 26.475 11.495 29 12 C29.66 10.02 30.32 8.04 31 6 C31.495 6.309375 31.99 6.61875 32.5 6.9375 C35.97986781 8.41644382 39.24028509 8.62402851 43 9 C42.7215625 10.85625 42.7215625 10.85625 42.4375 12.75 C42.05288777 15.76279577 41.9125406 18.10010827 43 21 C40.69 21 38.38 21 36 21 C37.98 21.66 39.96 22.32 42 23 C43.32 21.02 44.64 19.04 46 17 C46.495 18.98 46.495 18.98 47 21 C47.66 21 48.32 21 49 21 C49.28875 20.38125 49.5775 19.7625 49.875 19.125 C51 17 51 17 53 15 C53.09915614 19.60809095 53.17160182 24.21555592 53.21972656 28.82446289 C53.23979558 30.39097923 53.26705751 31.95742109 53.30175781 33.52368164 C53.35048754 35.78029794 53.3730147 38.03592083 53.390625 40.29296875 C53.41127014 40.98899704 53.43191528 41.68502533 53.45318604 42.40214539 C53.45539059 47.22030723 52.35148894 49.57603076 49 53 C49.33 53.66 49.66 54.32 50 55 C46.125 53.25 46.125 53.25 45 51 C44.505 51.99 44.505 51.99 44 53 C42.7625 52.938125 41.525 52.87625 40.25 52.8125 C37.21788698 52.79637174 36.17751704 52.89348977 33.5 54.5 C33.005 54.995 32.51 55.49 32 56 C31.505 52.535 31.505 52.535 31 49 C29.88625 49.020625 28.7725 49.04125 27.625 49.0625 C24 49 24 49 22 48 C22.33 46.02 22.66 44.04 23 42 C20.50447516 42.78130071 20.50447516 42.78130071 18 44 C17.67 44.99 17.34 45.98 17 47 C15.68 46.34 14.36 45.68 13 45 C13 45.99 13 46.98 13 48 C11.7625 48.12375 10.525 48.2475 9.25 48.375 C6.1237803 48.75746305 3.71120763 49.30549523 1 51 C0.79375 50.071875 0.5875 49.14375 0.375 48.1875 C-0.74446192 44.73995905 -0.74446192 44.73995905 -4.125 43.125 C-5.07375 42.75375 -6.0225 42.3825 -7 42 C-7 41.34 -7 40.68 -7 40 C-6.34 40 -5.68 40 -5 40 C-4.87625 38.906875 -4.7525 37.81375 -4.625 36.6875 C-4 33 -4 33 -2 30 C-2.66 30 -3.32 30 -4 30 C-4 28.68 -4 27.36 -4 26 C-3.34 26 -2.68 26 -2 26 C-2.33 24.68 -2.66 23.36 -3 22 C-2.34 22 -1.68 22 -1 22 C-0.64868798 17.96797664 -0.64868798 17.96797664 -1 14 C-3.3549963 11.91783124 -3.3549963 11.91783124 -6 11 C-5.195625 10.484375 -4.39125 9.96875 -3.5625 9.4375 C-0.33552922 6.36794243 -0.25103743 4.35131541 0 0 Z " fill="#042059" transform="translate(62,31)"/>
<path d="M0 0 C-0.33 20.79 -0.66 41.58 -1 63 C-1.33 63 -1.66 63 -2 63 C-2.33 52.44 -2.66 41.88 -3 31 C-3.99 32.32 -4.98 33.64 -6 35 C-6.66 35 -7.32 35 -8 35 C-8.33 34.34 -8.66 33.68 -9 33 C-10.98 35.475 -10.98 35.475 -13 38 C-15.97 37.505 -15.97 37.505 -19 37 C-19 36.34 -19 35.68 -19 35 C-16.69 35 -14.38 35 -12 35 C-12.350625 34.46375 -12.70125 33.9275 -13.0625 33.375 C-14.30135166 30.2365758 -13.77427459 28.23787556 -13 25 C-12.67 24.34 -12.34 23.68 -12 23 C-13.2375 23.061875 -14.475 23.12375 -15.75 23.1875 C-18.78211302 23.20362826 -19.82248296 23.10651023 -22.5 21.5 C-22.995 21.005 -23.49 20.51 -24 20 C-24 21.65 -24 23.3 -24 25 C-25.98 25.99 -25.98 25.99 -28 27 C-28.99 26.34 -29.98 25.68 -31 25 C-31 25.99 -31 26.98 -31 28 C-32.65 27.67 -34.3 27.34 -36 27 C-36.33 28.32 -36.66 29.64 -37 31 C-39.3125 31.3125 -39.3125 31.3125 -42 31 C-43.875 28.875 -43.875 28.875 -45 26 C-44.76167267 22.96132655 -44.3610499 20.72209981 -43 18 C-44.0725 18.2475 -45.145 18.495 -46.25 18.75 C-50 19 -50 19 -52.4375 17.1875 C-54 15 -54 15 -54 13 C-35.67442258 3.19462611 -21.53662049 0 0 0 Z " fill="#082159" transform="translate(117,17)"/>
<path d="M0 0 C4.95 0 9.9 0 15 0 C15 25.41 15 50.82 15 77 C-8.82608696 74.02173913 -8.82608696 74.02173913 -16 69 C-15.01 68.505 -15.01 68.505 -14 68 C-9.38 69.65 -4.76 71.3 0 73 C0 48.91 0 24.82 0 0 Z " fill="#FBF3F4" transform="translate(87,129)"/>
<path d="M0 0 C0.66 0 1.32 0 2 0 C6.83292911 9.79489273 11.32835017 19.35558461 14 30 C14.22429687 30.86238281 14.44859375 31.72476563 14.6796875 32.61328125 C19.88284886 56.09878354 13.0474587 79.27177852 2 100 C1.34 100 0.68 100 0 100 C0 67 0 34 0 0 Z " fill="#C42148" transform="translate(193,61)"/>
<path d="M0 0 C5.28 0 10.56 0 16 0 C16 22.44 16 44.88 16 68 C3.31866712 65.46373342 -7.33952446 55.17666283 -16 46 C-15.67 45.01 -15.34 44.02 -15 43 C-14.38125 43.825 -13.7625 44.65 -13.125 45.5 C-9.18912272 50.10359054 -9.18912272 50.10359054 0 57 C0 38.19 0 19.38 0 0 Z " fill="#F9F9F9" transform="translate(55,129)"/>
<path d="M0 0 C9 0 9 0 12 2 C12.66 1.67 13.32 1.34 14 1 C14 25.09 14 49.18 14 74 C9.81537205 76.09231398 4.67855628 75 0 75 C0 50.25 0 25.5 0 0 Z " fill="#C40D3A" transform="translate(103,130)"/>
<path d="M0 0 C0.66 1.65 1.32 3.3 2 5 C0.948125 4.938125 -0.10375 4.87625 -1.1875 4.8125 C-5.15816493 5.0077786 -6.84196969 5.70325068 -10 8 C-10 7.34 -10 6.68 -10 6 C-10.66 6 -11.32 6 -12 6 C-12.33 7.65 -12.66 9.3 -13 11 C-12.67 10.67 -12.34 10.34 -12 10 C-10.33382885 9.95936168 -8.66611905 9.957279 -7 10 C-6.875 13.375 -6.875 13.375 -7 17 C-7.66 17.66 -8.32 18.32 -9 19 C-9.71927295 21.31765729 -10.3909893 23.65095874 -11 26 C-15 26 -15 26 -17 25 C-17 25.99 -17 26.98 -17 28 C-18.65 27.67 -20.3 27.34 -22 27 C-22.33 28.32 -22.66 29.64 -23 31 C-25.3125 31.3125 -25.3125 31.3125 -28 31 C-29.875 28.875 -29.875 28.875 -31 26 C-30.76167267 22.96132655 -30.3610499 20.72209981 -29 18 C-30.0725 18.2475 -31.145 18.495 -32.25 18.75 C-36 19 -36 19 -38.4375 17.1875 C-40 15 -40 15 -40 13 C-27.46038088 6.29048951 -14.59075681 0 0 0 Z " fill="#07215A" transform="translate(103,17)"/>
<path d="M0 0 C4.62 0 9.24 0 14 0 C14 14.19 14 28.38 14 43 C13.34 42.34 12.68 41.68 12 41 C12 40.01 12 39.02 12 38 C11.40316406 37.75378906 10.80632813 37.50757813 10.19140625 37.25390625 C4.77548386 34.154956 1.19129623 26.72452499 -0.609375 20.8828125 C-1.5435056 13.98892867 -0.61761489 6.89793979 0 0 Z " fill="#FAF9F9" transform="translate(25,129)"/>
<path d="M0 0 C20.79 0 41.58 0 63 0 C63 25.74 63 51.48 63 78 C57.72 78 52.44 78 47 78 C47 52.59 47 27.18 47 1 C42.05 1 37.1 1 32 1 C32 25.09 32 49.18 32 74 C24.125 72.875 24.125 72.875 20 71 C20 70.34 20 69.68 20 69 C23.465 68.505 23.465 68.505 27 68 C27.495 66.515 27.495 66.515 28 65 C28.66 65 29.32 65 30 65 C30.33 44.21 30.66 23.42 31 2 C26.05 2 21.1 2 16 2 C13.01906696 1.8686607 10.03887535 1.71071684 7.0625 1.5 C6.36705078 1.45230469 5.67160156 1.40460938 4.95507812 1.35546875 C3.30306478 1.2415368 1.65147196 1.1215275 0 1 C0 0.67 0 0.34 0 0 Z M48 2 C48 26.75 48 51.5 48 77 C55.24696416 77.54615699 55.24696416 77.54615699 62 76 C62 51.91 62 27.82 62 3 C61.01 3.495 61.01 3.495 60 4 C59.01 3.34 58.02 2.68 57 2 C54.03 2 51.06 2 48 2 Z " fill="#AC264D" transform="translate(55,128)"/>
<path d="M0 0 C4.96622349 -0.02465098 9.93241166 -0.04283649 14.89868164 -0.05493164 C16.58944316 -0.0599719 18.28020029 -0.06680405 19.97094727 -0.07543945 C22.39600707 -0.08751857 24.82100944 -0.09323123 27.24609375 -0.09765625 C28.38672523 -0.10539818 28.38672523 -0.10539818 29.55039978 -0.11329651 C31.3673257 -0.11349238 33.18413127 -0.06197277 35 0 C36 1 36 1 36.12025452 3.28419495 C36.11803391 4.29457321 36.11581329 5.30495148 36.11352539 6.34594727 C36.11344986 7.4870546 36.11337433 8.62816193 36.11329651 9.80384827 C36.10813522 11.0454924 36.10297394 12.28713654 36.09765625 13.56640625 C36.0962413 14.83016586 36.09482635 16.09392548 36.09336853 17.39598083 C36.08870582 20.76124889 36.0797148 24.1264499 36.06866455 27.49169922 C36.05844846 30.9234967 36.05387049 34.35530109 36.04882812 37.78710938 C36.0377738 44.52475824 36.0210171 51.26237525 36 58 C31.74490129 55.9792094 29.89267154 53.69619142 27 50 C30.875 50.875 30.875 50.875 32 52 C33.18533721 48.44398837 33.06009092 45.68942672 33 41.9375 C32.9381207 35.83184087 33.12010223 29.78131781 33.5 23.6875 C34.18233701 13.84717161 34.18233701 13.84717161 34 4 C31.13255824 1.13255824 26.03852125 2.3671383 22 2 C22 15.53 22 29.06 22 43 C23.485 42.505 23.485 42.505 25 42 C25.66 42.99 26.32 43.98 27 45 C26.01 45.495 26.01 45.495 25 46 C25.66 46.99 26.32 47.98 27 49 C24.10909943 47.70407906 22.01468649 46.46460998 20 44 C19.63923645 42.00679016 19.63923645 42.00679016 19.65942383 39.7121582 C19.65965042 38.85149246 19.65987701 37.99082672 19.66011047 37.1040802 C19.68333626 35.71644722 19.68333626 35.71644722 19.70703125 34.30078125 C19.71127609 33.35059616 19.71552094 32.40041107 19.71989441 31.4214325 C19.73669516 28.38483412 19.77435008 25.34889798 19.8125 22.3125 C19.82754503 20.25456687 19.84123375 18.19662335 19.85351562 16.13867188 C19.88660329 11.09219252 19.93839538 6.04620856 20 1 C15.38 1 10.76 1 6 1 C6 6.94 6 12.88 6 19 C4 18 4 18 2.9296875 14.98046875 C2.58164062 13.72878906 2.23359375 12.47710937 1.875 11.1875 C1.52179687 9.94355469 1.16859375 8.69960937 0.8046875 7.41796875 C0 4 0 4 0 0 Z " fill="#A91036" transform="translate(19,128)"/>
<path d="M0 0 C5.28 0 10.56 0 16 0 C16 22.44 16 44.88 16 68 C15.67 68 15.34 68 15 68 C14.98969254 67.25497726 14.97938507 66.50995453 14.96876526 65.74235535 C14.87081592 58.72361117 14.76830508 51.70495195 14.66066074 44.68635082 C14.60548 41.0779594 14.5520678 37.46955979 14.50268555 33.86108398 C14.45497039 30.37916857 14.40262508 26.89735081 14.34705925 23.41555214 C14.31673963 21.43969447 14.29122425 19.46376498 14.26576233 17.48783875 C14.24581711 16.28682022 14.22587189 15.0858017 14.20532227 13.84838867 C14.18200584 12.25954109 14.18200584 12.25954109 14.15821838 10.63859558 C14.10776932 7.89184665 14.10776932 7.89184665 13 5 C13 4.01 13 3.02 13 2 C7.555 1.505 7.555 1.505 2 1 C2 20.14 2 39.28 2 59 C-3.24104606 57.95179079 -4.40178475 57.14326762 -8.125 53.625 C-8.97320312 52.83351562 -9.82140625 52.04203125 -10.6953125 51.2265625 C-12.48163847 49.50078995 -14.25521918 47.76758841 -16 46 C-15.67 45.01 -15.34 44.02 -15 43 C-14.38125 43.825 -13.7625 44.65 -13.125 45.5 C-9.18912272 50.10359054 -9.18912272 50.10359054 0 57 C0 38.19 0 19.38 0 0 Z " fill="#FDD4E2" transform="translate(55,129)"/>
<path d="M0 0 C2 2 2 2 2.24609566 4.74487495 C2.24425207 5.92292639 2.24240849 7.10097782 2.24050903 8.31472778 C2.24221788 8.96980501 2.24392673 9.62488224 2.24568737 10.29981029 C2.24899355 12.50483348 2.23796033 14.70955541 2.22705078 16.91455078 C2.22648691 18.49118035 2.22680276 20.06781044 2.22793579 21.6444397 C2.22851125 25.93348636 2.21672587 30.2224219 2.20278788 34.51144266 C2.19031253 38.99044136 2.18911255 43.46944242 2.18673706 47.94845581 C2.18051287 56.43407963 2.16408939 64.91965211 2.14403808 73.40525329 C2.12170825 83.06411716 2.110693 92.72298345 2.10064721 102.38186669 C2.07972395 122.25460648 2.04452977 142.12730001 2 162 C2.83144531 161.37351563 3.66289062 160.74703125 4.51953125 160.1015625 C5.61715542 159.27599902 6.71481345 158.45048054 7.8125 157.625 C8.63331055 157.00625 8.63331055 157.00625 9.47070312 156.375 C11.94446605 154.51592968 14.42434959 152.71710028 17 151 C16.39229691 154.61981751 16.0089997 154.99250792 12.9453125 157.54296875 C11.67975588 158.43575659 10.40593697 159.31692308 9.125 160.1875 C8.16787109 160.86329102 8.16787109 160.86329102 7.19140625 161.55273438 C4.49287756 163.43156385 2.13440471 164.95519843 -1 166 C-1.02332692 144.50394484 -1.04097815 123.00789175 -1.05181217 101.51182652 C-1.05697557 91.53156169 -1.0640191 81.55130471 -1.07543945 71.57104492 C-1.08538496 62.8755386 -1.09185311 54.18003795 -1.09408849 45.4845261 C-1.09539583 40.87736269 -1.09848312 36.27021554 -1.10573006 31.66305733 C-1.11248817 27.33181408 -1.11461739 23.00059388 -1.11310768 18.66934586 C-1.1133841 17.07494545 -1.11539047 15.48054432 -1.11920547 13.88614845 C-1.12413947 11.71883429 -1.1229994 9.55160857 -1.12025452 7.3842926 C-1.12117631 6.16844766 -1.1220981 4.95260271 -1.12304783 3.69991398 C-1 1 -1 1 0 0 Z " fill="#FBDBE4" transform="translate(161,29)"/>
<path d="M0 0 C15.51 0 31.02 0 47 0 C47 0.33 47 0.66 47 1 C42.05 1 37.1 1 32 1 C32 25.09 32 49.18 32 74 C24.125 72.875 24.125 72.875 20 71 C20 70.34 20 69.68 20 69 C23.465 68.505 23.465 68.505 27 68 C27.495 66.515 27.495 66.515 28 65 C28.66 65 29.32 65 30 65 C30.33 44.21 30.66 23.42 31 2 C26.05 2 21.1 2 16 2 C13.01906696 1.8686607 10.03887535 1.71071684 7.0625 1.5 C6.36705078 1.45230469 5.67160156 1.40460938 4.95507812 1.35546875 C3.30306478 1.2415368 1.65147196 1.1215275 0 1 C0 0.67 0 0.34 0 0 Z " fill="#9D3659" transform="translate(55,128)"/>
<path d="M0 0 C0.495 0.474375 0.99 0.94875 1.5 1.4375 C4.99468651 3.62167907 7.90966936 3.65913911 12 4 C11.814375 5.2375 11.62875 6.475 11.4375 7.75 C11.05288777 10.76279577 10.9125406 13.10010827 12 16 C10.7625 16.12375 9.525 16.2475 8.25 16.375 C5.1237803 16.75746305 2.71120763 17.30549523 0 19 C-0.2475 18.05125 -0.495 17.1025 -0.75 16.125 C-1.6857077 12.91306809 -1.6857077 12.91306809 -4.125 11.625 C-4.74375 11.41875 -5.3625 11.2125 -6 11 C-5.67 10.01 -5.34 9.02 -5 8 C-2.9375 7.3125 -2.9375 7.3125 -1 7 C-0.67 4.69 -0.34 2.38 0 0 Z " fill="#E8EDF4" transform="translate(63,63)"/>
<path d="M0 0 C0.495 0.474375 0.99 0.94875 1.5 1.4375 C4.99468651 3.62167907 7.90966936 3.65913911 12 4 C11.814375 5.2375 11.62875 6.475 11.4375 7.75 C11.05288777 10.76279577 10.9125406 13.10010827 12 16 C10.4221875 16.1546875 10.4221875 16.1546875 8.8125 16.3125 C5.12569246 16.97733415 3.03361401 17.88566296 0 20 C-0.061875 19.071875 -0.12375 18.14375 -0.1875 17.1875 C-0.67500908 13.80803511 -0.67500908 13.80803511 -3.5625 12.25 C-4.366875 11.8375 -5.17125 11.425 -6 11 C-6 10.34 -6 9.68 -6 9 C-4.7934375 8.38125 -4.7934375 8.38125 -3.5625 7.75 C-0.67500908 6.19196489 -0.67500908 6.19196489 -0.1875 2.8125 C-0.125625 1.884375 -0.06375 0.95625 0 0 Z " fill="#EAEDF3" transform="translate(32,98)"/>
<path d="M0 0 C3.875 1.875 3.875 1.875 5 3 C7.33297433 3.04092937 9.66705225 3.04241723 12 3 C11.91621094 3.60328125 11.83242187 4.2065625 11.74609375 4.828125 C11.64425781 5.62734375 11.54242188 6.4265625 11.4375 7.25 C11.33308594 8.03890625 11.22867188 8.8278125 11.12109375 9.640625 C10.99972651 12.00532874 11.30366743 13.7511037 12 16 C10.906875 15.938125 9.81375 15.87625 8.6875 15.8125 C5.08247389 15.62756763 5.08247389 15.62756763 3.1875 17.5 C2.795625 17.995 2.40375 18.49 2 19 C1.34 19 0.68 19 0 19 C-0.061875 18.071875 -0.12375 17.14375 -0.1875 16.1875 C-0.67500908 12.80803511 -0.67500908 12.80803511 -3.5625 11.25 C-4.366875 10.8375 -5.17125 10.425 -6 10 C-6 9.34 -6 8.68 -6 8 C-5.38125 7.79375 -4.7625 7.5875 -4.125 7.375 C-1.15346355 5.45224112 -0.86975341 3.33405473 0 0 Z " fill="#F2F3F6" transform="translate(94,99)"/>
<path d="M0 0 C0.495 0.309375 0.99 0.61875 1.5 0.9375 C4.97986781 2.41644382 8.24028509 2.62402851 12 3 C11.814375 4.2375 11.62875 5.475 11.4375 6.75 C11.05288777 9.76279577 10.9125406 12.10010827 12 15 C8.97265625 15.24414062 8.97265625 15.24414062 5.9453125 15.48828125 C3.60480784 15.87393036 3.60480784 15.87393036 2 19 C1.34 19 0.68 19 0 19 C-0.37125 17.329375 -0.37125 17.329375 -0.75 15.625 C-1.61005339 11.95384802 -1.61005339 11.95384802 -4.125 10.5625 C-4.74375 10.376875 -5.3625 10.19125 -6 10 C-6 9.34 -6 8.68 -6 8 C-5.195625 7.566875 -4.39125 7.13375 -3.5625 6.6875 C-0.75717669 5.23212941 -0.75717669 5.23212941 -0.1875 2.3125 C-0.125625 1.549375 -0.06375 0.78625 0 0 Z " fill="#EFF1F3" transform="translate(93,37)"/>
<path d="M0 0 C0.680625 0.309375 1.36125 0.61875 2.0625 0.9375 C5.36965912 2.13370649 8.51545878 2.59005397 12 3 C11.814375 4.2375 11.62875 5.475 11.4375 6.75 C11.05288777 9.76279577 10.9125406 12.10010827 12 15 C10.948125 15.12375 9.89625 15.2475 8.8125 15.375 C5.54041229 15.91140782 2.99463924 16.63880035 0 18 C0 16.02 0 14.04 0 12 C-1.98 11.34 -3.96 10.68 -6 10 C-6 9.34 -6 8.68 -6 8 C-4.02 7.34 -2.04 6.68 0 6 C0 4.02 0 2.04 0 0 Z " fill="#F6F8F8" transform="translate(63,95)"/>
<path d="M0 0 C0.7734375 0.7115625 0.7734375 0.7115625 1.5625 1.4375 C4.66782675 3.42809407 7.36632504 3.65060818 11 4 C10.98839844 4.61488281 10.97679688 5.22976562 10.96484375 5.86328125 C10.95582031 6.67152344 10.94679688 7.47976562 10.9375 8.3125 C10.92589844 9.11300781 10.91429688 9.91351563 10.90234375 10.73828125 C10.90342145 13.16861334 10.90342145 13.16861334 12 16 C10.7625 16.103125 9.525 16.20625 8.25 16.3125 C4.7207134 16.73801682 2.62839034 17.48112592 0 20 C-0.061875 19.071875 -0.12375 18.14375 -0.1875 17.1875 C-0.68827104 13.8109337 -0.68827104 13.8109337 -3.5625 12.125 C-4.366875 11.75375 -5.17125 11.3825 -6 11 C-5.67 10.01 -5.34 9.02 -5 8 C-4.34 7.731875 -3.68 7.46375 -3 7.1875 C-2.01 6.5996875 -2.01 6.5996875 -1 6 C-0.18415432 2.94091587 -0.18415432 2.94091587 0 0 Z " fill="#E8EBF2" transform="translate(32,67)"/>
<path d="M0 0 C1.0209375 0.99 1.0209375 0.99 2.0625 2 C5.64457375 4.43885872 7.75519536 4.33292585 12 4 C11.690625 5.8253125 11.690625 5.8253125 11.375 7.6875 C10.90036156 11.34806773 11.23418616 13.67611512 13 17 C11.7625 16.938125 10.525 16.87625 9.25 16.8125 C6.21788698 16.79637174 5.17751704 16.89348977 2.5 18.5 C2.005 18.995 1.51 19.49 1 20 C0.6596875 18.6078125 0.6596875 18.6078125 0.3125 17.1875 C-1.2088437 13.49280817 -2.46352496 12.67517239 -6 11 C-5.195625 10.484375 -4.39125 9.96875 -3.5625 9.4375 C-0.33552922 6.36794243 -0.25103743 4.35131541 0 0 Z " fill="#F0F2F6" transform="translate(62,31)"/>
<path d="M0 0 C0.66 0 1.32 0 2 0 C2.33 0.66 2.66 1.32 3 2 C4.89533342 2.46523063 4.89533342 2.46523063 7.0625 2.625 C8.361875 2.74875 9.66125 2.8725 11 3 C10.814375 4.2375 10.62875 5.475 10.4375 6.75 C10.05288777 9.76279577 9.9125406 12.10010827 11 15 C9.9275 15.103125 8.855 15.20625 7.75 15.3125 C4.14179128 15.97400493 2.63604977 16.57483421 0 19 C-0.33 16.69 -0.66 14.38 -1 12 C-3.475 11.01 -3.475 11.01 -6 10 C-5.67 9.01 -5.34 8.02 -5 7 C-2.9375 6.3125 -2.9375 6.3125 -1 6 C-0.67 4.02 -0.34 2.04 0 0 Z " fill="#EAEEF2" transform="translate(94,68)"/>
<path d="M0 0 C11.22 0 22.44 0 34 0 C34 0.33 34 0.66 34 1 C29.71 1 25.42 1 21 1 C21 15.19 21 29.38 21 44 C20.67 44 20.34 44 20 44 C20 29.81 20 15.62 20 1 C15.38 1 10.76 1 6 1 C6 6.94 6 12.88 6 19 C4 18 4 18 2.9296875 14.98046875 C2.58164062 13.72878906 2.23359375 12.47710937 1.875 11.1875 C1.52179687 9.94355469 1.16859375 8.69960937 0.8046875 7.41796875 C0 4 0 4 0 0 Z " fill="#A54060" transform="translate(19,128)"/>
<path d="M0 0 C0.99 0.33 1.98 0.66 3 1 C3 17.17 3 33.34 3 50 C3.66 50 4.32 50 5 50 C5 50.66 5 51.32 5 52 C4.34 52 3.68 52 3 52 C3 53.65 3 55.3 3 57 C2.01 57.495 2.01 57.495 1 58 C-0.00261123 38.65440301 -0.11673102 19.36477762 0 0 Z " fill="#FBDBE4" transform="translate(147,23)"/>
<path d="M0 0 C1.65 0.33 3.3 0.66 5 1 C4.40138258 3.35171131 3.73075648 5.6859378 3 8 C2.01 8.495 2.01 8.495 1 9 C0.60914534 11.09508223 0.60914534 11.09508223 0.5 13.5 C0.34375 15.96875 0.34375 15.96875 0 18 C-0.66 18.33 -1.32 18.66 -2 19 C-3.15837626 14.94568308 -2.83691257 12.78187881 -1 9 C-2.0725 9.2475 -3.145 9.495 -4.25 9.75 C-8 10 -8 10 -10.4375 8.1875 C-12 6 -12 6 -12 4 C-2.58997722 1.51936219 -2.58997722 1.51936219 2 3 C2 2.34 2 1.68 2 1 C1.34 0.67 0.68 0.34 0 0 Z " fill="#0D2054" transform="translate(75,26)"/>
<path d="M0 0 C0.33 0 0.66 0 1 0 C1 19.14 1 38.28 1 58 C-3.79542442 57.04091512 -4.75165461 56.76138628 -8.0625 53.6875 C-8.74441406 53.06101563 -9.42632812 52.43453125 -10.12890625 51.7890625 C-12.11704468 49.88808672 -14.09484156 47.98454004 -16 46 C-15.67 45.01 -15.34 44.02 -15 43 C-14.38125 43.825 -13.7625 44.65 -13.125 45.5 C-9.18912272 50.10359054 -9.18912272 50.10359054 0 57 C0 38.19 0 19.38 0 0 Z " fill="#ED87A0" transform="translate(55,129)"/>
<path d="M0 0 C4.62 0 9.24 0 14 0 C14 11.22 14 22.44 14 34 C13.67 34 13.34 34 13 34 C13 23.11 13 12.22 13 1 C9.7 1.33 6.4 1.66 3 2 C3.33 3.32 3.66 4.64 4 6 C3.34 6 2.68 6 2 6 C2 10.62 2 15.24 2 20 C1.01 20 0.02 20 -1 20 C-0.67 13.4 -0.34 6.8 0 0 Z " fill="#FBDDE7" transform="translate(25,129)"/>
<path d="M0 0 C0.33 0 0.66 0 1 0 C1.33 14.19 1.66 28.38 2 43 C-2.53786224 40.73106888 -3.94678157 38.90133466 -7 35 C-3.125 35.875 -3.125 35.875 -2 37 C-0.81466279 33.44398837 -0.93990908 30.68942672 -1 26.9375 C-1.09233882 17.93026801 -0.58237909 8.98527735 0 0 Z " fill="#B8163D" transform="translate(53,143)"/>
<path d="M0 0 C10 1 10 1 13 3 C12.06027344 3.09087891 12.06027344 3.09087891 11.1015625 3.18359375 C10.28429687 3.26738281 9.46703125 3.35117187 8.625 3.4375 C7.81289062 3.51871094 7.00078125 3.59992187 6.1640625 3.68359375 C3.95727195 3.89090114 3.95727195 3.89090114 2 5 C1.67 21.83 1.34 38.66 1 56 C0.67 56 0.34 56 0 56 C0 37.52 0 19.04 0 0 Z " fill="#BB6378" transform="translate(131,19)"/>
<path d="M0 0 C2 2 2 2 2.20254517 5.31558228 C2.1905488 6.76471135 2.16719852 8.21377105 2.13525391 9.66259766 C2.12579239 10.45292892 2.11633087 11.24326019 2.10658264 12.05754089 C2.07283494 14.67661327 2.02473934 17.29521902 1.9765625 19.9140625 C1.95040257 21.72723156 1.92513499 23.5404137 1.90072632 25.35360718 C1.83400477 30.13119016 1.75512739 34.90849892 1.67376709 39.68585205 C1.59291572 44.55868994 1.5234929 49.43168894 1.453125 54.3046875 C1.31330532 63.86998483 1.16065082 73.43503146 1 83 C0.67 83 0.34 83 0 83 C-0.15357736 72.32587536 -0.30175912 61.65169097 -0.4429636 50.97739506 C-0.50869489 46.0214279 -0.57631734 41.06550129 -0.64819336 36.10961914 C-0.71742911 31.33106528 -0.78178664 26.55246881 -0.84269524 21.7738018 C-0.86685702 19.94644198 -0.89280646 18.11910493 -0.92053413 16.29179573 C-0.95893309 13.74152314 -0.99109761 11.19124514 -1.02172852 8.64086914 C-1.03467453 7.87770386 -1.04762054 7.11453857 -1.06095886 6.32824707 C-1.07904398 4.55214056 -1.04519148 2.7756236 -1 1 C-0.67 0.67 -0.34 0.34 0 0 Z " fill="#FDC5D1" transform="translate(161,29)"/>
<path d="M0 0 C0.33 0 0.66 0 1 0 C1 17.16 1 34.32 1 52 C5.95 51.505 5.95 51.505 11 51 C8.76504572 53.23495428 6.97585464 54.0024791 4.0625 55.1875 C3.18722656 55.55230469 2.31195313 55.91710937 1.41015625 56.29296875 C-1 57 -1 57 -4 56 C-2.02 55.505 -2.02 55.505 0 55 C0 36.85 0 18.7 0 0 Z " fill="#FFF0F2" transform="translate(148,144)"/>
<path d="M0 0 C2.31 0 4.62 0 7 0 C6.814375 1.2375 6.62875 2.475 6.4375 3.75 C6.05288777 6.76279577 5.9125406 9.10010827 7 12 C3.97265625 12.24414062 3.97265625 12.24414062 0.9453125 12.48828125 C-1.39519216 12.87393036 -1.39519216 12.87393036 -3 16 C-3.66 16 -4.32 16 -5 16 C-5 13.69 -5 11.38 -5 9 C-3.02 8.67 -1.04 8.34 1 8 C1.33 8.66 1.66 9.32 2 10 C1.814375 9.05125 1.62875 8.1025 1.4375 7.125 C1 4 1 4 2 2 C1.34 1.34 0.68 0.68 0 0 Z " fill="#E0E6F0" transform="translate(98,40)"/>
<path d="M0 0 C0.25 2.8125 0.25 2.8125 0 6 C-1.8125 7.875 -1.8125 7.875 -4 9 C-4.99 9 -5.98 9 -7 9 C-8.36176581 10.98075027 -9.69593116 12.98079663 -11 15 C-11.66 15 -12.32 15 -13 15 C-13 14.01 -13 13.02 -13 12 C-13.66 11.67 -14.32 11.34 -15 11 C-13.39801112 9.53927468 -11.79332884 8.08150284 -10.1875 6.625 C-9.29417969 5.81289063 -8.40085937 5.00078125 -7.48046875 4.1640625 C-2.70758123 0 -2.70758123 0 0 0 Z " fill="#1F2B5F" transform="translate(62,32)"/>
<path d="M0 0 C3 1 3 1 5 3 C4.6730244 5.61580479 4.17960932 7.64078137 3 10 C3.99 9.67 4.98 9.34 6 9 C6.33 10.65 6.66 12.3 7 14 C6.01 14 5.02 14 4 14 C3.34 13.01 2.68 12.02 2 11 C1.67 11.66 1.34 12.32 1 13 C0.34 12.67 -0.32 12.34 -1 12 C-2.08209933 7.31090292 -2.21980248 4.30902834 0 0 Z M8 1 C8.33 1 8.66 1 9 1 C9 3.64 9 6.28 9 9 C8.67 9 8.34 9 8 9 C8 6.36 8 3.72 8 1 Z " fill="#0B255F" transform="translate(105,71)"/>
<path d="M0 0 C0.66 0.99 1.32 1.98 2 3 C1.01 3.495 1.01 3.495 0 4 C-0.27672047 6.03146057 -0.27672047 6.03146057 -0.3125 8.375 C-0.51953125 10.83984375 -0.51953125 10.83984375 -1 13 C-3.5 14.9375 -3.5 14.9375 -6 16 C-6.33 16.66 -6.66 17.32 -7 18 C-6.34 18 -5.68 18 -5 18 C-5.33 18.66 -5.66 19.32 -6 20 C-6.66 19.67 -7.32 19.34 -8 19 C-7.67 20.32 -7.34 21.64 -7 23 C-8.32 23.33 -9.64 23.66 -11 24 C-8.44858054 15.49526848 -4.93902139 7.40853209 0 0 Z " fill="#222753" transform="translate(33,60)"/>
<path d="M0 0 C0.33 1.32 0.66 2.64 1 4 C-0.2375 4.12375 -1.475 4.2475 -2.75 4.375 C-5.8762197 4.75746305 -8.28879237 5.30549523 -11 7 C-11.66 4.69 -12.32 2.38 -13 0 C-4.57142857 -1.28571429 -4.57142857 -1.28571429 0 0 Z " fill="#DDDFEA" transform="translate(74,75)"/>
<path d="M0 0 C0.66 1.65 1.32 3.3 2 5 C0.948125 4.938125 -0.10375 4.87625 -1.1875 4.8125 C-5.15816493 5.0077786 -6.84196969 5.70325068 -10 8 C-10.33 6.35 -10.66 4.7 -11 3 C-11.99 2.67 -12.98 2.34 -14 2 C-12.22978678 1.663389 -10.45880326 1.33082707 -8.6875 1 C-7.70136719 0.814375 -6.71523437 0.62875 -5.69921875 0.4375 C-3 0 -3 0 0 0 Z " fill="#E7E9F2" transform="translate(103,17)"/>
<path d="M0 0 C0.33 0 0.66 0 1 0 C1 1.98 1 3.96 1 6 C1.99 5.67 2.98 5.34 4 5 C4.33 5.33 4.66 5.66 5 6 C5.99 5.34 6.98 4.68 8 4 C7.34 6.97 6.68 9.94 6 13 C5.67 12.34 5.34 11.68 5 11 C4.34 11 3.68 11 3 11 C2.67 11.66 2.34 12.32 2 13 C1.34 13 0.68 13 0 13 C0 11.68 0 10.36 0 9 C-0.66 8.67 -1.32 8.34 -2 8 C-2.6875 6.0625 -2.6875 6.0625 -3 4 C-2.67 3.34 -2.34 2.68 -2 2 C-1.34 2 -0.68 2 0 2 C0 1.34 0 0.68 0 0 Z " fill="#0F265D" transform="translate(62,107)"/>
<path d="M0 0 C0.99 0 1.98 0 3 0 C3 1.32 3 2.64 3 4 C3.99 4.33 4.98 4.66 6 5 C4.8905928 8.48670834 3.73662334 11.77484237 2 15 C1.34 15 0.68 15 0 15 C0 10.05 0 5.1 0 0 Z " fill="#BB0E3A" transform="translate(194,144)"/>
<path d="M0 0 C0.66 0.66 1.32 1.32 2 2 C1.01 2 0.02 2 -1 2 C-1 2.66 -1 3.32 -1 4 C1.475 4.99 1.475 4.99 4 6 C3.67 6.99 3.34 7.98 3 9 C7.95 7.515 7.95 7.515 13 6 C13.33 7.32 13.66 8.64 14 10 C12.906875 9.938125 11.81375 9.87625 10.6875 9.8125 C7.08247389 9.62756763 7.08247389 9.62756763 5.1875 11.5 C4.795625 11.995 4.40375 12.49 4 13 C3.34 13 2.68 13 2 13 C1.938125 12.071875 1.87625 11.14375 1.8125 10.1875 C1.32499092 6.80803511 1.32499092 6.80803511 -1.5625 5.25 C-2.366875 4.8375 -3.17125 4.425 -4 4 C-4 3.34 -4 2.68 -4 2 C-2.68 1.34 -1.36 0.68 0 0 Z " fill="#DCE0ED" transform="translate(92,105)"/>
<path d="M0 0 C0.99 0 1.98 0 3 0 C2.34 1.98 1.68 3.96 1 6 C1.66 6.33 2.32 6.66 3 7 C4.125 9.0625 4.125 9.0625 5 11 C3.68 11.99 2.36 12.98 1 14 C0.01 13.34 -0.98 12.68 -2 12 C-4.11280345 11.36707617 -4.11280345 11.36707617 -6 11 C-6 10.67 -6 10.34 -6 10 C-3.69 10 -1.38 10 1 10 C0.34 9.01 -0.32 8.02 -1 7 C-1.1875 3.875 -1.1875 3.875 -1 1 C-0.67 0.67 -0.34 0.34 0 0 Z " fill="#091A4D" transform="translate(43,73)"/>
<path d="M0 0 C3.89759993 5.84639989 6.67616214 13.73306888 5.75 20.8125 C5.5025 21.864375 5.255 22.91625 5 24 C3.09761179 20.7897199 3 18.67337473 3 15 C2.690625 14.0925 2.38125 13.185 2.0625 12.25 C0.73513844 8.18983523 0.35802731 4.23979709 0 0 Z " fill="#BF3B5A" transform="translate(201,75)"/>
<path d="M0 0 C1.0209375 0.99 1.0209375 0.99 2.0625 2 C5.64457375 4.43885872 7.75519536 4.33292585 12 4 C10.02 6.97 10.02 6.97 8 10 C7.34 9.34 6.68 8.68 6 8 C2.41656024 7.83322718 2.41656024 7.83322718 -1 8 C-0.67 5.36 -0.34 2.72 0 0 Z " fill="#D9DEE7" transform="translate(62,31)"/>
<path d="M0 0 C-1.231394 2.46278801 -2.78064923 3.42497687 -5 5 C-4.67 5.99 -4.34 6.98 -4 8 C-7.63 7.67 -11.26 7.34 -15 7 C-12.30474522 4.30474522 -10.85961238 3.27393138 -7.5 1.8125 C-6.7265625 1.46832031 -5.953125 1.12414062 -5.15625 0.76953125 C-3 0 -3 0 0 0 Z " fill="#26386B" transform="translate(82,22)"/>
<path d="M0 0 C5.73849846 4.42684167 10.44384499 9.40243813 15 15 C10.54094257 13.57792223 7.96253428 11.3666457 4.6875 8.0625 C3.80449219 7.18722656 2.92148437 6.31195313 2.01171875 5.41015625 C0 3 0 3 0 0 Z " fill="#F7D3DB" transform="translate(39,172)"/>
<path d="M0 0 C2.1385485 2.1385485 2.42655063 3.13275314 3 6 C3.33 6 3.66 6 4 6 C4 8.64 4 11.28 4 14 C3.01 14.33 2.02 14.66 1 15 C0.50082849 13.03659206 0.00349986 11.07267929 -0.48046875 9.10546875 C-0.89090617 7.44211709 -1.31754024 5.7827624 -1.75 4.125 C-1.8325 3.42375 -1.915 2.7225 -2 2 C-1.34 1.34 -0.68 0.68 0 0 Z " fill="#B51136" transform="translate(203,89)"/>
<path d="M0 0 C2 3 2 3 3 7 C-0.3 6.67 -3.6 6.34 -7 6 C-6.67 5.01 -6.34 4.02 -6 3 C-4.02 2.67 -2.04 2.34 0 2 C0 1.34 0 0.68 0 0 Z " fill="#EEF0F6" transform="translate(72,103)"/>
<path d="M0 0 C2.97 0.495 2.97 0.495 6 1 C6 1.99 6 2.98 6 4 C4.35 4.33 2.7 4.66 1 5 C0.67 6.32 0.34 7.64 0 9 C-0.99 8.34 -1.98 7.68 -3 7 C-3 6.34 -3 5.68 -3 5 C-2.01 4.34 -1.02 3.68 0 3 C0 2.01 0 1.02 0 0 Z " fill="#081852" transform="translate(25,79)"/>
<path d="M0 0 C0.66 0.99 1.32 1.98 2 3 C1.34 4.32 0.68 5.64 0 7 C-2.64 7 -5.28 7 -8 7 C-8 5.68 -8 4.36 -8 3 C-7.34 3 -6.68 3 -6 3 C-5.34 3.66 -4.68 4.32 -4 5 C-2.68 3.35 -1.36 1.7 0 0 Z " fill="#F9F8F7" transform="translate(69,68)"/>
<path d="M0 0 C0.99 0.33 1.98 0.66 3 1 C4 4 4 4 4 7 C2.35 7.66 0.7 8.32 -1 9 C-1.625 6.1875 -1.625 6.1875 -2 3 C-1.34 2.01 -0.68 1.02 0 0 Z " fill="#BC173F" transform="translate(170,177)"/>
<path d="M0 0 C1.65 0.33 3.3 0.66 5 1 C4.67 1.66 4.34 2.32 4 3 C3.95977609 5.3329866 3.95679753 7.66706666 4 10 C2.68 9.67 1.36 9.34 0 9 C-0.33 7.35 -0.66 5.7 -1 4 C-0.34 4 0.32 4 1 4 C0.67 2.68 0.34 1.36 0 0 Z " fill="#FBFBFA" transform="translate(99,72)"/>
<path d="M0 0 C0.66 0 1.32 0 2 0 C2.22577402 5.4185766 1.46670113 9.77487721 0 15 C-0.33 15 -0.66 15 -1 15 C-1.02693575 12.87506859 -1.04636628 10.75004088 -1.0625 8.625 C-1.07410156 7.44164063 -1.08570313 6.25828125 -1.09765625 5.0390625 C-1 2 -1 2 0 0 Z " fill="#C0405F" transform="translate(206,120)"/>
<path d="M0 0 C0.99 0.66 1.98 1.32 3 2 C2.625 3.9375 2.625 3.9375 2 6 C1.01 6.495 1.01 6.495 0 7 C-0.72693904 8.97888961 -1.39816251 10.97954558 -2 13 C-2.66 13 -3.32 13 -4 13 C-4 11.68 -4 10.36 -4 9 C-3.34 9 -2.68 9 -2 9 C-2.33 7.68 -2.66 6.36 -3 5 C-2.34 5 -1.68 5 -1 5 C-0.67 3.35 -0.34 1.7 0 0 Z " fill="#162F63" transform="translate(62,48)"/>
<path d="M0 0 C2 3 2 3 2 5 C3.32 5.66 4.64 6.32 6 7 C2.6490795 9.233947 0.81180044 9.36274239 -3.0625 9.65625 C-5.31880605 9.9230571 -5.31880605 9.9230571 -8 12 C-7.34 10.68 -6.68 9.36 -6 8 C-3.36 8 -0.72 8 2 8 C1.67 7.4225 1.34 6.845 1 6.25 C0 4 0 4 0 0 Z " fill="#071341" transform="translate(73,71)"/>
<path d="M0 0 C0.66 1.65 1.32 3.3 2 5 C-4.0546875 5.1953125 -4.0546875 5.1953125 -6 5 C-6.66 4.34 -7.32 3.68 -8 3 C-3.375 0 -3.375 0 0 0 Z " fill="#D4D7E2" transform="translate(103,17)"/>
<path d="M0 0 C-1.93232821 0.86580287 -3.87107194 1.71729941 -5.8125 2.5625 C-6.89144531 3.03816406 -7.97039062 3.51382813 -9.08203125 4.00390625 C-12 5 -12 5 -15 4 C-14.360625 3.896875 -13.72125 3.79375 -13.0625 3.6875 C-12.381875 3.460625 -11.70125 3.23375 -11 3 C-10.67 2.01 -10.34 1.02 -10 0 C-3.375 -1.125 -3.375 -1.125 0 0 Z " fill="#F6E8EB" transform="translate(159,196)"/>
<path d="M0 0 C1.4370809 -0.05422947 2.87475462 -0.09289723 4.3125 -0.125 C5.11300781 -0.14820312 5.91351563 -0.17140625 6.73828125 -0.1953125 C9 0 9 0 12 2 C11.06027344 2.09087891 11.06027344 2.09087891 10.1015625 2.18359375 C9.28429687 2.26738281 8.46703125 2.35117187 7.625 2.4375 C6.81289062 2.51871094 6.00078125 2.59992187 5.1640625 2.68359375 C2.95727195 2.89090114 2.95727195 2.89090114 1 4 C0.67 2.68 0.34 1.36 0 0 Z " fill="#C13659" transform="translate(132,20)"/>
<path d="M0 0 C0.66 0.99 1.32 1.98 2 3 C1.01 3.495 1.01 3.495 0 4 C-0.46651207 6.12576782 -0.46651207 6.12576782 -0.625 8.5625 C-0.69976562 9.38878906 -0.77453125 10.21507813 -0.8515625 11.06640625 C-0.90054688 11.70449219 -0.94953125 12.34257813 -1 13 C-2.5 11.6875 -2.5 11.6875 -4 10 C-4 5.75354935 -2.18249194 3.61475228 0 0 Z " fill="#3A416E" transform="translate(33,60)"/>
<path d="M0 0 C0.66 0.99 1.32 1.98 2 3 C1.01 3.99 0.02 4.98 -1 6 C-0.67 6.66 -0.34 7.32 0 8 C-0.99 8.33 -1.98 8.66 -3 9 C-3.99 8.34 -4.98 7.68 -6 7 C-5.34 7 -4.68 7 -4 7 C-3.71125 6.21625 -3.4225 5.4325 -3.125 4.625 C-2 2 -2 2 0 0 Z " fill="#434D78" transform="translate(46,44)"/>
<path d="M0 0 C1.32 0 2.64 0 4 0 C3.67 1.98 3.34 3.96 3 6 C1.02 6 -0.96 6 -3 6 C-2 4 -1 2 0 0 Z " fill="#03184D" transform="translate(101,34)"/>
<path d="M0 0 C0.66 0.33 1.32 0.66 2 1 C0.8905928 4.48670834 -0.26337666 7.77484237 -2 11 C-2.66 11 -3.32 11 -4 11 C-4 10.01 -4 9.02 -4 8 C-3.34 8 -2.68 8 -2 8 C-1.855625 6.865625 -1.71125 5.73125 -1.5625 4.5625 C-1 1 -1 1 0 0 Z " fill="#B53455" transform="translate(198,148)"/>
<path d="M0 0 C2.97 0.495 2.97 0.495 6 1 C6.33 2.65 6.66 4.3 7 6 C6.01 6.33 5.02 6.66 4 7 C3.566875 6.0409375 3.566875 6.0409375 3.125 5.0625 C2.17176549 2.84793921 2.17176549 2.84793921 0 2 C0 1.34 0 0.68 0 0 Z " fill="#F5F7F0" transform="translate(91,107)"/>
<path d="M0 0 C-0.33 1.98 -0.66 3.96 -1 6 C-2.32 6 -3.64 6 -5 6 C-6 3 -6 3 -6 0 C-2.25 -1.125 -2.25 -1.125 0 0 Z " fill="#0F255C" transform="translate(80,104)"/>
<path d="M0 0 C-0.33 1.65 -0.66 3.3 -1 5 C-2.98 4.34 -4.96 3.68 -7 3 C-7 2.34 -7 1.68 -7 1 C-3.375 -1.125 -3.375 -1.125 0 0 Z " fill="#DBE3ED" transform="translate(64,102)"/>
<path d="M0 0 C3.465 1.98 3.465 1.98 7 4 C6.67 4.99 6.34 5.98 6 7 C5.01 7.33 4.02 7.66 3 8 C3.33 6.68 3.66 5.36 4 4 C1.69 4 -0.62 4 -3 4 C-2.01 3.34 -1.02 2.68 0 2 C0 1.34 0 0.68 0 0 Z " fill="#051248" transform="translate(40,98)"/>
<path d="M0 0 C0.66 0 1.32 0 2 0 C5 5.75 5 5.75 5 8 C4.01 8.33 3.02 8.66 2 9 C0.50178941 5.62902617 0 3.79557881 0 0 Z " fill="#B93859" transform="translate(194,63)"/>
<path d="M0 0 C3.26954202 0.56371414 4.82575883 1.49962266 7 4 C6.67 4.66 6.34 5.32 6 6 C3.5625 5.25 3.5625 5.25 1 4 C0.1875 1.875 0.1875 1.875 0 0 Z M2 6 C4 7 4 7 4 7 Z " fill="#C03556" transform="translate(162,31)"/>
<path d="M0 0 C4.455 0.99 4.455 0.99 9 2 C6.01193893 3.49403054 3.10343799 4.79310745 0 6 C0 4.02 0 2.04 0 0 Z " fill="#CED4E2" transform="translate(63,107)"/>
<path d="M0 0 C0.33 0.66 0.66 1.32 1 2 C1.99 2 2.98 2 4 2 C4 4.64 4 7.28 4 10 C3.01 9.67 2.02 9.34 1 9 C1.33 7.68 1.66 6.36 2 5 C1.01 4.34 0.02 3.68 -1 3 C-0.67 2.01 -0.34 1.02 0 0 Z " fill="#021C4E" transform="translate(106,103)"/>
<path d="M0 0 C2.25245881 2.68841859 3.88213958 4.64641875 5 8 C4.01 8.495 4.01 8.495 3 9 C3 8.34 3 7.68 3 7 C1.68 6.67 0.36 6.34 -1 6 C-1.042721 4.33388095 -1.04063832 2.66617115 -1 1 C-0.67 0.67 -0.34 0.34 0 0 Z " fill="#011753" transform="translate(20,97)"/>
<path d="M0 0 C0.99 0.33 1.98 0.66 3 1 C3 2.32 3 3.64 3 5 C1.35 5 -0.3 5 -2 5 C-2.66 3.68 -3.32 2.36 -4 1 C-2.68 1.33 -1.36 1.66 0 2 C0 1.34 0 0.68 0 0 Z " fill="#122661" transform="translate(42,114)"/>
<path d="M0 0 C0.99 0 1.98 0 3 0 C3 1.65 3 3.3 3 5 C2.01 5.33 1.02 5.66 0 6 C-0.66 5.67 -1.32 5.34 -2 5 C-1.125 1.125 -1.125 1.125 0 0 Z " fill="#12275F" transform="translate(86,74)"/>
<path d="M0 0 C2.475 0.495 2.475 0.495 5 1 C5.33 2.32 5.66 3.64 6 5 C4.02 5.33 2.04 5.66 0 6 C0 4.02 0 2.04 0 0 Z " fill="#C2244B" transform="translate(195,70)"/>
<path d="M0 0 C2.625 0.375 2.625 0.375 5 1 C4.67 2.32 4.34 3.64 4 5 C2.02 4.01 0.04 3.02 -2 2 C-1.34 1.34 -0.68 0.68 0 0 Z " fill="#E7E9F2" transform="translate(58,40)"/>
<path d="M0 0 C0.680625 0.309375 1.36125 0.61875 2.0625 0.9375 C5.36965912 2.13370649 8.51545878 2.59005397 12 3 C11.67 3.66 11.34 4.32 11 5 C8.36 5 5.72 5 3 5 C3 4.34 3 3.68 3 3 C2.01 3 1.02 3 0 3 C0 2.01 0 1.02 0 0 Z " fill="#CDD3E5" transform="translate(63,95)"/>
<path d="M0 0 C1 2 2 4 3 6 C2.01 5.67 1.02 5.34 0 5 C-0.33 5.66 -0.66 6.32 -1 7 C-1.99 6.67 -2.98 6.34 -4 6 C-3.67 5.01 -3.34 4.02 -3 3 C-2.34 3 -1.68 3 -1 3 C-0.67 2.01 -0.34 1.02 0 0 Z " fill="#0D255C" transform="translate(62,89)"/>
<path d="M0 0 C0.33 0 0.66 0 1 0 C1 2.31 1 4.62 1 7 C-2.465 8.485 -2.465 8.485 -6 10 C-6 9.34 -6 8.68 -6 8 C-5.34 8 -4.68 8 -4 8 C-4 7.34 -4 6.68 -4 6 C-2.68 5.67 -1.36 5.34 0 5 C-0.33 4.01 -0.66 3.02 -1 2 C-0.67 1.34 -0.34 0.68 0 0 Z " fill="#0A1747" transform="translate(61,63)"/>
<path d="M0 0 C0.33 0 0.66 0 1 0 C1 1.98 1 3.96 1 6 C0.34 6 -0.32 6 -1 6 C-1 7.32 -1 8.64 -1 10 C-2.32 9.67 -3.64 9.34 -5 9 C-4.67 8.01 -4.34 7.02 -4 6 C-1.9375 5.3125 -1.9375 5.3125 0 5 C0 3.35 0 1.7 0 0 Z " fill="#C9D0E0" transform="translate(62,65)"/>
<path d="M0 0 C0.66 0 1.32 0 2 0 C2 1.98 2 3.96 2 6 C-1.01031744 6.93423645 -1.86650268 7.04449911 -5 6 C-4.67 5.34 -4.34 4.68 -4 4 C-3.01 4 -2.02 4 -1 4 C-0.67 2.68 -0.34 1.36 0 0 Z " fill="#0A1947" transform="translate(91,68)"/>
<path d="M0 0 C0.33 0 0.66 0 1 0 C1 3.96 1 7.92 1 12 C-2 8 -2 8 -1.85546875 5.859375 C-1.23697917 3.90625 -0.61848958 1.953125 0 0 Z " fill="#B7123A" transform="translate(204,125)"/>
<path d="M0 0 C2.9375 0.375 2.9375 0.375 6 1 C6.33 1.66 6.66 2.32 7 3 C3.52176885 4.15941038 1.54104422 3.70820884 -2 3 C-1.34 2.01 -0.68 1.02 0 0 Z " fill="#071444" transform="translate(99,114)"/>
<path d="M0 0 C0.33 0.99 0.66 1.98 1 3 C1.66 3 2.32 3 3 3 C2.67 3.66 2.34 4.32 2 5 C1.34 4.67 0.68 4.34 0 4 C0.33 5.32 0.66 6.64 1 8 C-0.32 8.33 -1.64 8.66 -3 9 C-2.01 6.03 -1.02 3.06 0 0 Z " fill="#2E3762" transform="translate(25,75)"/>
<path d="M0 0 C0.33 0.99 0.66 1.98 1 3 C2.32 3 3.64 3 5 3 C5 4.32 5 5.64 5 7 C2.525 6.01 2.525 6.01 0 5 C0 4.34 0 3.68 0 3 C-0.66 2.67 -1.32 2.34 -2 2 C-1.34 1.34 -0.68 0.68 0 0 Z " fill="#15285B" transform="translate(62,79)"/>
<path d="M0 0 C3 0 3 0 4.6875 1.375 C6 3 6 3 6 5 C4.02 5 2.04 5 0 5 C0 3.35 0 1.7 0 0 Z " fill="#04144D" transform="translate(37,66)"/>
<path d="M0 0 C0.33 0.66 0.66 1.32 1 2 C0.2575 2.6496875 0.2575 2.6496875 -0.5 3.3125 C-2.33218192 4.99740483 -2.33218192 4.99740483 -2 8 C-3.32 7.67 -4.64 7.34 -6 7 C-4.19587357 3.73539027 -3.16605307 2.11070205 0 0 Z " fill="#0A2264" transform="translate(63,60)"/>
<path d="M0 0 C-1 2 -1 2 -3 4 C-5.5 4.75 -5.5 4.75 -8 5 C-8.66 4.34 -9.32 3.68 -10 3 C-3.375 0 -3.375 0 0 0 Z " fill="#4D5780" transform="translate(82,22)"/>
<path d="M0 0 C-0.33 0.99 -0.66 1.98 -1 3 C-1.66 2.67 -2.32 2.34 -3 2 C-4.87056791 1.7724985 -6.74685958 1.59037189 -8.625 1.4375 C-9.62789062 1.35371094 -10.63078125 1.26992187 -11.6640625 1.18359375 C-12.43492188 1.12300781 -13.20578125 1.06242188 -14 1 C-14 0.67 -14 0.34 -14 0 C-12.04235617 -0.19456705 -10.08384679 -0.38044247 -8.125 -0.5625 C-6.48917969 -0.71912109 -6.48917969 -0.71912109 -4.8203125 -0.87890625 C-2 -1 -2 -1 0 0 Z " fill="#A71847" transform="translate(55,129)"/>
<path d="M0 0 C0.99 0.495 0.99 0.495 2 1 C1.67 1.66 1.34 2.32 1 3 C3.475 3.99 3.475 3.99 6 5 C6 5.66 6 6.32 6 7 C3.03 6.505 3.03 6.505 0 6 C0 4.02 0 2.04 0 0 Z " fill="#091A4E" transform="translate(56,102)"/>
<path d="M0 0 C0.33 0.66 0.66 1.32 1 2 C3.02463255 2.65213292 3.02463255 2.65213292 5 3 C1.21812119 4.83691257 -0.94568308 5.15837626 -5 4 C-4.360625 3.71125 -3.72125 3.4225 -3.0625 3.125 C-0.84793921 2.17176549 -0.84793921 2.17176549 0 0 Z " fill="#082564" transform="translate(107,96)"/>
<path d="M0 0 C2.76223278 2.76223278 2.57856291 5.20706617 3 9 C1.02 9 -0.96 9 -3 9 C-2.01 8.34 -1.02 7.68 0 7 C0.25015873 3.41642759 0.25015873 3.41642759 0 0 Z " fill="#DDE0F1" transform="translate(102,74)"/>
<path d="M0 0 C2.1785148 1.0892574 3.39192964 2.18218133 5 4 C5.33 4.99 5.66 5.98 6 7 C5.01 7.495 5.01 7.495 4 8 C4 7.01 4 6.02 4 5 C1.525 4.01 1.525 4.01 -1 3 C-0.67 2.01 -0.34 1.02 0 0 Z " fill="#DADDEB" transform="translate(89,75)"/>
<path d="M0 0 C1.98 0.99 1.98 0.99 4 2 C4 2.99 4 3.98 4 5 C2.68 5.33 1.36 5.66 0 6 C0 4.02 0 2.04 0 0 Z " fill="#F2F9FB" transform="translate(93,37)"/>
<path d="M0 0 C2.31 0.33 4.62 0.66 7 1 C6.67 2.32 6.34 3.64 6 5 C3.98079663 3.69593116 1.98075027 2.36176581 0 1 C0 0.67 0 0.34 0 0 Z " fill="#EEF1EF" transform="translate(62,192)"/>
<path d="M0 0 C0.7425 0.0825 1.485 0.165 2.25 0.25 C2.25 0.91 2.25 1.57 2.25 2.25 C0.93 1.92 -0.39 1.59 -1.75 1.25 C-1.75 2.24 -1.75 3.23 -1.75 4.25 C-3.4 4.25 -5.05 4.25 -6.75 4.25 C-3.42692308 0.31153846 -3.42692308 0.31153846 0 0 Z " fill="#0E1B47" transform="translate(39.75,113.75)"/>
<path d="M0 0 C0.33 0.66 0.66 1.32 1 2 C1.763125 1.79375 2.52625 1.5875 3.3125 1.375 C6 1 6 1 9 3 C6.36 3.33 3.72 3.66 1 4 C0.67 2.68 0.34 1.36 0 0 Z " fill="#1C2751" transform="translate(98,99)"/>
<path d="M0 0 C0.66 0 1.32 0 2 0 C1.44271087 3.34373475 0.64826111 6.03312999 -1 9 C-2.0326802 6.21176345 -2.04509293 5.1322726 -1.0625 2.25 C-0.711875 1.5075 -0.36125 0.765 0 0 Z " fill="#26345F" transform="translate(105,71)"/>
<path d="M0 0 C2.5 1.3125 2.5 1.3125 5 3 C5 3.99 5 4.98 5 6 C4.01 5.67 3.02 5.34 2 5 C2 4.34 2 3.68 2 3 C1.34 3 0.68 3 0 3 C-0.33 3.99 -0.66 4.98 -1 6 C-0.67 4.02 -0.34 2.04 0 0 Z " fill="#303E6C" transform="translate(94,65)"/>
<path d="M0 0 C2.31 0 4.62 0 7 0 C6.01 0.33 5.02 0.66 4 1 C3.67 1.66 3.34 2.32 3 3 C2.01 3.495 2.01 3.495 1 4 C0.34 3.67 -0.32 3.34 -1 3 C-0.67 2.01 -0.34 1.02 0 0 Z " fill="#F2F6F0" transform="translate(30,131)"/>
<path d="M0 0 C0.66 1.32 1.32 2.64 2 4 C-0.64 4 -3.28 4 -6 4 C-6 3.34 -6 2.68 -6 2 C-4.02 1.34 -2.04 0.68 0 0 Z " fill="#CCD3E6" transform="translate(104,111)"/>
<path d="M0 0 C0.66 0.66 1.32 1.32 2 2 C1.01 2 0.02 2 -1 2 C-1 2.66 -1 3.32 -1 4 C-0.34 4 0.32 4 1 4 C1 4.66 1 5.32 1 6 C-1.475 5.01 -1.475 5.01 -4 4 C-4 3.34 -4 2.68 -4 2 C-2.68 1.34 -1.36 0.68 0 0 Z " fill="#CED7E4" transform="translate(92,105)"/>
<path d="M0 0 C0.66 0 1.32 0 2 0 C1.34 2.64 0.68 5.28 0 8 C-0.66 7.67 -1.32 7.34 -2 7 C-1.125 1.125 -1.125 1.125 0 0 Z " fill="#D4D6E9" transform="translate(104,102)"/>
<path d="M0 0 C2.31 0 4.62 0 7 0 C6.67 1.32 6.34 2.64 6 4 C5.01 4 4.02 4 3 4 C3 3.01 3 2.02 3 1 C2.01 0.67 1.02 0.34 0 0 Z " fill="#BEC7D6" transform="translate(37,102)"/>
<path d="M0 0 C0.66 0.66 1.32 1.32 2 2 C1.625 5.625 1.625 5.625 1 9 C-0.5625 7.1875 -0.5625 7.1875 -2 5 C-1 2 -1 2 0 0 Z " fill="#BC0934" transform="translate(203,89)"/>
<path d="M0 0 C2.475 0.495 2.475 0.495 5 1 C4.67 2.32 4.34 3.64 4 5 C2.68 4.34 1.36 3.68 0 3 C0 2.01 0 1.02 0 0 Z " fill="#0C1A47" transform="translate(88,79)"/>
<path d="M0 0 C0.625 1.8125 0.625 1.8125 1 4 C0.01 5.485 0.01 5.485 -1 7 C-1.99 6.34 -2.98 5.68 -4 5 C-2.68 3.35 -1.36 1.7 0 0 Z " fill="#293863" transform="translate(39,52)"/>
<path d="M0 0 C0.33 0 0.66 0 1 0 C1 1.98 1 3.96 1 6 C-0.98 6.99 -0.98 6.99 -3 8 C-1.125 2.25 -1.125 2.25 0 0 Z " fill="#151C49" transform="translate(61,32)"/>
</svg>
