<svg width="87" height="11" viewBox="0 0 87 11" fill="none" xmlns="http://www.w3.org/2000/svg">
<path d="M2.24726 0.796H3.48226L6.31626 8.362H6.34226L9.26726 0.796H10.4243L6.82326 10H5.77026L2.24726 0.796ZM11.136 3.916H12.15V10H11.136V3.916ZM10.902 1.537C10.902 1.33767 10.9713 1.16433 11.11 1.017C11.2573 0.869666 11.435 0.796 11.643 0.796C11.851 0.796 12.0243 0.869666 12.163 1.017C12.3103 1.16433 12.384 1.33767 12.384 1.537C12.384 1.75367 12.3147 1.93133 12.176 2.07C12.0373 2.20867 11.8597 2.278 11.643 2.278C11.4263 2.278 11.2487 2.20867 11.11 2.07C10.9713 1.93133 10.902 1.75367 10.902 1.537ZM19.6021 8.895C19.2381 9.363 18.8394 9.69233 18.4061 9.883C17.9727 10.065 17.4701 10.156 16.8981 10.156C16.4214 10.156 15.9924 10.0737 15.6111 9.909C15.2297 9.73567 14.9047 9.506 14.6361 9.22C14.3761 8.934 14.1724 8.596 14.0251 8.206C13.8864 7.816 13.8171 7.4 13.8171 6.958C13.8171 6.49 13.8951 6.061 14.0511 5.671C14.2071 5.27233 14.4237 4.93433 14.7011 4.657C14.9784 4.371 15.3077 4.15 15.6891 3.994C16.0704 3.838 16.4864 3.76 16.9371 3.76C17.3617 3.76 17.7517 3.83367 18.1071 3.981C18.4624 4.11967 18.7657 4.32767 19.0171 4.605C19.2771 4.87367 19.4764 5.20733 19.6151 5.606C19.7537 5.996 19.8231 6.44233 19.8231 6.945V7.27H14.9091C14.9264 7.53 14.9871 7.78133 15.0911 8.024C15.2037 8.258 15.3467 8.466 15.5201 8.648C15.6934 8.82133 15.8971 8.96 16.1311 9.064C16.3651 9.168 16.6207 9.22 16.8981 9.22C17.3401 9.22 17.7127 9.142 18.0161 8.986C18.3194 8.83 18.5924 8.60033 18.8351 8.297L19.6021 8.895ZM18.7311 6.412C18.7137 5.892 18.5447 5.476 18.2241 5.164C17.9034 4.852 17.4614 4.696 16.8981 4.696C16.3347 4.696 15.8797 4.852 15.5331 5.164C15.1864 5.476 14.9784 5.892 14.9091 6.412H18.7311ZM27.9177 10H26.9167L25.1877 5.32H25.1617L23.6277 10H22.5877L20.6117 3.916H21.7297L23.1207 8.596H23.1467L24.7197 3.916H25.7857L27.3847 8.596H27.4107L28.7887 3.916H29.8807L27.9177 10ZM34.6586 0.796H38.1946C38.4979 0.796 38.8186 0.830666 39.1566 0.899999C39.4946 0.969333 39.8283 1.082 40.1576 1.238C40.4956 1.38533 40.8163 1.58033 41.1196 1.823C41.4316 2.06567 41.7046 2.36033 41.9386 2.707C42.1726 3.045 42.3589 3.43933 42.4976 3.89C42.6363 4.332 42.7056 4.83467 42.7056 5.398C42.7056 5.96133 42.6363 6.46833 42.4976 6.919C42.3589 7.361 42.1726 7.75533 41.9386 8.102C41.7046 8.44 41.4316 8.73033 41.1196 8.973C40.8163 9.21567 40.4956 9.415 40.1576 9.571C39.8283 9.71833 39.4946 9.82667 39.1566 9.896C38.8186 9.96533 38.4979 10 38.1946 10H34.6586V0.796ZM35.7506 8.986H37.8306C38.3593 8.986 38.8489 8.91667 39.2996 8.778C39.7503 8.63933 40.1403 8.427 40.4696 8.141C40.7989 7.84633 41.0589 7.47367 41.2496 7.023C41.4403 6.57233 41.5356 6.03067 41.5356 5.398C41.5356 4.76533 41.4403 4.22367 41.2496 3.773C41.0589 3.32233 40.7989 2.954 40.4696 2.668C40.1403 2.37333 39.7503 2.15667 39.2996 2.018C38.8489 1.87933 38.3593 1.81 37.8306 1.81H35.7506V8.986ZM49.7153 8.895C49.3513 9.363 48.9527 9.69233 48.5193 9.883C48.086 10.065 47.5833 10.156 47.0113 10.156C46.5347 10.156 46.1057 10.0737 45.7243 9.909C45.343 9.73567 45.018 9.506 44.7493 9.22C44.4893 8.934 44.2857 8.596 44.1383 8.206C43.9997 7.816 43.9303 7.4 43.9303 6.958C43.9303 6.49 44.0083 6.061 44.1643 5.671C44.3203 5.27233 44.537 4.93433 44.8143 4.657C45.0917 4.371 45.421 4.15 45.8023 3.994C46.1837 3.838 46.5997 3.76 47.0503 3.76C47.475 3.76 47.865 3.83367 48.2203 3.981C48.5757 4.11967 48.879 4.32767 49.1303 4.605C49.3903 4.87367 49.5897 5.20733 49.7283 5.606C49.867 5.996 49.9363 6.44233 49.9363 6.945V7.27H45.0223C45.0397 7.53 45.1003 7.78133 45.2043 8.024C45.317 8.258 45.46 8.466 45.6333 8.648C45.8067 8.82133 46.0103 8.96 46.2443 9.064C46.4783 9.168 46.734 9.22 47.0113 9.22C47.4533 9.22 47.826 9.142 48.1293 8.986C48.4327 8.83 48.7057 8.60033 48.9483 8.297L49.7153 8.895ZM48.8443 6.412C48.827 5.892 48.658 5.476 48.3373 5.164C48.0167 4.852 47.5747 4.696 47.0113 4.696C46.448 4.696 45.993 4.852 45.6463 5.164C45.2997 5.476 45.0917 5.892 45.0223 6.412H48.8443ZM54.833 4.774H53.039V7.816C53.039 8.01533 53.0433 8.20167 53.052 8.375C53.0606 8.53967 53.0953 8.687 53.156 8.817C53.2166 8.93833 53.3076 9.038 53.429 9.116C53.5503 9.18533 53.7236 9.22 53.949 9.22C54.0963 9.22 54.248 9.20267 54.404 9.168C54.56 9.13333 54.7073 9.08133 54.846 9.012L54.885 9.935C54.7116 10.013 54.5166 10.0693 54.3 10.104C54.092 10.1387 53.8926 10.156 53.702 10.156C53.338 10.156 53.0476 10.1083 52.831 10.013C52.6143 9.91767 52.4453 9.78333 52.324 9.61C52.2026 9.43667 52.1203 9.22433 52.077 8.973C52.0423 8.713 52.025 8.427 52.025 8.115V4.774H50.699V3.916H52.025V2.187H53.039V3.916H54.833V4.774ZM55.9973 4.696C56.3093 4.37533 56.6776 4.14133 57.1023 3.994C57.5356 3.838 57.9733 3.76 58.4153 3.76C59.3166 3.76 59.9666 3.97233 60.3653 4.397C60.7639 4.82167 60.9633 5.46733 60.9633 6.334V8.947C60.9633 9.12033 60.9719 9.30233 60.9893 9.493C61.0066 9.675 61.0283 9.844 61.0543 10H60.0793C60.0446 9.86133 60.0229 9.70967 60.0143 9.545C60.0143 9.37167 60.0143 9.22 60.0143 9.09H59.9883C59.7889 9.402 59.5203 9.65767 59.1823 9.857C58.8529 10.0563 58.4543 10.156 57.9863 10.156C57.6743 10.156 57.3796 10.117 57.1023 10.039C56.8336 9.961 56.5953 9.84833 56.3873 9.701C56.1879 9.545 56.0276 9.35433 55.9063 9.129C55.7849 8.90367 55.7243 8.64367 55.7243 8.349C55.7243 7.84633 55.8543 7.452 56.1143 7.166C56.3743 6.88 56.6949 6.66767 57.0763 6.529C57.4663 6.39033 57.8823 6.30367 58.3243 6.269C58.7749 6.23433 59.1866 6.217 59.5593 6.217H59.9493V6.035C59.9493 5.593 59.8149 5.25933 59.5463 5.034C59.2863 4.80867 58.9179 4.696 58.4413 4.696C58.1119 4.696 57.7869 4.75233 57.4663 4.865C57.1543 4.969 56.8769 5.13367 56.6343 5.359L55.9973 4.696ZM58.9353 7.075C58.2853 7.075 57.7696 7.166 57.3883 7.348C57.0069 7.53 56.8163 7.829 56.8163 8.245C56.8163 8.62633 56.9419 8.89933 57.1933 9.064C57.4533 9.22 57.7739 9.298 58.1553 9.298C58.4499 9.298 58.7056 9.25033 58.9223 9.155C59.1476 9.051 59.3339 8.91667 59.4813 8.752C59.6286 8.58733 59.7413 8.39667 59.8193 8.18C59.8973 7.95467 59.9406 7.71633 59.9493 7.465V7.075H58.9353ZM62.9075 3.916H63.9215V10H62.9075V3.916ZM62.6735 1.537C62.6735 1.33767 62.7428 1.16433 62.8815 1.017C63.0288 0.869666 63.2065 0.796 63.4145 0.796C63.6225 0.796 63.7958 0.869666 63.9345 1.017C64.0818 1.16433 64.1555 1.33767 64.1555 1.537C64.1555 1.75367 64.0862 1.93133 63.9475 2.07C63.8088 2.20867 63.6312 2.278 63.4145 2.278C63.1978 2.278 63.0202 2.20867 62.8815 2.07C62.7428 1.93133 62.6735 1.75367 62.6735 1.537ZM66.0305 0.171999H67.0445V10H66.0305V0.171999ZM69.1926 8.401C69.3919 8.65233 69.6086 8.85167 69.8426 8.999C70.0853 9.14633 70.3886 9.22 70.7526 9.22C70.9086 9.22 71.0646 9.20267 71.2206 9.168C71.3853 9.13333 71.5326 9.077 71.6626 8.999C71.7926 8.921 71.8966 8.82567 71.9746 8.713C72.0526 8.59167 72.0916 8.44867 72.0916 8.284C72.0916 8.11933 72.0526 7.985 71.9746 7.881C71.9053 7.777 71.8099 7.69033 71.6886 7.621C71.5673 7.543 71.4286 7.48233 71.2726 7.439C71.1166 7.39567 70.9563 7.35667 70.7916 7.322C70.5056 7.26133 70.2326 7.192 69.9726 7.114C69.7126 7.036 69.4829 6.93633 69.2836 6.815C69.0929 6.685 68.9369 6.52033 68.8156 6.321C68.7029 6.12167 68.6466 5.866 68.6466 5.554C68.6466 5.25933 68.7116 4.99933 68.8416 4.774C68.9716 4.54867 69.1449 4.36233 69.3616 4.215C69.5783 4.06767 69.8209 3.955 70.0896 3.877C70.3583 3.799 70.6356 3.76 70.9216 3.76C71.3549 3.76 71.7536 3.84667 72.1176 4.02C72.4903 4.19333 72.7806 4.475 72.9886 4.865L72.1436 5.424C72.0136 5.20733 71.8403 5.034 71.6236 4.904C71.4156 4.76533 71.1599 4.696 70.8566 4.696C70.7179 4.696 70.5749 4.71333 70.4276 4.748C70.2889 4.78267 70.1633 4.83467 70.0506 4.904C69.9379 4.97333 69.8426 5.06433 69.7646 5.177C69.6953 5.281 69.6606 5.40233 69.6606 5.541C69.6606 5.671 69.6996 5.78367 69.7776 5.879C69.8643 5.96567 69.9769 6.04367 70.1156 6.113C70.2629 6.18233 70.4276 6.243 70.6096 6.295C70.8003 6.347 70.9953 6.39033 71.1946 6.425C71.4633 6.477 71.7189 6.54633 71.9616 6.633C72.2043 6.711 72.4166 6.81933 72.5986 6.958C72.7806 7.09667 72.9236 7.27 73.0276 7.478C73.1316 7.686 73.1836 7.94167 73.1836 8.245C73.1836 8.59167 73.1143 8.88633 72.9756 9.129C72.8369 9.37167 72.6506 9.571 72.4166 9.727C72.1913 9.87433 71.9313 9.98267 71.6366 10.052C71.3506 10.1213 71.0559 10.156 70.7526 10.156C70.2326 10.156 69.7819 10.078 69.4006 9.922C69.0279 9.75733 68.6899 9.45833 68.3866 9.025L69.1926 8.401Z" fill="#E30A13"/>
<path fill-rule="evenodd" clip-rule="evenodd" d="M82.1375 10.8625C82.3207 11.0458 82.6179 11.0458 82.8011 10.8625L86.3318 7.33183C86.4198 7.24383 86.4693 7.12446 86.4693 7C86.4693 6.87554 86.4198 6.75617 86.3318 6.66817L82.8011 3.13745C82.6179 2.95418 82.3207 2.95418 82.1375 3.13745C81.9542 3.32072 81.9542 3.61785 82.1375 3.80112L85.3363 7L82.1375 10.1989C81.9542 10.3821 81.9542 10.6793 82.1375 10.8625Z" fill="#E30A13"/>
</svg>
