<?xml version="1.0" encoding="UTF-8"?>
<svg version="1.1" xmlns="http://www.w3.org/2000/svg" width="158" height="148">
<path d="M0 0 C1.24265625 -0.02449219 2.4853125 -0.04898438 3.765625 -0.07421875 C22.44948944 -0.13272772 39.34328009 7.63800015 52.875 20.375 C55.72867608 23.24380158 58.34391296 26.21921914 60.875 29.375 C61.48085937 30.10976563 62.08671875 30.84453125 62.7109375 31.6015625 C74.43135281 46.90463751 76.86327433 65.84441055 75.359375 84.5546875 C74.89482132 87.25958876 74.13814664 88.97749814 72.875 91.375 C72.60590247 92.82649578 72.37982235 94.28635196 72.1875 95.75 C69.3532219 110.64643838 59.46526465 123.11650457 47.875 132.375 C47.27300781 132.88675781 46.67101562 133.39851562 46.05078125 133.92578125 C30.42701609 146.60166619 10.38738191 149.96140584 -9.125 148.375 C-20.39117686 147.04043185 -31.31079388 143.65630071 -40.125 136.375 C-40.125 135.715 -40.125 135.055 -40.125 134.375 C-40.99898437 134.20484375 -40.99898437 134.20484375 -41.890625 134.03125 C-52.52069235 130.90913232 -60.23710221 118.96586432 -65.39086914 109.90063477 C-74.7912248 92.3578671 -75.96562139 69.98465865 -70.44921875 51.0546875 C-66.69795283 40.63081584 -61.59189974 31.63471728 -54.125 23.375 C-53.18527344 22.31345703 -53.18527344 22.31345703 -52.2265625 21.23046875 C-43.63046983 12.05545555 -32.7531876 6.74233093 -21.125 2.375 C-20.12210938 1.99730469 -19.11921875 1.61960938 -18.0859375 1.23046875 C-12.22857751 -0.36145248 -6.01832438 0.00612864 0 0 Z " fill="#106B4A" transform="translate(78.125,-0.375)"/>
<path d="M0 0 C1.24265625 -0.02449219 2.4853125 -0.04898438 3.765625 -0.07421875 C22.44948944 -0.13272772 39.34328009 7.63800015 52.875 20.375 C55.72867608 23.24380158 58.34391296 26.21921914 60.875 29.375 C61.48085937 30.10976563 62.08671875 30.84453125 62.7109375 31.6015625 C68.47569718 39.1284758 73.875 49.7432553 73.875 59.375 C66.68962681 59.57929706 59.50501281 59.71854133 52.31738281 59.81445312 C49.87699397 59.85447008 47.4367943 59.90890304 44.99707031 59.97851562 C19.82450832 60.6783252 19.82450832 60.6783252 9.875 51.375 C7.89518169 50.0118796 5.89657037 48.67539648 3.875 47.375 C1.00150363 45.46056532 -1.87129913 43.54527158 -4.73828125 41.62109375 C-15.46462617 34.43397696 -26.30320261 27.41714574 -37.125 20.375 C-37.8675 21.035 -38.61 21.695 -39.375 22.375 C-42.125 24.375 -42.125 24.375 -46.125 24.375 C-45.05098892 21.45982708 -44.34689824 19.59689824 -42.125 17.375 C-45.75113199 17.94459153 -47.38017741 19.29874534 -49.875 21.9375 C-50.48859375 22.57816406 -51.1021875 23.21882813 -51.734375 23.87890625 C-52.19328125 24.37261719 -52.6521875 24.86632812 -53.125 25.375 C-53.785 25.045 -54.445 24.715 -55.125 24.375 C-45.38140031 13.76530256 -34.52403882 7.4074297 -21.125 2.375 C-20.12210938 1.99730469 -19.11921875 1.61960938 -18.0859375 1.23046875 C-12.22857751 -0.36145248 -6.01832438 0.00612864 0 0 Z " fill="#E16764" transform="translate(78.125,-0.375)"/>
<path d="M0 0 C1.35117416 0.0001133 1.35117416 0.0001133 2.72964478 0.00022888 C3.70364227 0.00539017 4.67763977 0.01055145 5.68115234 0.01586914 C6.67714447 0.01728409 7.6731366 0.01869904 8.6993103 0.02015686 C11.88860037 0.02576603 15.0778209 0.03832009 18.26708984 0.05102539 C20.425943 0.05603921 22.58479725 0.06060232 24.74365234 0.06469727 C30.04315534 0.07573844 35.34261763 0.09248552 40.64208984 0.11352539 C38.85967863 14.12245329 28.65027658 25.6082066 17.95458984 34.36352539 C-0.15750886 46.83173183 -20.57952233 51.88917608 -42.38916016 48.57055664 C-49.36929023 47.19729192 -55.88360368 45.05232349 -62.35791016 42.11352539 C-62.35791016 40.79352539 -62.35791016 39.47352539 -62.35791016 38.11352539 C-60.47900391 36.54321289 -60.47900391 36.54321289 -57.79541016 34.98852539 C-53.14897314 32.19828344 -48.60324305 29.3252543 -44.10791016 26.30102539 C-42.82156112 25.44018496 -41.53510149 24.57950977 -40.24853516 23.71899414 C-39.60464844 23.2876416 -38.96076172 22.85628906 -38.29736328 22.41186523 C-34.5398305 19.89643732 -30.77555757 17.39111137 -27.01245117 14.8840332 C-23.72291742 12.69187717 -20.43547286 10.49667125 -17.15087891 8.29711914 C-16.46380859 7.83756836 -15.77673828 7.37801758 -15.06884766 6.90454102 C-13.74660254 6.02006624 -12.42496124 5.13468794 -11.10400391 4.24829102 C-4.72907599 -0.01320971 -4.72907599 -0.01320971 0 0 Z " fill="#072087" transform="translate(107.35791015625,98.886474609375)"/>
<path d="M0 0 C4.56158785 0.5356727 7.25287393 2.32365118 10.9375 5 C12.08702436 5.82243739 13.23812115 6.64268057 14.390625 7.4609375 C14.98294922 7.88213867 15.57527344 8.30333984 16.18554688 8.73730469 C19.13080334 10.78693688 22.15721098 12.70433579 25.1875 14.625 C29.45080657 17.34597011 33.69482986 20.08979594 37.875 22.9375 C38.67679688 23.48277344 39.47859375 24.02804688 40.3046875 24.58984375 C40.86414062 25.05519531 41.42359375 25.52054688 42 26 C42 26.66 42 27.32 42 28 C39.73878114 29.64918229 37.47893133 31.18108484 35.125 32.6875 C33.73245097 33.59540093 32.34052394 34.5042566 30.94921875 35.4140625 C30.26778809 35.85782227 29.58635742 36.30158203 28.88427734 36.75878906 C26.53120355 38.30880554 24.23103035 39.9259105 21.9375 41.5625 C17.849831 44.43212621 13.72702835 47.24337981 9.5625 50 C8.95849365 50.41064697 8.3544873 50.82129395 7.73217773 51.24438477 C6.20465993 52.24366926 4.60548354 53.13149395 3 54 C2.01 53.67 1.02 53.34 0 53 C-0.9140625 50.890625 -0.9140625 50.890625 -1.625 48.25 C-1.86476563 47.38890625 -2.10453125 46.5278125 -2.3515625 45.640625 C-6.07795963 30.46565838 -4.73917887 14.76761986 0 0 Z " fill="#060606" transform="translate(9,47)"/>
<path d="M0 0 C2.20795607 1.10397803 3.83182591 2.44238495 5.75 4 C10.24682626 7.53373786 14.94501386 10.60814349 19.7722168 13.65991211 C23.27018903 15.87527883 26.69293573 18.15331643 30.0625 20.5625 C35.23686101 24.24393062 40.64604868 27.49883744 46.12524414 30.70458984 C48 32 48 32 50.04467773 34.01806641 C59.40637309 42.55965568 70.22567211 40.8954015 82.1875 40.5 C84.30527106 40.45981275 86.42311566 40.42332126 88.54101562 40.390625 C93.69584587 40.30306512 98.84710239 40.16535062 104 40 C103.50886719 39.40703125 103.01773438 38.8140625 102.51171875 38.203125 C100.55202548 35.34713792 100.76887875 33.38977829 101 30 C104.3539946 31.6769973 104.89630555 35.45269676 106.125 38.8125 C106.40214844 39.53759766 106.67929688 40.26269531 106.96484375 41.00976562 C108.32781306 44.67904015 109 46.98121413 109 51 C101.81462681 51.20429706 94.63001281 51.34354133 87.44238281 51.43945312 C85.00199397 51.47947008 82.5617943 51.53390304 80.12207031 51.60351562 C54.94950832 52.3033252 54.94950832 52.3033252 45 43 C43.02018169 41.6368796 41.02157037 40.30039648 39 39 C36.12650363 37.08556532 33.25370087 35.17027158 30.38671875 33.24609375 C19.66037383 26.05897696 8.82179739 19.04214574 -2 12 C-2.7425 12.66 -3.485 13.32 -4.25 14 C-7 16 -7 16 -11 16 C-9.92598892 13.08482708 -9.22189824 11.22189824 -7 9 C-10.62613199 9.56959153 -12.25517741 10.92374534 -14.75 13.5625 C-15.36359375 14.20316406 -15.9771875 14.84382813 -16.609375 15.50390625 C-17.29773438 16.24447266 -17.29773438 16.24447266 -18 17 C-18.66 16.67 -19.32 16.34 -20 16 C-14.10017473 9.57574582 -7.90871762 3.86648417 0 0 Z " fill="#F1F6F4" transform="translate(43,8)"/>
<path d="M0 0 C1.56139206 0.0001133 1.56139206 0.0001133 3.15432739 0.00022888 C4.28144135 0.00539017 5.4085553 0.01055145 6.56982422 0.01586914 C7.72118866 0.01728409 8.8725531 0.01869904 10.05880737 0.02015686 C13.74740158 0.02576823 17.43593576 0.03832269 21.12451172 0.05102539 C23.62060459 0.05603892 26.11669842 0.06060208 28.61279297 0.06469727 C34.74172245 0.07574137 40.8706069 0.09301366 46.99951172 0.11352539 C46.00951172 4.07352539 45.01951172 8.03352539 43.99951172 12.11352539 C43.50451172 11.12352539 43.50451172 11.12352539 42.99951172 10.11352539 C36.79138008 10.08326051 30.58563027 10.09922604 24.37768555 10.15625 C22.27030405 10.16931128 20.16280777 10.17019652 18.05541992 10.15820312 C1.19408501 9.92294552 1.19408501 9.92294552 -13.00048828 18.11352539 C-14.77846366 19.32142822 -16.56925263 20.51080504 -18.37548828 21.67602539 C-19.94094233 22.72441139 -21.50635438 23.77286037 -23.07128906 24.82202148 C-27.14743791 27.55080247 -31.2310921 30.26835298 -35.31298828 32.98852539 C-37.12551323 34.1968213 -38.93801341 35.40515436 -40.75048828 36.61352539 C-47.50048828 41.11352539 -54.25048828 45.61352539 -61.00048828 50.11352539 C-63.00048828 49.11352539 -65.00048828 48.11352539 -67.00048828 47.11352539 C-67.00048828 46.45352539 -67.00048828 45.79352539 -67.00048828 45.11352539 C-67.99048828 44.78352539 -68.98048828 44.45352539 -70.00048828 44.11352539 C-66.66757897 41.38533698 -63.27362477 38.88329945 -59.68408203 36.50415039 C-58.67152344 35.83125977 -57.65896484 35.15836914 -56.61572266 34.46508789 C-55.56707031 33.77157227 -54.51841797 33.07805664 -53.43798828 32.36352539 C-52.41640625 31.68547852 -51.39482422 31.00743164 -50.34228516 30.30883789 C-48.27415591 28.93617419 -46.20546835 27.56435129 -44.13623047 26.19335938 C-39.95886405 23.42265052 -35.78887815 20.64093637 -31.61889648 17.85913086 C-29.59943109 16.51282059 -27.57857757 15.16874851 -25.55517578 13.82836914 C-19.96424271 10.12009721 -14.43098174 6.34651346 -8.96142578 2.46118164 C-5.73444257 0.24343421 -3.8898953 -0.00939588 0 0 Z " fill="#F2F5F7" transform="translate(105.00048828125,88.886474609375)"/>
<path d="M0 0 C0.33 0.66 0.66 1.32 1 2 C1.7528125 2.144375 2.505625 2.28875 3.28125 2.4375 C6.37756616 3.07811714 7.96952762 4.12814372 10.5 6 C11.36496094 6.62648438 12.22992187 7.25296875 13.12109375 7.8984375 C14.07113281 8.59195313 15.02117188 9.28546875 16 10 C23.1267139 15.06212648 30.20741666 19.99296102 38 24 C38 24.66 38 25.32 38 26 C38.71800781 26.25652344 39.43601563 26.51304688 40.17578125 26.77734375 C43.17140001 28.07420222 45.54758982 29.64946373 48.1875 31.5625 C51.47878323 33.97200639 51.47878323 33.97200639 55 36 C55 36.66 55 37.32 55 38 C50.61538462 41 50.61538462 41 48 41 C48 41.66 48 42.32 48 43 C46.19649524 44.17921465 44.38317223 45.34496727 42.53515625 46.453125 C39.69751566 48.18456671 36.94556419 50.01950962 34.1875 51.875 C30.28249611 54.49307179 26.3538284 57.05814549 22.375 59.5625 C17.13198129 62.87827305 12.03370869 66.37501192 7 70 C6.28714844 70.50015625 5.57429688 71.0003125 4.83984375 71.515625 C2.75086014 73.04950448 2.75086014 73.04950448 1 76 C0.15885829 74.56705502 -0.67265687 73.12845595 -1.5 71.6875 C-2.19609375 70.48673828 -2.19609375 70.48673828 -2.90625 69.26171875 C-4 67 -4 67 -4 64 C-2.4621582 62.70068359 -2.4621582 62.70068359 -0.30078125 61.3984375 C0.49038086 60.9125415 1.28154297 60.42664551 2.09667969 59.92602539 C2.95165039 59.41418701 3.80662109 58.90234863 4.6875 58.375 C6.43755789 57.30038873 8.18625143 56.22355247 9.93359375 55.14453125 C10.79710449 54.6129541 11.66061523 54.08137695 12.55029297 53.53369141 C19.3008182 49.30738091 25.76356179 44.64050589 32.1875 39.9375 C35 38 35 38 37 38 C33.19729797 33.64954034 28.39485028 30.87618498 23.5625 27.8125 C16.44416372 23.25086717 9.42723734 18.59773806 2.53125 13.70703125 C0.39713163 12.26781871 -1.66639986 11.07323591 -4 10 C-3.52449439 8.51965236 -3.04448784 7.04074979 -2.5625 5.5625 C-2.29566406 4.73878906 -2.02882813 3.91507813 -1.75390625 3.06640625 C-1 1 -1 1 0 0 Z " fill="#EAA724" transform="translate(14,37)"/>
<path d="M0 0 C1.25619141 -0.02900391 2.51238281 -0.05800781 3.80664062 -0.08789062 C12.15758808 -0.14393725 20.51538201 0.38653185 28.0625 4.3125 C28.91381836 6.4519043 28.91381836 6.4519043 29.0625 8.3125 C24.65187864 9.3382259 22.13619424 9.34934712 18.0625 7.3125 C17.7325 8.3025 17.4025 9.2925 17.0625 10.3125 C10.6275 10.8075 10.6275 10.8075 4.0625 11.3125 C3.4025 18.2425 2.7425 25.1725 2.0625 32.3125 C4.3725 32.6425 6.6825 32.9725 9.0625 33.3125 C11.39583333 33.64583333 13.72916667 33.97916667 16.0625 34.3125 C16.0625 34.9725 16.0625 35.6325 16.0625 36.3125 C17.7125 36.6425 19.3625 36.9725 21.0625 37.3125 C21.5575 39.2925 21.5575 39.2925 22.0625 41.3125 C24.0425 40.8175 24.0425 40.8175 26.0625 40.3125 C27.26878008 42.64464148 28.2279738 44.80892139 29.0625 47.3125 C40.9425 47.6425 52.8225 47.9725 65.0625 48.3125 C63.61965899 41.87346183 63.61965899 41.87346183 61.0625 36.3125 C62.9375 36.4375 62.9375 36.4375 65.0625 37.3125 C66.1875 40.1875 66.1875 40.1875 67.0625 43.3125 C67.7225 44.3025 68.3825 45.2925 69.0625 46.3125 C69.3925 47.3025 69.7225 48.2925 70.0625 49.3125 C63.82308673 49.61308319 57.58803309 49.82865315 51.34301758 49.97167969 C49.22736084 50.03138869 47.11218517 50.11279673 44.99829102 50.21777344 C29.67926168 50.95848972 20.6031379 48.99931751 8.94923401 38.85423279 C5.72965488 36.22337403 2.18518535 34.13317153 -1.375 32 C-6.53451581 28.83281872 -11.56430615 25.566936 -16.48828125 22.0390625 C-20.38164819 19.29445614 -24.3809338 16.71052229 -28.37109375 14.109375 C-30.48659242 12.62820394 -32.20739308 11.21268522 -33.9375 9.3125 C-31.31760036 6.1238677 -28.31464496 5.09904853 -24.5 3.6875 C-22.80037109 3.04941406 -22.80037109 3.04941406 -21.06640625 2.3984375 C-14.01881812 -0.0475419 -7.43262836 0.05566122 0 0 Z " fill="#DB5753" transform="translate(77.9375,-0.3125)"/>
<path d="M0 0 C0.89912109 0.33257813 0.89912109 0.33257813 1.81640625 0.671875 C1.17703125 1.455625 0.53765625 2.239375 -0.12109375 3.046875 C-2.16501688 5.46726781 -2.16501688 5.46726781 -3.18359375 7.671875 C1.71203318 5.79485173 1.71203318 5.79485173 5.81640625 2.671875 C5.81640625 5.671875 5.81640625 5.671875 4.359375 9.203125 C2.43145733 14.15382715 2.2628472 18.90608235 2.12890625 24.171875 C2.09474609 25.0896875 2.06058594 26.0075 2.02539062 26.953125 C1.94374361 29.1925859 1.87433087 31.4316965 1.81640625 33.671875 C2.80640625 33.671875 3.79640625 33.671875 4.81640625 33.671875 C7.00390625 35.546875 7.00390625 35.546875 8.81640625 37.671875 C8.81640625 38.331875 8.81640625 38.991875 8.81640625 39.671875 C11.12640625 40.001875 13.43640625 40.331875 15.81640625 40.671875 C16.31140625 42.651875 16.31140625 42.651875 16.81640625 44.671875 C8.52934663 43.16864093 0.98779244 36.14493973 -5.7578125 31.37890625 C-8.19751873 29.66207594 -10.65062549 27.96913058 -13.12109375 26.296875 C-13.83136719 25.81476562 -14.54164062 25.33265625 -15.2734375 24.8359375 C-17.27996814 23.51550053 -17.27996814 23.51550053 -20.18359375 22.671875 C-19.88440309 16.68806172 -17.12363238 12.94662565 -13.18359375 8.671875 C-10.68359375 7.046875 -10.68359375 7.046875 -8.18359375 5.671875 C-6.63380602 4.08585847 -5.15633571 2.46287673 -3.7109375 0.78125 C-2.18359375 -0.328125 -2.18359375 -0.328125 0 0 Z " fill="#085837" transform="translate(35.18359375,16.328125)"/>
<path d="M0 0 C2.7839183 1.39195915 2.97898997 3.15575779 4 6 C4.33 4.68 4.66 3.36 5 2 C6.65 2.33 8.3 2.66 10 3 C10.33 3.99 10.66 4.98 11 6 C11.8353125 6.185625 11.8353125 6.185625 12.6875 6.375 C16.28313155 7.34679231 18.28506647 9.47017557 21 12 C21 12.66 21 13.32 21 14 C21.78375 14.28875 22.5675 14.5775 23.375 14.875 C26 16 26 16 28 18 C26.06537998 19.31674138 24.12720303 20.62825798 22.1875 21.9375 C21.10855469 22.66839844 20.02960937 23.39929688 18.91796875 24.15234375 C16 26 16 26 13 27 C5.58087293 23.2164097 -0.45958049 15.81062926 -5 9 C-5.4375 6.5625 -5.4375 6.5625 -5 4 C-2.5 1.6875 -2.5 1.6875 0 0 Z " fill="#076F48" transform="translate(21,106)"/>
<path d="M0 0 C2.31 0.33 4.62 0.66 7 1 C7 1.66 7 2.32 7 3 C8.299375 2.855625 9.59875 2.71125 10.9375 2.5625 C23.95930238 1.27684955 36.92299816 0.84159756 50 1 C50.495 2.485 50.495 2.485 51 4 C52.98 3.67 54.96 3.34 57 3 C57.495 6.465 57.495 6.465 58 10 C50.95259884 10.10137004 43.90538548 10.17145284 36.85742188 10.21972656 C34.45956394 10.23984936 32.06175512 10.26715059 29.6640625 10.30175781 C26.21862677 10.3502449 22.77383948 10.37296241 19.328125 10.390625 C17.71855927 10.42159271 17.71855927 10.42159271 16.07647705 10.45318604 C14.57537384 10.45363922 14.57537384 10.45363922 13.04394531 10.45410156 C12.16458313 10.46298401 11.28522095 10.47186646 10.37921143 10.48101807 C7.2266913 9.84365599 6.10812131 8.36287834 4 6 C2.36021682 4.95650161 0.69905634 3.94392019 -1 3 C-0.67 2.01 -0.34 1.02 0 0 Z " fill="#F9FDFC" transform="translate(94,49)"/>
<path d="M0 0 C1.32 0.33 2.64 0.66 4 1 C4 1.66 4 2.32 4 3 C-0.38461538 6 -0.38461538 6 -3 6 C-3 6.66 -3 7.32 -3 8 C-4.80350476 9.17921465 -6.61682777 10.34496727 -8.46484375 11.453125 C-11.30248434 13.18456671 -14.05443581 15.01950962 -16.8125 16.875 C-20.71750389 19.49307179 -24.6461716 22.05814549 -28.625 24.5625 C-33.86801871 27.87827305 -38.96629131 31.37501192 -44 35 C-44.71285156 35.50015625 -45.42570312 36.0003125 -46.16015625 36.515625 C-48.24913986 38.04950448 -48.24913986 38.04950448 -50 41 C-50.84114171 39.56705502 -51.67265687 38.12845595 -52.5 36.6875 C-53.19609375 35.48673828 -53.19609375 35.48673828 -53.90625 34.26171875 C-55 32 -55 32 -55 29 C-53.3828125 27.65307617 -53.3828125 27.65307617 -51.125 26.29296875 C-50.30386719 25.78830078 -49.48273437 25.28363281 -48.63671875 24.76367188 C-47.76660156 24.24353516 -46.89648438 23.72339844 -46 23.1875 C-39.752349 19.40148108 -33.75591603 15.50685814 -28 11 C-27.34 11.33 -26.68 11.66 -26 12 C-27.2739589 14.03833424 -28.61061923 16.03852126 -30 18 C-30.66 18 -31.32 18 -32 18 C-31.34 19.32 -30.68 20.64 -30 22 C-28.35 21.67 -26.7 21.34 -25 21 C-25 20.01 -25 19.02 -25 18 C-23.68 18 -22.36 18 -21 18 C-21 17.01 -21 16.02 -21 15 C-19.68 15 -18.36 15 -17 15 C-17 14.34 -17 13.68 -17 13 C-15.35 12.34 -13.7 11.68 -12 11 C-12.495 9.515 -12.495 9.515 -13 8 C-11.865625 7.87625 -10.73125 7.7525 -9.5625 7.625 C-8.386875 7.41875 -7.21125 7.2125 -6 7 C-5.67 6.34 -5.34 5.68 -5 5 C-4.01 5 -3.02 5 -2 5 C-2 4.34 -2 3.68 -2 3 C-1.01 3 -0.02 3 1 3 C0.505 1.515 0.505 1.515 0 0 Z " fill="#EDA921" transform="translate(65,72)"/>
<path d="M0 0 C0 0.66 0 1.32 0 2 C1.32 2.33 2.64 2.66 4 3 C-15.99524226 13.27152856 -37.20457949 16.61053998 -59 10 C-62.39880002 8.79661776 -65.7170589 7.49018294 -69 6 C-69 4.68 -69 3.36 -69 2 C-65.3050894 0.76836313 -64.30221924 1.40848038 -60.75 2.8125 C-52.81167319 5.9183143 -46.05704015 7.36266751 -37.5625 7.3125 C-36.59618652 7.30831055 -35.62987305 7.30412109 -34.63427734 7.29980469 C-22.7762299 7.11535053 -10.48814504 0 0 0 Z " fill="#3A428F" transform="translate(114,135)"/>
<path d="M0 0 C0.66 0.33 1.32 0.66 2 1 C1.67 1.66 1.34 2.32 1 3 C1.85464844 3.13277344 2.70929688 3.26554688 3.58984375 3.40234375 C5.24693359 3.66724609 5.24693359 3.66724609 6.9375 3.9375 C8.03964844 4.11152344 9.14179687 4.28554687 10.27734375 4.46484375 C13 5 13 5 14 6 C15.84891946 6.23363881 17.70488031 6.41303635 19.5625 6.5625 C21.08037109 6.68818359 21.08037109 6.68818359 22.62890625 6.81640625 C23.80259766 6.90728516 23.80259766 6.90728516 25 7 C24.34 7.99 23.68 8.98 23 10 C25.31 10.33 27.62 10.66 30 11 C30 11.33 30 11.66 30 12 C22.99555999 14.6753801 15.97074658 14.2222309 8.5625 14.125 C7.25861328 14.11597656 5.95472656 14.10695312 4.61132812 14.09765625 C1.40736168 14.07418397 -1.79622264 14.04134727 -5 14 C-5 13.34 -5 12.68 -5 12 C-5.99 11.67 -6.98 11.34 -8 11 C-9.66933058 10.3400321 -11.3364521 9.67441131 -13 9 C-12.02248365 7.65009646 -11.01800576 6.31963709 -10 5 C-9.566875 4.401875 -9.13375 3.80375 -8.6875 3.1875 C-7 2 -7 2 -3.8125 2.3125 C-2.4203125 2.6528125 -2.4203125 2.6528125 -1 3 C-0.67 2.01 -0.34 1.02 0 0 Z " fill="#09289D" transform="translate(66,126)"/>
<path d="M0 0 C1.98 0 3.96 0 6 0 C7.25248502 2.50497004 7.11374406 4.20853274 7.09765625 7.0078125 C7.09443359 7.99394531 7.09121094 8.98007813 7.08789062 9.99609375 C7.07951172 11.02863281 7.07113281 12.06117187 7.0625 13.125 C7.05798828 14.16527344 7.05347656 15.20554687 7.04882812 16.27734375 C7.03701952 18.85161962 7.02055075 21.42578146 7 24 C6.34 24 5.68 24 5 24 C4.67 25.32 4.34 26.64 4 28 C-1.61 28 -7.22 28 -13 28 C-12.113125 26.845 -11.22625 25.69 -10.3125 24.5 C-9.20503429 23.00243407 -8.10089735 21.50240109 -7 20 C-6.52433594 19.37609375 -6.04867187 18.7521875 -5.55859375 18.109375 C-1.59702691 12.48040242 -0.75454764 6.75714304 0 0 Z " fill="#055F3E" transform="translate(145,60)"/>
<path d="M0 0 C0.66 0 1.32 0 2 0 C2 0.99 2 1.98 2 3 C4.97 3.495 4.97 3.495 8 4 C8.495 5.485 8.495 5.485 9 7 C8.01 7 7.02 7 6 7 C6 7.66 6 8.32 6 9 C5.01 9 4.02 9 3 9 C2.67 9.99 2.34 10.98 2 12 C0.02 12.33 -1.96 12.66 -4 13 C-4 13.99 -4 14.98 -4 16 C-5.65 16.33 -7.3 16.66 -9 17 C-9 17.66 -9 18.32 -9 19 C-10.32 19 -11.64 19 -13 19 C-13 19.99 -13 20.98 -13 22 C-14.32 22 -15.64 22 -17 22 C-17 22.99 -17 23.98 -17 25 C-18.32 25 -19.64 25 -21 25 C-21.33 25.66 -21.66 26.32 -22 27 C-22.66 26.34 -23.32 25.68 -24 25 C-24 24.01 -24 23.02 -24 22 C-23.34 21.67 -22.68 21.34 -22 21 C-21.505 19.96875 -21.01 18.9375 -20.5 17.875 C-17.73216881 12.7724715 -12.94101827 9.83204706 -8 7 C-7.34 7 -6.68 7 -6 7 C-5.7525 6.195625 -5.505 5.39125 -5.25 4.5625 C-4 2 -4 2 -1.875 1.1875 C-1.25625 1.125625 -0.6375 1.06375 0 1 C0 0.67 0 0.34 0 0 Z " fill="#F7A819" transform="translate(57,68)"/>
<path d="M0 0 C2.7920147 1.39600735 3.00162933 3.00416384 4.125 5.875 C4.65480469 7.20144531 4.65480469 7.20144531 5.1953125 8.5546875 C6 11 6 11 6 14 C4.35 14.33 2.7 14.66 1 15 C0.505 14.01 0.505 14.01 0 13 C-14.35003796 12.80222 -28.6643977 13.40845188 -43 14 C-43 13.34 -43 12.68 -43 12 C-45.31 12 -47.62 12 -50 12 C-50.33 12.66 -50.66 13.32 -51 14 C-50.278125 14.2475 -49.55625 14.495 -48.8125 14.75 C-45.75286734 16.10983674 -43.5326262 17.82917754 -41 20 C-41.99 20.33 -42.98 20.66 -44 21 C-46.91796875 19.34765625 -46.91796875 19.34765625 -50.1875 17.0625 C-50.74630859 16.67642578 -51.30511719 16.29035156 -51.88085938 15.89257812 C-53.26031198 14.93757247 -54.63102056 13.96995907 -56 13 C-55.67 12.01 -55.34 11.02 -55 10 C-55.87483915 7.83284443 -55.87483915 7.83284443 -57 6 C-54.44385622 4.72192811 -53.38488377 5.14484276 -50.625 5.75 C-49.85414062 5.90984375 -49.08328125 6.0696875 -48.2890625 6.234375 C-46 7 -46 7 -44.14349365 8.52656555 C-41.63987584 10.24754883 -40.41732924 10.36587637 -37.41503906 10.34057617 C-36.51440735 10.34034958 -35.61377563 10.34012299 -34.68585205 10.33988953 C-33.72217712 10.32440567 -32.7585022 10.30892181 -31.765625 10.29296875 C-30.27588165 10.28660149 -30.27588165 10.28660149 -28.75604248 10.28010559 C-25.58708472 10.26332634 -22.41876522 10.225675 -19.25 10.1875 C-17.10026961 10.17245221 -14.95052924 10.15876397 -12.80078125 10.14648438 C-7.53363677 10.11342536 -2.26686399 10.06323334 3 10 C2.50886719 9.40703125 2.01773438 8.8140625 1.51171875 8.203125 C-0.44797452 5.34713792 -0.23112125 3.38977829 0 0 Z " fill="#F7F6F6" transform="translate(144,38)"/>
<path d="M0 0 C2.97 0.33 5.94 0.66 9 1 C9 1.66 9 2.32 9 3 C10.65 3.33 12.3 3.66 14 4 C14.33 5.32 14.66 6.64 15 8 C16.32 7.67 17.64 7.34 19 7 C20.20628008 9.33214148 21.1654738 11.49642139 22 14 C33.88 14.33 45.76 14.66 58 15 C56.55715899 8.56096183 56.55715899 8.56096183 54 3 C55.875 3.125 55.875 3.125 58 4 C59.125 6.875 59.125 6.875 60 10 C60.66 10.99 61.32 11.98 62 13 C62.495 14.485 62.495 14.485 63 16 C56.76058673 16.30058319 50.52553309 16.51615315 44.28051758 16.65917969 C42.16486084 16.71888869 40.04968517 16.80029673 37.93579102 16.90527344 C22.57894855 17.64781808 12.97271344 15.60395147 1.17869568 5.43023682 C-0.35082659 3.57430479 0 2.35244913 0 0 Z " fill="#D65652" transform="translate(85,33)"/>
<path d="M0 0 C7.24486551 -0.02526739 14.48971974 -0.0428318 21.73461914 -0.05493164 C24.20142033 -0.05997356 26.66821852 -0.06680691 29.13500977 -0.07543945 C32.67204529 -0.08751125 36.20904145 -0.09322956 39.74609375 -0.09765625 C40.85649521 -0.10281754 41.96689667 -0.10797882 43.11094666 -0.11329651 C44.64242088 -0.11340981 44.64242088 -0.11340981 46.20483398 -0.11352539 C47.10862289 -0.115746 48.0124118 -0.11796661 48.94358826 -0.12025452 C51 0 51 0 52 1 C54.59338314 22.81323372 54.59338314 22.81323372 51 30 C50.36186371 30.00364563 49.72372742 30.00729126 49.06625366 30.01104736 C42.41473178 30.05291014 35.76389748 30.12228276 29.11279297 30.20751953 C26.63174319 30.23571696 24.15060378 30.25693755 21.66943359 30.27099609 C18.09946853 30.29244162 14.53057972 30.33910342 10.9609375 30.390625 C9.30123428 30.39246796 9.30123428 30.39246796 7.60800171 30.39434814 C1.33743016 30.51316804 -2.11946799 31.03168949 -7 35 C-9.875 35.25 -9.875 35.25 -12 35 C-12.33 33.68 -12.66 32.36 -13 31 C-9.846632 30.29925156 -7.27275026 30 -4 30 C-3.01 29.34 -2.02 28.68 -1 28 C1.22099304 27.75949097 1.22099304 27.75949097 3.83862305 27.77294922 C5.30980843 27.77317581 5.30980843 27.77317581 6.81071472 27.77340698 C7.86704605 27.78372955 8.92337738 27.79405212 10.01171875 27.8046875 C11.09508011 27.8075174 12.17844147 27.81034729 13.29463196 27.81326294 C16.75903308 27.82446909 20.22317685 27.84957466 23.6875 27.875 C26.03450148 27.88502923 28.381507 27.89415518 30.72851562 27.90234375 C36.48576507 27.92440984 42.24286415 27.95789173 48 28 C48.495 26.515 48.495 26.515 49 25 C49.66 25 50.32 25 51 25 C50.67 17.08 50.34 9.16 50 1 C46.55820313 1.09539063 43.11640625 1.19078125 39.5703125 1.2890625 C36.24761353 1.3741943 32.92484579 1.45582353 29.60205078 1.53710938 C27.28750201 1.59561503 24.97304275 1.65777861 22.65869141 1.72363281 C19.33773088 1.8175015 16.01667367 1.89833765 12.6953125 1.9765625 C11.13588425 2.02485703 11.13588425 2.02485703 9.54495239 2.0741272 C8.58410736 2.09429901 7.62326233 2.11447083 6.63330078 2.13525391 C5.78502716 2.15746002 4.93675354 2.17966614 4.06277466 2.20254517 C2 2 2 2 0 0 Z " fill="#4D816F" transform="translate(101,59)"/>
<path d="M0 0 C1.79296875 1.44921875 1.79296875 1.44921875 3 3 C3 3.66 3 4.32 3 5 C-1.41062136 6.0257259 -3.92630576 6.03684712 -8 4 C-8.33 4.99 -8.66 5.98 -9 7 C-10.37285156 7.05607422 -10.37285156 7.05607422 -11.7734375 7.11328125 C-12.96195313 7.17902344 -14.15046875 7.24476562 -15.375 7.3125 C-16.55835937 7.37050781 -17.74171875 7.42851562 -18.9609375 7.48828125 C-19.96382812 7.65714844 -20.96671875 7.82601563 -22 8 C-22.99 9.485 -22.99 9.485 -24 11 C-23.814375 9.88625 -23.62875 8.7725 -23.4375 7.625 C-22.68319343 4.17431139 -22.68319343 4.17431139 -24 2 C-20.37 2 -16.74 2 -13 2 C-13 1.34 -13 0.68 -13 0 C-22.24 0 -31.48 0 -41 0 C-41 -0.33 -41 -0.66 -41 -1 C-29.11677233 -3.68339582 -11.64902187 -4.10238623 0 0 Z " fill="#DF6462" transform="translate(104,3)"/>
<path d="M0 0 C0.33 0.66 0.66 1.32 1 2 C2.10794922 2.20302734 2.10794922 2.20302734 3.23828125 2.41015625 C6.55148589 3.11778553 8.45822149 4.45144408 11.1875 6.4375 C12.04730469 7.05496094 12.90710938 7.67242187 13.79296875 8.30859375 C16 10 16 10 18 12 C17.071875 11.79375 16.14375 11.5875 15.1875 11.375 C11.84826598 10.63307034 11.84826598 10.63307034 9 13 C8.01 13.495 8.01 13.495 7 14 C10.40941454 17.17626927 10.40941454 17.17626927 14.8125 18.25 C15.534375 18.1675 16.25625 18.085 17 18 C17.185625 18.556875 17.37125 19.11375 17.5625 19.6875 C19.66360714 23.06754192 22.70665994 24.85140381 26 27 C25.34 27.33 24.68 27.66 24 28 C21.74466159 26.73895056 19.64084773 25.43541161 17.5 24 C16.87432129 23.58935303 16.24864258 23.17870605 15.60400391 22.75561523 C11.02982152 19.73716973 6.52964604 16.61781617 2.0859375 13.41015625 C0.11549366 12.07807718 -1.84865424 11.0075307 -4 10 C-3.52449439 8.51965236 -3.04448784 7.04074979 -2.5625 5.5625 C-2.29566406 4.73878906 -2.02882813 3.91507813 -1.75390625 3.06640625 C-1 1 -1 1 0 0 Z " fill="#EBA828" transform="translate(14,37)"/>
<path d="M0 0 C2.475 0.495 2.475 0.495 5 1 C5.33 1.99 5.66 2.98 6 4 C6.556875 4.12375 7.11375 4.2475 7.6875 4.375 C11.28313155 5.34679231 13.28506647 7.47017557 16 10 C16 10.66 16 11.32 16 12 C16.78375 12.28875 17.5675 12.5775 18.375 12.875 C21 14 21 14 23 16 C20.36 17.65 17.72 19.3 15 21 C15 20.34 15 19.68 15 19 C12.525 18.01 12.525 18.01 10 17 C10 16.34 10 15.68 10 15 C8.68 14.34 7.36 13.68 6 13 C6 12.34 6 11.68 6 11 C5.34 11 4.68 11 4 11 C3.71125 10.360625 3.4225 9.72125 3.125 9.0625 C2.17176549 6.84793921 2.17176549 6.84793921 0 6 C0 4.02 0 2.04 0 0 Z " fill="#048556" transform="translate(26,108)"/>
<path d="M0 0 C0.66 0.33 1.32 0.66 2 1 C2.92554688 0.95230469 3.85109375 0.90460937 4.8046875 0.85546875 C8.63799309 1.02885788 10.09733469 2.02039601 13.125 4.3125 C14.36636719 5.23482422 14.36636719 5.23482422 15.6328125 6.17578125 C16.41398437 6.77777344 17.19515625 7.37976563 18 8 C19.14082031 8.79470703 19.14082031 8.79470703 20.3046875 9.60546875 C20.86414063 10.06566406 21.42359375 10.52585937 22 11 C22 11.66 22 12.32 22 13 C21.34 13 20.68 13 20 13 C19.67 13.66 19.34 14.32 19 15 C17.68 15 16.36 15 15 15 C15 14.34 15 13.68 15 13 C10.7494534 11.14038586 6.50066475 10.06795435 2 9 C2 8.34 2 7.68 2 7 C1.01 6.67 0.02 6.34 -1 6 C-1.042721 4.33388095 -1.04063832 2.66617115 -1 1 C-0.67 0.67 -0.34 0.34 0 0 Z " fill="#FAFAFA" transform="translate(51,18)"/>
<path d="M0 0 C1.32 0.66 2.64 1.32 4 2 C3.34 2 2.68 2 2 2 C2 2.66 2 3.32 2 4 C2.66 4 3.32 4 4 4 C4 4.99 4 5.98 4 7 C1.30440472 7.78621529 -1.34349823 8.18139162 -4.125 8.5 C-7.787174 8.75647221 -7.787174 8.75647221 -10 10 C-10.66 9.67 -11.32 9.34 -12 9 C-12 8.34 -12 7.68 -12 7 C-12.9075 7.309375 -13.815 7.61875 -14.75 7.9375 C-17.16563338 8.7272263 -19.52780285 9.42949297 -22 10 C-21.67 10.99 -21.34 11.98 -21 13 C-22.32 13.33 -23.64 13.66 -25 14 C-25.09765625 7.84765625 -25.09765625 7.84765625 -25 6 C-23.18884044 4.18884044 -20.38721773 4.61800552 -17.9375 4.4375 C-16.83277344 4.35371094 -15.72804688 4.26992187 -14.58984375 4.18359375 C-13.30787109 4.09271484 -13.30787109 4.09271484 -12 4 C-12.33 3.01 -12.66 2.02 -13 1 C-10.69 1 -8.38 1 -6 1 C-5.67 1.66 -5.34 2.32 -5 3 C-3.02 3 -1.04 3 1 3 C0.67 2.01 0.34 1.02 0 0 Z " fill="#E36C6D" transform="translate(106,5)"/>
<path d="M0 0 C0.66 0.66 1.32 1.32 2 2 C2.99 2.33 3.98 2.66 5 3 C4.16855469 3.53109375 3.33710938 4.0621875 2.48046875 4.609375 C1.39378906 5.31578125 0.30710937 6.0221875 -0.8125 6.75 C-1.89144531 7.44609375 -2.97039063 8.1421875 -4.08203125 8.859375 C-6.68082126 10.76585014 -8.27742595 12.31641095 -10 15 C-10.84114171 13.56705502 -11.67265687 12.12845595 -12.5 10.6875 C-12.9640625 9.88699219 -13.428125 9.08648437 -13.90625 8.26171875 C-15 6 -15 6 -15 3 C-5.54753044 -1.89427869 -5.54753044 -1.89427869 0 0 Z " fill="#F9B31E" transform="translate(25,98)"/>
<path d="M0 0 C0.54140625 0.14566406 1.0828125 0.29132813 1.640625 0.44140625 C4.33032729 1.07820663 7.01931933 1.50950471 9.75 1.9375 C14.58655581 2.72581118 19.2698814 3.72650653 24 5 C23.67 6.32 23.34 7.64 23 9 C13.49232119 9.322092 5.09743079 9.23806859 -4 6 C-3.525625 5.38125 -3.05125 4.7625 -2.5625 4.125 C-0.97582559 2.09294454 -0.97582559 2.09294454 0 0 Z " fill="#092BAD" transform="translate(57,129)"/>
<path d="M0 0 C0.556875 0.226875 1.11375 0.45375 1.6875 0.6875 C1.6875 1.6775 1.6875 2.6675 1.6875 3.6875 C-0.2925 4.0175 -2.2725 4.3475 -4.3125 4.6875 C-4.9725 7.3275 -5.6325 9.9675 -6.3125 12.6875 C-7.77073212 12.7145043 -9.22910675 12.73389787 -10.6875 12.75 C-11.49960937 12.76160156 -12.31171875 12.77320312 -13.1484375 12.78515625 C-15.3125 12.6875 -15.3125 12.6875 -17.3125 11.6875 C-17.6425 12.6775 -17.9725 13.6675 -18.3125 14.6875 C-19.94921875 15.71484375 -19.94921875 15.71484375 -22 16.625 C-25.69363831 18.36048608 -28.95101117 20.35503836 -32.3125 22.6875 C-33.93585235 23.77330075 -35.56094013 24.85651013 -37.1875 25.9375 C-37.96867187 26.45828125 -38.74984375 26.9790625 -39.5546875 27.515625 C-40.42480469 28.09570312 -40.42480469 28.09570312 -41.3125 28.6875 C-41.9725 28.3575 -42.6325 28.0275 -43.3125 27.6875 C-37.28236445 23.00419675 -31.39864029 18.54263227 -24.609375 15.01171875 C-20.76643049 12.7961436 -17.30723313 10.05719412 -13.79296875 7.359375 C-11.51950171 5.82702241 -9.98664543 5.11137387 -7.3125 4.6875 C-7.3125 4.0275 -7.3125 3.3675 -7.3125 2.6875 C-3.15982824 -0.42700382 -3.15982824 -0.42700382 0 0 Z " fill="#06633A" transform="translate(69.3125,75.3125)"/>
<path d="M0 0 C1.34895149 0.46386869 2.69522675 0.93557553 4.0390625 1.4140625 C10.19955436 3.56197345 15.40867273 5.13912038 21.9609375 5.35546875 C23.16621094 5.39736328 24.37148437 5.43925781 25.61328125 5.48242188 C27.49466797 5.54139648 27.49466797 5.54139648 29.4140625 5.6015625 C30.68378906 5.64474609 31.95351562 5.68792969 33.26171875 5.73242188 C36.39572615 5.83845972 39.52981183 5.94052308 42.6640625 6.0390625 C40.6640625 8.0390625 40.6640625 8.0390625 38.26904297 8.28198242 C37.28307129 8.27787354 36.29709961 8.27376465 35.28125 8.26953125 C34.19585937 8.26759766 33.11046875 8.26566406 31.9921875 8.26367188 C30.28289062 8.24530273 30.28289062 8.24530273 28.5390625 8.2265625 C27.42273438 8.22591797 26.30640625 8.22527344 25.15625 8.22460938 C20.40686497 8.19940627 15.75363839 8.1336996 11.046875 7.46484375 C7.68023181 6.79354799 7.68023181 6.79354799 4.6640625 8.0390625 C2.18359375 7.26171875 2.18359375 7.26171875 -0.5234375 6.1015625 C-1.42449219 5.72128906 -2.32554688 5.34101563 -3.25390625 4.94921875 C-4.28451172 4.49869141 -4.28451172 4.49869141 -5.3359375 4.0390625 C-5.3359375 2.7190625 -5.3359375 1.3990625 -5.3359375 0.0390625 C-3.3359375 -0.9609375 -3.3359375 -0.9609375 0 0 Z " fill="#6D7BCB" transform="translate(50.3359375,136.9609375)"/>
<path d="M0 0 C1.95679688 -0.00483398 1.95679688 -0.00483398 3.953125 -0.00976562 C13.58975007 0.04487503 13.58975007 0.04487503 18.125 2.3125 C8.555 2.3125 -1.015 2.3125 -10.875 2.3125 C-3.285 2.6425 4.305 2.9725 12.125 3.3125 C12.125 3.9725 12.125 4.6325 12.125 5.3125 C11.17246338 5.35008423 11.17246338 5.35008423 10.20068359 5.38842773 C7.30028458 5.50506789 4.40015651 5.62748393 1.5 5.75 C0.50097656 5.78931641 -0.49804688 5.82863281 -1.52734375 5.86914062 C-6.38456104 6.07822614 -11.09632044 6.34208555 -15.875 7.3125 C-15.875 6.6525 -15.875 5.9925 -15.875 5.3125 C-16.865 5.6425 -17.855 5.9725 -18.875 6.3125 C-18.875 5.6525 -18.875 4.9925 -18.875 4.3125 C-21.515 4.6425 -24.155 4.9725 -26.875 5.3125 C-20.24539797 -1.31710203 -8.6132814 -0.10831591 0 0 Z " fill="#E97D7A" transform="translate(78.875,-0.3125)"/>
<path d="M0 0 C4.875 4.625 4.875 4.625 6 8 C6.99 8.33 7.98 8.66 9 9 C9 9.66 9 10.32 9 11 C9.66 11 10.32 11 11 11 C11 11.66 11 12.32 11 13 C11.53625 13.2475 12.0725 13.495 12.625 13.75 C15.56424252 15.29696975 18.25754408 17.13014369 21 19 C20.34 19.99 19.68 20.98 19 22 C10.86587577 19.71227756 5.26681207 12.41403763 0.15234375 6.11328125 C-1 4 -1 4 -0.68359375 1.73046875 C-0.34521484 0.87388672 -0.34521484 0.87388672 0 0 Z " fill="#56937C" transform="translate(17,111)"/>
<path d="M0 0 C0.33 0.99 0.66 1.98 1 3 C-0.2065625 3.4021875 -0.2065625 3.4021875 -1.4375 3.8125 C-2.283125 4.204375 -3.12875 4.59625 -4 5 C-4.33 5.99 -4.66 6.98 -5 8 C-4.34 8.66 -3.68 9.32 -3 10 C-3.33 10.99 -3.66 11.98 -4 13 C-5.60320974 13.19551338 -7.20762986 13.38111983 -8.8125 13.5625 C-9.70582031 13.66691406 -10.59914063 13.77132812 -11.51953125 13.87890625 C-14 14 -14 14 -17 13 C-17 13.66 -17 14.32 -17 15 C-17.99 15 -18.98 15 -20 15 C-20 14.34 -20 13.68 -20 13 C-18.1640625 11.57958984 -18.1640625 11.57958984 -15.625 9.9609375 C-14.72265625 9.38085938 -13.8203125 8.80078125 -12.890625 8.203125 C-11.93671875 7.59984375 -10.9828125 6.9965625 -10 6.375 C-9.04609375 5.76398438 -8.0921875 5.15296875 -7.109375 4.5234375 C-4.74352502 3.00929351 -2.37366665 1.50184919 0 0 Z " fill="#0E1F7E" transform="translate(94,105)"/>
<path d="M0 0 C7.33333333 4.66666667 14.66666667 9.33333333 22 14 C18.99382731 17.00617269 16.17618402 16.59585316 12 17 C12 14.69 12 12.38 12 10 C7.02093741 9.24572703 7.02093741 9.24572703 2 9 C2.33 8.01 2.66 7.02 3 6 C2.34 6 1.68 6 1 6 C1 4.68 1 3.36 1 2 C0.34 1.67 -0.32 1.34 -1 1 C-0.67 0.67 -0.34 0.34 0 0 Z " fill="#276B53" transform="translate(45,22)"/>
<path d="M0 0 C1.11375 0.3403125 1.11375 0.3403125 2.25 0.6875 C2.91 2.6675 3.57 4.6475 4.25 6.6875 C3.17570402 7.53245189 2.09010798 8.36304858 1 9.1875 C0.39671875 9.6515625 -0.2065625 10.115625 -0.828125 10.59375 C-2.75 11.6875 -2.75 11.6875 -6.75 11.6875 C-5.67598892 8.77232708 -4.97189824 6.90939824 -2.75 4.6875 C-6.37613199 5.25709153 -8.00517741 6.61124534 -10.5 9.25 C-11.11359375 9.89066406 -11.7271875 10.53132813 -12.359375 11.19140625 C-12.81828125 11.68511719 -13.2771875 12.17882813 -13.75 12.6875 C-14.41 12.3575 -15.07 12.0275 -15.75 11.6875 C-14.33653438 10.24685235 -12.91908789 8.81010985 -11.5 7.375 C-10.71109375 6.57449219 -9.9221875 5.77398437 -9.109375 4.94921875 C-3.52821449 -0.40093346 -3.52821449 -0.40093346 0 0 Z " fill="#D6E4DD" transform="translate(38.75,12.3125)"/>
<path d="M0 0 C1.32 0.33 2.64 0.66 4 1 C4 1.66 4 2.32 4 3 C-0.38461538 6 -0.38461538 6 -3 6 C-3 6.66 -3 7.32 -3 8 C-4.80108005 9.17762926 -6.61178696 10.34207218 -8.45703125 11.44921875 C-11.33656625 13.20524854 -14.13511814 15.06087296 -16.9375 16.9375 C-18.45923828 17.95650391 -18.45923828 17.95650391 -20.01171875 18.99609375 C-20.99785156 19.65738281 -21.98398437 20.31867188 -23 21 C-24.74962026 22.16723608 -26.49957603 23.33396954 -28.25 24.5 C-29.34054688 25.22703125 -29.34054688 25.22703125 -30.453125 25.96875 C-31.21882813 26.47921875 -31.21882813 26.47921875 -32 27 C-33.32 26.34 -34.64 25.68 -36 25 C-35.401875 24.855625 -34.80375 24.71125 -34.1875 24.5625 C-32.43849596 24.1127561 -30.71322977 23.57107659 -29 23 C-29 22.34 -29 21.68 -29 21 C-27.68 21 -26.36 21 -25 21 C-25 20.01 -25 19.02 -25 18 C-23.68 18 -22.36 18 -21 18 C-21 17.01 -21 16.02 -21 15 C-19.68 15 -18.36 15 -17 15 C-17 14.34 -17 13.68 -17 13 C-15.35 12.34 -13.7 11.68 -12 11 C-12.33 10.01 -12.66 9.02 -13 8 C-11.865625 7.87625 -10.73125 7.7525 -9.5625 7.625 C-7.7990625 7.315625 -7.7990625 7.315625 -6 7 C-5.67 6.34 -5.34 5.68 -5 5 C-4.01 5 -3.02 5 -2 5 C-2 4.34 -2 3.68 -2 3 C-1.01 3 -0.02 3 1 3 C0.505 1.515 0.505 1.515 0 0 Z " fill="#D6AE36" transform="translate(65,72)"/>
<path d="M0 0 C3.375 0.6875 3.375 0.6875 7 2 C8.1875 4.5 8.1875 4.5 9 7 C11.01735205 8.34410262 11.01735205 8.34410262 13 9 C12.01 10.32 11.02 11.64 10 13 C9.01 12.67 8.02 12.34 7 12 C6.3125 9.9375 6.3125 9.9375 6 8 C4.9790625 8.4021875 4.9790625 8.4021875 3.9375 8.8125 C-0.4452221 9.09224822 -2.73907711 6.7158695 -6 4 C-5.38125 3.71125 -4.7625 3.4225 -4.125 3.125 C-1.86674235 2.06279958 -1.86674235 2.06279958 0 0 Z " fill="#F6A418" transform="translate(25,47)"/>
<path d="M0 0 C2.97 0.495 2.97 0.495 6 1 C6 1.66 6 2.32 6 3 C6.78375 3.28875 7.5675 3.5775 8.375 3.875 C11 5 11 5 13 7 C10.36 8.65 7.72 10.3 5 12 C5 11.34 5 10.68 5 10 C2.525 9.01 2.525 9.01 0 8 C0 7.34 0 6.68 0 6 C-0.66 6 -1.32 6 -2 6 C-1.34 4.02 -0.68 2.04 0 0 Z " fill="#088F5C" transform="translate(36,117)"/>
<path d="M0 0 C5.87024368 2.67865488 10.76646153 5.06087179 15 10 C12.69 10 10.38 10 8 10 C8.66 11.65 9.32 13.3 10 15 C9.01 15.33 8.02 15.66 7 16 C4.3125 14.5625 4.3125 14.5625 2 13 C2.53069061 9.17902761 3.49701566 6.93828597 6 4 C4.35 3.67 2.7 3.34 1 3 C0.67 2.01 0.34 1.02 0 0 Z " fill="#F5EBEA" transform="translate(80,34)"/>
<path d="M0 0 C0 0.66 0 1.32 0 2 C1.32 2.33 2.64 2.66 4 3 C1.94072044 3.98592155 -0.12256688 4.96347494 -2.1875 5.9375 C-3.33605469 6.48277344 -4.48460938 7.02804688 -5.66796875 7.58984375 C-8.51466736 8.79460131 -10.96027845 9.54776271 -14 10 C-14 9.67 -14 9.34 -14 9 C-16.97 8.505 -16.97 8.505 -20 8 C-17.39434754 5.39434754 -15.09439099 5.00798672 -11.5625 4 C-7.8926792 2.95030824 -3.54223845 0 0 0 Z " fill="#5767BE" transform="translate(114,135)"/>
<path d="M0 0 C2.7920147 1.39600735 3.00162933 3.00416384 4.125 5.875 C4.65480469 7.20144531 4.65480469 7.20144531 5.1953125 8.5546875 C6 11 6 11 6 14 C4.35 14.33 2.7 14.66 1 15 C0.505 14.01 0.505 14.01 0 13 C-19.8 12.505 -19.8 12.505 -40 12 C-40 11.67 -40 11.34 -40 11 C-25.81 10.67 -11.62 10.34 3 10 C2.01 8.68 1.02 7.36 0 6 C-0.1875 2.75 -0.1875 2.75 0 0 Z " fill="#F9AEAD" transform="translate(144,38)"/>
<path d="M0 0 C1.875 0.125 1.875 0.125 4 1 C5.125 3.875 5.125 3.875 6 7 C6.66 7.99 7.32 8.98 8 10 C8.495 11.485 8.495 11.485 9 13 C-5.85 13 -20.7 13 -36 13 C-36 12.67 -36 12.34 -36 12 C-22.8 12 -9.6 12 4 12 C2.55715899 5.56096183 2.55715899 5.56096183 0 0 Z " fill="#BA4E4D" transform="translate(139,36)"/>
<path d="M0 0 C4.19936934 -0.33565119 6.35095414 0.4531379 9.8125 2.8125 C10.60269531 3.33457031 11.39289063 3.85664063 12.20703125 4.39453125 C12.79871094 4.92433594 13.39039062 5.45414063 14 6 C14 6.99 14 7.98 14 9 C13.113125 8.814375 12.22625 8.62875 11.3125 8.4375 C8.09587624 7.81212878 8.09587624 7.81212878 5.375 8.625 C3 9 3 9 0.6875 7.5625 C0.130625 7.046875 -0.42625 6.53125 -1 6 C-0.01 5.67 0.98 5.34 2 5 C2 4.01 2 3.02 2 2 C1.34 2 0.68 2 0 2 C0 1.34 0 0.68 0 0 Z " fill="#D55A57" transform="translate(108,7)"/>
<path d="M0 0 C0.66 0.66 1.32 1.32 2 2 C0.35 5.63 -1.3 9.26 -3 13 C-3.33 12.34 -3.66 11.68 -4 11 C-4.66 11 -5.32 11 -6 11 C-6.33 11.66 -6.66 12.32 -7 13 C-7.66 13 -8.32 13 -9 13 C-9.66 11.68 -10.32 10.36 -11 9 C-10.34 8.01 -9.68 7.02 -9 6 C-9.66 5.67 -10.32 5.34 -11 5 C-10.34 5 -9.68 5 -9 5 C-8.67 4.34 -8.34 3.68 -8 3 C-8 3.66 -8 4.32 -8 5 C-3.18877153 3.47444034 -3.18877153 3.47444034 0 0 Z " fill="#0C4F35" transform="translate(40,19)"/>
<path d="M0 0 C-0.66 0 -1.32 0 -2 0 C-2 0.66 -2 1.32 -2 2 C-2.66 2 -3.32 2 -4 2 C-4 2.66 -4 3.32 -4 4 C-4.99 4 -5.98 4 -7 4 C-7 4.66 -7 5.32 -7 6 C-11.38430311 8.07036536 -11.38430311 8.07036536 -14.1875 7.75 C-16 7 -16 7 -18 5 C-15.53286908 2.04276563 -13.24499218 1.22933306 -9.5625 0.25 C-8.61503906 -0.01296875 -7.66757812 -0.2759375 -6.69140625 -0.546875 C-4.02561448 -0.99568755 -2.52080903 -0.88198519 0 0 Z " fill="#CB4543" transform="translate(62,4)"/>
<path d="M0 0 C0.59941406 0.22171875 1.19882812 0.4434375 1.81640625 0.671875 C0.5357814 2.3793748 -0.80126932 4.04561096 -2.18359375 5.671875 C-2.84359375 5.671875 -3.50359375 5.671875 -4.18359375 5.671875 C-4.08046875 6.414375 -3.97734375 7.156875 -3.87109375 7.921875 C-4.18359375 10.671875 -4.18359375 10.671875 -6.68359375 12.984375 C-7.92109375 13.8196875 -7.92109375 13.8196875 -9.18359375 14.671875 C-9.84359375 13.681875 -10.50359375 12.691875 -11.18359375 11.671875 C-12.17359375 11.671875 -13.16359375 11.671875 -14.18359375 11.671875 C-12.900893 7.82377274 -11.60388548 7.72405004 -8.18359375 5.671875 C-6.63331911 4.08582479 -5.15655766 2.46313495 -3.7109375 0.78125 C-2.18359375 -0.328125 -2.18359375 -0.328125 0 0 Z " fill="#336A51" transform="translate(35.18359375,16.328125)"/>
<path d="M0 0 C1.59521484 -0.01836914 1.59521484 -0.01836914 3.22265625 -0.03710938 C8.92503632 -0.04773493 13.74667727 0.24915862 19.125 2.1875 C19.125 2.8475 19.125 3.5075 19.125 4.1875 C18.1040625 4.03410156 17.083125 3.88070313 16.03125 3.72265625 C9.59047115 2.91755889 3.10688724 2.82591216 -3.375 2.625 C-5.3240625 2.56022461 -5.3240625 2.56022461 -7.3125 2.49414062 C-10.49990845 2.3886749 -13.68738698 2.28655552 -16.875 2.1875 C-16.875 1.8575 -16.875 1.5275 -16.875 1.1875 C-11.24111218 -0.09118973 -5.75260874 0.00346126 0 0 Z " fill="#B12E28" transform="translate(79.875,0.8125)"/>
<path d="M0 0 C0.721875 0.309375 1.44375 0.61875 2.1875 0.9375 C6.43104594 2.54061735 9.60909233 3.46363589 14 2 C13.67 1.34 13.34 0.68 13 0 C18.52628901 1.19194469 21.17819158 2.5991297 25 7 C22.03 6.505 22.03 6.505 19 6 C19 5.01 19 4.02 19 3 C18.01 4.485 18.01 4.485 17 6 C15.68 6 14.36 6 13 6 C12.67 6.66 12.34 7.32 12 8 C7.44328408 6.48109469 3.68276708 4.04597738 0 1 C0 0.67 0 0.34 0 0 Z " fill="#E8A929" transform="translate(40,65)"/>
<path d="M0 0 C-0.625 1.875 -0.625 1.875 -2 4 C-3.99172182 4.69100553 -5.99161804 5.35902703 -8 6 C-8.33 6.99 -8.66 7.98 -9 9 C-10.63671875 10.02734375 -10.63671875 10.02734375 -12.6875 10.9375 C-16.38113831 12.67298608 -19.63851117 14.66753836 -23 17 C-24.62335235 18.08580075 -26.24844013 19.16901013 -27.875 20.25 C-28.65617187 20.77078125 -29.43734375 21.2915625 -30.2421875 21.828125 C-31.11230469 22.40820312 -31.11230469 22.40820312 -32 23 C-32.66 22.67 -33.32 22.34 -34 22 C-27.97235192 17.31862865 -22.09095094 12.85797632 -15.3046875 9.328125 C-11.39738061 7.07645663 -7.8696613 4.30166914 -4.28515625 1.57421875 C-2 0 -2 0 0 0 Z " fill="#316221" transform="translate(60,81)"/>
<path d="M0 0 C0.66 0 1.32 0 2 0 C2 1.65 2 3.3 2 5 C-14.83 5 -31.66 5 -49 5 C-49 4.67 -49 4.34 -49 4 C-33.16 3.67 -17.32 3.34 -1 3 C-0.67 2.01 -0.34 1.02 0 0 Z " fill="#3A6B5A" transform="translate(150,84)"/>
<path d="M0 0 C2.45840605 -0.02691685 4.91651882 -0.04679802 7.375 -0.0625 C8.07367188 -0.07087891 8.77234375 -0.07925781 9.4921875 -0.08789062 C14.7734375 -0.11328125 14.7734375 -0.11328125 17 1 C16.67 1.99 16.34 2.98 16 4 C15.01 3.67 14.02 3.34 13 3 C13 2.34 13 1.68 13 1 C12.0925 1.309375 11.185 1.61875 10.25 1.9375 C7.83436662 2.7272263 5.47219715 3.42949297 3 4 C3.33 4.99 3.66 5.98 4 7 C2.68 7.33 1.36 7.66 0 8 C0 5.36 0 2.72 0 0 Z " fill="#E77A77" transform="translate(81,11)"/>
<path d="M0 0 C4.54778959 2.36135229 8.7718592 5.11248921 13 8 C9.42355152 9.2380014 6.66305234 8.74926071 3 8 C3.33 7.01 3.66 6.02 4 5 C2.68 5.99 1.36 6.98 0 8 C-1.5625 6.75 -1.5625 6.75 -3 5 C-2.8125 2.875 -2.8125 2.875 -2 1 C-1.34 0.67 -0.68 0.34 0 0 Z " fill="#276F56" transform="translate(84,48)"/>
<path d="M0 0 C4.51478398 0.53115106 7.34666857 2.36620292 11 5 C7.98968256 5.93423645 7.13349732 6.04449911 4 5 C3.7525 5.61875 3.505 6.2375 3.25 6.875 C1.79371361 9.35068687 0.62187494 9.95125002 -2 11 C-1.125 3.375 -1.125 3.375 0 0 Z " fill="#352C25" transform="translate(9,47)"/>
<path d="M0 0 C0.66 0 1.32 0 2 0 C1.25 5.75 1.25 5.75 -1 8 C-1.66 6.35 -2.32 4.7 -3 3 C-13.23 2.67 -23.46 2.34 -34 2 C-34 1.67 -34 1.34 -34 1 C-33.00556885 1.00523682 -32.0111377 1.01047363 -30.98657227 1.01586914 C-27.30966079 1.03392041 -23.63275325 1.04543246 -19.95581055 1.05493164 C-18.36205386 1.05997157 -16.76830181 1.0668035 -15.17456055 1.07543945 C-12.88849747 1.08751999 -10.60249533 1.09323155 -8.31640625 1.09765625 C-7.59973282 1.10281754 -6.88305939 1.10797882 -6.14466858 1.11329651 C-4.42936328 1.11349263 -2.71418734 1.06192007 -1 1 C-0.67 0.67 -0.34 0.34 0 0 Z " fill="#081F8D" transform="translate(146,100)"/>
<path d="M0 0 C1.43739513 -0.02712066 2.87493863 -0.04645067 4.3125 -0.0625 C5.51326172 -0.07990234 5.51326172 -0.07990234 6.73828125 -0.09765625 C9 0 9 0 12 1 C12 2.98 12 4.96 12 7 C6.376883 6.59834879 3.95408944 4.76579946 0 1 C0 0.67 0 0.34 0 0 Z " fill="#07633F" transform="translate(59,66)"/>
<path d="M0 0 C0.66 0 1.32 0 2 0 C2 0.66 2 1.32 2 2 C2.7425 2.28875 3.485 2.5775 4.25 2.875 C7 4 7 4 9.125 5.125 C11.10823854 6.21144273 11.10823854 6.21144273 14 6 C14.185625 6.556875 14.37125 7.11375 14.5625 7.6875 C16.66360714 11.06754192 19.70665994 12.85140381 23 15 C22.01 15.495 22.01 15.495 21 16 C18.68388527 14.6962467 16.5144095 13.35196 14.3125 11.875 C13.6819873 11.45919678 13.05147461 11.04339355 12.40185547 10.61499023 C10.59528986 9.41862471 8.7969571 8.21073065 7 7 C5.77216797 6.18595703 5.77216797 6.18595703 4.51953125 5.35546875 C2.96973426 4.29777225 1.47538814 3.15923354 0 2 C0 1.34 0 0.68 0 0 Z " fill="#D9A037" transform="translate(17,49)"/>
<path d="M0 0 C0.33 0.66 0.66 1.32 1 2 C1.825 2.165 2.65 2.33 3.5 2.5 C4.7375 2.7475 4.7375 2.7475 6 3 C6.33 3.66 6.66 4.32 7 5 C5.68 4.67 4.36 4.34 3 4 C2.67 5.32 2.34 6.64 2 8 C1.34 8 0.68 8 0 8 C-0.33 8.66 -0.66 9.32 -1 10 C-0.01 10.33 0.98 10.66 2 11 C1.01 11.495 1.01 11.495 0 12 C-2.125 11.0625 -2.125 11.0625 -4 10 C-3.52449439 8.51965236 -3.04448784 7.04074979 -2.5625 5.5625 C-2.29566406 4.73878906 -2.02882813 3.91507813 -1.75390625 3.06640625 C-1 1 -1 1 0 0 Z " fill="#DFAC47" transform="translate(14,37)"/>
<path d="M0 0 C5.53846154 -0.36923077 5.53846154 -0.36923077 7.875 1.5 C8.24625 1.995 8.6175 2.49 9 3 C5.75490696 5.03977277 2.59391114 6.66511872 -1 8 C-1.33 6.02 -1.66 4.04 -2 2 C-1.34 2 -0.68 2 0 2 C0 1.34 0 0.68 0 0 Z " fill="#F8F9F8" transform="translate(74,107)"/>
<path d="M0 0 C3.5786304 1.65167557 6.74820188 3.78286492 10 6 C9.01 7.485 9.01 7.485 8 9 C4.54074837 7.7508258 1.85306797 6.32472205 -1 4 C-0.67 2.68 -0.34 1.36 0 0 Z " fill="#4C8871" transform="translate(28,124)"/>
<path d="M0 0 C0.33 0.66 0.66 1.32 1 2 C1.99 2.33 2.98 2.66 4 3 C4 3.99 4 4.98 4 6 C2.88625 6.309375 1.7725 6.61875 0.625 6.9375 C-2.7945155 7.82326483 -2.7945155 7.82326483 -5 9 C-5.3125 6.1875 -5.3125 6.1875 -5 3 C-2.5 1.125 -2.5 1.125 0 0 Z " fill="#036945" transform="translate(53,112)"/>
<path d="M0 0 C2.52290922 1.20138534 4.53837136 2.39521899 6.625 4.25 C6.625 4.91 6.625 5.57 6.625 6.25 C4.875 7.5390625 4.875 7.5390625 2.625 8.875 C1.51125 9.54402344 1.51125 9.54402344 0.375 10.2265625 C-0.2025 10.56429687 -0.78 10.90203125 -1.375 11.25 C-1.045 9.93 -0.715 8.61 -0.375 7.25 C0.615 7.25 1.605 7.25 2.625 7.25 C2.295 5.6 1.965 3.95 1.625 2.25 C0.305 2.58 -1.015 2.91 -2.375 3.25 C-3.035 2.26 -3.695 1.27 -4.375 0.25 C-2.375 -0.75 -2.375 -0.75 0 0 Z " fill="#1B0F05" transform="translate(44.375,68.75)"/>
<path d="M0 0 C0.81549316 0.48218994 0.81549316 0.48218994 1.64746094 0.97412109 C4.44042512 2.19205753 6.59930528 2.3169991 9.640625 2.4140625 C11.24550781 2.47207031 11.24550781 2.47207031 12.8828125 2.53125 C14.54957031 2.57765625 14.54957031 2.57765625 16.25 2.625 C17.37664062 2.66367187 18.50328125 2.70234375 19.6640625 2.7421875 C22.44254548 2.83637336 25.22102334 2.92199586 28 3 C28 3.33 28 3.66 28 4 C14.635 4.495 14.635 4.495 1 5 C0.67 3.35 0.34 1.7 0 0 Z " fill="#FDF4F0" transform="translate(100,47)"/>
<path d="M0 0 C2.31 0 4.62 0 7 0 C7.33 1.32 7.66 2.64 8 4 C8.78375 4.103125 9.5675 4.20625 10.375 4.3125 C13 5 13 5 15 8 C8.92838975 7.68863537 4.66140596 4.64625533 0 1 C0 0.67 0 0.34 0 0 Z " fill="#CC645F" transform="translate(72,28)"/>
<path d="M0 0 C0.33 0.66 0.66 1.32 1 2 C2.64363134 2.72159424 4.31050386 3.39351421 6 4 C6 4.99 6 5.98 6 7 C3.525 6.01 3.525 6.01 1 5 C1 6.65 1 8.3 1 10 C-1 8.25 -1 8.25 -3 6 C-3 4.68 -3 3.36 -3 2 C-2.01 1.34 -1.02 0.68 0 0 Z " fill="#137D4B" transform="translate(25,103)"/>
<path d="M0 0 C3.465 1.485 3.465 1.485 7 3 C6.67 3.99 6.34 4.98 6 6 C0.58461538 7.23076923 0.58461538 7.23076923 -2.375 6.0625 C-2.91125 5.711875 -3.4475 5.36125 -4 5 C-3.525625 4.54625 -3.05125 4.0925 -2.5625 3.625 C-0.90972192 2.06741796 -0.90972192 2.06741796 0 0 Z " fill="#1432B5" transform="translate(57,129)"/>
<path d="M0 0 C4.67105792 1.55701931 8.08705685 4.08447373 12 7 C10.68 7.99 9.36 8.98 8 10 C7.34 9.67 6.68 9.34 6 9 C6.33 8.34 6.66 7.68 7 7 C6.401875 6.731875 5.80375 6.46375 5.1875 6.1875 C3.00152146 5.00082594 1.58667406 3.90400887 0 2 C0 1.34 0 0.68 0 0 Z " fill="#F9EAE9" transform="translate(57,19)"/>
<path d="M0 0 C3.63 0 7.26 0 11 0 C11 0.66 11 1.32 11 2 C7.23699626 3.25433458 3.72789091 3.10695422 -0.1875 3.0625 C-0.93708984 3.05798828 -1.68667969 3.05347656 -2.45898438 3.04882812 C-4.30602383 3.03706354 -6.15302213 3.01912865 -8 3 C-8 2.67 -8 2.34 -8 2 C-5.36 2 -2.72 2 0 2 C0 1.34 0 0.68 0 0 Z " fill="#041781" transform="translate(80,140)"/>
<path d="M0 0 C0.66 0.33 1.32 0.66 2 1 C2.99 0.67 3.98 0.34 5 0 C3.59155282 3.21524305 1.89655214 5.32183868 -0.625 7.75 C-1.57246094 8.67039063 -1.57246094 8.67039063 -2.5390625 9.609375 C-3.02117187 10.06828125 -3.50328125 10.5271875 -4 11 C-4.66 10.67 -5.32 10.34 -6 10 C-5.34 9.34 -4.68 8.68 -4 8 C-3.67 7.01 -3.34 6.02 -3 5 C-2 2 -2 2 0 0 Z " fill="#6871A9" transform="translate(132,120)"/>
<path d="M0 0 C0.33 1.32 0.66 2.64 1 4 C0.34 4 -0.32 4 -1 4 C-1 4.66 -1 5.32 -1 6 C-1.78375 6.28875 -2.5675 6.5775 -3.375 6.875 C-6.09671632 7.84912254 -6.09671632 7.84912254 -8 10 C-10.125 9.625 -10.125 9.625 -12 9 C-8.11327187 5.81994972 -4.10047867 2.89445553 0 0 Z " fill="#DBEEE8" transform="translate(89,96)"/>
<path d="M0 0 C0.66 0.33 1.32 0.66 2 1 C0.7260411 3.03833424 -0.61061923 5.03852126 -2 7 C-2.66 7 -3.32 7 -4 7 C-4 7.66 -4 8.32 -4 9 C-6.375 9.625 -6.375 9.625 -9 10 C-9.66 9.34 -10.32 8.68 -11 8 C-7.37 5.36 -3.74 2.72 0 0 Z " fill="#DFA72F" transform="translate(37,83)"/>
<path d="M0 0 C0.66 0.33 1.32 0.66 2 1 C2.59355614 3.64860427 2.74209269 6.29197322 3 9 C2.05125 8.484375 1.1025 7.96875 0.125 7.4375 C-1.421875 6.7259375 -1.421875 6.7259375 -3 6 C-3.99 6.495 -3.99 6.495 -5 7 C-4.60196439 4.11424181 -4.20990931 3.17810487 -1.9375 1.25 C-1.298125 0.8375 -0.65875 0.425 0 0 Z " fill="#15693C" transform="translate(21,106)"/>
<path d="M0 0 C0.66 0.33 1.32 0.66 2 1 C1.34 1.66 0.68 2.32 0 3 C0.66 3.33 1.32 3.66 2 4 C2 4.66 2 5.32 2 6 C1.01 6 0.02 6 -1 6 C-1 6.66 -1 7.32 -1 8 C-2.98 7.34 -4.96 6.68 -7 6 C-7 5.34 -7 4.68 -7 4 C-1.7265625 0.77734375 -1.7265625 0.77734375 0 0 Z " fill="#172989" transform="translate(55,131)"/>
<path d="M0 0 C2.64710642 1.32355321 4.70492425 3.13191509 7 5 C8.3921875 6.11375 8.3921875 6.11375 9.8125 7.25 C10.534375 7.8275 11.25625 8.405 12 9 C11.01 9.33 10.02 9.66 9 10 C6.08203125 8.34765625 6.08203125 8.34765625 2.8125 6.0625 C2.25369141 5.67642578 1.69488281 5.29035156 1.11914062 4.89257812 C-0.26031198 3.93757247 -1.63102056 2.96995907 -3 2 C-2.01 1.34 -1.02 0.68 0 0 Z " fill="#DAECE8" transform="translate(91,49)"/>
<path d="M0 0 C2.7920147 1.39600735 3.00162933 3.00416384 4.125 5.875 C4.47820312 6.75929688 4.83140625 7.64359375 5.1953125 8.5546875 C6 11 6 11 6 14 C4.35 14.33 2.7 14.66 1 15 C0.67 14.01 0.34 13.02 0 12 C1.32 12 2.64 12 4 12 C3.01 10.02 2.02 8.04 1 6 C0.67 6 0.34 6 0 6 C0 4.02 0 2.04 0 0 Z " fill="#ECC1BD" transform="translate(144,38)"/>
<path d="M0 0 C1.875 0.125 1.875 0.125 4 1 C5.125 3.875 5.125 3.875 6 7 C6.99 8.485 6.99 8.485 8 10 C8.33 10.99 8.66 11.98 9 13 C7.68 13 6.36 13 5 13 C4.80664062 12.39671875 4.61328125 11.7934375 4.4140625 11.171875 C4.15367187 10.37265625 3.89328125 9.5734375 3.625 8.75 C3.36976563 7.96109375 3.11453125 7.1721875 2.8515625 6.359375 C2.04826333 4.13372042 1.10288338 2.09068328 0 0 Z " fill="#BC2A28" transform="translate(139,36)"/>
<path d="M0 0 C1.67542976 0.28604898 3.34385343 0.61781233 5 1 C2.2180632 4.27286682 -1.27954067 5.96427697 -5 8 C-5.33 6.35 -5.66 4.7 -6 3 C-5.195625 2.690625 -4.39125 2.38125 -3.5625 2.0625 C-1.10919595 1.23664655 -1.10919595 1.23664655 0 0 Z " fill="#F0F1F3" transform="translate(51,129)"/>
<path d="M0 0 C3.10742423 1.46818668 5.90471739 3.20025 8.75 5.125 C9.94882812 5.93324219 9.94882812 5.93324219 11.171875 6.7578125 C11.77515625 7.16773438 12.3784375 7.57765625 13 8 C11.02 8.99 11.02 8.99 9 10 C8.67 9.01 8.34 8.02 8 7 C5.1798062 5.28773948 2.07044129 4.1940605 -1 3 C-0.67 2.01 -0.34 1.02 0 0 Z " fill="#FAE6E3" transform="translate(44,10)"/>
<path d="M0 0 C-0.99 0.495 -0.99 0.495 -2 1 C-2 1.99 -2 2.98 -2 4 C-2.804375 4.12375 -3.60875 4.2475 -4.4375 4.375 C-5.7059375 4.684375 -5.7059375 4.684375 -7 5 C-7.33 5.66 -7.66 6.32 -8 7 C-9.65 7 -11.3 7 -13 7 C-4.84931507 -1.61643836 -4.84931507 -1.61643836 0 0 Z " fill="#101C75" transform="translate(73,122)"/>
<path d="M0 0 C0.66 0 1.32 0 2 0 C2.433125 0.94875 2.86625 1.8975 3.3125 2.875 C4.79302201 6.20041937 4.79302201 6.20041937 8 8 C7.01 9.32 6.02 10.64 5 12 C4.15885829 10.56705502 3.32734313 9.12845595 2.5 7.6875 C1.80390625 6.48673828 1.80390625 6.48673828 1.09375 5.26171875 C0 3 0 3 0 0 Z " fill="#D7C17B" transform="translate(10,101)"/>
<path d="M0 0 C5.53846154 0.49230769 5.53846154 0.49230769 7.875 3.0625 C8.431875 4.0215625 8.431875 4.0215625 9 5 C8.2575 4.979375 7.515 4.95875 6.75 4.9375 C4.29537721 4.99328688 2.33890739 5.3069904 0 6 C0 4.02 0 2.04 0 0 Z " fill="#F7A413" transform="translate(47,63)"/>
<path d="M0 0 C0.66 0 1.32 0 2 0 C2 0.66 2 1.32 2 2 C3.36125 1.87625 3.36125 1.87625 4.75 1.75 C8 2 8 2 10.375 4 C10.91125 4.66 11.4475 5.32 12 6 C11.67 6.99 11.34 7.98 11 9 C10.34 9 9.68 9 9 9 C7.66666667 7.66666667 6.33333333 6.33333333 5 5 C4.278125 4.649375 3.55625 4.29875 2.8125 3.9375 C1 3 1 3 0 0 Z " fill="#287459" transform="translate(67,39)"/>
<path d="M0 0 C2 2 2 2 2.125 5.125 C2.08375 6.07375 2.0425 7.0225 2 8 C0.02 8 -1.96 8 -4 8 C-4.33 6.68 -4.66 5.36 -5 4 C-4.0409375 3.8453125 -4.0409375 3.8453125 -3.0625 3.6875 C-2.381875 3.460625 -1.70125 3.23375 -1 3 C-0.67 2.01 -0.34 1.02 0 0 Z " fill="#E05C59" transform="translate(141,40)"/>
<path d="M0 0 C1.32 0.33 2.64 0.66 4 1 C4 1.99 4 2.98 4 4 C4.99 4.33 5.98 4.66 7 5 C3.18243176 6.37432457 -0.07255329 5.67975039 -4 5 C-3.67 4.34 -3.34 3.68 -3 3 C-2.34 3.33 -1.68 3.66 -1 4 C-0.67 2.68 -0.34 1.36 0 0 Z " fill="#F7A213" transform="translate(17,41)"/>
<path d="M0 0 C0.625 1.8125 0.625 1.8125 1 4 C0.01 5.485 0.01 5.485 -1 7 C-1.66 6.67 -2.32 6.34 -3 6 C-3 6.66 -3 7.32 -3 8 C-2.01 8.33 -1.02 8.66 0 9 C-0.33 9.66 -0.66 10.32 -1 11 C-2.32 11 -3.64 11 -5 11 C-4.54663921 6.12637153 -3.2910841 3.60957611 0 0 Z " fill="#578165" transform="translate(20,28)"/>
<path d="M0 0 C1.32 0 2.64 0 4 0 C4 0.66 4 1.32 4 2 C6.76264289 2.59732819 9.16032769 3 12 3 C12.33 4.98 12.66 6.96 13 9 C9.91220974 7.53400783 7.09532795 5.82973607 4.25 3.9375 C3.45078125 3.41027344 2.6515625 2.88304687 1.828125 2.33984375 C1.22484375 1.89769531 0.6215625 1.45554687 0 1 C0 0.67 0 0.34 0 0 Z " fill="#C9605F" transform="translate(59,19)"/>
<path d="M0 0 C3.9492568 0.55105909 7.34920174 1.38935371 11 3 C11 3.66 11 4.32 11 5 C6.37390802 5.3227506 3.71973879 4.84450614 0 2 C0 1.34 0 0.68 0 0 Z " fill="#51538F" transform="translate(44,138)"/>
<path d="M0 0 C0.680625 0.350625 1.36125 0.70125 2.0625 1.0625 C3.39534386 1.73014472 4.72861018 2.39694746 6.0625 3.0625 C-3.34752278 3.4315205 -3.34752278 3.4315205 -7.9375 1.0625 C-7.9375 0.4025 -7.9375 -0.2575 -7.9375 -0.9375 C-4.43232767 -2.10589078 -3.23361712 -1.56465345 0 0 Z " fill="#061C84" transform="translate(61.9375,137.9375)"/>
<path d="M0 0 C-1.78524649 1.19713017 -3.5784028 2.38247279 -5.375 3.5625 C-6.87160156 4.55443359 -6.87160156 4.55443359 -8.3984375 5.56640625 C-9.25695312 6.03949219 -10.11546875 6.51257813 -11 7 C-11.66 6.67 -12.32 6.34 -13 6 C-12.5 4.1875 -12.5 4.1875 -11 2 C-7.13299138 -0.07131347 -4.24876637 -1.41625546 0 0 Z " fill="#D9B83C" transform="translate(30,101)"/>
<path d="M0 0 C0.99 0.33 1.98 0.66 3 1 C3.33 2.65 3.66 4.3 4 6 C2.35 6.33 0.7 6.66 -1 7 C-1.66 5.35 -2.32 3.7 -3 2 C-2.01 1.34 -1.02 0.68 0 0 Z " fill="#F7FBF9" transform="translate(44,14)"/>
<path d="M0 0 C0.66 0 1.32 0 2 0 C2.33 1.32 2.66 2.64 3 4 C3.66 4 4.32 4 5 4 C4.67 5.65 4.34 7.3 4 9 C1 8 1 8 -0.25 6.1875 C-1.11637742 3.66056586 -0.88492145 2.47778006 0 0 Z " fill="#E9AB2A" transform="translate(13,99)"/>
<path d="M0 0 C0.99 0 1.98 0 3 0 C3.33 1.32 3.66 2.64 4 4 C5.65 4.33 7.3 4.66 9 5 C7.68 6.32 6.36 7.64 5 9 C4.01 8.67 3.02 8.34 2 8 C0.5522078 5.10441559 0 3.25811062 0 0 Z " fill="#3F3C3A" transform="translate(7,92)"/>
<path d="M0 0 C0.721875 0.309375 1.44375 0.61875 2.1875 0.9375 C4.92064829 2.07436775 4.92064829 2.07436775 7.625 2.4375 C10.30347452 3.07187554 11.27276393 3.90913529 13 6 C12.67 6.66 12.34 7.32 12 8 C7.44328408 6.48109469 3.68276708 4.04597738 0 1 C0 0.67 0 0.34 0 0 Z " fill="#E1A438" transform="translate(40,65)"/>
<path d="M0 0 C-1.98 2.97 -1.98 2.97 -4 6 C-8.875 4.25 -8.875 4.25 -10 2 C-9.01 1.67 -8.02 1.34 -7 1 C-7 0.67 -7 0.34 -7 0 C-2.25 -1.125 -2.25 -1.125 0 0 Z " fill="#E8F3EF" transform="translate(86,40)"/>
<path d="M0 0 C0 0.99 0 1.98 0 3 C-3.4019487 5.09350689 -6.05272412 5.17942163 -10 5 C-10 4.34 -10 3.68 -10 3 C-8.70990357 2.49596232 -7.41786211 1.99690074 -6.125 1.5 C-5.04605469 1.08234375 -5.04605469 1.08234375 -3.9453125 0.65625 C-2 0 -2 0 0 0 Z " fill="#323A86" transform="translate(112,138)"/>
<path d="M0 0 C2.64 0.33 5.28 0.66 8 1 C8.33 1.99 8.66 2.98 9 4 C7.63875 3.9690625 7.63875 3.9690625 6.25 3.9375 C3.57327412 3.9889755 1.53011948 4.2215017 -1 5 C-1 4.34 -1 3.68 -1 3 C-0.34 2.67 0.32 2.34 1 2 C0.67 1.34 0.34 0.68 0 0 Z " fill="#05623F" transform="translate(74,97)"/>
<path d="M0 0 C2.625 0.9375 2.625 0.9375 5 2 C5 2.99 5 3.98 5 5 C4.01 5.495 4.01 5.495 3 6 C3 5.01 3 4.02 3 3 C2.34 3 1.68 3 1 3 C1 3.66 1 4.32 1 5 C0.01 4.67 -0.98 4.34 -2 4 C-2 3.01 -2 2.02 -2 1 C-1.34 0.67 -0.68 0.34 0 0 Z " fill="#066740" transform="translate(34,99)"/>
<path d="M0 0 C0.556875 0.226875 1.11375 0.45375 1.6875 0.6875 C1.6875 1.6775 1.6875 2.6675 1.6875 3.6875 C-1.36513664 4.66870464 -3.25986336 4.66870464 -6.3125 3.6875 C-6.3125 4.3475 -6.3125 5.0075 -6.3125 5.6875 C-7.3025 5.3575 -8.2925 5.0275 -9.3125 4.6875 C-8.6525 4.6875 -7.9925 4.6875 -7.3125 4.6875 C-7.3125 4.0275 -7.3125 3.3675 -7.3125 2.6875 C-3.15982824 -0.42700382 -3.15982824 -0.42700382 0 0 Z " fill="#276128" transform="translate(69.3125,75.3125)"/>
<path d="M0 0 C0.763125 0.20625 1.52625 0.4125 2.3125 0.625 C0 3.125 0 3.125 -2.6875 5.625 C-3.6775 5.625 -4.6675 5.625 -5.6875 5.625 C-5.6875 4.305 -5.6875 2.985 -5.6875 1.625 C-2.6875 -0.375 -2.6875 -0.375 0 0 Z " fill="#4B529E" transform="translate(123.6875,130.375)"/>
<path d="M0 0 C0.33 0.66 0.66 1.32 1 2 C-0.06893218 3.03590338 -1.15578488 4.05333942 -2.25 5.0625 C-3.15492187 5.91521484 -3.15492187 5.91521484 -4.078125 6.78515625 C-6 8 -6 8 -8.234375 7.68359375 C-8.81703125 7.45800781 -9.3996875 7.23242188 -10 7 C-6.80331012 4.3513141 -3.60513403 2.06007659 0 0 Z " fill="#E2F8EE" transform="translate(45,126)"/>
<path d="M0 0 C2.475 0.495 2.475 0.495 5 1 C5.144375 1.763125 5.28875 2.52625 5.4375 3.3125 C5.9632594 6.08172908 5.9632594 6.08172908 7 9 C4.11562221 7.70700306 2.12780579 6.34058637 0 4 C0.66 3.67 1.32 3.34 2 3 C1.34 2.67 0.68 2.34 0 2 C0 1.34 0 0.68 0 0 Z " fill="#1A5327" transform="translate(17,34)"/>
<path d="M0 0 C-1.1875 2 -1.1875 2 -3 4 C-5.6875 4.25 -5.6875 4.25 -8 4 C-8.33 2.68 -8.66 1.36 -9 0 C-5.67465243 -1.10844919 -3.37817425 -0.84454356 0 0 Z " fill="#0D5C3B" transform="translate(97,90)"/>
<path d="M0 0 C6.875 3.75 6.875 3.75 8 6 C5.125 6.125 5.125 6.125 2 6 C1.34 5.34 0.68 4.68 0 4 C0 2.68 0 1.36 0 0 Z " fill="#DDA62B" transform="translate(32,49)"/>
<path d="M0 0 C2.5 1.125 2.5 1.125 5 3 C5.3125 6.1875 5.3125 6.1875 5 9 C4.01 9 3.02 9 2 9 C2.33 8.01 2.66 7.02 3 6 C2.34 6 1.68 6 1 6 C1 4.68 1 3.36 1 2 C0.34 1.67 -0.32 1.34 -1 1 C-0.67 0.67 -0.34 0.34 0 0 Z " fill="#286F56" transform="translate(45,22)"/>
<path d="M0 0 C0.58265625 0.23589844 1.1653125 0.47179687 1.765625 0.71484375 C-1.19720813 3.10157044 -4.17708009 5.45018085 -7.234375 7.71484375 C-7.894375 7.38484375 -8.554375 7.05484375 -9.234375 6.71484375 C-8.16721428 5.51278911 -7.07999163 4.32852042 -5.984375 3.15234375 C-5.38109375 2.49105469 -4.7778125 1.82976563 -4.15625 1.1484375 C-2.234375 -0.28515625 -2.234375 -0.28515625 0 0 Z " fill="#0E3F2C" transform="translate(35.234375,16.28515625)"/>
<path d="M0 0 C0.886875 0.309375 1.77375 0.61875 2.6875 0.9375 C5.46709155 1.8290671 8.13136375 2.49377007 11 3 C11.33 4.32 11.66 5.64 12 7 C8.80862651 6.36747553 6.48762632 5.24396936 3.75 3.5 C3.04359375 3.0565625 2.3371875 2.613125 1.609375 2.15625 C1.07828125 1.7746875 0.5471875 1.393125 0 1 C0 0.67 0 0.34 0 0 Z " fill="#325F24" transform="translate(40,54)"/>
<path d="M0 0 C1.32 0.66 2.64 1.32 4 2 C1.36 3.65 -1.28 5.3 -4 7 C-4 6.34 -4 5.68 -4 5 C-4.66 4.67 -5.32 4.34 -6 4 C-5.38125 3.896875 -4.7625 3.79375 -4.125 3.6875 C-1.63473516 3.12474627 -1.63473516 3.12474627 0 0 Z " fill="#2B8E68" transform="translate(45,122)"/>
<path d="M0 0 C0.33 1.32 0.66 2.64 1 4 C-5.625 7.125 -5.625 7.125 -9 6 C-6.03 4.02 -3.06 2.04 0 0 Z " fill="#D7EAE3" transform="translate(73,107)"/>
<path d="M0 0 C1.32 0.66 2.64 1.32 4 2 C1.51047079 4.66735273 -0.63408134 6.55746343 -4 8 C-4.33 7.01 -4.66 6.02 -5 5 C-4.175 4.54625 -3.35 4.0925 -2.5 3.625 C-1.2625 2.820625 -1.2625 2.820625 0 2 C0 1.34 0 0.68 0 0 Z " fill="#1C1307" transform="translate(23,88)"/>
<path d="M0 0 C0.66 0.33 1.32 0.66 2 1 C1.01 2.485 1.01 2.485 0 4 C-0.66 4 -1.32 4 -2 4 C-2 4.66 -2 5.32 -2 6 C-4.64 6.66 -7.28 7.32 -10 8 C-7.92141021 5.81907964 -5.78143382 4.03609531 -3.3125 2.3125 C-2.68988281 1.87550781 -2.06726562 1.43851562 -1.42578125 0.98828125 C-0.95527344 0.66214844 -0.48476563 0.33601563 0 0 Z " fill="#C69736" transform="translate(49,75)"/>
<path d="M0 0 C0 1.98 0 3.96 0 6 C-4.75 4.125 -4.75 4.125 -7 3 C-7 2.34 -7 1.68 -7 1 C-4.50935112 0.31292445 -2.62113708 0 0 0 Z " fill="#1B5E2C" transform="translate(59,60)"/>
<path d="M0 0 C6.4 0.36923077 6.4 0.36923077 9.4375 3.5625 C9.953125 4.366875 10.46875 5.17125 11 6 C6.14922412 4.88059018 3.222107 3.8665284 0 0 Z " fill="#1A5729" transform="translate(33,49)"/>
<path d="M0 0 C3.16717283 1.58358642 4.73268318 2.45263699 6.3125 5.6875 C6.539375 6.450625 6.76625 7.21375 7 8 C4.0625 6.8125 4.0625 6.8125 1 5 C0.125 2.3125 0.125 2.3125 0 0 Z " fill="#C7605D" transform="translate(137,30)"/>
<path d="M0 0 C1.33333333 0.66666667 2.66666667 1.33333333 4 2 C5.0828125 2.433125 5.0828125 2.433125 6.1875 2.875 C8 4 8 4 8.75 6.125 C8.87375 7.053125 8.87375 7.053125 9 8 C5.56247993 6.4722133 2.81046312 4.49818944 0 2 C0 1.34 0 0.68 0 0 Z " fill="#B83935" transform="translate(125,18)"/>
<path d="M0 0 C3.465 1.98 3.465 1.98 7 4 C6.01 5.485 6.01 5.485 5 7 C3.68 6.67 2.36 6.34 1 6 C0.67 4.02 0.34 2.04 0 0 Z " fill="#418A6D" transform="translate(31,126)"/>
<path d="M0 0 C2.31 0.33 4.62 0.66 7 1 C6.67 1.99 6.34 2.98 6 4 C4.35 3.67 2.7 3.34 1 3 C0.67 2.01 0.34 1.02 0 0 Z " fill="#0C6743" transform="translate(34,126)"/>
<path d="M0 0 C0.66 0 1.32 0 2 0 C2.66 1.32 3.32 2.64 4 4 C2.35 5.65 0.7 7.3 -1 9 C-1.33 7.68 -1.66 6.36 -2 5 C-1.34 5 -0.68 5 0 5 C0.33 4.01 0.66 3.02 1 2 C0.34 1.67 -0.32 1.34 -1 1 C-0.67 0.67 -0.34 0.34 0 0 Z " fill="#5B68A5" transform="translate(138,111)"/>
<path d="M0 0 C2.475 0.495 2.475 0.495 5 1 C5 1.66 5 2.32 5 3 C5.9590625 3.1546875 5.9590625 3.1546875 6.9375 3.3125 C7.618125 3.539375 8.29875 3.76625 9 4 C9.33 4.99 9.66 5.98 10 7 C5.56541027 5.6062718 3.12621626 3.39417765 0 0 Z " fill="#336127" transform="translate(59,66)"/>
<path d="M0 0 C2.03144641 0.93446535 4.03533587 1.93224776 6 3 C5.34 3.66 4.68 4.32 4 5 C1.375 4.625 1.375 4.625 -1 4 C-1.33 3.01 -1.66 2.02 -2 1 C-1.34 0.67 -0.68 0.34 0 0 Z " fill="#170D0A" transform="translate(29,59)"/>
<path d="M0 0 C2.35171131 0.59861742 4.6859378 1.26924352 7 2 C7.33 2.66 7.66 3.32 8 4 C7.34 4 6.68 4 6 4 C5.67 4.66 5.34 5.32 5 6 C3.02 4.68 1.04 3.36 -1 2 C-0.67 1.34 -0.34 0.68 0 0 Z " fill="#DEEDE9" transform="translate(54,26)"/>
<path d="M0 0 C-0.75 5.75 -0.75 5.75 -3 8 C-3.66 5.69 -4.32 3.38 -5 1 C-2 0 -2 0 0 0 Z " fill="#4C579B" transform="translate(148,100)"/>
<path d="M0 0 C0.99 0.33 1.98 0.66 3 1 C2.375 3.4375 2.375 3.4375 1 6 C-2.125 6.8125 -2.125 6.8125 -5 7 C-4.67 6.01 -4.34 5.02 -4 4 C-3.01 3.67 -2.02 3.34 -1 3 C-0.67 2.01 -0.34 1.02 0 0 Z " fill="#0C0B0C" transform="translate(17,91)"/>
<path d="M0 0 C0.66 0.33 1.32 0.66 2 1 C-0.25 3.5625 -0.25 3.5625 -3 6 C-4.32 5.67 -5.64 5.34 -7 5 C-4.69 3.35 -2.38 1.7 0 0 Z " fill="#CAE4D8" transform="translate(98,90)"/>
<path d="M0 0 C0.66 0.66 1.32 1.32 2 2 C1.34 2 0.68 2 0 2 C0.0825 2.763125 0.165 3.52625 0.25 4.3125 C0 7 0 7 -2 8.8125 C-2.66 9.204375 -3.32 9.59625 -4 10 C-3.38461538 3.47692308 -3.38461538 3.47692308 -1.4375 1.0625 C-0.7259375 0.5365625 -0.7259375 0.5365625 0 0 Z " fill="#588E76" transform="translate(31,20)"/>
<path d="M0 0 C0.99 0.33 1.98 0.66 3 1 C2.01 1.495 2.01 1.495 1 2 C1 2.66 1 3.32 1 4 C2.32 4.33 3.64 4.66 5 5 C5 5.33 5 5.66 5 6 C2.69 5.67 0.38 5.34 -2 5 C-1.34 3.35 -0.68 1.7 0 0 Z " fill="#E67975" transform="translate(90,15)"/>
<path d="M0 0 C3.81684226 1.55500981 6.19195732 4.03595495 9 7 C6.03 6.01 3.06 5.02 0 4 C0 2.68 0 1.36 0 0 Z " fill="#D67B76" transform="translate(122,14)"/>
<path d="M0 0 C3.59391114 1.33488128 6.75490696 2.96022723 10 5 C6.79937313 6.60031344 4.27728194 5.03173691 1 4 C0.67 2.68 0.34 1.36 0 0 Z " fill="#D07471" transform="translate(111,7)"/>
<path d="M0 0 C0.66 0 1.32 0 2 0 C1.42655063 2.86724686 1.1385485 3.8614515 -1 6 C-1.99 6 -2.98 6 -4 6 C-2.84826645 3.53199953 -1.95216435 1.95216435 0 0 Z " fill="#1D2D84" transform="translate(127,125)"/>
<path d="M0 0 C0.33 0.99 0.66 1.98 1 3 C-1.25 4.5625 -1.25 4.5625 -4 6 C-5.32 5.67 -6.64 5.34 -8 5 C-4.04 2.525 -4.04 2.525 0 0 Z " fill="#152270" transform="translate(94,105)"/>
<path d="M0 0 C0 0.66 0 1.32 0 2 C-2.8125 2.625 -2.8125 2.625 -6 3 C-6.99 2.34 -7.98 1.68 -9 1 C-5.64919071 -1.10976881 -3.77897651 -1.0497157 0 0 Z " fill="#CA4A44" transform="translate(107,6)"/>
<path d="M0 0 C-0.66 0 -1.32 0 -2 0 C-2 0.66 -2 1.32 -2 2 C-8.75 3.125 -8.75 3.125 -11 2 C-3.57142857 -1.57142857 -3.57142857 -1.57142857 0 0 Z " fill="#B4231F" transform="translate(62,4)"/>
<path d="M0 0 C0.66 0.33 1.32 0.66 2 1 C2.99 0.67 3.98 0.34 5 0 C3.63016497 3.16115776 3.0109362 3.9927092 0 6 C-0.66 4.68 -1.32 3.36 -2 2 C-1.34 1.34 -0.68 0.68 0 0 Z " fill="#7281B8" transform="translate(132,120)"/>
<path d="M0 0 C0.66 0.33 1.32 0.66 2 1 C1.75 2.875 1.75 2.875 1 5 C-1.0625 6.25 -1.0625 6.25 -3 7 C-3 6.34 -3 5.68 -3 5 C-3.66 4.67 -4.32 4.34 -5 4 C-3.68 4 -2.36 4 -1 4 C-0.67 2.68 -0.34 1.36 0 0 Z " fill="#100A08" transform="translate(41,76)"/>
<path d="M0 0 C2.31 0.33 4.62 0.66 7 1 C7 1.66 7 2.32 7 3 C5.35 3.33 3.7 3.66 2 4 C1.34 2.68 0.68 1.36 0 0 Z " fill="#F3A110" transform="translate(40,59)"/>
<path d="M0 0 C2.5 2.3125 2.5 2.3125 5 5 C5 5.99 5 6.98 5 8 C4.01 7.67 3.02 7.34 2 7 C0.81480735 4.56723614 0 2.71982714 0 0 Z " fill="#CF6E6F" transform="translate(133,23)"/>
<path d="M0 0 C4.455 0.99 4.455 0.99 9 2 C9 2.99 9 3.98 9 5 C4.89198233 3.81323934 3.10551666 3.10551666 0 0 Z " fill="#BE3C36" transform="translate(113,11)"/>
<path d="M0 0 C2.64 0.66 5.28 1.32 8 2 C7.01 3.485 7.01 3.485 6 5 C4.125 4.75 4.125 4.75 2 4 C0.75 1.9375 0.75 1.9375 0 0 Z " fill="#D87A74" transform="translate(98,2)"/>
<path d="M0 0 C0.66 0 1.32 0 2 0 C2 0.66 2 1.32 2 2 C3.32 2.33 4.64 2.66 6 3 C4.02 3.66 2.04 4.32 0 5 C-0.5625 3.0625 -0.5625 3.0625 -1 1 C-0.67 0.67 -0.34 0.34 0 0 Z " fill="#515EA6" transform="translate(112,135)"/>
<path d="M0 0 C0.33 1.32 0.66 2.64 1 4 C-0.98 4.99 -2.96 5.98 -5 7 C-3.75023244 3.34683329 -3.32901247 2.21934164 0 0 Z " fill="#E2EAF7" transform="translate(78,112)"/>
<path d="M0 0 C0.66 0.66 1.32 1.32 2 2 C3.32 2 4.64 2 6 2 C5.67 2.99 5.34 3.98 5 5 C1.31245243 4.50168276 -0.60490662 3.89932357 -3 1 C-2.01 0.67 -1.02 0.34 0 0 Z " fill="#CB4B4B" transform="translate(88,35)"/>
<path d="M0 0 C2.375 0.3125 2.375 0.3125 5 1 C5.66 1.99 6.32 2.98 7 4 C4.03 3.505 4.03 3.505 1 3 C0.67 2.01 0.34 1.02 0 0 Z " fill="#CA5957" transform="translate(80,32)"/>
<path d="M0 0 C0 0.66 0 1.32 0 2 C-3.3 1.67 -6.6 1.34 -10 1 C-10 0.67 -10 0.34 -10 0 C-6.33694766 -0.74926071 -3.57644848 -1.2380014 0 0 Z " fill="#1C2F8B" transform="translate(72,141)"/>
<path d="M0 0 C0.66 0.66 1.32 1.32 2 2 C1.67 2.99 1.34 3.98 1 5 C-0.32 5 -1.64 5 -3 5 C-3 4.01 -3 3.02 -3 2 C-2.01 1.34 -1.02 0.68 0 0 Z " fill="#28388F" transform="translate(117,132)"/>
<path d="M0 0 C1.65 0.33 3.3 0.66 5 1 C2.94766315 3.2477975 1.99332739 4.0022242 -1 5 C-0.67 3.35 -0.34 1.7 0 0 Z " fill="#E5EAF8" transform="translate(51,129)"/>
<path d="M0 0 C2 0 2 0 3.6875 1.25 C4.120625 1.8275 4.55375 2.405 5 3 C4.6875 5.1875 4.6875 5.1875 4 7 C3.67 6.01 3.34 5.02 3 4 C0.99983534 2.79117904 0.99983534 2.79117904 -1 2 C-0.67 1.34 -0.34 0.68 0 0 Z " fill="#0D207C" transform="translate(137,107)"/>
<path d="M0 0 C2.475 0.99 2.475 0.99 5 2 C4.01 3.485 4.01 3.485 3 5 C1.68 4.67 0.36 4.34 -1 4 C-0.67 2.68 -0.34 1.36 0 0 Z " fill="#1E1107" transform="translate(35,63)"/>
</svg>
